<svg width="24" height="24" viewBox="0 0 24 24" fill="none" xmlns="http://www.w3.org/2000/svg">
<path d="M18 8.25H6C5.17157 8.25 4.5 8.96954 4.5 9.85714V17.8929C4.5 18.7805 5.17157 19.5 6 19.5H18C18.8284 19.5 19.5 18.7805 19.5 17.8929V9.85714C19.5 8.96954 18.8284 8.25 18 8.25Z" fill="white" stroke="white" stroke-width="2" stroke-linecap="round" stroke-linejoin="round"/>
<path d="M15.75 19.5V6.16667C15.75 5.72464 15.5525 5.30072 15.2008 4.98816C14.8492 4.67559 14.3723 4.5 13.875 4.5H10.125C9.62772 4.5 9.15081 4.67559 8.79918 4.98816C8.44754 5.30072 8.25 5.72464 8.25 6.16667V19.5" stroke="white" stroke-width="2" stroke-linecap="round" stroke-linejoin="round"/>
<path fill-rule="evenodd" clip-rule="evenodd" d="M9.1821 15.4386C8.9393 15.6814 8.9393 16.0751 9.1821 16.3179C9.4249 16.5607 9.81856 16.5607 10.0614 16.3179L12 14.3793L13.9386 16.3179C14.1814 16.5607 14.5751 16.5607 14.8179 16.3179C15.0607 16.0751 15.0607 15.6814 14.8179 15.4386L12.8792 13.5L14.8179 11.5614C15.0607 11.3186 15.0607 10.9249 14.8179 10.6821C14.5751 10.4393 14.1814 10.4393 13.9386 10.6821L12 12.6207L10.0614 10.6821C9.81856 10.4393 9.42491 10.4393 9.1821 10.6821C8.9393 10.9249 8.9393 11.3186 9.1821 11.5614L11.1207 13.5L9.1821 15.4386Z" fill="#E80070"/>
</svg>
