<svg width="32" height="32" viewBox="0 0 32 32" fill="none" xmlns="http://www.w3.org/2000/svg">
<path fill-rule="evenodd" clip-rule="evenodd" d="M6.83333 25.1667C6.3731 24.7065 6.3731 23.9603 6.83333 23.5L23.5 6.83338C23.9602 6.37314 24.7064 6.37314 25.1667 6.83338C25.6269 7.29361 25.6269 8.03981 25.1667 8.50004L8.5 25.1667C8.03976 25.6269 7.29357 25.6269 6.83333 25.1667Z" fill="white"/>
<path fill-rule="evenodd" clip-rule="evenodd" d="M6.83335 6.83333C7.29359 6.3731 8.03978 6.3731 8.50002 6.83333L25.1667 23.5C25.6269 23.9602 25.6269 24.7064 25.1667 25.1667C24.7064 25.6269 23.9603 25.6269 23.5 25.1667L6.83335 8.5C6.37312 8.03976 6.37312 7.29357 6.83335 6.83333Z" fill="white"/>
</svg>
