<svg width="120" height="56" viewBox="0 0 120 56" fill="none" xmlns="http://www.w3.org/2000/svg">
<rect x="1" y="1" width="118" height="54" rx="27" fill="white"/>
<path d="M49.8224 35C49.6891 35 49.5758 34.9533 49.4824 34.86C49.3891 34.7667 49.3424 34.6467 49.3424 34.5V32.1H43.0424C42.9091 32.1 42.7958 32.0533 42.7024 31.96C42.6091 31.8667 42.5624 31.7467 42.5624 31.6V29.98C42.5624 29.8867 42.5824 29.7867 42.6224 29.68C42.6624 29.5733 42.7158 29.4733 42.7824 29.38L48.6424 21.34C48.8158 21.1133 49.0624 21 49.3824 21H51.9224C52.0558 21 52.1691 21.0467 52.2624 21.14C52.3558 21.2333 52.4024 21.3533 52.4024 21.5V29.44H54.1824C54.3424 29.44 54.4624 29.4867 54.5424 29.58C54.6358 29.6733 54.6824 29.7867 54.6824 29.92V31.6C54.6824 31.7467 54.6358 31.8667 54.5424 31.96C54.4491 32.0533 54.3358 32.1 54.2024 32.1H52.4024V34.5C52.4024 34.6467 52.3558 34.7667 52.2624 34.86C52.1691 34.9533 52.0558 35 51.9224 35H49.8224ZM45.6624 29.54H49.4024V24.28L45.6624 29.54ZM56.1051 36.68C55.9851 36.68 55.8851 36.6333 55.8051 36.54C55.7251 36.46 55.6851 36.3667 55.6851 36.26C55.6851 36.1933 55.6984 36.1267 55.7251 36.06L62.5251 19.74C62.5651 19.6333 62.6317 19.5333 62.7251 19.44C62.8317 19.3333 62.9851 19.28 63.1851 19.28H64.7251C64.8451 19.28 64.9451 19.3267 65.0251 19.42C65.1051 19.5 65.1451 19.5933 65.1451 19.7C65.1451 19.7533 65.1317 19.82 65.1051 19.9L58.2851 36.22C58.2451 36.3133 58.1717 36.4133 58.0651 36.52C57.9717 36.6267 57.8184 36.68 57.6051 36.68H56.1051ZM71.6409 35.22C70.4409 35.22 69.4342 35.0267 68.6209 34.64C67.8075 34.2533 67.1875 33.7467 66.7609 33.12C66.3475 32.4933 66.1275 31.8267 66.1009 31.12C66.1009 31 66.1409 30.9 66.2209 30.82C66.3009 30.74 66.4009 30.7 66.5209 30.7H68.7809C68.9409 30.7 69.0675 30.74 69.1609 30.82C69.2675 30.8867 69.3475 30.98 69.4009 31.1C69.5342 31.46 69.7075 31.7533 69.9209 31.98C70.1475 32.2067 70.4075 32.3733 70.7009 32.48C70.9942 32.5867 71.3075 32.64 71.6409 32.64C72.0675 32.64 72.4609 32.5533 72.8209 32.38C73.1809 32.1933 73.4675 31.9267 73.6809 31.58C73.8942 31.2333 74.0009 30.8067 74.0009 30.3C74.0009 29.86 73.9009 29.4733 73.7009 29.14C73.5009 28.8067 73.2209 28.5467 72.8609 28.36C72.5009 28.1733 72.0942 28.08 71.6409 28.08C71.2942 28.08 71.0075 28.12 70.7809 28.2C70.5675 28.28 70.3875 28.38 70.2409 28.5C70.0942 28.6067 69.9609 28.7067 69.8409 28.8C69.7209 28.88 69.5875 28.92 69.4409 28.92H67.2209C67.1009 28.92 66.9942 28.88 66.9009 28.8C66.8209 28.7067 66.7809 28.6 66.7809 28.48L67.4809 21.58C67.5075 21.3933 67.5742 21.2533 67.6809 21.16C67.8009 21.0533 67.9409 21 68.1009 21H75.8609C76.0075 21 76.1275 21.0467 76.2209 21.14C76.3142 21.2333 76.3609 21.3533 76.3609 21.5V23.1C76.3609 23.2333 76.3142 23.3467 76.2209 23.44C76.1275 23.5333 76.0075 23.58 75.8609 23.58H70.0809L69.7809 26.52C70.0475 26.3467 70.3742 26.1933 70.7609 26.06C71.1609 25.9133 71.7142 25.84 72.4209 25.84C73.0609 25.84 73.6675 25.9467 74.2409 26.16C74.8275 26.36 75.3475 26.66 75.8009 27.06C76.2542 27.46 76.6075 27.94 76.8609 28.5C77.1275 29.0467 77.2609 29.6733 77.2609 30.38C77.2609 31.34 77.0342 32.1867 76.5809 32.92C76.1275 33.64 75.4809 34.2067 74.6409 34.62C73.8009 35.02 72.8009 35.22 71.6409 35.22Z" fill="white"/>
<rect x="1" y="1" width="118" height="54" rx="27" stroke="#BFBFBF" stroke-width="2"/>
</svg>
