<svg width="120" height="56" viewBox="0 0 120 56" fill="none" xmlns="http://www.w3.org/2000/svg">
<rect width="120" height="56" rx="28" fill="#F6F6F6"/>
<path d="M48.7625 35.2C47.5892 35.2 46.5625 35.0067 45.6825 34.62C44.8025 34.22 44.1225 33.6133 43.6425 32.8C43.1625 31.9733 42.9225 30.9267 42.9225 29.66V21.5C42.9225 21.3533 42.9692 21.2333 43.0625 21.14C43.1558 21.0467 43.2758 21 43.4225 21H45.6025C45.7492 21 45.8692 21.0467 45.9625 21.14C46.0558 21.2333 46.1025 21.3533 46.1025 21.5V29.64C46.1025 30.6267 46.3358 31.36 46.8025 31.84C47.2692 32.32 47.9225 32.56 48.7625 32.56C49.5892 32.56 50.2358 32.32 50.7025 31.84C51.1692 31.36 51.4025 30.6267 51.4025 29.64V21.5C51.4025 21.3533 51.4492 21.2333 51.5425 21.14C51.6492 21.0467 51.7692 21 51.9025 21H54.1025C54.2358 21 54.3492 21.0467 54.4425 21.14C54.5358 21.2333 54.5825 21.3533 54.5825 21.5V29.66C54.5825 30.9267 54.3425 31.9733 53.8625 32.8C53.3825 33.6133 52.7092 34.22 51.8425 34.62C50.9758 35.0067 49.9492 35.2 48.7625 35.2ZM61.2584 35.2C60.4318 35.2 59.7184 35.1067 59.1184 34.92C58.5318 34.72 58.0518 34.48 57.6784 34.2C57.3184 33.92 57.0451 33.64 56.8584 33.36C56.6851 33.0667 56.5918 32.82 56.5784 32.62C56.5651 32.4733 56.6118 32.3533 56.7184 32.26C56.8251 32.1667 56.9318 32.12 57.0384 32.12H58.9784C59.0184 32.12 59.0584 32.1267 59.0984 32.14C59.1384 32.1533 59.1784 32.1867 59.2184 32.24C59.3918 32.36 59.5718 32.5 59.7584 32.66C59.9451 32.8067 60.1584 32.9333 60.3984 33.04C60.6518 33.1467 60.9651 33.2 61.3384 33.2C61.7784 33.2 62.1518 33.1133 62.4584 32.94C62.7651 32.7533 62.9184 32.4933 62.9184 32.16C62.9184 31.92 62.8451 31.72 62.6984 31.56C62.5651 31.4 62.3051 31.2533 61.9184 31.12C61.5318 30.9867 60.9584 30.84 60.1984 30.68C59.4784 30.52 58.8651 30.3067 58.3584 30.04C57.8518 29.7733 57.4718 29.44 57.2184 29.04C56.9651 28.6267 56.8384 28.1333 56.8384 27.56C56.8384 27.04 56.9984 26.54 57.3184 26.06C57.6518 25.58 58.1384 25.1867 58.7784 24.88C59.4184 24.56 60.2184 24.4 61.1784 24.4C61.9118 24.4 62.5518 24.4933 63.0984 24.68C63.6584 24.8533 64.1251 25.08 64.4984 25.36C64.8718 25.6267 65.1518 25.9067 65.3384 26.2C65.5384 26.48 65.6451 26.7267 65.6584 26.94C65.6718 27.0733 65.6318 27.1867 65.5384 27.28C65.4451 27.3733 65.3384 27.42 65.2184 27.42H63.4384C63.3718 27.42 63.3118 27.4133 63.2584 27.4C63.2051 27.3733 63.1584 27.34 63.1184 27.3C62.9584 27.1933 62.7918 27.0733 62.6184 26.94C62.4584 26.7933 62.2651 26.6667 62.0384 26.56C61.8118 26.4533 61.5184 26.4 61.1584 26.4C60.7184 26.4 60.3784 26.5 60.1384 26.7C59.9118 26.8867 59.7984 27.1267 59.7984 27.42C59.7984 27.6067 59.8584 27.78 59.9784 27.94C60.0984 28.1 60.3451 28.2467 60.7184 28.38C61.0918 28.5133 61.6584 28.6533 62.4184 28.8C63.3251 28.96 64.0451 29.2 64.5784 29.52C65.1118 29.84 65.4918 30.2133 65.7184 30.64C65.9584 31.0533 66.0784 31.5 66.0784 31.98C66.0784 32.6067 65.8918 33.1667 65.5184 33.66C65.1451 34.14 64.5984 34.52 63.8784 34.8C63.1718 35.0667 62.2984 35.2 61.2584 35.2ZM72.6383 35.2C71.1049 35.2 69.8849 34.7733 68.9783 33.92C68.0849 33.0667 67.6116 31.8267 67.5583 30.2C67.5583 30.0933 67.5583 29.9533 67.5583 29.78C67.5583 29.5933 67.5583 29.4467 67.5583 29.34C67.6116 28.3133 67.8449 27.4333 68.2583 26.7C68.6716 25.9533 69.2516 25.3867 69.9983 25C70.7449 24.6 71.6183 24.4 72.6183 24.4C73.7383 24.4 74.6716 24.6333 75.4183 25.1C76.1783 25.5533 76.7449 26.18 77.1183 26.98C77.5049 27.7667 77.6983 28.6733 77.6983 29.7V30.16C77.6983 30.2933 77.6449 30.4067 77.5383 30.5C77.4449 30.5933 77.3316 30.64 77.1983 30.64H70.6583C70.6583 30.6533 70.6583 30.68 70.6583 30.72C70.6583 30.7467 70.6583 30.7733 70.6583 30.8C70.6716 31.2267 70.7516 31.62 70.8983 31.98C71.0583 32.3267 71.2783 32.6067 71.5583 32.82C71.8516 33.0333 72.1983 33.14 72.5983 33.14C72.9316 33.14 73.2049 33.0933 73.4183 33C73.6316 32.9067 73.8049 32.7933 73.9383 32.66C74.0849 32.5267 74.1916 32.4133 74.2583 32.32C74.3783 32.1867 74.4716 32.1067 74.5383 32.08C74.6183 32.04 74.7383 32.02 74.8983 32.02H76.9783C77.1116 32.02 77.2183 32.06 77.2983 32.14C77.3916 32.2067 77.4316 32.3067 77.4183 32.44C77.4049 32.6533 77.2916 32.92 77.0783 33.24C76.8783 33.5467 76.5783 33.8533 76.1783 34.16C75.7783 34.4533 75.2783 34.7 74.6783 34.9C74.0916 35.1 73.4116 35.2 72.6383 35.2ZM70.6583 28.82H74.5783V28.78C74.5783 28.3 74.4983 27.8867 74.3383 27.54C74.1916 27.18 73.9716 26.9 73.6783 26.7C73.3849 26.5 73.0316 26.4 72.6183 26.4C72.2049 26.4 71.8516 26.5 71.5583 26.7C71.2649 26.9 71.0383 27.18 70.8783 27.54C70.7316 27.8867 70.6583 28.3 70.6583 28.78V28.82Z" fill="#131313"/>
</svg>
