<svg width="120" height="56" viewBox="0 0 120 56" fill="none" xmlns="http://www.w3.org/2000/svg">
<path d="M23.6123 35.2C22.3589 35.2 21.2923 34.9933 20.4123 34.58C19.5456 34.1533 18.8723 33.54 18.3923 32.74C17.9123 31.9267 17.6456 30.94 17.5923 29.78C17.5789 29.2333 17.5723 28.6467 17.5723 28.02C17.5723 27.3933 17.5789 26.7933 17.5923 26.22C17.6456 25.0733 17.9123 24.1 18.3923 23.3C18.8856 22.4867 19.5723 21.8667 20.4523 21.44C21.3323 21.0133 22.3856 20.8 23.6123 20.8C24.5056 20.8 25.3189 20.9133 26.0523 21.14C26.7856 21.3667 27.4189 21.6933 27.9523 22.12C28.4856 22.5467 28.8989 23.0467 29.1923 23.62C29.4856 24.1933 29.6456 24.8333 29.6723 25.54C29.6723 25.66 29.6256 25.76 29.5323 25.84C29.4523 25.92 29.3523 25.96 29.2323 25.96H26.9523C26.7923 25.96 26.6656 25.92 26.5723 25.84C26.4789 25.76 26.4056 25.6267 26.3523 25.44C26.1523 24.6533 25.8189 24.1133 25.3523 23.82C24.8856 23.5267 24.3056 23.38 23.6123 23.38C22.7856 23.38 22.1323 23.6067 21.6523 24.06C21.1723 24.5133 20.9123 25.2667 20.8723 26.32C20.8323 27.4133 20.8323 28.5333 20.8723 29.68C20.9123 30.7333 21.1723 31.4867 21.6523 31.94C22.1323 32.3933 22.7856 32.62 23.6123 32.62C24.3056 32.62 24.8856 32.4733 25.3523 32.18C25.8323 31.8733 26.1656 31.3333 26.3523 30.56C26.4056 30.36 26.4789 30.2267 26.5723 30.16C26.6656 30.08 26.7923 30.04 26.9523 30.04H29.2323C29.3523 30.04 29.4523 30.08 29.5323 30.16C29.6256 30.24 29.6723 30.34 29.6723 30.46C29.6456 31.1667 29.4856 31.8067 29.1923 32.38C28.8989 32.9533 28.4856 33.4533 27.9523 33.88C27.4189 34.3067 26.7856 34.6333 26.0523 34.86C25.3189 35.0867 24.5056 35.2 23.6123 35.2ZM36.4595 35.2C35.3528 35.2 34.4261 35.02 33.6795 34.66C32.9328 34.2867 32.3595 33.76 31.9595 33.08C31.5728 32.4 31.3595 31.6067 31.3195 30.7C31.3061 30.4333 31.2995 30.1333 31.2995 29.8C31.2995 29.4533 31.3061 29.1533 31.3195 28.9C31.3595 27.98 31.5861 27.1867 31.9995 26.52C32.4128 25.84 32.9928 25.32 33.7395 24.96C34.4861 24.5867 35.3928 24.4 36.4595 24.4C37.5128 24.4 38.4128 24.5867 39.1595 24.96C39.9061 25.32 40.4861 25.84 40.8995 26.52C41.3128 27.1867 41.5395 27.98 41.5795 28.9C41.6061 29.1533 41.6195 29.4533 41.6195 29.8C41.6195 30.1333 41.6061 30.4333 41.5795 30.7C41.5395 31.6067 41.3195 32.4 40.9195 33.08C40.5328 33.76 39.9661 34.2867 39.2195 34.66C38.4728 35.02 37.5528 35.2 36.4595 35.2ZM36.4595 33C37.1128 33 37.6061 32.8 37.9395 32.4C38.2728 31.9867 38.4528 31.3867 38.4795 30.6C38.4928 30.4 38.4995 30.1333 38.4995 29.8C38.4995 29.4667 38.4928 29.2 38.4795 29C38.4528 28.2267 38.2728 27.6333 37.9395 27.22C37.6061 26.8067 37.1128 26.6 36.4595 26.6C35.8061 26.6 35.3061 26.8067 34.9595 27.22C34.6261 27.6333 34.4461 28.2267 34.4195 29C34.4061 29.2 34.3995 29.4667 34.3995 29.8C34.3995 30.1333 34.4061 30.4 34.4195 30.6C34.4461 31.3867 34.6261 31.9867 34.9595 32.4C35.3061 32.8 35.8061 33 36.4595 33ZM44.1912 35C44.0578 35 43.9445 34.9533 43.8512 34.86C43.7578 34.7667 43.7112 34.6467 43.7112 34.5V25.1C43.7112 24.9533 43.7578 24.8333 43.8512 24.74C43.9445 24.6467 44.0578 24.6 44.1912 24.6H46.0512C46.1845 24.6 46.2978 24.6467 46.3912 24.74C46.4978 24.8333 46.5512 24.9533 46.5512 25.1V25.78C46.8178 25.4067 47.1845 25.0867 47.6512 24.82C48.1312 24.5533 48.6978 24.4133 49.3512 24.4C50.8978 24.3733 51.9578 24.96 52.5312 26.16C52.8378 25.64 53.2778 25.22 53.8512 24.9C54.4378 24.5667 55.0778 24.4 55.7712 24.4C56.4645 24.4 57.0912 24.56 57.6512 24.88C58.2112 25.1867 58.6512 25.6667 58.9712 26.32C59.3045 26.96 59.4712 27.7867 59.4712 28.8V34.5C59.4712 34.6467 59.4245 34.7667 59.3312 34.86C59.2378 34.9533 59.1245 35 58.9912 35H57.0112C56.8778 35 56.7645 34.9533 56.6712 34.86C56.5778 34.7667 56.5312 34.6467 56.5312 34.5V28.96C56.5312 28.4133 56.4512 27.9867 56.2912 27.68C56.1312 27.36 55.9178 27.1333 55.6512 27C55.3978 26.8667 55.1112 26.8 54.7912 26.8C54.5112 26.8 54.2378 26.8667 53.9712 27C53.7178 27.1333 53.5045 27.36 53.3312 27.68C53.1712 27.9867 53.0912 28.4133 53.0912 28.96V34.5C53.0912 34.6467 53.0445 34.7667 52.9512 34.86C52.8578 34.9533 52.7378 35 52.5912 35H50.6312C50.4845 35 50.3645 34.9533 50.2712 34.86C50.1778 34.7667 50.1312 34.6467 50.1312 34.5V28.96C50.1312 28.4133 50.0512 27.9867 49.8912 27.68C49.7312 27.36 49.5178 27.1333 49.2512 27C48.9978 26.8667 48.7178 26.8 48.4112 26.8C48.1312 26.8 47.8578 26.8733 47.5912 27.02C47.3245 27.1533 47.1045 27.3733 46.9312 27.68C46.7712 27.9867 46.6912 28.4067 46.6912 28.94V34.5C46.6912 34.6467 46.6445 34.7667 46.5512 34.86C46.4578 34.9533 46.3445 35 46.2112 35H44.1912ZM67.9348 35.2C67.1748 35.2 66.5414 35.0733 66.0348 34.82C65.5281 34.5533 65.1148 34.22 64.7948 33.82V34.5C64.7948 34.6467 64.7481 34.7667 64.6548 34.86C64.5614 34.9533 64.4414 35 64.2948 35H62.3948C62.2481 35 62.1281 34.9533 62.0348 34.86C61.9414 34.7667 61.8948 34.6467 61.8948 34.5V21.3C61.8948 21.1533 61.9414 21.0333 62.0348 20.94C62.1281 20.8467 62.2481 20.8 62.3948 20.8H64.4548C64.5881 20.8 64.7014 20.8467 64.7948 20.94C64.8881 21.0333 64.9348 21.1533 64.9348 21.3V25.66C65.2681 25.2867 65.6814 24.9867 66.1748 24.76C66.6681 24.52 67.2548 24.4 67.9348 24.4C68.6281 24.4 69.2281 24.52 69.7348 24.76C70.2548 24.9867 70.6948 25.3133 71.0548 25.74C71.4148 26.1533 71.6881 26.6467 71.8748 27.22C72.0748 27.7933 72.1814 28.4267 72.1948 29.12C72.2081 29.36 72.2148 29.5867 72.2148 29.8C72.2148 30 72.2081 30.2267 72.1948 30.48C72.1681 31.1867 72.0548 31.8333 71.8548 32.42C71.6681 32.9933 71.3948 33.4933 71.0348 33.92C70.6881 34.3333 70.2548 34.6533 69.7348 34.88C69.2281 35.0933 68.6281 35.2 67.9348 35.2ZM67.0348 32.8C67.5414 32.8 67.9414 32.6933 68.2348 32.48C68.5281 32.2533 68.7348 31.96 68.8548 31.6C68.9881 31.24 69.0681 30.8467 69.0948 30.42C69.1214 30.0067 69.1214 29.5933 69.0948 29.18C69.0681 28.7533 68.9881 28.36 68.8548 28C68.7348 27.64 68.5281 27.3533 68.2348 27.14C67.9414 26.9133 67.5414 26.8 67.0348 26.8C66.5548 26.8 66.1614 26.9067 65.8548 27.12C65.5614 27.3333 65.3348 27.6067 65.1748 27.94C65.0281 28.26 64.9481 28.6067 64.9348 28.98C64.9214 29.22 64.9148 29.4667 64.9148 29.72C64.9148 29.9733 64.9214 30.2267 64.9348 30.48C64.9614 30.88 65.0414 31.2533 65.1748 31.6C65.3081 31.9467 65.5281 32.2333 65.8348 32.46C66.1414 32.6867 66.5414 32.8 67.0348 32.8ZM74.8162 35C74.6828 35 74.5695 34.9533 74.4762 34.86C74.3828 34.7667 74.3362 34.6467 74.3362 34.5V25.1C74.3362 24.9533 74.3828 24.8333 74.4762 24.74C74.5695 24.6467 74.6828 24.6 74.8162 24.6H76.8162C76.9628 24.6 77.0828 24.6467 77.1762 24.74C77.2695 24.8333 77.3162 24.9533 77.3162 25.1V34.5C77.3162 34.6467 77.2695 34.7667 77.1762 34.86C77.0828 34.9533 76.9628 35 76.8162 35H74.8162ZM74.7562 23C74.6228 23 74.5095 22.9533 74.4162 22.86C74.3228 22.7667 74.2762 22.6467 74.2762 22.5V20.9C74.2762 20.7533 74.3228 20.6333 74.4162 20.54C74.5095 20.4333 74.6228 20.38 74.7562 20.38H76.8562C77.0028 20.38 77.1228 20.4333 77.2162 20.54C77.3228 20.6333 77.3762 20.7533 77.3762 20.9V22.5C77.3762 22.6467 77.3228 22.7667 77.2162 22.86C77.1228 22.9533 77.0028 23 76.8562 23H74.7562ZM80.8123 35C80.6789 35 80.5656 34.9533 80.4723 34.86C80.3789 34.7667 80.3323 34.6467 80.3323 34.5V25.1C80.3323 24.9533 80.3789 24.8333 80.4723 24.74C80.5656 24.6467 80.6789 24.6 80.8123 24.6H82.7723C82.9189 24.6 83.0389 24.6467 83.1323 24.74C83.2256 24.8333 83.2723 24.9533 83.2723 25.1V25.88C83.6189 25.4533 84.0656 25.1 84.6123 24.82C85.1589 24.54 85.8256 24.4 86.6123 24.4C87.3989 24.4 88.0856 24.58 88.6723 24.94C89.2723 25.2867 89.7389 25.8 90.0723 26.48C90.4189 27.1467 90.5923 27.96 90.5923 28.92V34.5C90.5923 34.6467 90.5389 34.7667 90.4323 34.86C90.3389 34.9533 90.2256 35 90.0923 35H87.9723C87.8256 35 87.7056 34.9533 87.6123 34.86C87.5189 34.7667 87.4723 34.6467 87.4723 34.5V29.04C87.4723 28.3333 87.2989 27.7867 86.9523 27.4C86.6189 27 86.1256 26.8 85.4723 26.8C84.8456 26.8 84.3456 27 83.9723 27.4C83.5989 27.7867 83.4123 28.3333 83.4123 29.04V34.5C83.4123 34.6467 83.3656 34.7667 83.2723 34.86C83.1789 34.9533 83.0656 35 82.9323 35H80.8123ZM97.6285 35.2C96.0952 35.2 94.8752 34.7733 93.9685 33.92C93.0752 33.0667 92.6018 31.8267 92.5485 30.2C92.5485 30.0933 92.5485 29.9533 92.5485 29.78C92.5485 29.5933 92.5485 29.4467 92.5485 29.34C92.6018 28.3133 92.8352 27.4333 93.2485 26.7C93.6618 25.9533 94.2418 25.3867 94.9885 25C95.7352 24.6 96.6085 24.4 97.6085 24.4C98.7285 24.4 99.6618 24.6333 100.409 25.1C101.169 25.5533 101.735 26.18 102.109 26.98C102.495 27.7667 102.689 28.6733 102.689 29.7V30.16C102.689 30.2933 102.635 30.4067 102.529 30.5C102.435 30.5933 102.322 30.64 102.189 30.64H95.6485C95.6485 30.6533 95.6485 30.68 95.6485 30.72C95.6485 30.7467 95.6485 30.7733 95.6485 30.8C95.6618 31.2267 95.7418 31.62 95.8885 31.98C96.0485 32.3267 96.2685 32.6067 96.5485 32.82C96.8418 33.0333 97.1885 33.14 97.5885 33.14C97.9218 33.14 98.1952 33.0933 98.4085 33C98.6218 32.9067 98.7952 32.7933 98.9285 32.66C99.0752 32.5267 99.1818 32.4133 99.2485 32.32C99.3685 32.1867 99.4618 32.1067 99.5285 32.08C99.6085 32.04 99.7285 32.02 99.8885 32.02H101.969C102.102 32.02 102.209 32.06 102.289 32.14C102.382 32.2067 102.422 32.3067 102.409 32.44C102.395 32.6533 102.282 32.92 102.069 33.24C101.869 33.5467 101.569 33.8533 101.169 34.16C100.769 34.4533 100.269 34.7 99.6685 34.9C99.0818 35.1 98.4018 35.2 97.6285 35.2ZM95.6485 28.82H99.5685V28.78C99.5685 28.3 99.4885 27.8867 99.3285 27.54C99.1818 27.18 98.9618 26.9 98.6685 26.7C98.3752 26.5 98.0218 26.4 97.6085 26.4C97.1952 26.4 96.8418 26.5 96.5485 26.7C96.2552 26.9 96.0285 27.18 95.8685 27.54C95.7218 27.8867 95.6485 28.3 95.6485 28.78V28.82Z" fill="#131313"/>
<rect x="1" y="1" width="118" height="54" rx="27" stroke="#131313" stroke-width="2"/>
</svg>
