<svg width="32" height="32" viewBox="0 0 32 32" fill="none" xmlns="http://www.w3.org/2000/svg">
<path d="M2.41422 17.4142C1.63317 16.6332 1.63317 15.3668 2.41421 14.5858L10.5858 6.41422C11.3668 5.63317 12.6332 5.63317 13.4142 6.41422L21.5858 14.5858C22.3668 15.3668 22.3668 16.6332 21.5858 17.4142L13.4142 25.5858C12.6332 26.3668 11.3668 26.3668 10.5858 25.5858L2.41422 17.4142Z" fill="#FA00A8"/>
<path fill-rule="evenodd" clip-rule="evenodd" d="M1.35355 13.5251L9.52513 5.35356C10.892 3.98672 13.108 3.98672 14.4749 5.35356L22.6464 13.5251C24.0133 14.892 24.0133 17.108 22.6464 18.4749L14.4749 26.6464C13.108 28.0133 10.892 28.0133 9.52513 26.6464L1.35355 18.4749C-0.013279 17.108 -0.0132819 14.892 1.35355 13.5251ZM2.41421 14.5858C1.63317 15.3668 1.63317 16.6332 2.41422 17.4142L10.5858 25.5858C11.3668 26.3668 12.6332 26.3668 13.4142 25.5858L21.5858 17.4142C22.3668 16.6332 22.3668 15.3668 21.5858 14.5858L13.4142 6.41422C12.6332 5.63317 11.3668 5.63317 10.5858 6.41422L2.41421 14.5858Z" fill="#131313"/>
<path d="M10.4142 17.4142C9.63317 16.6332 9.63316 15.3668 10.4142 14.5858L18.5858 6.41422C19.3668 5.63317 20.6332 5.63317 21.4142 6.41422L29.5858 14.5858C30.3668 15.3668 30.3668 16.6332 29.5858 17.4142L21.4142 25.5858C20.6332 26.3668 19.3668 26.3668 18.5858 25.5858L10.4142 17.4142Z" fill="#FA00A8"/>
<path fill-rule="evenodd" clip-rule="evenodd" d="M9.35355 13.5251L17.5251 5.35356C18.892 3.98672 21.108 3.98672 22.4749 5.35356L30.6464 13.5251C32.0133 14.892 32.0133 17.108 30.6464 18.4749L22.4749 26.6464C21.108 28.0133 18.892 28.0133 17.5251 26.6464L9.35355 18.4749C7.98672 17.108 7.98672 14.892 9.35355 13.5251ZM10.4142 14.5858C9.63316 15.3668 9.63317 16.6332 10.4142 17.4142L18.5858 25.5858C19.3668 26.3668 20.6332 26.3668 21.4142 25.5858L29.5858 17.4142C30.3668 16.6332 30.3668 15.3668 29.5858 14.5858L21.4142 6.41422C20.6332 5.63317 19.3668 5.63317 18.5858 6.41422L10.4142 14.5858Z" fill="#131313"/>
</svg>
