<svg width="32" height="32" viewBox="0 0 32 32" fill="none" xmlns="http://www.w3.org/2000/svg">
<path fill-rule="evenodd" clip-rule="evenodd" d="M18 9C18 6.79086 19.7909 5 22 5C24.2091 5 26 6.79086 26 9C26 11.2091 24.2091 13 22 13C20.8885 13 19.883 12.5467 19.1581 11.8149L13.8503 14.9123C13.9478 15.2582 14 15.623 14 16C14 16.3768 13.9479 16.7415 13.8505 17.0871L19.1613 20.1819C19.886 19.452 20.8902 19 22 19C24.2091 19 26 20.7909 26 23C26 25.2091 24.2091 27 22 27C19.7909 27 18 25.2091 18 23C18 22.6214 18.0526 22.255 18.1509 21.9079L12.8423 18.8145C12.1174 19.5465 11.1117 20 10 20C7.79086 20 6 18.2091 6 16C6 13.7909 7.79086 12 10 12C11.1115 12 12.117 12.4533 12.8419 13.1852L18.1497 10.0877C18.0522 9.74186 18 9.37702 18 9Z" fill="#4EEAFF"/>
<path fill-rule="evenodd" clip-rule="evenodd" d="M16.5 9C16.5 5.96243 18.9624 3.5 22 3.5C25.0376 3.5 27.5 5.96243 27.5 9C27.5 12.0376 25.0376 14.5 22 14.5C20.9054 14.5 19.8843 14.1792 19.0273 13.6279L15.4914 15.6914C15.4971 15.7936 15.5 15.8965 15.5 16C15.5 16.103 15.4972 16.2055 15.4915 16.3073L19.0309 18.3698C19.8871 17.8199 20.9069 17.5 22 17.5C25.0376 17.5 27.5 19.9624 27.5 23C27.5 26.0376 25.0376 28.5 22 28.5C18.9624 28.5 16.5 26.0376 16.5 23C16.5 22.8951 16.503 22.7907 16.5088 22.6871L12.9738 20.6272C12.1166 21.1789 11.0951 21.5 10 21.5C6.96243 21.5 4.5 19.0376 4.5 16C4.5 12.9624 6.96243 10.5 10 10.5C11.0946 10.5 12.1157 10.8208 12.9727 11.3721L16.5086 9.30867C16.5029 9.20641 16.5 9.10349 16.5 9ZM18.1497 10.0877L12.8419 13.1852C12.117 12.4533 11.1115 12 10 12C7.79086 12 6 13.7909 6 16C6 18.2091 7.79086 20 10 20C11.1117 20 12.1174 19.5465 12.8423 18.8145L18.1509 21.9079C18.0526 22.255 18 22.6214 18 23C18 25.2091 19.7909 27 22 27C24.2091 27 26 25.2091 26 23C26 20.7909 24.2091 19 22 19C20.8902 19 19.886 19.452 19.1613 20.1819L13.8505 17.0871C13.9479 16.7415 14 16.3768 14 16C14 15.623 13.9478 15.2582 13.8503 14.9123L19.1581 11.8149C19.883 12.5467 20.8885 13 22 13C24.2091 13 26 11.2091 26 9C26 6.79086 24.2091 5 22 5C19.7909 5 18 6.79086 18 9C18 9.37702 18.0522 9.74186 18.1497 10.0877Z" fill="#131313"/>
<path fill-rule="evenodd" clip-rule="evenodd" d="M11.726 17.0066C12.004 16.5294 12.6163 16.368 13.0935 16.646L19.9235 20.626C20.4006 20.9041 20.5621 21.5163 20.284 21.9935C20.0059 22.4707 19.3937 22.6321 18.9165 22.3541L12.0865 18.3741C11.6093 18.096 11.4479 17.4838 11.726 17.0066Z" fill="#06A3B8"/>
<path fill-rule="evenodd" clip-rule="evenodd" d="M20.2737 10.006C20.552 10.483 20.391 11.0954 19.914 11.3737L13.094 15.3537C12.617 15.6321 12.0047 15.4711 11.7263 14.9941C11.4479 14.5171 11.609 13.9047 12.086 13.6264L18.906 9.64636C19.383 9.368 19.9953 9.52902 20.2737 10.006Z" fill="#06A3B8"/>
<path fill-rule="evenodd" clip-rule="evenodd" d="M18 9C18 6.79086 19.7909 5 22 5C24.2091 5 26 6.79086 26 9C26 11.2091 24.2091 13 22 13C19.7909 13 18 11.2091 18 9Z" fill="#4EEAFF"/>
<path fill-rule="evenodd" clip-rule="evenodd" d="M6 16C6 13.7909 7.79086 12 10 12C12.2091 12 14 13.7909 14 16C14 18.2091 12.2091 20 10 20C7.79086 20 6 18.2091 6 16Z" fill="#4EEAFF"/>
<path fill-rule="evenodd" clip-rule="evenodd" d="M18 23C18 20.7909 19.7909 19 22 19C24.2091 19 26 20.7909 26 23C26 25.2091 24.2091 27 22 27C19.7909 27 18 25.2091 18 23Z" fill="#4EEAFF"/>
</svg>
