<svg width="32" height="32" viewBox="0 0 32 32" fill="none" xmlns="http://www.w3.org/2000/svg">
<path fill-rule="evenodd" clip-rule="evenodd" d="M10.4706 5.52938C9.31407 6.68593 9.31407 8.56108 10.4706 9.71763L11.3681 10.6151L15.5563 14.8034L19.7446 10.6151L20.6421 9.71763C21.7986 8.56108 21.7986 6.68593 20.6421 5.52938C19.4855 4.37283 17.6104 4.37283 16.4538 5.52938L15.5563 6.42686L14.6589 5.52938C13.5023 4.37283 11.6272 4.37283 10.4706 5.52938ZM20.6421 26.4706C21.7986 25.3141 21.7986 23.4389 20.6421 22.2824L19.7446 21.3849L15.5563 17.1966L11.3681 21.3849L10.4706 22.2824C9.31407 23.4389 9.31407 25.3141 10.4706 26.4706C11.6272 27.6272 13.5023 27.6272 14.6589 26.4706L15.5563 25.5731L16.4538 26.4706C17.6104 27.6272 19.4855 27.6272 20.6421 26.4706ZM9.27398 21.0857C8.11743 22.2423 6.24228 22.2423 5.08573 21.0857C3.92918 19.9292 3.92918 18.054 5.08573 16.8975L5.98321 16L5.08573 15.1025C3.92918 13.946 3.92918 12.0708 5.08573 10.9143C6.24228 9.75772 8.11742 9.75772 9.27398 10.9143L10.1715 11.8118L14.3597 16L10.1715 20.1882L9.27398 21.0857ZM26.027 10.9143C24.8704 9.75772 22.9953 9.75772 21.8387 10.9143L20.9412 11.8118L16.753 16L20.9412 20.1882L21.8387 21.0857C22.9953 22.2423 24.8704 22.2423 26.027 21.0857C27.1835 19.9292 27.1835 18.054 26.027 16.8975L25.1295 16L26.027 15.1025C27.1835 13.946 27.1835 12.0708 26.027 10.9143Z" fill="#54FA80"/>
<path fill-rule="evenodd" clip-rule="evenodd" d="M8.22723 23.3291C6.76726 23.6802 5.16462 23.2859 4.02507 22.1464C2.33612 20.4574 2.28436 17.7513 3.86979 16C2.28437 14.2487 2.33612 11.5426 4.02507 9.85361C5.16462 8.71405 6.76726 8.31981 8.22723 8.67088C7.87616 7.21091 8.2704 5.60828 9.40996 4.46872C11.0989 2.77978 13.8051 2.72802 15.5563 4.31344C17.3076 2.72802 20.0138 2.77978 21.7027 4.46872C22.8423 5.60828 23.2365 7.21091 22.8855 8.67088C24.3454 8.31981 25.9481 8.71405 27.0876 9.85361C28.7766 11.5426 28.8283 14.2487 27.2429 16C28.8283 17.7513 28.7766 20.4574 27.0876 22.1464C25.9481 23.2859 24.3454 23.6802 22.8855 23.3291C23.2365 24.7891 22.8423 26.3917 21.7027 27.5313C20.0138 29.2202 17.3076 29.272 15.5563 27.6866C13.8051 29.272 11.0989 29.2202 9.40996 27.5313C8.2704 26.3917 7.87616 24.7891 8.22723 23.3291ZM14.6589 26.4706L15.5563 25.5731L16.4538 26.4706C17.6104 27.6272 19.4855 27.6272 20.6421 26.4706C21.7986 25.3141 21.7986 23.4389 20.6421 22.2824L15.5563 17.1966L10.4706 22.2824C9.31406 23.4389 9.31406 25.3141 10.4706 26.4706C11.6272 27.6272 13.5023 27.6272 14.6589 26.4706ZM9.27398 10.9143C8.11742 9.75772 6.24228 9.75772 5.08573 10.9143C3.92917 12.0708 3.92918 13.946 5.08573 15.1025L5.98321 16L5.08573 16.8975C3.92917 18.054 3.92917 19.9292 5.08573 21.0857C6.24228 22.2423 8.11742 22.2423 9.27398 21.0857L14.3597 16L9.27398 10.9143ZM10.4706 9.71763C9.31407 8.56108 9.31407 6.68593 10.4706 5.52938C11.6272 4.37283 13.5023 4.37283 14.6589 5.52938L15.5563 6.42686L16.4538 5.52938C17.6104 4.37283 19.4855 4.37283 20.6421 5.52938C21.7986 6.68593 21.7986 8.56108 20.6421 9.71763L15.5563 14.8034L10.4706 9.71763ZM21.8387 10.9143C22.9953 9.75772 24.8704 9.75772 26.027 10.9143C27.1835 12.0708 27.1835 13.946 26.027 15.1025L25.1295 16L26.027 16.8975C27.1835 18.054 27.1835 19.9292 26.027 21.0857C24.8704 22.2423 22.9953 22.2423 21.8387 21.0857L16.753 16L21.8387 10.9143Z" fill="#131313"/>
</svg>
