<svg width="24" height="24" viewBox="0 0 24 24" fill="none" xmlns="http://www.w3.org/2000/svg">
<path fill-rule="evenodd" clip-rule="evenodd" d="M4.5 6C4.5 5.17157 5.17157 4.5 6 4.5H14.25C15.0784 4.5 15.75 5.17157 15.75 6V7.5H10.5C8.84315 7.5 7.5 8.84315 7.5 10.5V15.75H6C5.17157 15.75 4.5 15.0784 4.5 14.25V6ZM7.5 17.25H6C4.34314 17.25 3 15.9069 3 14.25V6C3 4.34315 4.34315 3 6 3H14.25C15.9069 3 17.25 4.34315 17.25 6V7.5H18C19.6569 7.5 21 8.84315 21 10.5V18C21 19.6569 19.6569 21 18 21H10.5C8.84315 21 7.5 19.6569 7.5 18V17.25ZM9 10.5C9 9.67157 9.67157 9 10.5 9H18C18.8284 9 19.5 9.67157 19.5 10.5V18C19.5 18.8284 18.8284 19.5 18 19.5H10.5C9.67157 19.5 9 18.8284 9 18V10.5Z" fill="#131313"/>
</svg>
