<svg width="144" height="68" viewBox="0 0 144 68" fill="none" xmlns="http://www.w3.org/2000/svg">
<rect x="0.5" y="0.5" width="143" height="67" rx="15.5" fill="white"/>
<path d="M43.5855 42C43.4255 42 43.2815 41.944 43.1535 41.832C43.0415 41.72 42.9855 41.576 42.9855 41.4V29.976L39.6975 32.496C39.5535 32.608 39.4015 32.648 39.2415 32.616C39.0975 32.584 38.9695 32.496 38.8575 32.352L37.4415 30.504C37.3455 30.36 37.3055 30.208 37.3215 30.048C37.3535 29.872 37.4495 29.736 37.6095 29.64L43.1295 25.368C43.2255 25.304 43.3135 25.264 43.3935 25.248C43.4895 25.216 43.5935 25.2 43.7055 25.2H46.7055C46.8655 25.2 47.0015 25.256 47.1135 25.368C47.2415 25.48 47.3055 25.624 47.3055 25.8V41.4C47.3055 41.576 47.2415 41.72 47.1135 41.832C47.0015 41.944 46.8655 42 46.7055 42H43.5855ZM56.5472 42.264C55.0432 42.264 53.7872 42.032 52.7792 41.568C51.7712 41.088 51.0032 40.472 50.4752 39.72C49.9632 38.952 49.6912 38.128 49.6592 37.248C49.6592 37.104 49.7072 36.984 49.8032 36.888C49.8992 36.792 50.0192 36.744 50.1632 36.744H53.3792C53.5872 36.744 53.7472 36.792 53.8592 36.888C53.9872 36.968 54.0832 37.072 54.1472 37.2C54.2912 37.568 54.4752 37.872 54.6992 38.112C54.9392 38.352 55.2112 38.528 55.5152 38.64C55.8352 38.752 56.1872 38.808 56.5712 38.808C57.0192 38.808 57.4352 38.712 57.8192 38.52C58.2032 38.328 58.5072 38.048 58.7312 37.68C58.9712 37.296 59.0912 36.84 59.0912 36.312C59.0912 35.832 58.9792 35.416 58.7552 35.064C58.5472 34.712 58.2512 34.432 57.8672 34.224C57.4832 34.016 57.0512 33.912 56.5712 33.912C56.1872 33.912 55.8752 33.96 55.6352 34.056C55.3952 34.136 55.1952 34.24 55.0352 34.368C54.8752 34.496 54.7312 34.608 54.6032 34.704C54.4752 34.784 54.3312 34.824 54.1712 34.824H51.0272C50.8832 34.824 50.7552 34.776 50.6432 34.68C50.5472 34.568 50.4992 34.44 50.4992 34.296L51.3632 25.92C51.3952 25.68 51.4832 25.504 51.6272 25.392C51.7712 25.264 51.9472 25.2 52.1552 25.2H61.7792C61.9552 25.2 62.0992 25.256 62.2112 25.368C62.3232 25.48 62.3792 25.624 62.3792 25.8V28.056C62.3792 28.232 62.3232 28.376 62.2112 28.488C62.0992 28.6 61.9552 28.656 61.7792 28.656H54.8192L54.5072 31.776C54.8592 31.536 55.2672 31.344 55.7312 31.2C56.2112 31.04 56.8592 30.96 57.6752 30.96C58.4432 30.96 59.1712 31.088 59.8592 31.344C60.5632 31.6 61.1872 31.968 61.7312 32.448C62.2912 32.928 62.7232 33.504 63.0272 34.176C63.3472 34.832 63.5072 35.576 63.5072 36.408C63.5072 37.544 63.2272 38.552 62.6672 39.432C62.1232 40.312 61.3312 41.008 60.2912 41.52C59.2512 42.016 58.0032 42.264 56.5472 42.264ZM65.4868 44.016C65.3588 44.016 65.2468 43.968 65.1508 43.872C65.0548 43.776 65.0068 43.664 65.0068 43.536C65.0068 43.456 65.0308 43.36 65.0788 43.248L73.2868 23.568C73.3348 23.472 73.3988 23.376 73.4788 23.28C73.5748 23.184 73.7188 23.136 73.9108 23.136H74.8468C74.9748 23.136 75.0868 23.184 75.1828 23.28C75.2788 23.376 75.3268 23.488 75.3268 23.616C75.3268 23.68 75.3108 23.776 75.2788 23.904L67.0468 43.584C67.0148 43.664 66.9428 43.752 66.8308 43.848C66.7348 43.96 66.5988 44.016 66.4228 44.016H65.4868ZM77.5455 42C77.3695 42 77.2175 41.944 77.0895 41.832C76.9775 41.72 76.9215 41.576 76.9215 41.4V39.696C76.9215 39.584 76.9535 39.416 77.0175 39.192C77.0815 38.952 77.2495 38.728 77.5215 38.52L80.0175 36.072C81.2975 35.096 82.3455 34.272 83.1615 33.6C83.9935 32.912 84.6095 32.304 85.0095 31.776C85.4095 31.248 85.6095 30.752 85.6095 30.288C85.6095 29.744 85.4655 29.296 85.1775 28.944C84.9055 28.576 84.4255 28.392 83.7375 28.392C83.2735 28.392 82.8815 28.496 82.5615 28.704C82.2575 28.896 82.0255 29.152 81.8655 29.472C81.7055 29.792 81.5935 30.12 81.5295 30.456C81.4655 30.664 81.3535 30.808 81.1935 30.888C81.0495 30.968 80.8895 31.008 80.7135 31.008H77.7135C77.5695 31.008 77.4495 30.96 77.3535 30.864C77.2575 30.768 77.2095 30.648 77.2095 30.504C77.2255 29.736 77.3855 29.016 77.6895 28.344C78.0095 27.672 78.4495 27.08 79.0095 26.568C79.5855 26.04 80.2655 25.632 81.0495 25.344C81.8495 25.056 82.7455 24.912 83.7375 24.912C85.0975 24.912 86.2495 25.128 87.1935 25.56C88.1535 25.992 88.8815 26.6 89.3775 27.384C89.8735 28.152 90.1215 29.056 90.1215 30.096C90.1215 30.88 89.9455 31.616 89.5935 32.304C89.2575 32.976 88.7695 33.624 88.1295 34.248C87.5055 34.856 86.7615 35.488 85.8975 36.144L83.6895 38.376H89.8575C90.0335 38.376 90.1775 38.432 90.2895 38.544C90.4175 38.656 90.4815 38.8 90.4815 38.976V41.4C90.4815 41.576 90.4175 41.72 90.2895 41.832C90.1775 41.944 90.0335 42 89.8575 42H77.5455ZM99.2269 42.264C97.7229 42.264 96.4669 42.032 95.4589 41.568C94.4509 41.088 93.6829 40.472 93.1549 39.72C92.6429 38.952 92.3709 38.128 92.3389 37.248C92.3389 37.104 92.3869 36.984 92.4829 36.888C92.5789 36.792 92.6989 36.744 92.8429 36.744H96.0589C96.2669 36.744 96.4269 36.792 96.5389 36.888C96.6669 36.968 96.7629 37.072 96.8269 37.2C96.9709 37.568 97.1549 37.872 97.3789 38.112C97.6189 38.352 97.8909 38.528 98.1949 38.64C98.5149 38.752 98.8669 38.808 99.2509 38.808C99.6989 38.808 100.115 38.712 100.499 38.52C100.883 38.328 101.187 38.048 101.411 37.68C101.651 37.296 101.771 36.84 101.771 36.312C101.771 35.832 101.659 35.416 101.435 35.064C101.227 34.712 100.931 34.432 100.547 34.224C100.163 34.016 99.7309 33.912 99.2509 33.912C98.8669 33.912 98.5549 33.96 98.3149 34.056C98.0749 34.136 97.8749 34.24 97.7149 34.368C97.5549 34.496 97.4109 34.608 97.2829 34.704C97.1549 34.784 97.0109 34.824 96.8509 34.824H93.7069C93.5629 34.824 93.4349 34.776 93.3229 34.68C93.2269 34.568 93.1789 34.44 93.1789 34.296L94.0429 25.92C94.0749 25.68 94.1629 25.504 94.3069 25.392C94.4509 25.264 94.6269 25.2 94.8349 25.2H104.459C104.635 25.2 104.779 25.256 104.891 25.368C105.003 25.48 105.059 25.624 105.059 25.8V28.056C105.059 28.232 105.003 28.376 104.891 28.488C104.779 28.6 104.635 28.656 104.459 28.656H97.4989L97.1869 31.776C97.5389 31.536 97.9469 31.344 98.4109 31.2C98.8909 31.04 99.5389 30.96 100.355 30.96C101.123 30.96 101.851 31.088 102.539 31.344C103.243 31.6 103.867 31.968 104.411 32.448C104.971 32.928 105.403 33.504 105.707 34.176C106.027 34.832 106.187 35.576 106.187 36.408C106.187 37.544 105.907 38.552 105.347 39.432C104.803 40.312 104.011 41.008 102.971 41.52C101.931 42.016 100.683 42.264 99.2269 42.264Z" fill="white"/>
<rect x="0.5" y="0.5" width="143" height="67" rx="15.5" stroke="#131313"/>
</svg>
