<svg width="41" height="40" viewBox="0 0 41 40" fill="none" xmlns="http://www.w3.org/2000/svg">
<rect x="0.847778" y="-0.00012207" width="40" height="40" rx="12" fill="#A06FE9"/>
<path fill-rule="evenodd" clip-rule="evenodd" d="M18.9916 11.4471C15.3281 12.2385 12.5184 15.3239 12.141 19.1249H16.5108C16.7021 16.3682 17.5595 13.7183 18.9916 11.4471ZM22.7039 11.4471C24.136 13.7183 24.9934 16.3682 25.1847 19.1249H29.5546C29.1772 15.3239 26.3675 12.2385 22.7039 11.4471ZM23.4301 19.1249C23.2237 16.4571 22.3231 13.9198 20.8478 11.8156C19.3724 13.9198 18.4719 16.4571 18.2655 19.1249H23.4301ZM18.2655 20.8749H23.4301C23.2237 23.5426 22.3231 26.0799 20.8478 28.1842C19.3724 26.0799 18.4719 23.5426 18.2655 20.8749ZM16.5108 20.8749H12.141C12.5184 24.6759 15.3281 27.7613 18.9916 28.5526C17.5595 26.2814 16.7021 23.6316 16.5108 20.8749ZM22.7039 28.5526C24.136 26.2814 24.9934 23.6316 25.1847 20.8749H29.5546C29.1772 24.6759 26.3675 27.7613 22.7039 28.5526ZM20.8508 30.4999C26.6484 30.4982 31.3478 25.7979 31.3478 19.9999C31.3478 14.2009 26.6468 9.49988 20.8478 9.49988C15.0488 9.49988 10.3478 14.2009 10.3478 19.9999C10.3478 25.7979 15.0471 30.4982 20.8447 30.4999C20.8457 30.4999 20.8468 30.4999 20.8478 30.4999C20.8488 30.4999 20.8498 30.4999 20.8508 30.4999Z" fill="#131313"/>
</svg>
