<svg width="68" height="56" viewBox="0 0 68 56" fill="none" xmlns="http://www.w3.org/2000/svg">
<rect width="68" height="56" rx="12" fill="#131313"/>
<path d="M20.0937 33.14C19.2257 33.14 18.4883 32.9907 17.8817 32.692C17.2843 32.384 16.827 31.95 16.5097 31.39C16.1923 30.8207 16.015 30.1393 15.9777 29.346C15.9683 28.9633 15.9637 28.5527 15.9637 28.114C15.9637 27.6753 15.9683 27.2553 15.9777 26.854C16.015 26.07 16.1923 25.3933 16.5097 24.824C16.8363 24.2547 17.2983 23.8207 17.8957 23.522C18.5023 23.214 19.235 23.06 20.0937 23.06C20.7283 23.06 21.2977 23.144 21.8017 23.312C22.3057 23.48 22.735 23.7133 23.0897 24.012C23.4443 24.3013 23.7197 24.642 23.9157 25.034C24.1117 25.426 24.2143 25.8507 24.2237 26.308C24.233 26.392 24.205 26.462 24.1397 26.518C24.0837 26.574 24.0137 26.602 23.9297 26.602H22.5997C22.497 26.602 22.413 26.5787 22.3477 26.532C22.2823 26.476 22.2357 26.3873 22.2077 26.266C22.0583 25.65 21.8017 25.23 21.4377 25.006C21.0737 24.782 20.621 24.67 20.0797 24.67C19.4543 24.67 18.955 24.8473 18.5817 25.202C18.2083 25.5473 18.0077 26.1213 17.9797 26.924C17.9517 27.6893 17.9517 28.4733 17.9797 29.276C18.0077 30.0787 18.2083 30.6573 18.5817 31.012C18.955 31.3573 19.4543 31.53 20.0797 31.53C20.621 31.53 21.0737 31.418 21.4377 31.194C21.811 30.9607 22.0677 30.5407 22.2077 29.934C22.2357 29.8033 22.2823 29.7147 22.3477 29.668C22.413 29.6213 22.497 29.598 22.5997 29.598H23.9297C24.0137 29.598 24.0837 29.626 24.1397 29.682C24.205 29.738 24.233 29.808 24.2237 29.892C24.2143 30.3493 24.1117 30.774 23.9157 31.166C23.7197 31.558 23.4443 31.9033 23.0897 32.202C22.735 32.4913 22.3057 32.72 21.8017 32.888C21.2977 33.056 20.7283 33.14 20.0937 33.14ZM29.65 33.14C28.8193 33.14 28.1053 33.0047 27.508 32.734C26.9107 32.454 26.444 32.0293 26.108 31.46C25.772 30.8813 25.59 30.1627 25.562 29.304C25.5527 28.9027 25.548 28.506 25.548 28.114C25.548 27.722 25.5527 27.3207 25.562 26.91C25.59 26.0607 25.7767 25.3513 26.122 24.782C26.4673 24.2127 26.9387 23.7833 27.536 23.494C28.1427 23.2047 28.8473 23.06 29.65 23.06C30.4527 23.06 31.1573 23.2047 31.764 23.494C32.3707 23.7833 32.8467 24.2127 33.192 24.782C33.5373 25.3513 33.724 26.0607 33.752 26.91C33.7707 27.3207 33.78 27.722 33.78 28.114C33.78 28.506 33.7707 28.9027 33.752 29.304C33.724 30.1627 33.542 30.8813 33.206 31.46C32.87 32.0293 32.3987 32.454 31.792 32.734C31.1947 33.0047 30.4807 33.14 29.65 33.14ZM29.65 31.53C30.2567 31.53 30.7513 31.3527 31.134 30.998C31.5167 30.634 31.722 30.046 31.75 29.234C31.7687 28.8233 31.778 28.4453 31.778 28.1C31.778 27.7453 31.7687 27.3673 31.75 26.966C31.7313 26.4247 31.6287 25.986 31.442 25.65C31.2647 25.3047 31.022 25.0573 30.714 24.908C30.406 24.7493 30.0513 24.67 29.65 24.67C29.258 24.67 28.908 24.7493 28.6 24.908C28.292 25.0573 28.0447 25.3047 27.858 25.65C27.6807 25.986 27.5827 26.4247 27.564 26.966C27.5547 27.3673 27.55 27.7453 27.55 28.1C27.55 28.4453 27.5547 28.8233 27.564 29.234C27.592 30.046 27.7973 30.634 28.18 30.998C28.5627 31.3527 29.0527 31.53 29.65 31.53ZM35.9544 33C35.861 33 35.7817 32.9673 35.7164 32.902C35.651 32.8367 35.6184 32.7573 35.6184 32.664V23.55C35.6184 23.4473 35.651 23.3633 35.7164 23.298C35.7817 23.2327 35.861 23.2 35.9544 23.2H39.7064C40.4344 23.2 41.069 23.3167 41.6104 23.55C42.1517 23.774 42.5717 24.1193 42.8704 24.586C43.169 25.0433 43.3184 25.6173 43.3184 26.308C43.3184 27.008 43.169 27.5867 42.8704 28.044C42.5717 28.492 42.1517 28.828 41.6104 29.052C41.069 29.276 40.4344 29.388 39.7064 29.388H37.6204V32.664C37.6204 32.7573 37.5877 32.8367 37.5224 32.902C37.4664 32.9673 37.387 33 37.2844 33H35.9544ZM37.5924 27.834H39.6364C40.1777 27.834 40.593 27.708 40.8824 27.456C41.1717 27.1947 41.3164 26.812 41.3164 26.308C41.3164 25.8413 41.181 25.468 40.9104 25.188C40.6397 24.8987 40.215 24.754 39.6364 24.754H37.5924V27.834ZM47.4854 33C47.3921 33 47.3128 32.9673 47.2474 32.902C47.1821 32.8367 47.1494 32.7573 47.1494 32.664V29.5L43.8454 23.648C43.8361 23.6293 43.8268 23.606 43.8174 23.578C43.8081 23.55 43.8034 23.522 43.8034 23.494C43.8034 23.41 43.8314 23.34 43.8874 23.284C43.9434 23.228 44.0088 23.2 44.0834 23.2H45.3294C45.4414 23.2 45.5301 23.228 45.5954 23.284C45.6701 23.34 45.7214 23.4007 45.7494 23.466L48.1294 27.54L50.4954 23.466C50.5328 23.4007 50.5841 23.34 50.6494 23.284C50.7241 23.228 50.8174 23.2 50.9294 23.2H52.1614C52.2454 23.2 52.3154 23.228 52.3714 23.284C52.4274 23.34 52.4554 23.41 52.4554 23.494C52.4554 23.522 52.4508 23.55 52.4414 23.578C52.4414 23.606 52.4321 23.6293 52.4134 23.648L49.1094 29.5V32.664C49.1094 32.7573 49.0768 32.8367 49.0114 32.902C48.9461 32.9673 48.8621 33 48.7594 33H47.4854Z" fill="#4EEAFF"/>
</svg>
