<svg width="332" height="96" viewBox="0 0 332 96" fill="none" xmlns="http://www.w3.org/2000/svg">
<rect width="332" height="96" rx="24" fill="#54FA80"/>
<path d="M19.28 33C19.1413 33 19.0293 32.9627 18.944 32.888C18.8693 32.8133 18.816 32.7067 18.784 32.568L16.72 22.296C16.7093 22.2533 16.704 22.216 16.704 22.184C16.704 22.152 16.704 22.1307 16.704 22.12C16.704 22.0347 16.736 21.96 16.8 21.896C16.864 21.832 16.9387 21.8 17.024 21.8H17.856C18.08 21.8 18.208 21.8907 18.24 22.072L19.872 30.328L21.6 24.664C21.632 24.568 21.6853 24.4827 21.76 24.408C21.8453 24.3227 21.9627 24.28 22.112 24.28H22.704C22.864 24.28 22.9813 24.3227 23.056 24.408C23.1307 24.4827 23.1787 24.568 23.2 24.664L24.944 30.328L26.56 22.072C26.592 21.8907 26.7253 21.8 26.96 21.8H27.792C27.8773 21.8 27.952 21.832 28.016 21.896C28.08 21.96 28.112 22.0347 28.112 22.12C28.112 22.1307 28.1067 22.152 28.096 22.184C28.096 22.216 28.096 22.2533 28.096 22.296L26.032 32.568C26 32.7067 25.9413 32.8133 25.856 32.888C25.7813 32.9627 25.6747 33 25.536 33H24.912C24.7627 33 24.6453 32.9627 24.56 32.888C24.4747 32.8133 24.416 32.7173 24.384 32.6L22.4 26.504L20.432 32.6C20.3893 32.7173 20.3253 32.8133 20.24 32.888C20.1653 32.9627 20.0533 33 19.904 33H19.28ZM31.9571 33.16C31.4238 33.16 30.9385 33.0533 30.5011 32.84C30.0638 32.6267 29.7118 32.3387 29.4451 31.976C29.1785 31.6133 29.0451 31.2027 29.0451 30.744C29.0451 30.008 29.3438 29.4213 29.9411 28.984C30.5385 28.5467 31.3171 28.2587 32.2771 28.12L34.6611 27.784V27.32C34.6611 26.808 34.5118 26.408 34.2131 26.12C33.9251 25.832 33.4505 25.688 32.7891 25.688C32.3198 25.688 31.9358 25.784 31.6371 25.976C31.3385 26.168 31.1305 26.4133 31.0131 26.712C30.9491 26.872 30.8371 26.952 30.6771 26.952H29.9571C29.8398 26.952 29.7491 26.92 29.6851 26.856C29.6318 26.7813 29.6051 26.696 29.6051 26.6C29.6051 26.44 29.6638 26.2427 29.7811 26.008C29.9091 25.7733 30.1011 25.544 30.3571 25.32C30.6131 25.096 30.9385 24.9093 31.3331 24.76C31.7385 24.6 32.2291 24.52 32.8051 24.52C33.4451 24.52 33.9838 24.6053 34.4211 24.776C34.8585 24.936 35.1998 25.1547 35.4451 25.432C35.7011 25.7093 35.8825 26.024 35.9891 26.376C36.1065 26.728 36.1651 27.0853 36.1651 27.448V32.632C36.1651 32.7387 36.1278 32.8293 36.0531 32.904C35.9891 32.968 35.9038 33 35.7971 33H35.0611C34.9438 33 34.8531 32.968 34.7891 32.904C34.7251 32.8293 34.6931 32.7387 34.6931 32.632V31.944C34.5545 32.136 34.3678 32.328 34.1331 32.52C33.8985 32.7013 33.6051 32.856 33.2531 32.984C32.9011 33.1013 32.4691 33.16 31.9571 33.16ZM32.2931 31.96C32.7305 31.96 33.1305 31.8693 33.4931 31.688C33.8558 31.496 34.1385 31.2027 34.3411 30.808C34.5545 30.4133 34.6611 29.9173 34.6611 29.32V28.872L32.8051 29.144C32.0478 29.2507 31.4771 29.432 31.0931 29.688C30.7091 29.9333 30.5171 30.248 30.5171 30.632C30.5171 30.9307 30.6025 31.1813 30.7731 31.384C30.9545 31.576 31.1785 31.72 31.4451 31.816C31.7225 31.912 32.0051 31.96 32.2931 31.96ZM38.8493 33C38.7426 33 38.6519 32.968 38.5773 32.904C38.5133 32.8293 38.4813 32.7387 38.4813 32.632V22.008C38.4813 21.9013 38.5133 21.816 38.5773 21.752C38.6519 21.6773 38.7426 21.64 38.8493 21.64H39.6013C39.7186 21.64 39.8093 21.6773 39.8733 21.752C39.9373 21.816 39.9693 21.9013 39.9693 22.008V32.632C39.9693 32.7387 39.9373 32.8293 39.8733 32.904C39.8093 32.968 39.7186 33 39.6013 33H38.8493ZM42.7399 33C42.6332 33 42.5425 32.968 42.4679 32.904C42.4039 32.8293 42.3719 32.7387 42.3719 32.632V22.008C42.3719 21.9013 42.4039 21.816 42.4679 21.752C42.5425 21.6773 42.6332 21.64 42.7399 21.64H43.4919C43.6092 21.64 43.6999 21.6773 43.7639 21.752C43.8279 21.816 43.8599 21.9013 43.8599 22.008V32.632C43.8599 32.7387 43.8279 32.8293 43.7639 32.904C43.6999 32.968 43.6092 33 43.4919 33H42.7399ZM49.5745 33.16C48.4652 33.16 47.5852 32.824 46.9345 32.152C46.2838 31.4693 45.9265 30.5413 45.8625 29.368C45.8518 29.2293 45.8465 29.0533 45.8465 28.84C45.8465 28.616 45.8518 28.4347 45.8625 28.296C45.9052 27.5387 46.0812 26.8773 46.3905 26.312C46.6998 25.736 47.1212 25.2933 47.6545 24.984C48.1985 24.6747 48.8332 24.52 49.5585 24.52C50.3692 24.52 51.0465 24.6907 51.5905 25.032C52.1452 25.3733 52.5665 25.8587 52.8545 26.488C53.1425 27.1173 53.2865 27.8533 53.2865 28.696V28.968C53.2865 29.0853 53.2492 29.176 53.1745 29.24C53.1105 29.304 53.0252 29.336 52.9185 29.336H47.3825C47.3825 29.3467 47.3825 29.368 47.3825 29.4C47.3825 29.432 47.3825 29.4587 47.3825 29.48C47.4038 29.9173 47.4998 30.328 47.6705 30.712C47.8412 31.0853 48.0865 31.3893 48.4065 31.624C48.7372 31.8587 49.1212 31.976 49.5585 31.976C49.9425 31.976 50.2625 31.9173 50.5185 31.8C50.7745 31.6827 50.9825 31.5547 51.1425 31.416C51.3025 31.2667 51.4092 31.1493 51.4625 31.064C51.5585 30.936 51.6332 30.8613 51.6865 30.84C51.7398 30.808 51.8252 30.792 51.9425 30.792H52.7265C52.8225 30.792 52.9025 30.824 52.9665 30.888C53.0412 30.9413 53.0732 31.0213 53.0625 31.128C53.0518 31.288 52.9665 31.4853 52.8065 31.72C52.6465 31.944 52.4172 32.168 52.1185 32.392C51.8305 32.616 51.4678 32.8027 51.0305 32.952C50.6038 33.0907 50.1185 33.16 49.5745 33.16ZM47.3825 28.232H51.7665V28.184C51.7665 27.704 51.6758 27.2773 51.4945 26.904C51.3238 26.5307 51.0732 26.2373 50.7425 26.024C50.4118 25.8 50.0172 25.688 49.5585 25.688C49.0998 25.688 48.7052 25.8 48.3745 26.024C48.0545 26.2373 47.8092 26.5307 47.6385 26.904C47.4678 27.2773 47.3825 27.704 47.3825 28.184V28.232ZM58.4008 33C57.8034 33 57.3181 32.888 56.9448 32.664C56.5714 32.4293 56.2994 32.104 56.1288 31.688C55.9581 31.2613 55.8728 30.76 55.8728 30.184V25.96H54.6248C54.5181 25.96 54.4274 25.928 54.3528 25.864C54.2888 25.7893 54.2568 25.6987 54.2568 25.592V25.048C54.2568 24.9413 54.2888 24.856 54.3528 24.792C54.4274 24.7173 54.5181 24.68 54.6248 24.68H55.8728V22.008C55.8728 21.9013 55.9048 21.816 55.9688 21.752C56.0434 21.6773 56.1341 21.64 56.2408 21.64H56.9928C57.0994 21.64 57.1848 21.6773 57.2488 21.752C57.3234 21.816 57.3608 21.9013 57.3608 22.008V24.68H59.3448C59.4621 24.68 59.5528 24.7173 59.6168 24.792C59.6808 24.856 59.7128 24.9413 59.7128 25.048V25.592C59.7128 25.6987 59.6808 25.7893 59.6168 25.864C59.5528 25.928 59.4621 25.96 59.3448 25.96H57.3608V30.072C57.3608 30.5733 57.4461 30.968 57.6168 31.256C57.7874 31.544 58.0914 31.688 58.5288 31.688H59.5048C59.6114 31.688 59.6968 31.7253 59.7608 31.8C59.8354 31.864 59.8728 31.9493 59.8728 32.056V32.632C59.8728 32.7387 59.8354 32.8293 59.7608 32.904C59.6968 32.968 59.6114 33 59.5048 33H58.4008ZM64.3588 33C64.2734 33 64.1988 32.968 64.1348 32.904C64.0708 32.84 64.0388 32.7653 64.0388 32.68C64.0388 32.6267 64.0441 32.568 64.0548 32.504L68.0228 22.152C68.0654 22.0453 68.1241 21.96 68.1988 21.896C68.2734 21.832 68.3854 21.8 68.5348 21.8H69.6228C69.7721 21.8 69.8841 21.832 69.9588 21.896C70.0334 21.96 70.0921 22.0453 70.1348 22.152L74.0868 32.504C74.1081 32.568 74.1188 32.6267 74.1188 32.68C74.1188 32.7653 74.0868 32.84 74.0228 32.904C73.9588 32.968 73.8841 33 73.7988 33H72.9828C72.8548 33 72.7588 32.968 72.6948 32.904C72.6414 32.84 72.6041 32.7813 72.5828 32.728L71.7028 30.456H66.4548L65.5748 32.728C65.5641 32.7813 65.5268 32.84 65.4628 32.904C65.3988 32.968 65.3028 33 65.1748 33H64.3588ZM66.9188 29.08H71.2388L69.0788 23.4L66.9188 29.08ZM78.5677 33.16C77.9811 33.16 77.4744 33.0587 77.0478 32.856C76.6211 32.6427 76.2691 32.36 75.9918 32.008C75.7251 31.6453 75.5224 31.2347 75.3838 30.776C75.2558 30.3173 75.1811 29.832 75.1598 29.32C75.1491 29.1493 75.1438 28.9893 75.1438 28.84C75.1438 28.6907 75.1491 28.5307 75.1598 28.36C75.1811 27.8587 75.2558 27.3787 75.3838 26.92C75.5224 26.4613 75.7251 26.0507 75.9918 25.688C76.2691 25.3253 76.6211 25.0427 77.0478 24.84C77.4744 24.6267 77.9811 24.52 78.5677 24.52C79.1971 24.52 79.7198 24.632 80.1358 24.856C80.5518 25.08 80.8931 25.3573 81.1598 25.688V22.008C81.1598 21.9013 81.1918 21.816 81.2558 21.752C81.3304 21.6773 81.4211 21.64 81.5278 21.64H82.2958C82.4024 21.64 82.4878 21.6773 82.5518 21.752C82.6264 21.816 82.6638 21.9013 82.6638 22.008V32.632C82.6638 32.7387 82.6264 32.8293 82.5518 32.904C82.4878 32.968 82.4024 33 82.2958 33H81.5758C81.4584 33 81.3678 32.968 81.3038 32.904C81.2398 32.8293 81.2078 32.7387 81.2078 32.632V31.96C80.9411 32.3013 80.5944 32.5893 80.1678 32.824C79.7411 33.048 79.2078 33.16 78.5677 33.16ZM78.9038 31.864C79.4371 31.864 79.8638 31.7413 80.1838 31.496C80.5038 31.2507 80.7438 30.9413 80.9038 30.568C81.0638 30.184 81.1491 29.7947 81.1598 29.4C81.1704 29.2293 81.1758 29.0267 81.1758 28.792C81.1758 28.5467 81.1704 28.3387 81.1598 28.168C81.1491 27.7947 81.0584 27.4267 80.8878 27.064C80.7278 26.7013 80.4824 26.4027 80.1518 26.168C79.8318 25.9333 79.4158 25.816 78.9038 25.816C78.3598 25.816 77.9278 25.9387 77.6078 26.184C77.2878 26.4187 77.0584 26.7333 76.9198 27.128C76.7811 27.512 76.7011 27.928 76.6798 28.376C76.6691 28.6853 76.6691 28.9947 76.6798 29.304C76.7011 29.752 76.7811 30.1733 76.9198 30.568C77.0584 30.952 77.2878 31.2667 77.6078 31.512C77.9278 31.7467 78.3598 31.864 78.9038 31.864ZM88.0834 33.16C87.4967 33.16 86.99 33.0587 86.5634 32.856C86.1367 32.6427 85.7847 32.36 85.5074 32.008C85.2407 31.6453 85.038 31.2347 84.8994 30.776C84.7714 30.3173 84.6967 29.832 84.6754 29.32C84.6647 29.1493 84.6594 28.9893 84.6594 28.84C84.6594 28.6907 84.6647 28.5307 84.6754 28.36C84.6967 27.8587 84.7714 27.3787 84.8994 26.92C85.038 26.4613 85.2407 26.0507 85.5074 25.688C85.7847 25.3253 86.1367 25.0427 86.5634 24.84C86.99 24.6267 87.4967 24.52 88.0834 24.52C88.7127 24.52 89.2354 24.632 89.6514 24.856C90.0674 25.08 90.4087 25.3573 90.6754 25.688V22.008C90.6754 21.9013 90.7074 21.816 90.7714 21.752C90.846 21.6773 90.9367 21.64 91.0434 21.64H91.8114C91.918 21.64 92.0034 21.6773 92.0674 21.752C92.142 21.816 92.1794 21.9013 92.1794 22.008V32.632C92.1794 32.7387 92.142 32.8293 92.0674 32.904C92.0034 32.968 91.918 33 91.8114 33H91.0914C90.974 33 90.8834 32.968 90.8194 32.904C90.7554 32.8293 90.7234 32.7387 90.7234 32.632V31.96C90.4567 32.3013 90.11 32.5893 89.6834 32.824C89.2567 33.048 88.7234 33.16 88.0834 33.16ZM88.4194 31.864C88.9527 31.864 89.3794 31.7413 89.6994 31.496C90.0194 31.2507 90.2594 30.9413 90.4194 30.568C90.5794 30.184 90.6647 29.7947 90.6754 29.4C90.686 29.2293 90.6914 29.0267 90.6914 28.792C90.6914 28.5467 90.686 28.3387 90.6754 28.168C90.6647 27.7947 90.574 27.4267 90.4034 27.064C90.2434 26.7013 89.998 26.4027 89.6674 26.168C89.3474 25.9333 88.9314 25.816 88.4194 25.816C87.8754 25.816 87.4434 25.9387 87.1234 26.184C86.8034 26.4187 86.574 26.7333 86.4354 27.128C86.2967 27.512 86.2167 27.928 86.1954 28.376C86.1847 28.6853 86.1847 28.9947 86.1954 29.304C86.2167 29.752 86.2967 30.1733 86.4354 30.568C86.574 30.952 86.8034 31.2667 87.1234 31.512C87.4434 31.7467 87.8754 31.864 88.4194 31.864ZM94.927 33C94.8203 33 94.7297 32.968 94.655 32.904C94.591 32.8293 94.559 32.7387 94.559 32.632V25.064C94.559 24.9573 94.591 24.8667 94.655 24.792C94.7297 24.7173 94.8203 24.68 94.927 24.68H95.663C95.7697 24.68 95.8603 24.7173 95.935 24.792C96.0097 24.8667 96.047 24.9573 96.047 25.064V25.768C96.2603 25.4053 96.5537 25.1333 96.927 24.952C97.3003 24.7707 97.7537 24.68 98.287 24.68H98.911C99.0177 24.68 99.103 24.7173 99.167 24.792C99.2417 24.856 99.279 24.9413 99.279 25.048V25.704C99.279 25.8107 99.2417 25.896 99.167 25.96C99.103 26.024 99.0177 26.056 98.911 26.056H97.951C97.375 26.056 96.9217 26.2267 96.591 26.568C96.2603 26.8987 96.095 27.352 96.095 27.928V32.632C96.095 32.7387 96.0577 32.8293 95.983 32.904C95.9083 32.968 95.8177 33 95.711 33H94.927ZM103.809 33.16C102.7 33.16 101.82 32.824 101.169 32.152C100.518 31.4693 100.161 30.5413 100.097 29.368C100.086 29.2293 100.081 29.0533 100.081 28.84C100.081 28.616 100.086 28.4347 100.097 28.296C100.14 27.5387 100.316 26.8773 100.625 26.312C100.934 25.736 101.356 25.2933 101.889 24.984C102.433 24.6747 103.068 24.52 103.793 24.52C104.604 24.52 105.281 24.6907 105.825 25.032C106.38 25.3733 106.801 25.8587 107.089 26.488C107.377 27.1173 107.521 27.8533 107.521 28.696V28.968C107.521 29.0853 107.484 29.176 107.409 29.24C107.345 29.304 107.26 29.336 107.153 29.336H101.617C101.617 29.3467 101.617 29.368 101.617 29.4C101.617 29.432 101.617 29.4587 101.617 29.48C101.638 29.9173 101.734 30.328 101.905 30.712C102.076 31.0853 102.321 31.3893 102.641 31.624C102.972 31.8587 103.356 31.976 103.793 31.976C104.177 31.976 104.497 31.9173 104.753 31.8C105.009 31.6827 105.217 31.5547 105.377 31.416C105.537 31.2667 105.644 31.1493 105.697 31.064C105.793 30.936 105.868 30.8613 105.921 30.84C105.974 30.808 106.06 30.792 106.177 30.792H106.961C107.057 30.792 107.137 30.824 107.201 30.888C107.276 30.9413 107.308 31.0213 107.297 31.128C107.286 31.288 107.201 31.4853 107.041 31.72C106.881 31.944 106.652 32.168 106.353 32.392C106.065 32.616 105.702 32.8027 105.265 32.952C104.838 33.0907 104.353 33.16 103.809 33.16ZM101.617 28.232H106.001V28.184C106.001 27.704 105.91 27.2773 105.729 26.904C105.558 26.5307 105.308 26.2373 104.977 26.024C104.646 25.8 104.252 25.688 103.793 25.688C103.334 25.688 102.94 25.8 102.609 26.024C102.289 26.2373 102.044 26.5307 101.873 26.904C101.702 27.2773 101.617 27.704 101.617 28.184V28.232ZM112.314 33.16C111.717 33.16 111.205 33.0853 110.778 32.936C110.351 32.7867 110.005 32.6053 109.738 32.392C109.471 32.1787 109.269 31.9653 109.13 31.752C109.002 31.5387 108.933 31.368 108.922 31.24C108.911 31.1227 108.949 31.032 109.034 30.968C109.119 30.904 109.205 30.872 109.29 30.872H110.01C110.063 30.872 110.106 30.8827 110.138 30.904C110.181 30.9147 110.234 30.9573 110.298 31.032C110.437 31.1813 110.591 31.3307 110.762 31.48C110.933 31.6293 111.141 31.752 111.386 31.848C111.642 31.944 111.957 31.992 112.33 31.992C112.874 31.992 113.322 31.8907 113.674 31.688C114.026 31.4747 114.202 31.1653 114.202 30.76C114.202 30.4933 114.127 30.28 113.978 30.12C113.839 29.96 113.583 29.816 113.21 29.688C112.847 29.56 112.346 29.4267 111.706 29.288C111.066 29.1387 110.559 28.9573 110.186 28.744C109.813 28.52 109.546 28.2587 109.386 27.96C109.226 27.6507 109.146 27.304 109.146 26.92C109.146 26.5253 109.263 26.1467 109.498 25.784C109.733 25.4107 110.074 25.1067 110.522 24.872C110.981 24.6373 111.551 24.52 112.234 24.52C112.789 24.52 113.263 24.5893 113.658 24.728C114.053 24.8667 114.378 25.0427 114.634 25.256C114.89 25.4587 115.082 25.6613 115.21 25.864C115.338 26.0667 115.407 26.2373 115.418 26.376C115.429 26.4827 115.397 26.5733 115.322 26.648C115.247 26.712 115.162 26.744 115.066 26.744H114.394C114.319 26.744 114.255 26.728 114.202 26.696C114.159 26.664 114.117 26.6267 114.074 26.584C113.967 26.4453 113.839 26.3067 113.69 26.168C113.551 26.0293 113.365 25.9173 113.13 25.832C112.906 25.736 112.607 25.688 112.234 25.688C111.701 25.688 111.301 25.8 111.034 26.024C110.767 26.248 110.634 26.5307 110.634 26.872C110.634 27.0747 110.693 27.256 110.81 27.416C110.927 27.576 111.151 27.72 111.482 27.848C111.813 27.976 112.303 28.1147 112.954 28.264C113.658 28.4027 114.213 28.5893 114.618 28.824C115.023 29.0587 115.311 29.3307 115.482 29.64C115.653 29.9493 115.738 30.3067 115.738 30.712C115.738 31.16 115.61 31.5707 115.354 31.944C115.098 32.3173 114.714 32.616 114.202 32.84C113.69 33.0533 113.061 33.16 112.314 33.16ZM120.47 33.16C119.873 33.16 119.361 33.0853 118.934 32.936C118.508 32.7867 118.161 32.6053 117.894 32.392C117.628 32.1787 117.425 31.9653 117.286 31.752C117.158 31.5387 117.089 31.368 117.078 31.24C117.068 31.1227 117.105 31.032 117.19 30.968C117.276 30.904 117.361 30.872 117.446 30.872H118.166C118.22 30.872 118.262 30.8827 118.294 30.904C118.337 30.9147 118.39 30.9573 118.454 31.032C118.593 31.1813 118.748 31.3307 118.918 31.48C119.089 31.6293 119.297 31.752 119.542 31.848C119.798 31.944 120.113 31.992 120.486 31.992C121.03 31.992 121.478 31.8907 121.83 31.688C122.182 31.4747 122.358 31.1653 122.358 30.76C122.358 30.4933 122.284 30.28 122.134 30.12C121.996 29.96 121.74 29.816 121.366 29.688C121.004 29.56 120.502 29.4267 119.862 29.288C119.222 29.1387 118.716 28.9573 118.342 28.744C117.969 28.52 117.702 28.2587 117.542 27.96C117.382 27.6507 117.302 27.304 117.302 26.92C117.302 26.5253 117.42 26.1467 117.654 25.784C117.889 25.4107 118.23 25.1067 118.678 24.872C119.137 24.6373 119.708 24.52 120.39 24.52C120.945 24.52 121.42 24.5893 121.814 24.728C122.209 24.8667 122.534 25.0427 122.79 25.256C123.046 25.4587 123.238 25.6613 123.366 25.864C123.494 26.0667 123.564 26.2373 123.574 26.376C123.585 26.4827 123.553 26.5733 123.478 26.648C123.404 26.712 123.318 26.744 123.222 26.744H122.55C122.476 26.744 122.412 26.728 122.358 26.696C122.316 26.664 122.273 26.6267 122.23 26.584C122.124 26.4453 121.996 26.3067 121.846 26.168C121.708 26.0293 121.521 25.9173 121.286 25.832C121.062 25.736 120.764 25.688 120.39 25.688C119.857 25.688 119.457 25.8 119.19 26.024C118.924 26.248 118.79 26.5307 118.79 26.872C118.79 27.0747 118.849 27.256 118.966 27.416C119.084 27.576 119.308 27.72 119.638 27.848C119.969 27.976 120.46 28.1147 121.11 28.264C121.814 28.4027 122.369 28.5893 122.774 28.824C123.18 29.0587 123.468 29.3307 123.638 29.64C123.809 29.9493 123.894 30.3067 123.894 30.712C123.894 31.16 123.766 31.5707 123.51 31.944C123.254 32.3173 122.87 32.616 122.358 32.84C121.846 33.0533 121.217 33.16 120.47 33.16Z" fill="#54FA80"/>
<path fill-rule="evenodd" clip-rule="evenodd" d="M296.5 22C296.5 21.1716 297.172 20.5 298 20.5H306.25C307.078 20.5 307.75 21.1716 307.75 22V23.5H302.5C300.843 23.5 299.5 24.8431 299.5 26.5V31.75H298C297.172 31.75 296.5 31.0784 296.5 30.25V22ZM299.5 33.25H298C296.343 33.25 295 31.9069 295 30.25V22C295 20.3431 296.343 19 298 19H306.25C307.907 19 309.25 20.3431 309.25 22V23.5H310C311.657 23.5 313 24.8431 313 26.5V34C313 35.6569 311.657 37 310 37H302.5C300.843 37 299.5 35.6569 299.5 34V33.25ZM301 26.5C301 25.6716 301.672 25 302.5 25H310C310.828 25 311.5 25.6716 311.5 26.5V34C311.5 34.8284 310.828 35.5 310 35.5H302.5C301.672 35.5 301 34.8284 301 34V26.5Z" fill="#54FA80"/>
<path d="M27.1624 75.2C26.2024 75.2 25.3758 75.0667 24.6824 74.8C24.0024 74.52 23.4358 74.14 22.9824 73.66C22.5424 73.1667 22.2091 72.6 21.9824 71.96C21.7691 71.3067 21.6424 70.6133 21.6024 69.88C21.5891 69.52 21.5758 69.12 21.5624 68.68C21.5624 68.2267 21.5624 67.7733 21.5624 67.32C21.5758 66.8667 21.5891 66.4533 21.6024 66.08C21.6291 65.3467 21.7558 64.66 21.9824 64.02C22.2224 63.38 22.5691 62.82 23.0224 62.34C23.4758 61.86 24.0424 61.4867 24.7224 61.22C25.4158 60.94 26.2291 60.8 27.1624 60.8C28.0958 60.8 28.9024 60.94 29.5824 61.22C30.2624 61.4867 30.8291 61.86 31.2824 62.34C31.7358 62.82 32.0758 63.38 32.3024 64.02C32.5424 64.66 32.6824 65.3467 32.7224 66.08C32.7358 66.4533 32.7424 66.8667 32.7424 67.32C32.7558 67.7733 32.7558 68.2267 32.7424 68.68C32.7424 69.12 32.7358 69.52 32.7224 69.88C32.6824 70.6133 32.5491 71.3067 32.3224 71.96C32.0958 72.6 31.7558 73.1667 31.3024 73.66C30.8624 74.14 30.2958 74.52 29.6024 74.8C28.9224 75.0667 28.1091 75.2 27.1624 75.2ZM27.1624 72.6C27.9358 72.6 28.5024 72.3467 28.8624 71.84C29.2224 71.3333 29.4158 70.6467 29.4424 69.78C29.4558 69.3933 29.4624 68.9933 29.4624 68.58C29.4758 68.1667 29.4758 67.7533 29.4624 67.34C29.4624 66.9267 29.4558 66.54 29.4424 66.18C29.4158 65.3533 29.2224 64.68 28.8624 64.16C28.5024 63.64 27.9358 63.3733 27.1624 63.36C26.3758 63.3733 25.8024 63.64 25.4424 64.16C25.0958 64.68 24.9091 65.3533 24.8824 66.18C24.8691 66.54 24.8558 66.9267 24.8424 67.34C24.8424 67.7533 24.8424 68.1667 24.8424 68.58C24.8558 68.9933 24.8691 69.3933 24.8824 69.78C24.9091 70.6467 25.1024 71.3333 25.4624 71.84C25.8224 72.3467 26.3891 72.6 27.1624 72.6ZM34.6618 75C34.5418 75 34.4351 74.96 34.3418 74.88C34.2618 74.7867 34.2218 74.68 34.2218 74.56C34.2218 74.52 34.2285 74.4733 34.2418 74.42C34.2685 74.3533 34.3018 74.2933 34.3418 74.24L37.7218 69.66L34.6218 65.36C34.5818 65.3067 34.5485 65.2533 34.5218 65.2C34.5085 65.1467 34.5018 65.0933 34.5018 65.04C34.5018 64.92 34.5418 64.82 34.6218 64.74C34.7151 64.6467 34.8218 64.6 34.9418 64.6H37.0218C37.1818 64.6 37.3018 64.64 37.3818 64.72C37.4751 64.8 37.5418 64.8733 37.5818 64.94L39.6418 67.74L41.7018 64.96C41.7551 64.8933 41.8218 64.82 41.9018 64.74C41.9818 64.6467 42.1085 64.6 42.2818 64.6H44.2618C44.3818 64.6 44.4818 64.6467 44.5618 64.74C44.6551 64.82 44.7018 64.92 44.7018 65.04C44.7018 65.0933 44.6951 65.1467 44.6818 65.2C44.6685 65.2533 44.6351 65.3067 44.5818 65.36L41.4218 69.68L44.8418 74.24C44.8818 74.2933 44.9085 74.3467 44.9218 74.4C44.9485 74.4533 44.9618 74.5067 44.9618 74.56C44.9618 74.68 44.9151 74.7867 44.8218 74.88C44.7418 74.96 44.6418 75 44.5218 75H42.3418C42.1951 75 42.0818 74.9667 42.0018 74.9C41.9218 74.82 41.8551 74.7467 41.8018 74.68L39.5818 71.72L37.3218 74.68C37.2818 74.7333 37.2218 74.8 37.1418 74.88C37.0618 74.96 36.9418 75 36.7818 75H34.6618ZM50.8857 75C50.7524 75 50.6324 74.9533 50.5257 74.86C50.4324 74.7667 50.3857 74.6467 50.3857 74.5V64.56L47.5057 66.78C47.3857 66.8733 47.259 66.9067 47.1257 66.88C47.0057 66.8533 46.899 66.78 46.8057 66.66L45.8057 65.36C45.7257 65.24 45.6924 65.1133 45.7057 64.98C45.7324 64.8467 45.8057 64.74 45.9257 64.66L50.4857 61.14C50.5657 61.0867 50.639 61.0533 50.7057 61.04C50.7857 61.0133 50.8724 61 50.9657 61H53.0857C53.219 61 53.3324 61.0467 53.4257 61.14C53.519 61.2333 53.5657 61.3533 53.5657 61.5V74.5C53.5657 74.6467 53.519 74.7667 53.4257 74.86C53.3324 74.9533 53.219 75 53.0857 75H50.8857ZM55.576 75C55.456 75 55.356 74.96 55.276 74.88C55.196 74.7867 55.156 74.6867 55.156 74.58C55.156 74.5133 55.1627 74.4533 55.176 74.4L59.936 61.54C59.976 61.3933 60.056 61.2667 60.176 61.16C60.296 61.0533 60.4627 61 60.676 61H63.236C63.4493 61 63.616 61.0533 63.736 61.16C63.856 61.2667 63.936 61.3933 63.976 61.54L68.736 74.4C68.7493 74.4533 68.756 74.5133 68.756 74.58C68.756 74.6867 68.716 74.7867 68.636 74.88C68.556 74.96 68.456 75 68.336 75H66.256C66.056 75 65.9093 74.9533 65.816 74.86C65.7227 74.7667 65.6627 74.68 65.636 74.6L64.776 72.36H59.136L58.276 74.6C58.2493 74.68 58.1893 74.7667 58.096 74.86C58.0027 74.9533 57.856 75 57.656 75H55.576ZM59.876 69.78H64.016L61.956 64.02L59.876 69.78ZM70.978 75C70.8314 75 70.7114 74.9533 70.618 74.86C70.5247 74.7667 70.478 74.6467 70.478 74.5V61.5C70.478 61.3533 70.5247 61.2333 70.618 61.14C70.7114 61.0467 70.8314 61 70.978 61H76.918C78.0247 61 78.9314 61.16 79.638 61.48C80.3447 61.8 80.8647 62.2533 81.198 62.84C81.5447 63.4267 81.718 64.1133 81.718 64.9C81.718 65.3933 81.6247 65.8267 81.438 66.2C81.2647 66.5733 81.0447 66.88 80.778 67.12C80.5247 67.36 80.278 67.54 80.038 67.66C80.558 67.9 81.0114 68.3 81.398 68.86C81.798 69.4067 81.998 70.06 81.998 70.82C81.998 71.66 81.8114 72.3933 81.438 73.02C81.0647 73.6467 80.5114 74.1333 79.778 74.48C79.0447 74.8267 78.1514 75 77.098 75H70.978ZM73.658 72.66H76.718C77.3714 72.66 77.8647 72.48 78.198 72.12C78.5314 71.7467 78.698 71.3067 78.698 70.8C78.698 70.28 78.5247 69.8467 78.178 69.5C77.8447 69.14 77.358 68.96 76.718 68.96H73.658V72.66ZM73.658 66.66H76.538C77.1647 66.66 77.6314 66.5067 77.938 66.2C78.258 65.88 78.418 65.4733 78.418 64.98C78.418 64.4867 78.258 64.0933 77.938 63.8C77.6314 63.4933 77.1647 63.34 76.538 63.34H73.658V66.66ZM89.9443 75.2C88.691 75.2 87.6243 74.9933 86.7443 74.58C85.8776 74.1533 85.2043 73.54 84.7243 72.74C84.2443 71.9267 83.9776 70.94 83.9243 69.78C83.911 69.2333 83.9043 68.6467 83.9043 68.02C83.9043 67.3933 83.911 66.7933 83.9243 66.22C83.9776 65.0733 84.2443 64.1 84.7243 63.3C85.2176 62.4867 85.9043 61.8667 86.7843 61.44C87.6643 61.0133 88.7176 60.8 89.9443 60.8C90.8376 60.8 91.651 60.9133 92.3843 61.14C93.1176 61.3667 93.751 61.6933 94.2843 62.12C94.8176 62.5467 95.231 63.0467 95.5243 63.62C95.8176 64.1933 95.9776 64.8333 96.0043 65.54C96.0043 65.66 95.9576 65.76 95.8643 65.84C95.7843 65.92 95.6843 65.96 95.5643 65.96H93.2843C93.1243 65.96 92.9976 65.92 92.9043 65.84C92.811 65.76 92.7376 65.6267 92.6843 65.44C92.4843 64.6533 92.151 64.1133 91.6843 63.82C91.2176 63.5267 90.6376 63.38 89.9443 63.38C89.1176 63.38 88.4643 63.6067 87.9843 64.06C87.5043 64.5133 87.2443 65.2667 87.2043 66.32C87.1643 67.4133 87.1643 68.5333 87.2043 69.68C87.2443 70.7333 87.5043 71.4867 87.9843 71.94C88.4643 72.3933 89.1176 72.62 89.9443 72.62C90.6376 72.62 91.2176 72.4733 91.6843 72.18C92.1643 71.8733 92.4976 71.3333 92.6843 70.56C92.7376 70.36 92.811 70.2267 92.9043 70.16C92.9976 70.08 93.1243 70.04 93.2843 70.04H95.5643C95.6843 70.04 95.7843 70.08 95.8643 70.16C95.9576 70.24 96.0043 70.34 96.0043 70.46C95.9776 71.1667 95.8176 71.8067 95.5243 72.38C95.231 72.9533 94.8176 73.4533 94.2843 73.88C93.751 74.3067 93.1176 74.6333 92.3843 74.86C91.651 75.0867 90.8376 75.2 89.9443 75.2ZM99.6315 75C99.5115 75 99.4115 74.96 99.3315 74.88C99.2515 74.7867 99.2115 74.68 99.2115 74.56C99.2115 74.5067 99.2248 74.4467 99.2515 74.38L103.971 63.68H97.8315C97.6982 63.68 97.5782 63.6333 97.4715 63.54C97.3782 63.4467 97.3315 63.3333 97.3315 63.2V61.5C97.3315 61.3533 97.3782 61.2333 97.4715 61.14C97.5782 61.0467 97.6982 61 97.8315 61H106.891C107.051 61 107.171 61.0467 107.251 61.14C107.345 61.2333 107.391 61.3533 107.391 61.5V63C107.391 63.2 107.371 63.3667 107.331 63.5C107.305 63.62 107.258 63.7467 107.191 63.88L102.491 74.52C102.451 74.6 102.378 74.7 102.271 74.82C102.178 74.94 102.025 75 101.811 75H99.6315ZM113.464 75C113.33 75 113.21 74.9533 113.104 74.86C113.01 74.7667 112.964 74.6467 112.964 74.5V64.56L110.084 66.78C109.964 66.8733 109.837 66.9067 109.704 66.88C109.584 66.8533 109.477 66.78 109.384 66.66L108.384 65.36C108.304 65.24 108.27 65.1133 108.284 64.98C108.31 64.8467 108.384 64.74 108.504 64.66L113.064 61.14C113.144 61.0867 113.217 61.0533 113.284 61.04C113.364 61.0133 113.45 61 113.544 61H115.664C115.797 61 115.91 61.0467 116.004 61.14C116.097 61.2333 116.144 61.3533 116.144 61.5V74.5C116.144 74.6467 116.097 74.7667 116.004 74.86C115.91 74.9533 115.797 75 115.664 75H113.464ZM123.754 75.22C122.554 75.22 121.547 75.0267 120.734 74.64C119.921 74.2533 119.301 73.7467 118.874 73.12C118.461 72.4933 118.241 71.8267 118.214 71.12C118.214 71 118.254 70.9 118.334 70.82C118.414 70.74 118.514 70.7 118.634 70.7H120.894C121.054 70.7 121.181 70.74 121.274 70.82C121.381 70.8867 121.461 70.98 121.514 71.1C121.647 71.46 121.821 71.7533 122.034 71.98C122.261 72.2067 122.521 72.3733 122.814 72.48C123.107 72.5867 123.421 72.64 123.754 72.64C124.181 72.64 124.574 72.5533 124.934 72.38C125.294 72.1933 125.581 71.9267 125.794 71.58C126.007 71.2333 126.114 70.8067 126.114 70.3C126.114 69.86 126.014 69.4733 125.814 69.14C125.614 68.8067 125.334 68.5467 124.974 68.36C124.614 68.1733 124.207 68.08 123.754 68.08C123.407 68.08 123.121 68.12 122.894 68.2C122.681 68.28 122.501 68.38 122.354 68.5C122.207 68.6067 122.074 68.7067 121.954 68.8C121.834 68.88 121.701 68.92 121.554 68.92H119.334C119.214 68.92 119.107 68.88 119.014 68.8C118.934 68.7067 118.894 68.6 118.894 68.48L119.594 61.58C119.621 61.3933 119.687 61.2533 119.794 61.16C119.914 61.0533 120.054 61 120.214 61H127.974C128.121 61 128.241 61.0467 128.334 61.14C128.427 61.2333 128.474 61.3533 128.474 61.5V63.1C128.474 63.2333 128.427 63.3467 128.334 63.44C128.241 63.5333 128.121 63.58 127.974 63.58H122.194L121.894 66.52C122.161 66.3467 122.487 66.1933 122.874 66.06C123.274 65.9133 123.827 65.84 124.534 65.84C125.174 65.84 125.781 65.9467 126.354 66.16C126.941 66.36 127.461 66.66 127.914 67.06C128.367 67.46 128.721 67.94 128.974 68.5C129.241 69.0467 129.374 69.6733 129.374 70.38C129.374 71.34 129.147 72.1867 128.694 72.92C128.241 73.64 127.594 74.2067 126.754 74.62C125.914 75.02 124.914 75.22 123.754 75.22ZM137.971 75C137.838 75 137.724 74.9533 137.631 74.86C137.538 74.7667 137.491 74.6467 137.491 74.5V72.1H131.191C131.058 72.1 130.944 72.0533 130.851 71.96C130.758 71.8667 130.711 71.7467 130.711 71.6V69.98C130.711 69.8867 130.731 69.7867 130.771 69.68C130.811 69.5733 130.864 69.4733 130.931 69.38L136.791 61.34C136.964 61.1133 137.211 61 137.531 61H140.071C140.204 61 140.318 61.0467 140.411 61.14C140.504 61.2333 140.551 61.3533 140.551 61.5V69.44H142.331C142.491 69.44 142.611 69.4867 142.691 69.58C142.784 69.6733 142.831 69.7867 142.831 69.92V71.6C142.831 71.7467 142.784 71.8667 142.691 71.96C142.598 72.0533 142.484 72.1 142.351 72.1H140.551V74.5C140.551 74.6467 140.504 74.7667 140.411 74.86C140.318 74.9533 140.204 75 140.071 75H137.971ZM133.811 69.54H137.551V64.28L133.811 69.54ZM145.881 75C145.761 75 145.661 74.96 145.581 74.88C145.501 74.7867 145.461 74.68 145.461 74.56C145.461 74.5067 145.475 74.4467 145.501 74.38L150.221 63.68H144.081C143.948 63.68 143.828 63.6333 143.721 63.54C143.628 63.4467 143.581 63.3333 143.581 63.2V61.5C143.581 61.3533 143.628 61.2333 143.721 61.14C143.828 61.0467 143.948 61 144.081 61H153.141C153.301 61 153.421 61.0467 153.501 61.14C153.595 61.2333 153.641 61.3533 153.641 61.5V63C153.641 63.2 153.621 63.3667 153.581 63.5C153.555 63.62 153.508 63.7467 153.441 63.88L148.741 74.52C148.701 74.6 148.628 74.7 148.521 74.82C148.428 74.94 148.275 75 148.061 75H145.881ZM161.369 75C161.236 75 161.123 74.9533 161.029 74.86C160.936 74.7667 160.889 74.6467 160.889 74.5V72.1H154.589C154.456 72.1 154.343 72.0533 154.249 71.96C154.156 71.8667 154.109 71.7467 154.109 71.6V69.98C154.109 69.8867 154.129 69.7867 154.169 69.68C154.209 69.5733 154.263 69.4733 154.329 69.38L160.189 61.34C160.363 61.1133 160.609 61 160.929 61H163.469C163.603 61 163.716 61.0467 163.809 61.14C163.903 61.2333 163.949 61.3533 163.949 61.5V69.44H165.729C165.889 69.44 166.009 69.4867 166.089 69.58C166.183 69.6733 166.229 69.7867 166.229 69.92V71.6C166.229 71.7467 166.183 71.8667 166.089 71.96C165.996 72.0533 165.883 72.1 165.749 72.1H163.949V74.5C163.949 74.6467 163.903 74.7667 163.809 74.86C163.716 74.9533 163.603 75 163.469 75H161.369ZM157.209 69.54H160.949V64.28L157.209 69.54ZM173.529 75.2C172.596 75.2 171.769 75.0933 171.049 74.88C170.342 74.6533 169.749 74.3467 169.269 73.96C168.789 73.56 168.429 73.1 168.189 72.58C167.949 72.0467 167.829 71.4667 167.829 70.84C167.829 70.08 168.016 69.42 168.389 68.86C168.762 68.3 169.236 67.8667 169.809 67.56C169.342 67.2533 168.976 66.8667 168.709 66.4C168.456 65.92 168.329 65.3667 168.329 64.74C168.329 63.98 168.522 63.3067 168.909 62.72C169.296 62.1333 169.869 61.6667 170.629 61.32C171.402 60.9733 172.369 60.8 173.529 60.8C174.676 60.8 175.629 60.9733 176.389 61.32C177.149 61.6533 177.722 62.1133 178.109 62.7C178.496 63.2867 178.689 63.96 178.689 64.72C178.689 65.3467 178.562 65.9 178.309 66.38C178.056 66.86 177.696 67.2533 177.229 67.56C177.842 67.8533 178.329 68.2867 178.689 68.86C179.049 69.4333 179.229 70.1 179.229 70.86C179.229 71.6867 179.016 72.4267 178.589 73.08C178.162 73.7333 177.522 74.2533 176.669 74.64C175.816 75.0133 174.769 75.2 173.529 75.2ZM173.529 72.9C173.996 72.9 174.422 72.82 174.809 72.66C175.196 72.4867 175.496 72.2467 175.709 71.94C175.936 71.6333 176.049 71.2733 176.049 70.86C176.049 70.4333 175.936 70.0733 175.709 69.78C175.496 69.4733 175.196 69.24 174.809 69.08C174.422 68.9067 173.996 68.82 173.529 68.82C173.049 68.82 172.616 68.9067 172.229 69.08C171.856 69.24 171.556 69.4733 171.329 69.78C171.102 70.0733 170.989 70.4333 170.989 70.86C170.989 71.2733 171.102 71.6333 171.329 71.94C171.556 72.2467 171.856 72.4867 172.229 72.66C172.616 72.82 173.049 72.9 173.529 72.9ZM173.529 66.64C173.942 66.6267 174.316 66.5467 174.649 66.4C174.982 66.2533 175.249 66.0533 175.449 65.8C175.649 65.5333 175.749 65.2267 175.749 64.88C175.749 64.52 175.649 64.2133 175.449 63.96C175.262 63.6933 175.002 63.4867 174.669 63.34C174.336 63.1933 173.956 63.12 173.529 63.12C173.102 63.12 172.716 63.1933 172.369 63.34C172.036 63.4867 171.776 63.6933 171.589 63.96C171.402 64.2133 171.309 64.52 171.309 64.88C171.309 65.24 171.402 65.5533 171.589 65.82C171.776 66.0733 172.036 66.2733 172.369 66.42C172.716 66.5667 173.102 66.64 173.529 66.64ZM182.169 75C182.023 75 181.903 74.9533 181.809 74.86C181.716 74.7667 181.669 74.6467 181.669 74.5V61.5C181.669 61.3533 181.716 61.2333 181.809 61.14C181.903 61.0467 182.023 61 182.169 61H187.189C188.523 61 189.636 61.2133 190.529 61.64C191.423 62.0533 192.103 62.6667 192.569 63.48C193.049 64.28 193.303 65.2733 193.329 66.46C193.343 67.0467 193.349 67.56 193.349 68C193.349 68.44 193.343 68.9467 193.329 69.52C193.289 70.76 193.043 71.7867 192.589 72.6C192.136 73.4133 191.469 74.02 190.589 74.42C189.709 74.8067 188.609 75 187.289 75H182.169ZM184.849 72.42H187.189C187.856 72.42 188.403 72.32 188.829 72.12C189.256 71.92 189.569 71.6067 189.769 71.18C189.983 70.74 190.096 70.1733 190.109 69.48C190.123 69.0933 190.129 68.7467 190.129 68.44C190.143 68.1333 190.143 67.8267 190.129 67.52C190.129 67.2133 190.123 66.8733 190.109 66.5C190.083 65.5 189.823 64.7667 189.329 64.3C188.849 63.82 188.103 63.58 187.089 63.58H184.849V72.42ZM199.909 75C199.776 75 199.656 74.9533 199.549 74.86C199.456 74.7667 199.409 74.6467 199.409 74.5V64.56L196.529 66.78C196.409 66.8733 196.282 66.9067 196.149 66.88C196.029 66.8533 195.922 66.78 195.829 66.66L194.829 65.36C194.749 65.24 194.716 65.1133 194.729 64.98C194.756 64.8467 194.829 64.74 194.949 64.66L199.509 61.14C199.589 61.0867 199.662 61.0533 199.729 61.04C199.809 61.0133 199.896 61 199.989 61H202.109C202.242 61 202.356 61.0467 202.449 61.14C202.542 61.2333 202.589 61.3533 202.589 61.5V74.5C202.589 74.6467 202.542 74.7667 202.449 74.86C202.356 74.9533 202.242 75 202.109 75H199.909ZM210.979 75.2C209.726 75.2 208.659 74.9933 207.779 74.58C206.913 74.1533 206.239 73.54 205.759 72.74C205.279 71.9267 205.013 70.94 204.959 69.78C204.946 69.2333 204.939 68.6467 204.939 68.02C204.939 67.3933 204.946 66.7933 204.959 66.22C205.013 65.0733 205.279 64.1 205.759 63.3C206.253 62.4867 206.939 61.8667 207.819 61.44C208.699 61.0133 209.753 60.8 210.979 60.8C211.873 60.8 212.686 60.9133 213.419 61.14C214.153 61.3667 214.786 61.6933 215.319 62.12C215.853 62.5467 216.266 63.0467 216.559 63.62C216.853 64.1933 217.013 64.8333 217.039 65.54C217.039 65.66 216.993 65.76 216.899 65.84C216.819 65.92 216.719 65.96 216.599 65.96H214.319C214.159 65.96 214.033 65.92 213.939 65.84C213.846 65.76 213.773 65.6267 213.719 65.44C213.519 64.6533 213.186 64.1133 212.719 63.82C212.253 63.5267 211.673 63.38 210.979 63.38C210.153 63.38 209.499 63.6067 209.019 64.06C208.539 64.5133 208.279 65.2667 208.239 66.32C208.199 67.4133 208.199 68.5333 208.239 69.68C208.279 70.7333 208.539 71.4867 209.019 71.94C209.499 72.3933 210.153 72.62 210.979 72.62C211.673 72.62 212.253 72.4733 212.719 72.18C213.199 71.8733 213.533 71.3333 213.719 70.56C213.773 70.36 213.846 70.2267 213.939 70.16C214.033 70.08 214.159 70.04 214.319 70.04H216.599C216.719 70.04 216.819 70.08 216.899 70.16C216.993 70.24 217.039 70.34 217.039 70.46C217.013 71.1667 216.853 71.8067 216.559 72.38C216.266 72.9533 215.853 73.4533 215.319 73.88C214.786 74.3067 214.153 74.6333 213.419 74.86C212.686 75.0867 211.873 75.2 210.979 75.2ZM219.787 75C219.64 75 219.52 74.9533 219.427 74.86C219.333 74.7667 219.287 74.6467 219.287 74.5V61.5C219.287 61.3533 219.333 61.2333 219.427 61.14C219.52 61.0467 219.64 61 219.787 61H228.847C228.993 61 229.113 61.0467 229.207 61.14C229.3 61.2333 229.347 61.3533 229.347 61.5V63.1C229.347 63.2333 229.3 63.3467 229.207 63.44C229.113 63.5333 228.993 63.58 228.847 63.58H222.367V66.72H228.407C228.553 66.72 228.673 66.7667 228.767 66.86C228.86 66.9533 228.907 67.0733 228.907 67.22V68.7C228.907 68.8333 228.86 68.9467 228.767 69.04C228.673 69.1333 228.553 69.18 228.407 69.18H222.367V72.42H229.007C229.153 72.42 229.273 72.4667 229.367 72.56C229.46 72.6533 229.507 72.7733 229.507 72.92V74.5C229.507 74.6467 229.46 74.7667 229.367 74.86C229.273 74.9533 229.153 75 229.007 75H219.787ZM236.664 75.22C235.464 75.22 234.458 75.0267 233.644 74.64C232.831 74.2533 232.211 73.7467 231.784 73.12C231.371 72.4933 231.151 71.8267 231.124 71.12C231.124 71 231.164 70.9 231.244 70.82C231.324 70.74 231.424 70.7 231.544 70.7H233.804C233.964 70.7 234.091 70.74 234.184 70.82C234.291 70.8867 234.371 70.98 234.424 71.1C234.558 71.46 234.731 71.7533 234.944 71.98C235.171 72.2067 235.431 72.3733 235.724 72.48C236.018 72.5867 236.331 72.64 236.664 72.64C237.091 72.64 237.484 72.5533 237.844 72.38C238.204 72.1933 238.491 71.9267 238.704 71.58C238.918 71.2333 239.024 70.8067 239.024 70.3C239.024 69.86 238.924 69.4733 238.724 69.14C238.524 68.8067 238.244 68.5467 237.884 68.36C237.524 68.1733 237.118 68.08 236.664 68.08C236.318 68.08 236.031 68.12 235.804 68.2C235.591 68.28 235.411 68.38 235.264 68.5C235.118 68.6067 234.984 68.7067 234.864 68.8C234.744 68.88 234.611 68.92 234.464 68.92H232.244C232.124 68.92 232.018 68.88 231.924 68.8C231.844 68.7067 231.804 68.6 231.804 68.48L232.504 61.58C232.531 61.3933 232.598 61.2533 232.704 61.16C232.824 61.0533 232.964 61 233.124 61H240.884C241.031 61 241.151 61.0467 241.244 61.14C241.338 61.2333 241.384 61.3533 241.384 61.5V63.1C241.384 63.2333 241.338 63.3467 241.244 63.44C241.151 63.5333 241.031 63.58 240.884 63.58H235.104L234.804 66.52C235.071 66.3467 235.398 66.1933 235.784 66.06C236.184 65.9133 236.738 65.84 237.444 65.84C238.084 65.84 238.691 65.9467 239.264 66.16C239.851 66.36 240.371 66.66 240.824 67.06C241.278 67.46 241.631 67.94 241.884 68.5C242.151 69.0467 242.284 69.6733 242.284 70.38C242.284 71.34 242.058 72.1867 241.604 72.92C241.151 73.64 240.504 74.2067 239.664 74.62C238.824 75.02 237.824 75.22 236.664 75.22ZM244.583 75C244.437 75 244.317 74.9533 244.223 74.86C244.13 74.7667 244.083 74.6467 244.083 74.5V72.26C244.083 72.1133 244.13 71.9933 244.223 71.9C244.317 71.8067 244.437 71.76 244.583 71.76H246.823C246.97 71.76 247.09 71.8067 247.183 71.9C247.277 71.9933 247.323 72.1133 247.323 72.26V74.5C247.323 74.6467 247.277 74.7667 247.183 74.86C247.09 74.9533 246.97 75 246.823 75H244.583ZM250.111 75C249.964 75 249.844 74.9533 249.751 74.86C249.657 74.7667 249.611 74.6467 249.611 74.5V72.26C249.611 72.1133 249.657 71.9933 249.751 71.9C249.844 71.8067 249.964 71.76 250.111 71.76H252.351C252.497 71.76 252.617 71.8067 252.711 71.9C252.804 71.9933 252.851 72.1133 252.851 72.26V74.5C252.851 74.6467 252.804 74.7667 252.711 74.86C252.617 74.9533 252.497 75 252.351 75H250.111ZM255.638 75C255.491 75 255.371 74.9533 255.278 74.86C255.185 74.7667 255.138 74.6467 255.138 74.5V72.26C255.138 72.1133 255.185 71.9933 255.278 71.9C255.371 71.8067 255.491 71.76 255.638 71.76H257.878C258.025 71.76 258.145 71.8067 258.238 71.9C258.331 71.9933 258.378 72.1133 258.378 72.26V74.5C258.378 74.6467 258.331 74.7667 258.238 74.86C258.145 74.9533 258.025 75 257.878 75H255.638ZM265.885 75.2C264.899 75.2 264.052 75.08 263.345 74.84C262.639 74.6 262.059 74.2933 261.605 73.92C261.152 73.5467 260.812 73.14 260.585 72.7C260.359 72.2467 260.239 71.8133 260.225 71.4C260.225 71.28 260.265 71.18 260.345 71.1C260.425 71.02 260.525 70.98 260.645 70.98H262.845C262.992 70.98 263.112 71.0133 263.205 71.08C263.299 71.1333 263.385 71.2333 263.465 71.38C263.572 71.6867 263.745 71.9333 263.985 72.12C264.225 72.3067 264.505 72.44 264.825 72.52C265.159 72.5867 265.512 72.62 265.885 72.62C266.632 72.62 267.219 72.4467 267.645 72.1C268.072 71.7533 268.285 71.2667 268.285 70.64C268.285 70 268.085 69.54 267.685 69.26C267.285 68.98 266.719 68.84 265.985 68.84H263.845C263.712 68.84 263.599 68.7933 263.505 68.7C263.412 68.6067 263.365 68.4933 263.365 68.36V67.38C263.365 67.22 263.392 67.0867 263.445 66.98C263.512 66.8733 263.579 66.7933 263.645 66.74L267.085 63.58H261.445C261.299 63.58 261.179 63.5333 261.085 63.44C260.992 63.3467 260.945 63.2333 260.945 63.1V61.5C260.945 61.3533 260.992 61.2333 261.085 61.14C261.179 61.0467 261.299 61 261.445 61H270.325C270.472 61 270.592 61.0467 270.685 61.14C270.779 61.2333 270.825 61.3533 270.825 61.5V62.94C270.825 63.0867 270.799 63.2133 270.745 63.32C270.692 63.4133 270.625 63.4867 270.545 63.54L267.285 66.76L267.485 66.78C268.272 66.86 268.972 67.0533 269.585 67.36C270.199 67.6667 270.679 68.1067 271.025 68.68C271.385 69.24 271.565 69.9533 271.565 70.82C271.565 71.7267 271.319 72.5067 270.825 73.16C270.332 73.8133 269.659 74.32 268.805 74.68C267.952 75.0267 266.979 75.2 265.885 75.2ZM275.976 75C275.856 75 275.756 74.96 275.676 74.88C275.596 74.7867 275.556 74.68 275.556 74.56C275.556 74.4933 275.563 74.44 275.576 74.4C275.603 74.36 275.623 74.3267 275.636 74.3L278.536 70.34C278.296 70.3933 278.056 70.4133 277.816 70.4C277.176 70.3733 276.57 70.2467 275.996 70.02C275.423 69.78 274.91 69.4533 274.456 69.04C274.003 68.6267 273.65 68.14 273.396 67.58C273.143 67.02 273.016 66.4 273.016 65.72C273.016 65.1067 273.13 64.5067 273.356 63.92C273.596 63.3333 273.95 62.8067 274.416 62.34C274.883 61.8733 275.463 61.5 276.156 61.22C276.85 60.94 277.656 60.8 278.576 60.8C279.496 60.8 280.303 60.9267 280.996 61.18C281.703 61.4333 282.296 61.7867 282.776 62.24C283.256 62.68 283.616 63.1933 283.856 63.78C284.096 64.3533 284.216 64.9667 284.216 65.62C284.216 66.2067 284.116 66.7533 283.916 67.26C283.716 67.7667 283.47 68.24 283.176 68.68C282.883 69.12 282.59 69.5467 282.296 69.96L278.936 74.6C278.883 74.6667 278.803 74.7533 278.696 74.86C278.59 74.9533 278.436 75 278.236 75H275.976ZM278.596 68.04C279.036 68.04 279.436 67.9467 279.796 67.76C280.156 67.5733 280.436 67.3067 280.636 66.96C280.85 66.6133 280.956 66.2 280.956 65.72C280.956 65.2267 280.85 64.8067 280.636 64.46C280.436 64.1133 280.156 63.8467 279.796 63.66C279.436 63.4733 279.036 63.38 278.596 63.38C278.17 63.38 277.776 63.4733 277.416 63.66C277.056 63.8467 276.77 64.1133 276.556 64.46C276.356 64.8067 276.256 65.2267 276.256 65.72C276.256 66.2 276.356 66.6133 276.556 66.96C276.77 67.3067 277.056 67.5733 277.416 67.76C277.776 67.9467 278.17 68.04 278.596 68.04ZM286.955 75C286.808 75 286.688 74.9533 286.595 74.86C286.501 74.7667 286.455 74.6467 286.455 74.5V61.5C286.455 61.3533 286.501 61.2333 286.595 61.14C286.688 61.0467 286.808 61 286.955 61H292.895C294.001 61 294.908 61.16 295.615 61.48C296.321 61.8 296.841 62.2533 297.175 62.84C297.521 63.4267 297.695 64.1133 297.695 64.9C297.695 65.3933 297.601 65.8267 297.415 66.2C297.241 66.5733 297.021 66.88 296.755 67.12C296.501 67.36 296.255 67.54 296.015 67.66C296.535 67.9 296.988 68.3 297.375 68.86C297.775 69.4067 297.975 70.06 297.975 70.82C297.975 71.66 297.788 72.3933 297.415 73.02C297.041 73.6467 296.488 74.1333 295.755 74.48C295.021 74.8267 294.128 75 293.075 75H286.955ZM289.635 72.66H292.695C293.348 72.66 293.841 72.48 294.175 72.12C294.508 71.7467 294.675 71.3067 294.675 70.8C294.675 70.28 294.501 69.8467 294.155 69.5C293.821 69.14 293.335 68.96 292.695 68.96H289.635V72.66ZM289.635 66.66H292.515C293.141 66.66 293.608 66.5067 293.915 66.2C294.235 65.88 294.395 65.4733 294.395 64.98C294.395 64.4867 294.235 64.0933 293.915 63.8C293.608 63.4933 293.141 63.34 292.515 63.34H289.635V66.66ZM305.141 75.22C303.941 75.22 302.934 75.0267 302.121 74.64C301.308 74.2533 300.688 73.7467 300.261 73.12C299.848 72.4933 299.628 71.8267 299.601 71.12C299.601 71 299.641 70.9 299.721 70.82C299.801 70.74 299.901 70.7 300.021 70.7H302.281C302.441 70.7 302.568 70.74 302.661 70.82C302.768 70.8867 302.848 70.98 302.901 71.1C303.034 71.46 303.208 71.7533 303.421 71.98C303.648 72.2067 303.908 72.3733 304.201 72.48C304.494 72.5867 304.808 72.64 305.141 72.64C305.568 72.64 305.961 72.5533 306.321 72.38C306.681 72.1933 306.968 71.9267 307.181 71.58C307.394 71.2333 307.501 70.8067 307.501 70.3C307.501 69.86 307.401 69.4733 307.201 69.14C307.001 68.8067 306.721 68.5467 306.361 68.36C306.001 68.1733 305.594 68.08 305.141 68.08C304.794 68.08 304.508 68.12 304.281 68.2C304.068 68.28 303.888 68.38 303.741 68.5C303.594 68.6067 303.461 68.7067 303.341 68.8C303.221 68.88 303.088 68.92 302.941 68.92H300.721C300.601 68.92 300.494 68.88 300.401 68.8C300.321 68.7067 300.281 68.6 300.281 68.48L300.981 61.58C301.008 61.3933 301.074 61.2533 301.181 61.16C301.301 61.0533 301.441 61 301.601 61H309.361C309.508 61 309.628 61.0467 309.721 61.14C309.814 61.2333 309.861 61.3533 309.861 61.5V63.1C309.861 63.2333 309.814 63.3467 309.721 63.44C309.628 63.5333 309.508 63.58 309.361 63.58H303.581L303.281 66.52C303.548 66.3467 303.874 66.1933 304.261 66.06C304.661 65.9133 305.214 65.84 305.921 65.84C306.561 65.84 307.168 65.9467 307.741 66.16C308.328 66.36 308.848 66.66 309.301 67.06C309.754 67.46 310.108 67.94 310.361 68.5C310.628 69.0467 310.761 69.6733 310.761 70.38C310.761 71.34 310.534 72.1867 310.081 72.92C309.628 73.64 308.981 74.2067 308.141 74.62C307.301 75.02 306.301 75.22 305.141 75.22Z" fill="#54FA80"/>
</svg>
