<svg width="144" height="64" viewBox="0 0 144 64" fill="none" xmlns="http://www.w3.org/2000/svg">
<rect width="144" height="64" rx="16" fill="#F6F6F6"/>
<path d="M17.428 21C17.3347 21 17.2553 20.9673 17.19 20.902C17.1247 20.8367 17.092 20.7573 17.092 20.664V11.55C17.092 11.4473 17.1247 11.3633 17.19 11.298C17.2553 11.2327 17.3347 11.2 17.428 11.2H18.506C18.6367 11.2 18.73 11.2327 18.786 11.298C18.8513 11.354 18.8933 11.396 18.912 11.424L22.944 17.696V11.55C22.944 11.4473 22.972 11.3633 23.028 11.298C23.0933 11.2327 23.1773 11.2 23.28 11.2H24.456C24.5587 11.2 24.6427 11.2327 24.708 11.298C24.7733 11.3633 24.806 11.4473 24.806 11.55V20.65C24.806 20.7527 24.7733 20.8367 24.708 20.902C24.6427 20.9673 24.5633 21 24.47 21H23.378C23.2473 21 23.154 20.9673 23.098 20.902C23.042 20.8367 23 20.7947 22.972 20.776L18.954 14.644V20.664C18.954 20.7573 18.9213 20.8367 18.856 20.902C18.7907 20.9673 18.7067 21 18.604 21H17.428ZM29.8464 21C29.6971 21 29.5804 20.9627 29.4964 20.888C29.4124 20.8133 29.3518 20.72 29.3144 20.608L26.3184 11.62C26.2998 11.5733 26.2904 11.5313 26.2904 11.494C26.2904 11.41 26.3184 11.34 26.3744 11.284C26.4304 11.228 26.5004 11.2 26.5844 11.2H27.8164C27.9471 11.2 28.0451 11.2373 28.1104 11.312C28.1851 11.3773 28.2318 11.4427 28.2504 11.508L30.6164 18.718L32.9824 11.508C33.0011 11.4427 33.0431 11.3773 33.1084 11.312C33.1831 11.2373 33.2858 11.2 33.4164 11.2H34.6484C34.7231 11.2 34.7884 11.228 34.8444 11.284C34.9098 11.34 34.9424 11.41 34.9424 11.494C34.9424 11.5313 34.9331 11.5733 34.9144 11.62L31.9184 20.608C31.8811 20.72 31.8204 20.8133 31.7364 20.888C31.6524 20.9627 31.5358 21 31.3864 21H29.8464ZM39.9313 21.14C39.0726 21.14 38.3399 20.9907 37.7333 20.692C37.1359 20.3933 36.6693 19.964 36.3333 19.404C36.0066 18.8347 35.8293 18.158 35.8013 17.374C35.7919 16.9727 35.7873 16.5433 35.7873 16.086C35.7873 15.6193 35.7919 15.1807 35.8013 14.77C35.8293 13.9953 36.0066 13.3327 36.3333 12.782C36.6693 12.2313 37.1406 11.8067 37.7473 11.508C38.3633 11.2093 39.0913 11.06 39.9313 11.06C40.6126 11.06 41.2099 11.1533 41.7233 11.34C42.2366 11.5173 42.6613 11.7507 42.9973 12.04C43.3426 12.32 43.5993 12.6233 43.7673 12.95C43.9446 13.2767 44.0379 13.58 44.0473 13.86C44.0566 13.944 44.0333 14.014 43.9773 14.07C43.9213 14.126 43.8466 14.154 43.7533 14.154H42.3113C42.2179 14.154 42.1479 14.1353 42.1012 14.098C42.0546 14.0607 42.0126 14.0047 41.9753 13.93C41.9006 13.734 41.7839 13.5427 41.6253 13.356C41.4666 13.16 41.2519 12.9967 40.9813 12.866C40.7106 12.7353 40.3606 12.67 39.9313 12.67C39.2966 12.67 38.7879 12.838 38.4053 13.174C38.0319 13.51 37.8313 14.0653 37.8033 14.84C37.7753 15.652 37.7753 16.4733 37.8033 17.304C37.8313 18.0973 38.0366 18.6667 38.4193 19.012C38.8113 19.3573 39.3246 19.53 39.9593 19.53C40.3793 19.53 40.7526 19.4553 41.0793 19.306C41.4153 19.1567 41.6766 18.9233 41.8633 18.606C42.0593 18.2887 42.1573 17.8827 42.1573 17.388V16.954H40.4493C40.3559 16.954 40.2766 16.9213 40.2113 16.856C40.1459 16.7907 40.1133 16.7067 40.1133 16.604V15.862C40.1133 15.7593 40.1459 15.6753 40.2113 15.61C40.2766 15.5447 40.3559 15.512 40.4493 15.512H43.7953C43.8979 15.512 43.9773 15.5447 44.0333 15.61C44.0986 15.6753 44.1313 15.7593 44.1313 15.862V17.332C44.1313 18.116 43.9586 18.7927 43.6133 19.362C43.2773 19.9313 42.7919 20.37 42.1573 20.678C41.5319 20.986 40.7899 21.14 39.9313 21.14ZM46.052 17.598C45.9493 17.598 45.8653 17.5653 45.8 17.5C45.744 17.4347 45.716 17.3553 45.716 17.262V16.338C45.716 16.2447 45.744 16.1653 45.8 16.1C45.8653 16.0347 45.9493 16.002 46.052 16.002H50.35C50.4433 16.002 50.5227 16.0347 50.588 16.1C50.6533 16.1653 50.686 16.2447 50.686 16.338V17.262C50.686 17.3553 50.6533 17.4347 50.588 17.5C50.5227 17.5653 50.4433 17.598 50.35 17.598H46.052ZM20.592 37.14C19.9293 37.14 19.3647 37.042 18.898 36.846C18.4313 36.65 18.0487 36.3793 17.75 36.034C17.4513 35.6887 17.2273 35.292 17.078 34.844C16.9287 34.3867 16.84 33.9013 16.812 33.388C16.8027 33.136 16.7933 32.8607 16.784 32.562C16.784 32.254 16.784 31.946 16.784 31.638C16.7933 31.33 16.8027 31.0453 16.812 30.784C16.8307 30.2707 16.9193 29.79 17.078 29.342C17.2367 28.8847 17.4653 28.488 17.764 28.152C18.072 27.816 18.4593 27.55 18.926 27.354C19.3927 27.158 19.948 27.06 20.592 27.06C21.2453 27.06 21.8053 27.158 22.272 27.354C22.7387 27.55 23.1213 27.816 23.42 28.152C23.728 28.488 23.9567 28.8847 24.106 29.342C24.2647 29.79 24.3533 30.2707 24.372 30.784C24.3907 31.0453 24.4 31.33 24.4 31.638C24.4 31.946 24.4 32.254 24.4 32.562C24.4 32.8607 24.3907 33.136 24.372 33.388C24.3533 33.9013 24.2693 34.3867 24.12 34.844C23.9707 35.292 23.7467 35.6887 23.448 36.034C23.1493 36.3793 22.762 36.65 22.286 36.846C21.8193 37.042 21.2547 37.14 20.592 37.14ZM20.592 35.53C21.1987 35.53 21.642 35.334 21.922 34.942C22.2113 34.5407 22.3607 33.9993 22.37 33.318C22.3887 33.0473 22.398 32.7767 22.398 32.506C22.398 32.226 22.398 31.946 22.398 31.666C22.398 31.386 22.3887 31.12 22.37 30.868C22.3607 30.2053 22.2113 29.6733 21.922 29.272C21.642 28.8613 21.1987 28.656 20.592 28.656C19.9947 28.656 19.5513 28.8613 19.262 29.272C18.982 29.6733 18.8327 30.2053 18.814 30.868C18.814 31.12 18.8093 31.386 18.8 31.666C18.8 31.946 18.8 32.226 18.8 32.506C18.8093 32.7767 18.814 33.0473 18.814 33.318C18.8327 33.9993 18.9867 34.5407 19.276 34.942C19.5653 35.334 20.004 35.53 20.592 35.53ZM29.0792 37C28.9765 37 28.8925 36.9673 28.8272 36.902C28.7712 36.8367 28.7432 36.7573 28.7432 36.664V29.412L26.6152 31.05C26.5312 31.106 26.4472 31.1293 26.3632 31.12C26.2792 31.1013 26.2045 31.05 26.1392 30.966L25.5512 30.21C25.4952 30.126 25.4718 30.0373 25.4812 29.944C25.4998 29.8507 25.5512 29.776 25.6352 29.72L28.7712 27.298C28.8272 27.2513 28.8832 27.2233 28.9392 27.214C28.9952 27.2047 29.0558 27.2 29.1212 27.2H30.3532C30.4465 27.2 30.5258 27.2327 30.5912 27.298C30.6565 27.3633 30.6892 27.4427 30.6892 27.536V36.664C30.6892 36.7573 30.6565 36.8367 30.5912 36.902C30.5258 36.9673 30.4465 37 30.3532 37H29.0792ZM34.2576 37C34.1736 37 34.1036 36.972 34.0476 36.916C33.9916 36.8507 33.9636 36.776 33.9636 36.692C33.9636 36.6453 33.9683 36.608 33.9776 36.58C33.9963 36.552 34.0103 36.5287 34.0196 36.51L36.0776 33.668C35.9003 33.7147 35.709 33.7333 35.5036 33.724C35.0276 33.7147 34.5843 33.626 34.1736 33.458C33.7723 33.2807 33.4176 33.0473 33.1096 32.758C32.811 32.4593 32.573 32.1187 32.3956 31.736C32.2276 31.344 32.1436 30.9193 32.1436 30.462C32.1436 30.042 32.223 29.6313 32.3816 29.23C32.5403 28.8193 32.7736 28.4507 33.0816 28.124C33.399 27.7973 33.791 27.5407 34.2576 27.354C34.7336 27.158 35.289 27.06 35.9236 27.06C36.549 27.06 37.0996 27.1487 37.5756 27.326C38.0516 27.5033 38.4483 27.7507 38.7656 28.068C39.0923 28.376 39.335 28.7307 39.4936 29.132C39.6616 29.5333 39.7456 29.958 39.7456 30.406C39.7456 30.8073 39.6803 31.1807 39.5496 31.526C39.419 31.8713 39.2556 32.1887 39.0596 32.478C38.873 32.758 38.6863 33.0333 38.4996 33.304L36.0356 36.72C35.9983 36.7667 35.9423 36.8273 35.8676 36.902C35.8023 36.9673 35.6996 37 35.5596 37H34.2576ZM35.9376 32.24C36.2736 32.24 36.577 32.17 36.8476 32.03C37.1276 31.8807 37.347 31.6753 37.5056 31.414C37.6736 31.1433 37.7576 30.826 37.7576 30.462C37.7576 30.0887 37.6736 29.7713 37.5056 29.51C37.347 29.2393 37.1276 29.034 36.8476 28.894C36.5676 28.7447 36.2643 28.67 35.9376 28.67C35.6016 28.67 35.2936 28.7447 35.0136 28.894C34.743 29.034 34.5236 29.2393 34.3556 29.51C34.197 29.7713 34.1176 30.0887 34.1176 30.462C34.1176 30.826 34.197 31.1433 34.3556 31.414C34.5236 31.6753 34.743 31.8807 35.0136 32.03C35.2936 32.17 35.6016 32.24 35.9376 32.24ZM44.9143 37.14C44.2983 37.14 43.7476 37.0653 43.2623 36.916C42.7769 36.7667 42.3663 36.5567 42.0303 36.286C41.7036 36.0153 41.4516 35.698 41.2743 35.334C41.1063 34.97 41.0223 34.564 41.0223 34.116C41.0223 33.5747 41.1529 33.108 41.4143 32.716C41.6849 32.3147 42.0349 32.0067 42.4643 31.792C42.1189 31.5773 41.8483 31.302 41.6523 30.966C41.4656 30.63 41.3723 30.238 41.3723 29.79C41.3723 29.2487 41.5076 28.7773 41.7783 28.376C42.0583 27.9653 42.4596 27.6433 42.9823 27.41C43.5143 27.1767 44.1583 27.06 44.9143 27.06C45.6703 27.06 46.3096 27.1767 46.8323 27.41C47.3549 27.634 47.7516 27.9513 48.0223 28.362C48.2929 28.7633 48.4283 29.2347 48.4283 29.776C48.4283 30.224 48.3349 30.616 48.1483 30.952C47.9616 31.288 47.7003 31.568 47.3643 31.792C47.8029 31.9973 48.1529 32.3053 48.4143 32.716C48.6756 33.1173 48.8063 33.5887 48.8063 34.13C48.8063 34.718 48.6523 35.2407 48.3443 35.698C48.0456 36.146 47.6023 36.5007 47.0143 36.762C46.4356 37.014 45.7356 37.14 44.9143 37.14ZM44.9143 35.684C45.2783 35.684 45.6049 35.6233 45.8943 35.502C46.1929 35.3713 46.4263 35.1893 46.5943 34.956C46.7716 34.7227 46.8603 34.4473 46.8603 34.13C46.8603 33.8033 46.7716 33.528 46.5943 33.304C46.4263 33.0707 46.1929 32.8933 45.8943 32.772C45.6049 32.6413 45.2783 32.576 44.9143 32.576C44.5503 32.576 44.2189 32.6413 43.9203 32.772C43.6309 32.8933 43.3976 33.0707 43.2203 33.304C43.0523 33.528 42.9683 33.8033 42.9683 34.13C42.9683 34.4473 43.0523 34.7227 43.2203 34.956C43.3976 35.1893 43.6309 35.3713 43.9203 35.502C44.2189 35.6233 44.5503 35.684 44.9143 35.684ZM44.9143 31.19C45.2223 31.1807 45.5023 31.12 45.7543 31.008C46.0156 30.896 46.2209 30.742 46.3703 30.546C46.5289 30.35 46.6083 30.1213 46.6083 29.86C46.6083 29.5893 46.5336 29.356 46.3843 29.16C46.2443 28.9547 46.0436 28.796 45.7823 28.684C45.5303 28.572 45.2409 28.516 44.9143 28.516C44.5876 28.516 44.2936 28.572 44.0323 28.684C43.7803 28.796 43.5796 28.9547 43.4303 29.16C43.2903 29.356 43.2203 29.5893 43.2203 29.86C43.2203 30.1307 43.2903 30.364 43.4303 30.56C43.5796 30.756 43.7803 30.91 44.0323 31.022C44.2936 31.134 44.5876 31.19 44.9143 31.19ZM19.878 53C19.7753 53 19.6913 52.9673 19.626 52.902C19.57 52.8367 19.542 52.7573 19.542 52.664V45.412L17.414 47.05C17.33 47.106 17.246 47.1293 17.162 47.12C17.078 47.1013 17.0033 47.05 16.938 46.966L16.35 46.21C16.294 46.126 16.2707 46.0373 16.28 45.944C16.2987 45.8507 16.35 45.776 16.434 45.72L19.57 43.298C19.626 43.2513 19.682 43.2233 19.738 43.214C19.794 43.2047 19.8547 43.2 19.92 43.2H21.152C21.2453 43.2 21.3247 43.2327 21.39 43.298C21.4553 43.3633 21.488 43.4427 21.488 43.536V52.664C21.488 52.7573 21.4553 52.8367 21.39 52.902C21.3247 52.9673 21.2453 53 21.152 53H19.878ZM23.4465 53C23.3531 53 23.2738 52.9673 23.2085 52.902C23.1431 52.8367 23.1105 52.7573 23.1105 52.664V51.95C23.1105 51.866 23.1291 51.768 23.1665 51.656C23.2131 51.5347 23.3111 51.4133 23.4605 51.292L25.6725 49.094C26.2885 48.6087 26.7831 48.198 27.1565 47.862C27.5391 47.5167 27.8145 47.204 27.9825 46.924C28.1598 46.6347 28.2485 46.35 28.2485 46.07C28.2485 45.65 28.1318 45.3093 27.8985 45.048C27.6745 44.7867 27.3151 44.656 26.8205 44.656C26.4938 44.656 26.2185 44.726 25.9945 44.866C25.7705 44.9967 25.5931 45.174 25.4625 45.398C25.3411 45.622 25.2571 45.8693 25.2105 46.14C25.1918 46.2613 25.1405 46.3453 25.0565 46.392C24.9725 46.4387 24.8885 46.462 24.8045 46.462H23.5585C23.4745 46.462 23.4045 46.434 23.3485 46.378C23.2925 46.322 23.2645 46.2567 23.2645 46.182C23.2738 45.7807 23.3578 45.3933 23.5165 45.02C23.6751 44.6373 23.9038 44.3013 24.2025 44.012C24.5105 43.7133 24.8838 43.4753 25.3225 43.298C25.7611 43.1207 26.2558 43.032 26.8065 43.032C27.5811 43.032 28.2205 43.1627 28.7245 43.424C29.2378 43.6853 29.6205 44.04 29.8725 44.488C30.1338 44.936 30.2645 45.44 30.2645 46C30.2645 46.4387 30.1805 46.8447 30.0125 47.218C29.8445 47.582 29.6018 47.9367 29.2845 48.282C28.9671 48.618 28.5845 48.9633 28.1365 49.318L26.1485 51.334H30.1385C30.2411 51.334 30.3205 51.3667 30.3765 51.432C30.4418 51.488 30.4745 51.5673 30.4745 51.67V52.664C30.4745 52.7573 30.4418 52.8367 30.3765 52.902C30.3205 52.9673 30.2411 53 30.1385 53H23.4465ZM35.5024 53.14C34.8491 53.14 34.2844 53.0607 33.8084 52.902C33.3324 52.7433 32.9358 52.538 32.6184 52.286C32.3104 52.0247 32.0771 51.7447 31.9184 51.446C31.7598 51.138 31.6758 50.8347 31.6664 50.536C31.6664 50.452 31.6944 50.3867 31.7504 50.34C31.8158 50.284 31.8904 50.256 31.9744 50.256H33.2344C33.3278 50.256 33.4071 50.2747 33.4724 50.312C33.5378 50.3493 33.5938 50.424 33.6404 50.536C33.7244 50.788 33.8598 50.9887 34.0464 51.138C34.2424 51.2873 34.4664 51.3947 34.7184 51.46C34.9704 51.516 35.2364 51.544 35.5164 51.544C36.0764 51.544 36.5198 51.4133 36.8464 51.152C37.1824 50.8813 37.3504 50.4987 37.3504 50.004C37.3504 49.5093 37.1964 49.1547 36.8884 48.94C36.5804 48.716 36.1511 48.604 35.6004 48.604H34.1584C34.0558 48.604 33.9718 48.576 33.9064 48.52C33.8411 48.4547 33.8084 48.3707 33.8084 48.268V47.68C33.8084 47.5867 33.8271 47.5073 33.8644 47.442C33.9111 47.3673 33.9578 47.3067 34.0044 47.26L36.5104 44.81H32.5064C32.4038 44.81 32.3198 44.7773 32.2544 44.712C32.1984 44.6467 32.1704 44.5673 32.1704 44.474V43.55C32.1704 43.4473 32.1984 43.3633 32.2544 43.298C32.3198 43.2327 32.4038 43.2 32.5064 43.2H38.5124C38.6151 43.2 38.6991 43.2327 38.7644 43.298C38.8298 43.3633 38.8624 43.4473 38.8624 43.55V44.39C38.8624 44.474 38.8438 44.5487 38.8064 44.614C38.7691 44.6793 38.7271 44.7353 38.6804 44.782L36.2584 47.274L36.4264 47.288C36.9958 47.3347 37.4998 47.4653 37.9384 47.68C38.3864 47.8853 38.7318 48.1887 38.9744 48.59C39.2264 48.9913 39.3524 49.4953 39.3524 50.102C39.3524 50.7367 39.1844 51.2827 38.8484 51.74C38.5218 52.188 38.0691 52.5333 37.4904 52.776C36.9118 53.0187 36.2491 53.14 35.5024 53.14ZM45.4968 53C45.4035 53 45.3241 52.9673 45.2588 52.902C45.1935 52.8367 45.1608 52.7573 45.1608 52.664V50.872H40.7228C40.6201 50.872 40.5361 50.8393 40.4708 50.774C40.4148 50.7087 40.3868 50.6293 40.3868 50.536V49.584C40.3868 49.528 40.3961 49.4627 40.4148 49.388C40.4428 49.304 40.4848 49.2293 40.5408 49.164L44.6708 43.438C44.7921 43.2793 44.9648 43.2 45.1888 43.2H46.7148C46.8081 43.2 46.8875 43.2327 46.9528 43.298C47.0181 43.3633 47.0508 43.4427 47.0508 43.536V49.22H48.2968C48.4088 49.22 48.4928 49.2527 48.5488 49.318C48.6141 49.374 48.6468 49.4533 48.6468 49.556V50.536C48.6468 50.6293 48.6141 50.7087 48.5488 50.774C48.4835 50.8393 48.4041 50.872 48.3108 50.872H47.0508V52.664C47.0508 52.7573 47.0181 52.8367 46.9528 52.902C46.8875 52.9673 46.8081 53 46.7148 53H45.4968ZM42.3328 49.276H45.2028V45.23L42.3328 49.276Z" fill="#F6F6F6"/>
<rect x="72" y="4" width="68" height="56" rx="12" fill="#F6F6F6"/>
<path d="M92.0937 37.14C91.2257 37.14 90.4883 36.9907 89.8817 36.692C89.2843 36.384 88.827 35.95 88.5097 35.39C88.1923 34.8207 88.015 34.1393 87.9777 33.346C87.9683 32.9633 87.9637 32.5527 87.9637 32.114C87.9637 31.6753 87.9683 31.2553 87.9777 30.854C88.015 30.07 88.1923 29.3933 88.5097 28.824C88.8363 28.2547 89.2983 27.8207 89.8957 27.522C90.5023 27.214 91.235 27.06 92.0937 27.06C92.7283 27.06 93.2977 27.144 93.8017 27.312C94.3057 27.48 94.735 27.7133 95.0897 28.012C95.4443 28.3013 95.7197 28.642 95.9157 29.034C96.1117 29.426 96.2143 29.8507 96.2237 30.308C96.233 30.392 96.205 30.462 96.1397 30.518C96.0837 30.574 96.0137 30.602 95.9297 30.602H94.5997C94.497 30.602 94.413 30.5787 94.3477 30.532C94.2823 30.476 94.2357 30.3873 94.2077 30.266C94.0583 29.65 93.8017 29.23 93.4377 29.006C93.0737 28.782 92.621 28.67 92.0797 28.67C91.4543 28.67 90.955 28.8473 90.5817 29.202C90.2083 29.5473 90.0077 30.1213 89.9797 30.924C89.9517 31.6893 89.9517 32.4733 89.9797 33.276C90.0077 34.0787 90.2083 34.6573 90.5817 35.012C90.955 35.3573 91.4543 35.53 92.0797 35.53C92.621 35.53 93.0737 35.418 93.4377 35.194C93.811 34.9607 94.0677 34.5407 94.2077 33.934C94.2357 33.8033 94.2823 33.7147 94.3477 33.668C94.413 33.6213 94.497 33.598 94.5997 33.598H95.9297C96.0137 33.598 96.0837 33.626 96.1397 33.682C96.205 33.738 96.233 33.808 96.2237 33.892C96.2143 34.3493 96.1117 34.774 95.9157 35.166C95.7197 35.558 95.4443 35.9033 95.0897 36.202C94.735 36.4913 94.3057 36.72 93.8017 36.888C93.2977 37.056 92.7283 37.14 92.0937 37.14ZM101.65 37.14C100.819 37.14 100.105 37.0047 99.508 36.734C98.9107 36.454 98.444 36.0293 98.108 35.46C97.772 34.8813 97.59 34.1627 97.562 33.304C97.5527 32.9027 97.548 32.506 97.548 32.114C97.548 31.722 97.5527 31.3207 97.562 30.91C97.59 30.0607 97.7767 29.3513 98.122 28.782C98.4673 28.2127 98.9387 27.7833 99.536 27.494C100.143 27.2047 100.847 27.06 101.65 27.06C102.453 27.06 103.157 27.2047 103.764 27.494C104.371 27.7833 104.847 28.2127 105.192 28.782C105.537 29.3513 105.724 30.0607 105.752 30.91C105.771 31.3207 105.78 31.722 105.78 32.114C105.78 32.506 105.771 32.9027 105.752 33.304C105.724 34.1627 105.542 34.8813 105.206 35.46C104.87 36.0293 104.399 36.454 103.792 36.734C103.195 37.0047 102.481 37.14 101.65 37.14ZM101.65 35.53C102.257 35.53 102.751 35.3527 103.134 34.998C103.517 34.634 103.722 34.046 103.75 33.234C103.769 32.8233 103.778 32.4453 103.778 32.1C103.778 31.7453 103.769 31.3673 103.75 30.966C103.731 30.4247 103.629 29.986 103.442 29.65C103.265 29.3047 103.022 29.0573 102.714 28.908C102.406 28.7493 102.051 28.67 101.65 28.67C101.258 28.67 100.908 28.7493 100.6 28.908C100.292 29.0573 100.045 29.3047 99.858 29.65C99.6807 29.986 99.5827 30.4247 99.564 30.966C99.5547 31.3673 99.55 31.7453 99.55 32.1C99.55 32.4453 99.5547 32.8233 99.564 33.234C99.592 34.046 99.7973 34.634 100.18 34.998C100.563 35.3527 101.053 35.53 101.65 35.53ZM107.954 37C107.861 37 107.782 36.9673 107.716 36.902C107.651 36.8367 107.618 36.7573 107.618 36.664V27.55C107.618 27.4473 107.651 27.3633 107.716 27.298C107.782 27.2327 107.861 27.2 107.954 27.2H111.706C112.434 27.2 113.069 27.3167 113.61 27.55C114.152 27.774 114.572 28.1193 114.87 28.586C115.169 29.0433 115.318 29.6173 115.318 30.308C115.318 31.008 115.169 31.5867 114.87 32.044C114.572 32.492 114.152 32.828 113.61 33.052C113.069 33.276 112.434 33.388 111.706 33.388H109.62V36.664C109.62 36.7573 109.588 36.8367 109.522 36.902C109.466 36.9673 109.387 37 109.284 37H107.954ZM109.592 31.834H111.636C112.178 31.834 112.593 31.708 112.882 31.456C113.172 31.1947 113.316 30.812 113.316 30.308C113.316 29.8413 113.181 29.468 112.91 29.188C112.64 28.8987 112.215 28.754 111.636 28.754H109.592V31.834ZM119.485 37C119.392 37 119.313 36.9673 119.247 36.902C119.182 36.8367 119.149 36.7573 119.149 36.664V33.5L115.845 27.648C115.836 27.6293 115.827 27.606 115.817 27.578C115.808 27.55 115.803 27.522 115.803 27.494C115.803 27.41 115.831 27.34 115.887 27.284C115.943 27.228 116.009 27.2 116.083 27.2H117.329C117.441 27.2 117.53 27.228 117.595 27.284C117.67 27.34 117.721 27.4007 117.749 27.466L120.129 31.54L122.495 27.466C122.533 27.4007 122.584 27.34 122.649 27.284C122.724 27.228 122.817 27.2 122.929 27.2H124.161C124.245 27.2 124.315 27.228 124.371 27.284C124.427 27.34 124.455 27.41 124.455 27.494C124.455 27.522 124.451 27.55 124.441 27.578C124.441 27.606 124.432 27.6293 124.413 27.648L121.109 33.5V36.664C121.109 36.7573 121.077 36.8367 121.011 36.902C120.946 36.9673 120.862 37 120.759 37H119.485Z" fill="#F6F6F6"/>
</svg>
