<svg width="41" height="40" viewBox="0 0 41 40" fill="none" xmlns="http://www.w3.org/2000/svg">
<rect x="0.847778" y="-0.00012207" width="40" height="40" rx="12" fill="#A06FE9"/>
<path d="M25.6603 10.3749H16.0353C13.3774 10.3749 11.2228 12.5295 11.2228 15.1874V24.8124C11.2228 27.4702 13.3774 29.6249 16.0353 29.6249H25.6603C28.3181 29.6249 30.4728 27.4702 30.4728 24.8124V15.1874C30.4728 12.5295 28.3181 10.3749 25.6603 10.3749Z" fill="#131313"/>
<path fill-rule="evenodd" clip-rule="evenodd" d="M21.4895 15.6722C20.5793 15.5372 19.6496 15.6927 18.8328 16.1165C18.016 16.5404 17.3536 17.211 16.9399 18.0329C16.5262 18.8549 16.3822 19.7864 16.5283 20.6949C16.6745 21.6035 17.1035 22.4428 17.7542 23.0935C18.4049 23.7442 19.2442 24.1731 20.1527 24.3193C21.0613 24.4655 21.9928 24.3215 22.8147 23.9078C23.6367 23.4941 24.3073 22.8317 24.7311 22.0149C25.155 21.1981 25.3104 20.2684 25.1755 19.3581C25.0378 18.4296 24.6051 17.57 23.9414 16.9063C23.2776 16.2426 22.418 15.8099 21.4895 15.6722ZM18.0268 14.5632C19.1703 13.9698 20.4718 13.7522 21.7462 13.9411C23.0461 14.1339 24.2496 14.7396 25.1788 15.6689C26.108 16.5981 26.7138 17.8015 26.9065 19.1014C27.0955 20.3758 26.8778 21.6773 26.2845 22.8209C25.6911 23.9644 24.7523 24.8917 23.6015 25.4709C22.4508 26.0501 21.1467 26.2518 19.8747 26.0471C18.6028 25.8424 17.4277 25.2419 16.5168 24.3309C15.6058 23.4199 15.0052 22.2449 14.8006 20.973C14.5959 19.701 14.7975 18.3969 15.3767 17.2461C15.9559 16.0954 16.8833 15.1565 18.0268 14.5632Z" fill="#A06FE9"/>
<path fill-rule="evenodd" clip-rule="evenodd" d="M26.0978 13.8749C26.0978 13.3916 26.4895 12.9999 26.9728 12.9999H26.9815C27.4648 12.9999 27.8565 13.3916 27.8565 13.8749C27.8565 14.3581 27.4648 14.7499 26.9815 14.7499H26.9728C26.4895 14.7499 26.0978 14.3581 26.0978 13.8749Z" fill="#A06FE9"/>
</svg>
