<svg width="41" height="40" viewBox="0 0 41 40" fill="none" xmlns="http://www.w3.org/2000/svg">
<rect x="0.847778" y="-0.00012207" width="40" height="40" rx="12" fill="#A06FE9"/>
<path d="M31.3478 11.2595C30.4337 11.9043 29.4216 12.3974 28.3505 12.7199C27.7756 12.0589 27.0116 11.5904 26.1618 11.3778C25.3119 11.1651 24.4173 11.2186 23.5989 11.531C22.7804 11.8434 22.0777 12.3996 21.5856 13.1244C21.0936 13.8492 20.836 14.7076 20.8478 15.5836V16.5381C19.1703 16.5816 17.5081 16.2096 16.0092 15.4551C14.5103 14.7007 13.2213 13.5873 12.2569 12.214C12.2569 12.214 8.43869 20.8049 17.0296 24.6231C15.0637 25.9575 12.7219 26.6266 10.3478 26.5322C18.9387 31.3049 29.4387 26.5322 29.4387 15.5549C29.4378 15.289 29.4122 15.0238 29.3623 14.7627C30.3365 13.8019 31.024 12.5889 31.3478 11.2595Z" fill="#131313"/>
</svg>
