<svg width="32" height="32" viewBox="0 0 32 32" fill="none" xmlns="http://www.w3.org/2000/svg">
<path d="M14.2043 5.66165C14.9362 4.16914 17.0638 4.16914 17.7957 5.66165L18.7096 7.52525C19.1158 8.35345 20.0357 8.79645 20.9364 8.59762L22.9632 8.15022C24.5865 7.7919 25.913 9.45526 25.2024 10.9581L24.3152 12.8345C23.921 13.6685 24.1482 14.6639 24.8652 15.2441L26.4787 16.5498C27.7709 17.5955 27.2975 19.6697 25.6796 20.0512L23.6593 20.5275C22.7615 20.7392 22.1249 21.5374 22.1183 22.4598L22.1035 24.5354C22.0916 26.1977 20.1748 27.1208 18.8678 26.0937L17.2358 24.8111C16.5105 24.2412 15.4895 24.2412 14.7642 24.8111L13.1322 26.0937C11.8252 27.1208 9.90837 26.1977 9.8965 24.5354L9.88167 22.4598C9.87508 21.5374 9.23849 20.7392 8.34068 20.5275L6.32043 20.0512C4.70247 19.6697 4.22906 17.5955 5.52128 16.5498L7.13479 15.2441C7.85185 14.6639 8.07904 13.6685 7.68476 12.8345L6.79756 10.9581C6.08702 9.45526 7.4135 7.7919 9.03675 8.15022L11.0636 8.59762C11.9643 8.79645 12.8842 8.35345 13.2904 7.52525L14.2043 5.66165Z" stroke="#131313" stroke-width="2"/>
<circle cx="16" cy="16" r="4" stroke="#131313" stroke-width="2"/>
<path d="M14.2043 5.66165C14.9362 4.16914 17.0638 4.16914 17.7957 5.66165L18.7096 7.52525C19.1158 8.35345 20.0357 8.79645 20.9364 8.59762L22.9632 8.15022C24.5865 7.7919 25.913 9.45526 25.2024 10.9581L24.3152 12.8345C23.921 13.6685 24.1482 14.6639 24.8652 15.2441L26.4787 16.5498C27.7709 17.5955 27.2975 19.6697 25.6796 20.0512L23.6593 20.5275C22.7615 20.7392 22.1249 21.5374 22.1183 22.4598L22.1035 24.5354C22.0916 26.1977 20.1748 27.1208 18.8678 26.0937L17.2358 24.8111C16.5105 24.2412 15.4895 24.2412 14.7642 24.8111L13.1322 26.0937C11.8252 27.1208 9.90837 26.1977 9.8965 24.5354L9.88167 22.4598C9.87508 21.5374 9.23849 20.7392 8.34068 20.5275L6.32043 20.0512C4.70247 19.6697 4.22906 17.5955 5.52128 16.5498L7.13479 15.2441C7.85185 14.6639 8.07904 13.6685 7.68476 12.8345L6.79756 10.9581C6.08702 9.45526 7.4135 7.7919 9.03675 8.15022L11.0636 8.59762C11.9643 8.79645 12.8842 8.35345 13.2904 7.52525L14.2043 5.66165Z" stroke="#131313" stroke-width="2"/>
<circle cx="16" cy="16" r="4" stroke="#131313" stroke-width="2"/>
</svg>
