<svg width="390" height="216" viewBox="0 0 390 216" fill="none" xmlns="http://www.w3.org/2000/svg">
<rect width="390" height="216" fill="#54FA80"/>
<mask id="mask0_698_4181" style="mask-type:alpha" maskUnits="userSpaceOnUse" x="0" y="80" width="390" height="136">
<rect y="80" width="390" height="136" fill="black"/>
</mask>
<g mask="url(#mask0_698_4181)">
<path d="M265 174L215 174C203.954 174 195 182.954 195 194L195 216" stroke="#131313" stroke-width="12"/>
<path d="M-0.5 110H301C312.046 110 321 118.954 321 130V154C321 165.046 312.046 174 301 174H239.5" stroke="#131313" stroke-width="12"/>
<path d="M-0.5 110H195" stroke="white" stroke-width="12"/>
<circle cx="195" cy="110" r="23" fill="#54FA80" stroke="white" stroke-width="2"/>
<path d="M206.396 108.918L189.79 99.1587C188.985 98.6983 188 99.2968 188 100.218L188 103.9L188 115.64L188 119.737C188 120.704 188.985 121.302 189.79 120.842L206.396 111.128C207.201 110.622 207.201 109.425 206.396 108.918Z" fill="#131313"/>
<circle cx="75" cy="110" r="12" fill="#131313" stroke="#131313" stroke-width="4"/>
<path d="M81.3946 104.697C80.8271 104.22 79.9731 104.279 79.4789 104.835L73.3841 111.692L71.0775 109.45C70.5451 108.933 69.6892 108.933 69.1568 109.45C68.6144 109.978 68.6144 110.84 69.1568 111.367L72.4967 114.612C72.7666 114.874 73.1327 115.012 73.5063 114.999C73.8799 114.986 74.2355 114.822 74.4859 114.54L81.5366 106.608C82.0402 106.041 81.9726 105.182 81.3946 104.697Z" fill="white"/>
<rect x="308" y="129" width="26" height="26" rx="13" fill="#54FA80"/>
<path d="M327.395 136.697C326.827 136.22 325.973 136.279 325.479 136.835L319.384 143.692L317.078 141.45C316.545 140.933 315.689 140.933 315.157 141.45C314.614 141.978 314.614 142.84 315.157 143.367L318.497 146.612C318.767 146.874 319.133 147.012 319.506 146.999C319.88 146.986 320.235 146.822 320.486 146.54L327.537 138.608C328.04 138.041 327.973 137.182 327.395 136.697Z" fill="#131313"/>
<rect x="308" y="129" width="26" height="26" rx="13" stroke="#131313" stroke-width="2"/>
</g>
</svg>
