<svg width="390" height="65" viewBox="0 0 390 65" fill="none" xmlns="http://www.w3.org/2000/svg">
<path d="M179.845 0.5H179.384L179.347 0.95954L172.852 80.9595L172.808 81.5H173.351H216.649H217.192L217.148 80.9595L210.653 0.95954L210.616 0.5H210.155H179.845Z" fill="#161616" stroke="#54FA80"/>
<path d="M220.979 0.5H220.376L220.488 1.09306L235.643 81.0931L235.72 81.5H236.134H279.433H280.139L279.905 80.8341L251.76 0.834067L251.643 0.5H251.289H220.979Z" fill="#161616" stroke="#54FA80"/>
<path d="M169.021 0.5H169.624L169.512 1.09306L154.357 81.0931L154.28 81.5H153.866H110.567H109.861L110.095 80.8341L138.24 0.834067L138.357 0.5H138.711H169.021Z" fill="#161616" stroke="#54FA80"/>
<path d="M262.113 0.5H261.333L261.659 1.20897L298.463 81.209L298.597 81.5H298.918H342.216H343.117L342.641 80.7358L292.847 0.735788L292.7 0.5H292.423H262.113Z" fill="#161616" stroke="#54FA80"/>
<path d="M127.887 0.5H128.667L128.341 1.20897L91.5367 81.209L91.4028 81.5H91.0825H47.7835H46.8833L47.359 80.7358L97.1528 0.735788L97.2996 0.5H97.5773H127.887Z" fill="#161616" stroke="#54FA80"/>
<path d="M303.247 0.5H302.263L302.844 1.29498L361.297 81.295L361.447 81.5H361.701H405H406.117L405.373 80.667L333.93 0.666954L333.781 0.5H333.557H303.247Z" fill="#161616" stroke="#54FA80"/>
<path d="M86.7526 0.5H87.7372L87.1563 1.29498L28.7027 81.295L28.5529 81.5H28.299H-15H-16.1169L-15.3729 80.667L56.0704 0.666954L56.2195 0.5H56.4433H86.7526Z" fill="#161616" stroke="#54FA80"/>
</svg>
