<svg width="32" height="32" viewBox="0 0 32 32" fill="none" xmlns="http://www.w3.org/2000/svg">
<path d="M26.5827 12.2992C25.779 9.88797 22.564 5.33337 16 5.33337C9.43602 5.33337 6.08705 9.88797 5.41725 12.2992C5.14934 12.969 5.55121 13.7728 6.22101 14.0407C6.8908 14.3086 7.69455 13.9067 7.96247 13.2369C7.96247 12.969 9.70394 8.01255 16 8.01255C22.2961 8.01255 24.0375 12.969 24.1715 13.103C24.3054 13.6388 24.8413 14.0407 25.3771 14.0407C25.5111 14.0407 25.645 14.0407 25.779 13.9067C26.4488 13.7728 26.8507 12.969 26.5827 12.2992Z" fill="#131313"/>
<path d="M16 18.0595C18.2195 18.0595 20.0188 16.2602 20.0188 14.0407C20.0188 11.8212 18.2195 10.022 16 10.022C13.7805 10.022 11.9812 11.8212 11.9812 14.0407C11.9812 16.2602 13.7805 18.0595 16 18.0595Z" fill="#131313"/>
</svg>
