<svg width="88" height="144" viewBox="0 0 88 144" fill="none" xmlns="http://www.w3.org/2000/svg">
<path fill-rule="evenodd" clip-rule="evenodd" d="M40.0587 28.572C34.9788 29.7508 31.8163 34.8246 32.9952 39.9046L40.0871 70.4645L19.5004 94.635C18.4265 95.8959 17.703 97.4172 17.4028 99.0461L11.1734 132.844C10.2281 137.973 13.6194 142.897 18.7479 143.842C23.8765 144.787 28.8003 141.396 29.7456 136.267L35.5168 104.956L57.5493 79.0875C59.4898 76.8091 60.2354 73.7457 59.5589 70.8303L51.3914 35.6355C50.2125 30.5555 45.1387 27.3931 40.0587 28.572Z" fill="#F6F6F6"/>
<path d="M18.0989 12.9835C18.0989 20.154 23.9118 25.9669 31.0823 25.9669C38.2529 25.9669 44.0658 20.154 44.0658 12.9835C44.0658 5.81289 38.2529 0 31.0823 0C23.9118 0 18.0989 5.81289 18.0989 12.9835Z" fill="#F6F6F6"/>
<path d="M29.801 43.5445L3.91501 62.2383C-0.31277 65.2914 -1.265 71.1938 1.78813 75.4216C4.84127 79.6493 10.7436 80.6016 14.9714 77.5484L34.4309 63.4955L29.801 43.5445Z" fill="#F6F6F6"/>
<path d="M45.3244 99.5082L58.2103 136.117C59.9418 141.036 65.3332 143.62 70.2523 141.889C75.1714 140.158 77.7555 134.766 76.024 129.847L59.4908 82.8758L45.3244 99.5082Z" fill="#F6F6F6"/>
<path fill-rule="evenodd" clip-rule="evenodd" d="M33.9298 40.9364C33.298 39.2864 33.1215 37.4405 33.5203 35.5844C34.6158 30.4858 39.6371 27.2406 44.7357 28.336L69.7095 33.7018C72.8391 34.3742 75.4149 36.5863 76.5523 39.5784L87.0539 67.2042C88.907 72.0789 86.4575 77.5327 81.5828 79.3858C76.7082 81.2388 71.2544 78.7893 69.4013 73.9147L60.7237 51.0871L48.9392 48.5552C48.9405 51.2093 48.3865 43.6937 46.2183 45.5623C42.2679 48.9667 45.9413 49.8295 42.5369 45.8791C39.1325 41.9287 40.7306 47.6142 37.5144 42.3625C40.5697 43.9864 39.7543 40.8586 33.9298 40.9364Z" fill="#F6F6F6"/>
</svg>
