<svg width="80" height="80" viewBox="0 0 80 80" fill="none" xmlns="http://www.w3.org/2000/svg">
<rect x="0.5" y="0.5" width="79" height="79" rx="39.5" fill="#F6F6F6"/>
<path d="M39.9183 50.308C38.2383 50.308 36.829 50.0373 35.6903 49.496C34.5516 48.9547 33.6836 48.2453 33.0863 47.368C32.5076 46.4907 32.1996 45.5573 32.1623 44.568C32.1623 44.4 32.2183 44.26 32.3303 44.148C32.4423 44.036 32.5823 43.98 32.7503 43.98H35.9143C36.1383 43.98 36.3156 44.036 36.4463 44.148C36.5956 44.2413 36.7076 44.372 36.7823 44.54C36.969 45.044 37.2116 45.4547 37.5103 45.772C37.8276 46.0893 38.1916 46.3227 38.6023 46.472C39.013 46.6213 39.4516 46.696 39.9183 46.696C40.5156 46.696 41.0663 46.5747 41.5703 46.332C42.0743 46.0707 42.4756 45.6973 42.7743 45.212C43.073 44.7267 43.2223 44.1293 43.2223 43.42C43.2223 42.804 43.0823 42.2627 42.8023 41.796C42.5223 41.3293 42.1303 40.9653 41.6263 40.704C41.1223 40.4427 40.553 40.312 39.9183 40.312C39.433 40.312 39.0316 40.368 38.7143 40.48C38.4156 40.592 38.1636 40.732 37.9583 40.9C37.753 41.0493 37.5663 41.1893 37.3983 41.32C37.2303 41.432 37.0436 41.488 36.8383 41.488H33.7303C33.5623 41.488 33.413 41.432 33.2823 41.32C33.1703 41.1893 33.1143 41.04 33.1143 40.872L34.0943 31.212C34.1316 30.9507 34.225 30.7547 34.3743 30.624C34.5423 30.4747 34.7383 30.4 34.9623 30.4H45.8263C46.0316 30.4 46.1996 30.4653 46.3303 30.596C46.461 30.7267 46.5263 30.8947 46.5263 31.1V33.34C46.5263 33.5267 46.461 33.6853 46.3303 33.816C46.1996 33.9467 46.0316 34.012 45.8263 34.012H37.7343L37.3143 38.128C37.6876 37.8853 38.145 37.6707 38.6863 37.484C39.2463 37.2787 40.021 37.176 41.0103 37.176C41.9063 37.176 42.7556 37.3253 43.5583 37.624C44.3796 37.904 45.1076 38.324 45.7423 38.884C46.377 39.444 46.8716 40.116 47.2263 40.9C47.5996 41.6653 47.7863 42.5427 47.7863 43.532C47.7863 44.876 47.469 46.0613 46.8343 47.088C46.1996 48.096 45.2943 48.8893 44.1183 49.468C42.9423 50.028 41.5423 50.308 39.9183 50.308Z" fill="#131313"/>
<rect x="0.5" y="0.5" width="79" height="79" rx="39.5" stroke="#131313"/>
</svg>
