<svg width="80" height="80" viewBox="0 0 80 80" fill="none" xmlns="http://www.w3.org/2000/svg">
<rect x="0.5" y="0.5" width="79" height="79" rx="39.5" fill="#F6F6F6"/>
<path d="M40.1723 50.28C38.5296 50.28 37.1016 49.9813 35.8883 49.384C34.6936 48.7867 33.7603 47.9653 33.0883 46.92C32.4349 45.856 32.1083 44.6613 32.1083 43.336C32.1083 42.776 32.1923 42.216 32.3603 41.656C32.5283 41.096 32.7336 40.5733 32.9763 40.088C33.2189 39.584 33.4616 39.136 33.7043 38.744C33.9656 38.352 34.1803 38.0347 34.3483 37.792L39.3883 30.96C39.4816 30.8667 39.6029 30.7547 39.7523 30.624C39.9016 30.4747 40.1069 30.4 40.3683 30.4H43.5043C43.6723 30.4 43.8123 30.4653 43.9243 30.596C44.0363 30.708 44.0923 30.848 44.0923 31.016C44.0923 31.0907 44.0829 31.1653 44.0643 31.24C44.0456 31.296 44.0176 31.3427 43.9803 31.38L40.1163 36.672C40.2656 36.6347 40.4336 36.6067 40.6203 36.588C40.8256 36.5693 41.0029 36.56 41.1523 36.56C42.0483 36.5973 42.9069 36.784 43.7283 37.12C44.5683 37.456 45.3149 37.9227 45.9683 38.52C46.6216 39.0987 47.1349 39.7893 47.5083 40.592C47.9003 41.3947 48.0963 42.2907 48.0963 43.28C48.0963 44.5307 47.7696 45.688 47.1163 46.752C46.4816 47.816 45.5669 48.6747 44.3723 49.328C43.1963 49.9627 41.7963 50.28 40.1723 50.28ZM40.1163 46.668C40.7323 46.668 41.3016 46.5467 41.8243 46.304C42.3469 46.0427 42.7669 45.66 43.0843 45.156C43.4016 44.652 43.5603 44.0453 43.5603 43.336C43.5603 42.608 43.4016 42.0013 43.0843 41.516C42.7669 41.012 42.3469 40.6387 41.8243 40.396C41.3016 40.1347 40.7323 40.004 40.1163 40.004C39.5003 40.004 38.9309 40.1347 38.4083 40.396C37.8856 40.6387 37.4656 41.012 37.1483 41.516C36.8309 42.0013 36.6723 42.608 36.6723 43.336C36.6723 44.0453 36.8309 44.652 37.1483 45.156C37.4843 45.66 37.9043 46.0427 38.4083 46.304C38.9309 46.5467 39.5003 46.668 40.1163 46.668Z" fill="#131313"/>
<rect x="0.5" y="0.5" width="79" height="79" rx="39.5" stroke="#131313"/>
</svg>
