<svg width="80" height="80" viewBox="0 0 80 80" fill="none" xmlns="http://www.w3.org/2000/svg">
<rect x="0.5" y="0.5" width="79" height="79" rx="39.5" fill="#F6F6F6"/>
<path d="M41.0568 50C40.8701 50 40.7021 49.9347 40.5528 49.804C40.4221 49.6733 40.3568 49.5053 40.3568 49.3V35.384L36.3248 38.492C36.1568 38.6227 35.9794 38.6693 35.7928 38.632C35.6248 38.5947 35.4754 38.492 35.3448 38.324L33.9448 36.504C33.8328 36.336 33.7861 36.1587 33.8048 35.972C33.8421 35.7853 33.9448 35.636 34.1128 35.524L40.4968 30.596C40.6088 30.5213 40.7114 30.4747 40.8048 30.456C40.9168 30.4187 41.0381 30.4 41.1688 30.4H44.1368C44.3234 30.4 44.4821 30.4653 44.6128 30.596C44.7434 30.7267 44.8088 30.8947 44.8088 31.1V49.3C44.8088 49.5053 44.7434 49.6733 44.6128 49.804C44.4821 49.9347 44.3234 50 44.1368 50H41.0568Z" fill="#131313"/>
<rect x="0.5" y="0.5" width="79" height="79" rx="39.5" stroke="#131313"/>
</svg>
