<svg width="80" height="80" viewBox="0 0 80 80" fill="none" xmlns="http://www.w3.org/2000/svg">
<rect x="0.5" y="0.5" width="79" height="79" rx="39.5" fill="#F6F6F6"/>
<path d="M41.6381 50C41.4514 50 41.2928 49.9347 41.1621 49.804C41.0314 49.6733 40.9661 49.5053 40.9661 49.3V45.94H32.1461C31.9594 45.94 31.8008 45.8747 31.6701 45.744C31.5394 45.6133 31.4741 45.4453 31.4741 45.24V42.972C31.4741 42.8413 31.5021 42.7013 31.5581 42.552C31.6141 42.4027 31.6888 42.2627 31.7821 42.132L39.9861 30.876C40.2288 30.5587 40.5741 30.4 41.0221 30.4H44.5781C44.7648 30.4 44.9234 30.4653 45.0541 30.596C45.1848 30.7267 45.2501 30.8947 45.2501 31.1V42.216H47.7421C47.9661 42.216 48.1341 42.2813 48.2461 42.412C48.3768 42.5427 48.4421 42.7013 48.4421 42.888V45.24C48.4421 45.4453 48.3768 45.6133 48.2461 45.744C48.1154 45.8747 47.9568 45.94 47.7701 45.94H45.2501V49.3C45.2501 49.5053 45.1848 49.6733 45.0541 49.804C44.9234 49.9347 44.7648 50 44.5781 50H41.6381ZM35.8141 42.356H41.0501V34.992L35.8141 42.356Z" fill="#131313"/>
<rect x="0.5" y="0.5" width="79" height="79" rx="39.5" stroke="#131313"/>
</svg>
