<svg width="80" height="80" viewBox="0 0 80 80" fill="none" xmlns="http://www.w3.org/2000/svg">
<rect x="0.5" y="0.5" width="79" height="79" rx="39.5" fill="#F6F6F6"/>
<path d="M36.2073 50C36.0393 50 35.8993 49.944 35.7873 49.832C35.6753 49.7013 35.6193 49.552 35.6193 49.384C35.6193 49.2907 35.6286 49.216 35.6473 49.16C35.6846 49.104 35.7126 49.0573 35.7313 49.02L39.7913 43.476C39.4553 43.5507 39.1193 43.5787 38.7833 43.56C37.8873 43.5227 37.038 43.3453 36.2353 43.028C35.4326 42.692 34.714 42.2347 34.0793 41.656C33.4446 41.0773 32.95 40.396 32.5953 39.612C32.2406 38.828 32.0633 37.96 32.0633 37.008C32.0633 36.1493 32.222 35.3093 32.5393 34.488C32.8753 33.6667 33.37 32.9293 34.0233 32.276C34.6766 31.6227 35.4886 31.1 36.4593 30.708C37.43 30.316 38.5593 30.12 39.8473 30.12C41.1353 30.12 42.2646 30.2973 43.2353 30.652C44.2246 31.0067 45.0553 31.5013 45.7273 32.136C46.3993 32.752 46.9033 33.4707 47.2393 34.292C47.5753 35.0947 47.7433 35.9533 47.7433 36.868C47.7433 37.6893 47.6033 38.4547 47.3233 39.164C47.0433 39.8733 46.698 40.536 46.2873 41.152C45.8766 41.768 45.466 42.3653 45.0553 42.944L40.3513 49.44C40.2766 49.5333 40.1646 49.6547 40.0153 49.804C39.866 49.9347 39.6513 50 39.3713 50H36.2073ZM39.8753 40.256C40.4913 40.256 41.0513 40.1253 41.5553 39.864C42.0593 39.6027 42.4513 39.2293 42.7313 38.744C43.03 38.2587 43.1793 37.68 43.1793 37.008C43.1793 36.3173 43.03 35.7293 42.7313 35.244C42.4513 34.7587 42.0593 34.3853 41.5553 34.124C41.0513 33.8627 40.4913 33.732 39.8753 33.732C39.278 33.732 38.7273 33.8627 38.2233 34.124C37.7193 34.3853 37.318 34.7587 37.0193 35.244C36.7393 35.7293 36.5993 36.3173 36.5993 37.008C36.5993 37.68 36.7393 38.2587 37.0193 38.744C37.318 39.2293 37.7193 39.6027 38.2233 39.864C38.7273 40.1253 39.278 40.256 39.8753 40.256Z" fill="#131313"/>
<rect x="0.5" y="0.5" width="79" height="79" rx="39.5" stroke="#131313"/>
</svg>
