<svg width="80" height="80" viewBox="0 0 80 80" fill="none" xmlns="http://www.w3.org/2000/svg">
<rect x="0.5" y="0.5" width="79" height="79" rx="39.5" fill="#F6F6F6"/>
<path d="M36.1974 50C36.0294 50 35.8894 49.944 35.7774 49.832C35.6654 49.7013 35.6094 49.552 35.6094 49.384C35.6094 49.3093 35.628 49.2253 35.6654 49.132L42.2734 34.152H33.6774C33.4907 34.152 33.3227 34.0867 33.1734 33.956C33.0427 33.8253 32.9774 33.6667 32.9774 33.48V31.1C32.9774 30.8947 33.0427 30.7267 33.1734 30.596C33.3227 30.4653 33.4907 30.4 33.6774 30.4H46.3614C46.5854 30.4 46.7534 30.4653 46.8654 30.596C46.996 30.7267 47.0614 30.8947 47.0614 31.1V33.2C47.0614 33.48 47.0334 33.7133 46.9774 33.9C46.94 34.068 46.8747 34.2453 46.7814 34.432L40.2014 49.328C40.1454 49.44 40.0427 49.58 39.8934 49.748C39.7627 49.916 39.548 50 39.2494 50H36.1974Z" fill="#131313"/>
<rect x="0.5" y="0.5" width="79" height="79" rx="39.5" stroke="#131313"/>
</svg>
