<svg width="80" height="80" viewBox="0 0 80 80" fill="none" xmlns="http://www.w3.org/2000/svg">
<rect x="0.5" y="0.5" width="79" height="79" rx="39.5" fill="#F6F6F6"/>
<path d="M33.031 50C32.8256 50 32.6576 49.9347 32.527 49.804C32.3963 49.6733 32.331 49.5053 32.331 49.3V47.62C32.331 47.4707 32.3683 47.2747 32.443 47.032C32.5363 46.7707 32.7323 46.5187 33.031 46.276L36.727 42.608C38.0896 41.5627 39.191 40.676 40.031 39.948C40.8896 39.22 41.5243 38.5573 41.935 37.96C42.3456 37.3627 42.551 36.784 42.551 36.224C42.551 35.496 42.3456 34.8987 41.935 34.432C41.543 33.9467 40.899 33.704 40.003 33.704C39.4056 33.704 38.9016 33.8347 38.491 34.096C38.099 34.3387 37.791 34.6653 37.567 35.076C37.343 35.4867 37.1936 35.9347 37.119 36.42C37.063 36.6627 36.9416 36.8307 36.755 36.924C36.587 37.0173 36.4096 37.064 36.223 37.064H33.255C33.0683 37.064 32.919 37.008 32.807 36.896C32.695 36.7653 32.639 36.6253 32.639 36.476C32.6576 35.6173 32.835 34.8053 33.171 34.04C33.5256 33.2747 34.0203 32.5933 34.655 31.996C35.2896 31.3987 36.055 30.932 36.951 30.596C37.847 30.2413 38.8643 30.064 40.003 30.064C41.571 30.064 42.887 30.3253 43.951 30.848C45.015 31.352 45.8176 32.052 46.359 32.948C46.9003 33.844 47.171 34.88 47.171 36.056C47.171 36.952 46.9843 37.7827 46.611 38.548C46.2563 39.3133 45.7336 40.0507 45.043 40.76C44.3523 41.4507 43.531 42.1693 42.579 42.916L39.275 46.22H46.891C47.0963 46.22 47.2643 46.2853 47.395 46.416C47.5256 46.5467 47.591 46.7147 47.591 46.92V49.3C47.591 49.5053 47.5256 49.6733 47.395 49.804C47.2643 49.9347 47.0963 50 46.891 50H33.031Z" fill="#131313"/>
<rect x="0.5" y="0.5" width="79" height="79" rx="39.5" stroke="#131313"/>
</svg>
