<svg width="80" height="80" viewBox="0 0 80 80" fill="none" xmlns="http://www.w3.org/2000/svg">
<rect x="0.5" y="0.5" width="79" height="79" rx="39.5" fill="#F6F6F6"/>
<path d="M40.0004 50.28C38.6564 50.28 37.4991 50.0933 36.5284 49.72C35.5764 49.328 34.7831 48.796 34.1484 48.124C33.5324 47.4333 33.0658 46.64 32.7484 45.744C32.4498 44.8293 32.2724 43.8587 32.2164 42.832C32.1978 42.328 32.1791 41.768 32.1604 41.152C32.1604 40.5173 32.1604 39.8827 32.1604 39.248C32.1791 38.6133 32.1978 38.0347 32.2164 37.512C32.2538 36.4853 32.4311 35.524 32.7484 34.628C33.0844 33.732 33.5698 32.948 34.2044 32.276C34.8391 31.604 35.6324 31.0813 36.5844 30.708C37.5551 30.316 38.6938 30.12 40.0004 30.12C41.3071 30.12 42.4364 30.316 43.3884 30.708C44.3404 31.0813 45.1338 31.604 45.7684 32.276C46.4031 32.948 46.8791 33.732 47.1964 34.628C47.5324 35.524 47.7284 36.4853 47.7844 37.512C47.8031 38.0347 47.8124 38.6133 47.8124 39.248C47.8311 39.8827 47.8311 40.5173 47.8124 41.152C47.8124 41.768 47.8031 42.328 47.7844 42.832C47.7284 43.8587 47.5418 44.8293 47.2244 45.744C46.9071 46.64 46.4311 47.4333 45.7964 48.124C45.1804 48.796 44.3871 49.328 43.4164 49.72C42.4644 50.0933 41.3258 50.28 40.0004 50.28ZM40.0004 46.64C41.0831 46.64 41.8764 46.2853 42.3804 45.576C42.8844 44.8667 43.1551 43.9053 43.1924 42.692C43.2111 42.1507 43.2204 41.5907 43.2204 41.012C43.2391 40.4333 43.2391 39.8547 43.2204 39.276C43.2204 38.6973 43.2111 38.156 43.1924 37.652C43.1551 36.4947 42.8844 35.552 42.3804 34.824C41.8764 34.096 41.0831 33.7227 40.0004 33.704C38.8991 33.7227 38.0964 34.096 37.5924 34.824C37.1071 35.552 36.8458 36.4947 36.8084 37.652C36.7898 38.156 36.7711 38.6973 36.7524 39.276C36.7524 39.8547 36.7524 40.4333 36.7524 41.012C36.7711 41.5907 36.7898 42.1507 36.8084 42.692C36.8458 43.9053 37.1164 44.8667 37.6204 45.576C38.1244 46.2853 38.9178 46.64 40.0004 46.64Z" fill="#131313"/>
<rect x="0.5" y="0.5" width="79" height="79" rx="39.5" stroke="#131313"/>
</svg>
