<svg width="80" height="80" viewBox="0 0 80 80" fill="none" xmlns="http://www.w3.org/2000/svg">
<rect x="0.5" y="0.5" width="79" height="79" rx="39.5" fill="#F6F6F6"/>
<path d="M39.9998 50.28C38.6931 50.28 37.5358 50.1307 36.5278 49.832C35.5384 49.5147 34.7078 49.0853 34.0358 48.544C33.3638 47.984 32.8598 47.34 32.5238 46.612C32.1878 45.8653 32.0198 45.0533 32.0198 44.176C32.0198 43.112 32.2811 42.188 32.8038 41.404C33.3264 40.62 33.9891 40.0133 34.7918 39.584C34.1384 39.1547 33.6251 38.6133 33.2518 37.96C32.8971 37.288 32.7198 36.5133 32.7198 35.636C32.7198 34.572 32.9904 33.6293 33.5318 32.808C34.0731 31.9867 34.8758 31.3333 35.9398 30.848C37.0224 30.3627 38.3758 30.12 39.9998 30.12C41.6051 30.12 42.9398 30.3627 44.0038 30.848C45.0678 31.3147 45.8704 31.9587 46.4118 32.78C46.9531 33.6013 47.2238 34.544 47.2238 35.608C47.2238 36.4853 47.0464 37.26 46.6918 37.932C46.3371 38.604 45.8331 39.1547 45.1798 39.584C46.0384 39.9947 46.7198 40.6013 47.2238 41.404C47.7278 42.2067 47.9798 43.14 47.9798 44.204C47.9798 45.3613 47.6811 46.3973 47.0838 47.312C46.4864 48.2267 45.5904 48.9547 44.3958 49.496C43.2011 50.0187 41.7358 50.28 39.9998 50.28ZM39.9998 47.06C40.6531 47.06 41.2504 46.948 41.7918 46.724C42.3331 46.4813 42.7531 46.1453 43.0518 45.716C43.3691 45.2867 43.5278 44.7827 43.5278 44.204C43.5278 43.6067 43.3691 43.1027 43.0518 42.692C42.7531 42.2627 42.3331 41.936 41.7918 41.712C41.2504 41.4693 40.6531 41.348 39.9998 41.348C39.3278 41.348 38.7211 41.4693 38.1798 41.712C37.6571 41.936 37.2371 42.2627 36.9198 42.692C36.6024 43.1027 36.4438 43.6067 36.4438 44.204C36.4438 44.7827 36.6024 45.2867 36.9198 45.716C37.2371 46.1453 37.6571 46.4813 38.1798 46.724C38.7211 46.948 39.3278 47.06 39.9998 47.06ZM39.9998 38.296C40.5784 38.2773 41.1011 38.1653 41.5678 37.96C42.0344 37.7547 42.4078 37.4747 42.6878 37.12C42.9678 36.7467 43.1078 36.3173 43.1078 35.832C43.1078 35.328 42.9678 34.8987 42.6878 34.544C42.4264 34.1707 42.0624 33.8813 41.5958 33.676C41.1291 33.4707 40.5971 33.368 39.9998 33.368C39.4024 33.368 38.8611 33.4707 38.3758 33.676C37.9091 33.8813 37.5451 34.1707 37.2838 34.544C37.0224 34.8987 36.8918 35.328 36.8918 35.832C36.8918 36.336 37.0224 36.7747 37.2838 37.148C37.5451 37.5027 37.9091 37.7827 38.3758 37.988C38.8611 38.1933 39.4024 38.296 39.9998 38.296Z" fill="#131313"/>
<rect x="0.5" y="0.5" width="79" height="79" rx="39.5" stroke="#131313"/>
</svg>
