<svg width="80" height="80" viewBox="0 0 80 80" fill="none" xmlns="http://www.w3.org/2000/svg">
<rect x="0.5" y="0.5" width="79" height="79" rx="39.5" fill="#F6F6F6"/>
<path d="M39.8942 50.28C38.5129 50.28 37.3276 50.112 36.3382 49.776C35.3489 49.44 34.5369 49.0107 33.9022 48.488C33.2676 47.9653 32.7916 47.396 32.4742 46.78C32.1569 46.1453 31.9889 45.5387 31.9702 44.96C31.9702 44.792 32.0262 44.652 32.1382 44.54C32.2502 44.428 32.3902 44.372 32.5582 44.372H35.6382C35.8436 44.372 36.0116 44.4187 36.1422 44.512C36.2729 44.5867 36.3942 44.7267 36.5062 44.932C36.6556 45.3613 36.8982 45.7067 37.2342 45.968C37.5702 46.2293 37.9622 46.416 38.4102 46.528C38.8769 46.6213 39.3716 46.668 39.8942 46.668C40.9396 46.668 41.7609 46.4253 42.3582 45.94C42.9556 45.4547 43.2542 44.7733 43.2542 43.896C43.2542 43 42.9742 42.356 42.4142 41.964C41.8542 41.572 41.0609 41.376 40.0342 41.376H37.0382C36.8516 41.376 36.6929 41.3107 36.5622 41.18C36.4316 41.0493 36.3662 40.8907 36.3662 40.704V39.332C36.3662 39.108 36.4036 38.9213 36.4782 38.772C36.5716 38.6227 36.6649 38.5107 36.7582 38.436L41.5742 34.012H33.6782C33.4729 34.012 33.3049 33.9467 33.1742 33.816C33.0436 33.6853 32.9782 33.5267 32.9782 33.34V31.1C32.9782 30.8947 33.0436 30.7267 33.1742 30.596C33.3049 30.4653 33.4729 30.4 33.6782 30.4H46.1102C46.3156 30.4 46.4836 30.4653 46.6142 30.596C46.7449 30.7267 46.8102 30.8947 46.8102 31.1V33.116C46.8102 33.3213 46.7729 33.4987 46.6982 33.648C46.6236 33.7787 46.5302 33.8813 46.4182 33.956L41.8542 38.464L42.1342 38.492C43.2356 38.604 44.2156 38.8747 45.0742 39.304C45.9329 39.7333 46.6049 40.3493 47.0902 41.152C47.5942 41.936 47.8462 42.9347 47.8462 44.148C47.8462 45.4173 47.5009 46.5093 46.8102 47.424C46.1196 48.3387 45.1769 49.048 43.9822 49.552C42.7876 50.0373 41.4249 50.28 39.8942 50.28Z" fill="#131313"/>
<rect x="0.5" y="0.5" width="79" height="79" rx="39.5" stroke="#131313"/>
</svg>
