<svg width="47" height="32" viewBox="0 0 47 32" fill="none" xmlns="http://www.w3.org/2000/svg">
<path fill-rule="evenodd" clip-rule="evenodd" d="M16.8281 0C15.2368 0 13.7107 0.632139 12.5855 1.75736L2.58549 11.7574C0.242341 14.1005 0.242336 17.8995 2.58548 20.2426L12.5855 30.2426C13.7107 31.3679 15.2368 32 16.8281 32H40.3428C43.6566 32 46.3428 29.3137 46.3428 26V6C46.3428 2.68629 43.6566 0 40.3428 0H16.8281Z" fill="#BFBFBF"/>
<path fill-rule="evenodd" clip-rule="evenodd" d="M21.9789 24.0207C21.5762 23.618 21.5762 22.965 21.9789 22.5623L36.5623 7.97901C36.965 7.5763 37.6179 7.5763 38.0206 7.97901C38.4233 8.38171 38.4233 9.03463 38.0206 9.43734L23.4373 24.0207C23.0345 24.4234 22.3816 24.4234 21.9789 24.0207Z" fill="white"/>
<path fill-rule="evenodd" clip-rule="evenodd" d="M21.9788 7.97917C22.3815 7.57646 23.0345 7.57646 23.4372 7.97917L38.0205 22.5625C38.4232 22.9652 38.4232 23.6181 38.0205 24.0208C37.6178 24.4235 36.9649 24.4235 36.5622 24.0208L21.9788 9.4375C21.5761 9.03479 21.5761 8.38187 21.9788 7.97917Z" fill="white"/>
</svg>
