<svg width="20" height="20" viewBox="0 0 20 20" fill="none" xmlns="http://www.w3.org/2000/svg">
<path fill-rule="evenodd" clip-rule="evenodd" d="M11.25 5.625C11.25 4.24429 12.3693 3.125 13.75 3.125C15.1307 3.125 16.25 4.24429 16.25 5.625C16.25 7.00571 15.1307 8.125 13.75 8.125C13.0553 8.125 12.4269 7.84168 11.9738 7.38429L8.65647 9.32021C8.7174 9.53635 8.75 9.76437 8.75 10C8.75 10.2355 8.71743 10.4634 8.65656 10.6795L11.9758 12.6137C12.4287 12.1575 13.0564 11.875 13.75 11.875C15.1307 11.875 16.25 12.9943 16.25 14.375C16.25 15.7557 15.1307 16.875 13.75 16.875C12.3693 16.875 11.25 15.7557 11.25 14.375C11.25 14.1384 11.2829 13.9094 11.3443 13.6924L8.02645 11.759C7.57337 12.2166 6.94479 12.5 6.25 12.5C4.86929 12.5 3.75 11.3807 3.75 10C3.75 8.61929 4.86929 7.5 6.25 7.5C6.94466 7.5 7.57315 7.78333 8.02622 8.24072L11.3435 6.30481C11.2826 6.08866 11.25 5.86064 11.25 5.625Z" fill="#4EEAFF"/>
<path fill-rule="evenodd" clip-rule="evenodd" d="M10.3125 5.625C10.3125 3.72652 11.8515 2.1875 13.75 2.1875C15.6485 2.1875 17.1875 3.72652 17.1875 5.625C17.1875 7.52348 15.6485 9.0625 13.75 9.0625C13.0659 9.0625 12.4277 8.86202 11.8921 8.51745L9.68215 9.8071C9.6857 9.87101 9.6875 9.93533 9.6875 10C9.6875 10.0644 9.68572 10.1284 9.6822 10.1921L11.8943 11.4811C12.4295 11.1374 13.0668 10.9375 13.75 10.9375C15.6485 10.9375 17.1875 12.4765 17.1875 14.375C17.1875 16.2735 15.6485 17.8125 13.75 17.8125C11.8515 17.8125 10.3125 16.2735 10.3125 14.375C10.3125 14.3094 10.3143 14.2442 10.318 14.1794L8.10865 12.892C7.57288 13.2368 6.93443 13.4375 6.25 13.4375C4.35152 13.4375 2.8125 11.8985 2.8125 10C2.8125 8.10152 4.35152 6.5625 6.25 6.5625C6.93413 6.5625 7.57233 6.76299 8.10795 7.10756L10.3178 5.81792C10.3143 5.754 10.3125 5.68968 10.3125 5.625ZM11.3435 6.30481L8.02622 8.24072C7.57315 7.78333 6.94466 7.5 6.25 7.5C4.86929 7.5 3.75 8.61929 3.75 10C3.75 11.3807 4.86929 12.5 6.25 12.5C6.94479 12.5 7.57337 12.2166 8.02645 11.759L11.3443 13.6924C11.2829 13.9094 11.25 14.1384 11.25 14.375C11.25 15.7557 12.3693 16.875 13.75 16.875C15.1307 16.875 16.25 15.7557 16.25 14.375C16.25 12.9943 15.1307 11.875 13.75 11.875C13.0564 11.875 12.4287 12.1575 11.9758 12.6137L8.65656 10.6795C8.71743 10.4634 8.75 10.2355 8.75 10C8.75 9.76437 8.7174 9.53635 8.65647 9.32021L11.9738 7.38429C12.4269 7.84168 13.0553 8.125 13.75 8.125C15.1307 8.125 16.25 7.00571 16.25 5.625C16.25 4.24429 15.1307 3.125 13.75 3.125C12.3693 3.125 11.25 4.24429 11.25 5.625C11.25 5.86064 11.2826 6.08866 11.3435 6.30481Z" fill="#131313"/>
<path fill-rule="evenodd" clip-rule="evenodd" d="M7.32875 10.629C7.50254 10.3308 7.88519 10.2299 8.18343 10.4037L12.4522 12.8912C12.7504 13.065 12.8513 13.4476 12.6775 13.7459C12.5037 14.0441 12.1211 14.145 11.8228 13.9712L7.55408 11.4837C7.25584 11.3099 7.15496 10.9273 7.32875 10.629Z" fill="#06A3B8"/>
<path fill-rule="evenodd" clip-rule="evenodd" d="M12.6711 6.25369C12.845 6.55181 12.7444 6.93453 12.4463 7.10851L8.18377 9.59601C7.88565 9.76999 7.50293 9.66935 7.32895 9.37122C7.15497 9.0731 7.25561 8.69038 7.55374 8.5164L11.8162 6.0289C12.1144 5.85492 12.4971 5.95556 12.6711 6.25369Z" fill="#06A3B8"/>
<path fill-rule="evenodd" clip-rule="evenodd" d="M11.25 5.625C11.25 4.24429 12.3693 3.125 13.75 3.125C15.1307 3.125 16.25 4.24429 16.25 5.625C16.25 7.00571 15.1307 8.125 13.75 8.125C12.3693 8.125 11.25 7.00571 11.25 5.625Z" fill="#4EEAFF"/>
<path fill-rule="evenodd" clip-rule="evenodd" d="M3.75 10C3.75 8.61929 4.86929 7.5 6.25 7.5C7.63071 7.5 8.75 8.61929 8.75 10C8.75 11.3807 7.63071 12.5 6.25 12.5C4.86929 12.5 3.75 11.3807 3.75 10Z" fill="#4EEAFF"/>
<path fill-rule="evenodd" clip-rule="evenodd" d="M11.25 14.375C11.25 12.9943 12.3693 11.875 13.75 11.875C15.1307 11.875 16.25 12.9943 16.25 14.375C16.25 15.7557 15.1307 16.875 13.75 16.875C12.3693 16.875 11.25 15.7557 11.25 14.375Z" fill="#4EEAFF"/>
</svg>
