<svg width="32" height="32" viewBox="0 0 32 32" fill="none" xmlns="http://www.w3.org/2000/svg">
<path d="M2.4144 17.4142C1.63335 16.6331 1.63335 15.3668 2.4144 14.5857L10.586 6.41416C11.367 5.63311 12.6334 5.63311 13.4144 6.41416L21.586 14.5857C22.367 15.3668 22.367 16.6331 21.586 17.4142L13.4144 25.5857C12.6334 26.3668 11.367 26.3668 10.586 25.5857L2.4144 17.4142Z" fill="#131313"/>
<path fill-rule="evenodd" clip-rule="evenodd" d="M1.35374 13.5251L9.52531 5.3535C10.8921 3.98666 13.1082 3.98666 14.4751 5.35349L22.6466 13.5251C24.0135 14.8919 24.0135 17.108 22.6466 18.4748L14.4751 26.6464C13.1082 28.0132 10.8921 28.0132 9.52531 26.6464L1.35374 18.4748C-0.0130939 17.108 -0.0130969 14.8919 1.35374 13.5251ZM2.4144 14.5857C1.63335 15.3668 1.63335 16.6331 2.4144 17.4142L10.586 25.5857C11.367 26.3668 12.6334 26.3668 13.4144 25.5857L21.586 17.4142C22.367 16.6331 22.367 15.3668 21.586 14.5857L13.4144 6.41416C12.6334 5.63311 11.367 5.63311 10.586 6.41416L2.4144 14.5857Z" fill="#F6F6F6"/>
<path d="M10.4144 17.4142C9.63335 16.6331 9.63335 15.3668 10.4144 14.5857L18.586 6.41416C19.367 5.63311 20.6334 5.63311 21.4144 6.41416L29.586 14.5857C30.367 15.3668 30.367 16.6331 29.586 17.4142L21.4144 25.5857C20.6334 26.3668 19.367 26.3668 18.586 25.5857L10.4144 17.4142Z" fill="#131313"/>
<path fill-rule="evenodd" clip-rule="evenodd" d="M9.35374 13.5251L17.5253 5.3535C18.8921 3.98666 21.1082 3.98666 22.4751 5.35349L30.6466 13.5251C32.0135 14.8919 32.0135 17.108 30.6466 18.4748L22.4751 26.6464C21.1082 28.0132 18.8921 28.0132 17.5253 26.6464L9.35374 18.4748C7.98691 17.108 7.9869 14.8919 9.35374 13.5251ZM10.4144 14.5857C9.63335 15.3668 9.63335 16.6331 10.4144 17.4142L18.586 25.5857C19.367 26.3668 20.6334 26.3668 21.4144 25.5857L29.586 17.4142C30.367 16.6331 30.367 15.3668 29.586 14.5857L21.4144 6.41416C20.6334 5.63311 19.367 5.63311 18.586 6.41416L10.4144 14.5857Z" fill="#F6F6F6"/>
</svg>
