<svg width="20" height="20" viewBox="0 0 20 20" fill="none" xmlns="http://www.w3.org/2000/svg">
<path d="M1.50869 10.8839C1.02054 10.3958 1.02054 9.60433 1.50869 9.11617L6.61593 4.00894C7.10408 3.52078 7.89554 3.52078 8.38369 4.00894L13.4909 9.11617C13.9791 9.60433 13.9791 10.3958 13.4909 10.8839L8.38369 15.9912C7.89554 16.4793 7.10408 16.4793 6.61593 15.9912L1.50869 10.8839Z" fill="#FA00A8"/>
<path fill-rule="evenodd" clip-rule="evenodd" d="M0.845782 8.45326L5.95301 3.34603C6.80729 2.49176 8.19233 2.49175 9.04661 3.34603L14.1538 8.45326C15.0081 9.30753 15.0081 10.6926 14.1538 11.5469L9.04661 16.6541C8.19234 17.5084 6.80729 17.5084 5.95302 16.6541L0.845782 11.5469C-0.00848889 10.6926 -0.00849076 9.30753 0.845782 8.45326ZM1.50869 9.11617C1.02054 9.60433 1.02054 10.3958 1.50869 10.8839L6.61593 15.9912C7.10408 16.4793 7.89554 16.4793 8.38369 15.9912L13.4909 10.8839C13.9791 10.3958 13.9791 9.60433 13.4909 9.11617L8.38369 4.00894C7.89554 3.52078 7.10408 3.52078 6.61593 4.00894L1.50869 9.11617Z" fill="#131313"/>
<path d="M6.50869 10.8839C6.02054 10.3958 6.02054 9.60433 6.50869 9.11617L11.6159 4.00894C12.1041 3.52078 12.8955 3.52078 13.3837 4.00894L18.4909 9.11617C18.9791 9.60433 18.9791 10.3958 18.4909 10.8839L13.3837 15.9912C12.8955 16.4793 12.1041 16.4793 11.6159 15.9912L6.50869 10.8839Z" fill="#FA00A8"/>
<path fill-rule="evenodd" clip-rule="evenodd" d="M5.84578 8.45326L10.953 3.34603C11.8073 2.49176 13.1923 2.49175 14.0466 3.34603L19.1538 8.45326C20.0081 9.30753 20.0081 10.6926 19.1538 11.5469L14.0466 16.6541C13.1923 17.5084 11.8073 17.5084 10.953 16.6541L5.84578 11.5469C4.99151 10.6926 4.99151 9.30753 5.84578 8.45326ZM6.50869 9.11617C6.02054 9.60433 6.02054 10.3958 6.50869 10.8839L11.6159 15.9912C12.1041 16.4793 12.8955 16.4793 13.3837 15.9912L18.4909 10.8839C18.9791 10.3958 18.9791 9.60433 18.4909 9.11617L13.3837 4.00894C12.8955 3.52078 12.1041 3.52078 11.6159 4.00894L6.50869 9.11617Z" fill="#131313"/>
</svg>
