<svg width="20" height="20" viewBox="0 0 20 20" fill="none" xmlns="http://www.w3.org/2000/svg">
<path fill-rule="evenodd" clip-rule="evenodd" d="M6.54414 3.45586C5.82129 4.17871 5.82129 5.35067 6.54414 6.07352L7.10506 6.63444L9.72272 9.2521L12.3404 6.63444L12.9013 6.07352C13.6241 5.35067 13.6241 4.17871 12.9013 3.45586C12.1785 2.73302 11.0065 2.73302 10.2836 3.45586L9.72272 4.01679L9.16179 3.45586C8.43895 2.73302 7.26698 2.73302 6.54414 3.45586ZM12.9013 16.5441C13.6241 15.8213 13.6241 14.6493 12.9013 13.9265L12.3404 13.3656L9.72272 10.7479L7.10506 13.3656L6.54414 13.9265C5.82129 14.6493 5.82129 15.8213 6.54414 16.5441C7.26698 17.267 8.43895 17.267 9.16179 16.5441L9.72272 15.9832L10.2836 16.5441C11.0065 17.267 12.1785 17.267 12.9013 16.5441ZM5.79624 13.1786C5.07339 13.9014 3.90143 13.9014 3.17858 13.1786C2.45574 12.4557 2.45574 11.2838 3.17858 10.5609L3.73951 10L3.17858 9.43908C2.45574 8.71623 2.45574 7.54427 3.17858 6.82142C3.90143 6.09857 5.07339 6.09857 5.79624 6.82142L6.35716 7.38235L8.97482 10L6.35716 12.6177L5.79624 13.1786ZM16.2669 6.82142C15.544 6.09857 14.372 6.09857 13.6492 6.82142L13.0883 7.38235L10.4706 10L13.0883 12.6177L13.6492 13.1786C14.372 13.9014 15.544 13.9014 16.2669 13.1786C16.9897 12.4557 16.9897 11.2838 16.2669 10.5609L15.7059 10L16.2669 9.43908C16.9897 8.71623 16.9897 7.54427 16.2669 6.82142Z" fill="#54FA80"/>
<path fill-rule="evenodd" clip-rule="evenodd" d="M5.14216 14.5807C4.22968 14.8001 3.22803 14.5537 2.51581 13.8415C1.46022 12.7859 1.42787 11.0946 2.41876 10C1.42787 8.90544 1.46022 7.2141 2.51581 6.15851C3.22803 5.44628 4.22968 5.19988 5.14216 5.4193C4.92274 4.50682 5.16914 3.50517 5.88137 2.79295C6.93696 1.73736 8.6283 1.70501 9.72286 2.6959C10.8174 1.70501 12.5088 1.73736 13.5644 2.79295C14.2766 3.50517 14.523 4.50682 14.3036 5.4193C15.216 5.19988 16.2177 5.44628 16.9299 6.15851C17.9855 7.2141 18.0178 8.90544 17.027 10C18.0178 11.0946 17.9855 12.7859 16.9299 13.8415C16.2177 14.5537 15.216 14.8001 14.3036 14.5807C14.523 15.4932 14.2766 16.4948 13.5644 17.2071C12.5088 18.2626 10.8174 18.295 9.72286 17.3041C8.6283 18.295 6.93696 18.2626 5.88137 17.2071C5.16914 16.4948 4.92274 15.4932 5.14216 14.5807ZM9.16193 16.5441L9.72286 15.9832L10.2838 16.5441C11.0066 17.267 12.1786 17.267 12.9014 16.5441C13.6243 15.8213 13.6243 14.6493 12.9014 13.9265L9.72286 10.7479L6.54428 13.9265C5.82143 14.6493 5.82143 15.8213 6.54428 16.5441C7.26712 17.267 8.43909 17.267 9.16193 16.5441ZM5.79638 6.82142C5.07353 6.09857 3.90157 6.09857 3.17872 6.82142C2.45588 7.54426 2.45588 8.71623 3.17872 9.43907L3.73965 10L3.17872 10.5609C2.45588 11.2838 2.45588 12.4557 3.17872 13.1786C3.90157 13.9014 5.07353 13.9014 5.79638 13.1786L8.97496 10L5.79638 6.82142ZM6.54428 6.07352C5.82143 5.35067 5.82143 4.17871 6.54428 3.45586C7.26713 2.73302 8.43909 2.73302 9.16193 3.45586L9.72286 4.01679L10.2838 3.45586C11.0066 2.73302 12.1786 2.73302 12.9014 3.45586C13.6243 4.17871 13.6243 5.35067 12.9014 6.07352L9.72286 9.2521L6.54428 6.07352ZM13.6493 6.82142C14.3722 6.09857 15.5442 6.09857 16.267 6.82142C16.9898 7.54427 16.9898 8.71623 16.267 9.43908L15.7061 10L16.267 10.5609C16.9898 11.2838 16.9898 12.4557 16.267 13.1786C15.5442 13.9014 14.3722 13.9014 13.6493 13.1786L10.4708 10L13.6493 6.82142Z" fill="#131313"/>
</svg>
