<svg width="68" height="32" viewBox="0 0 68 32" fill="none" xmlns="http://www.w3.org/2000/svg">
<rect x="0.5" y="0.5" width="67" height="31" rx="15.5" fill="white"/>
<path d="M12.4254 21C12.3227 21 12.2387 20.9673 12.1734 20.902C12.1081 20.8367 12.0754 20.7573 12.0754 20.664V11.55C12.0754 11.4473 12.1081 11.3633 12.1734 11.298C12.2387 11.2327 12.3227 11.2 12.4254 11.2H13.5314C13.6621 11.2 13.7601 11.2373 13.8254 11.312C13.8907 11.3773 13.9327 11.4287 13.9514 11.466L16.6534 16.506L19.3834 11.466C19.4021 11.4287 19.4441 11.3773 19.5094 11.312C19.5747 11.2373 19.6727 11.2 19.8034 11.2H20.8954C20.9981 11.2 21.0821 11.2327 21.1474 11.298C21.2127 11.3633 21.2454 11.4473 21.2454 11.55V20.664C21.2454 20.7573 21.2127 20.8367 21.1474 20.902C21.0821 20.9673 20.9981 21 20.8954 21H19.7194C19.6167 21 19.5327 20.9673 19.4674 20.902C19.4114 20.8367 19.3834 20.7573 19.3834 20.664V14.602L17.4234 18.34C17.3767 18.424 17.3161 18.4987 17.2414 18.564C17.1667 18.62 17.0687 18.648 16.9474 18.648H16.3734C16.2427 18.648 16.1401 18.62 16.0654 18.564C16.0001 18.4987 15.9441 18.424 15.8974 18.34L13.9374 14.602V20.664C13.9374 20.7573 13.9047 20.8367 13.8394 20.902C13.7741 20.9673 13.6947 21 13.6014 21H12.4254ZM26.4751 21.14C25.7284 21.14 25.0984 21.0093 24.5851 20.748C24.0811 20.4867 23.6937 20.118 23.4231 19.642C23.1617 19.166 23.0124 18.6107 22.9751 17.976C22.9657 17.808 22.9611 17.6027 22.9611 17.36C22.9611 17.1173 22.9657 16.912 22.9751 16.744C23.0124 16.1 23.1664 15.5447 23.4371 15.078C23.7171 14.602 24.1091 14.2333 24.6131 13.972C25.1264 13.7107 25.7471 13.58 26.4751 13.58C27.2031 13.58 27.8191 13.7107 28.3231 13.972C28.8364 14.2333 29.2284 14.602 29.4991 15.078C29.7791 15.5447 29.9377 16.1 29.9751 16.744C29.9844 16.912 29.9891 17.1173 29.9891 17.36C29.9891 17.6027 29.9844 17.808 29.9751 17.976C29.9377 18.6107 29.7837 19.166 29.5131 19.642C29.2517 20.118 28.8644 20.4867 28.3511 20.748C27.8471 21.0093 27.2217 21.14 26.4751 21.14ZM26.4751 19.754C26.9697 19.754 27.3524 19.6 27.6231 19.292C27.8937 18.9747 28.0431 18.5127 28.0711 17.906C28.0804 17.766 28.0851 17.584 28.0851 17.36C28.0851 17.136 28.0804 16.954 28.0711 16.814C28.0431 16.2073 27.8937 15.75 27.6231 15.442C27.3524 15.1247 26.9697 14.966 26.4751 14.966C25.9804 14.966 25.5977 15.1247 25.3271 15.442C25.0564 15.75 24.9071 16.2073 24.8791 16.814C24.8697 16.954 24.8651 17.136 24.8651 17.36C24.8651 17.584 24.8697 17.766 24.8791 17.906C24.9071 18.5127 25.0564 18.9747 25.3271 19.292C25.5977 19.6 25.9804 19.754 26.4751 19.754ZM31.8762 21C31.7829 21 31.7035 20.9673 31.6382 20.902C31.5729 20.8367 31.5402 20.7573 31.5402 20.664V14.056C31.5402 13.9627 31.5729 13.8833 31.6382 13.818C31.7035 13.7527 31.7829 13.72 31.8762 13.72H33.0242C33.1175 13.72 33.1969 13.7527 33.2622 13.818C33.3275 13.8833 33.3602 13.9627 33.3602 14.056V14.63C33.6029 14.3313 33.9109 14.084 34.2842 13.888C34.6669 13.6827 35.1382 13.58 35.6982 13.58C36.2675 13.58 36.7622 13.7107 37.1822 13.972C37.6022 14.224 37.9242 14.5833 38.1482 15.05C38.3815 15.5167 38.4982 16.0767 38.4982 16.73V20.664C38.4982 20.7573 38.4655 20.8367 38.4002 20.902C38.3349 20.9673 38.2555 21 38.1622 21H36.9302C36.8369 21 36.7575 20.9673 36.6922 20.902C36.6269 20.8367 36.5942 20.7573 36.5942 20.664V16.814C36.5942 16.2727 36.4589 15.848 36.1882 15.54C35.9269 15.232 35.5442 15.078 35.0402 15.078C34.5549 15.078 34.1675 15.232 33.8782 15.54C33.5889 15.848 33.4442 16.2727 33.4442 16.814V20.664C33.4442 20.7573 33.4115 20.8367 33.3462 20.902C33.2809 20.9673 33.2015 21 33.1082 21H31.8762ZM43.4845 21C42.9245 21 42.4532 20.902 42.0705 20.706C41.6878 20.51 41.4032 20.2207 41.2165 19.838C41.0298 19.446 40.9365 18.9607 40.9365 18.382V15.204H39.8305C39.7372 15.204 39.6578 15.1713 39.5925 15.106C39.5272 15.0407 39.4945 14.9567 39.4945 14.854V14.056C39.4945 13.9627 39.5272 13.8833 39.5925 13.818C39.6578 13.7527 39.7372 13.72 39.8305 13.72H40.9365V11.396C40.9365 11.3027 40.9645 11.2233 41.0205 11.158C41.0858 11.0927 41.1698 11.06 41.2725 11.06H42.4065C42.4998 11.06 42.5792 11.0927 42.6445 11.158C42.7098 11.2233 42.7425 11.3027 42.7425 11.396V13.72H44.4925C44.5858 13.72 44.6652 13.7527 44.7305 13.818C44.7958 13.8833 44.8285 13.9627 44.8285 14.056V14.854C44.8285 14.9567 44.7958 15.0407 44.7305 15.106C44.6652 15.1713 44.5858 15.204 44.4925 15.204H42.7425V18.242C42.7425 18.6247 42.8078 18.9233 42.9385 19.138C43.0785 19.3527 43.3165 19.46 43.6525 19.46H44.6185C44.7118 19.46 44.7912 19.4927 44.8565 19.558C44.9218 19.6233 44.9545 19.7027 44.9545 19.796V20.664C44.9545 20.7573 44.9218 20.8367 44.8565 20.902C44.7912 20.9673 44.7118 21 44.6185 21H43.4845ZM46.5465 21C46.4531 21 46.3738 20.9673 46.3085 20.902C46.2431 20.8367 46.2105 20.7573 46.2105 20.664V11.396C46.2105 11.3027 46.2431 11.2233 46.3085 11.158C46.3738 11.0927 46.4531 11.06 46.5465 11.06H47.7085C47.8018 11.06 47.8811 11.0927 47.9465 11.158C48.0118 11.2233 48.0445 11.3027 48.0445 11.396V20.664C48.0445 20.7573 48.0118 20.8367 47.9465 20.902C47.8811 20.9673 47.8018 21 47.7085 21H46.5465ZM51.2175 23.66C51.1429 23.66 51.0775 23.632 51.0215 23.576C50.9655 23.52 50.9375 23.4547 50.9375 23.38C50.9375 23.3427 50.9375 23.3053 50.9375 23.268C50.9469 23.24 50.9655 23.2027 50.9935 23.156L52.0855 20.566L49.3975 14.224C49.3602 14.1307 49.3415 14.0653 49.3415 14.028C49.3509 13.944 49.3835 13.874 49.4395 13.818C49.4955 13.7527 49.5655 13.72 49.6495 13.72H50.7835C50.8955 13.72 50.9795 13.748 51.0355 13.804C51.0915 13.86 51.1335 13.9207 51.1615 13.986L53.0235 18.564L54.9415 13.986C54.9695 13.9113 55.0115 13.8507 55.0675 13.804C55.1235 13.748 55.2075 13.72 55.3195 13.72H56.4395C56.5142 13.72 56.5795 13.748 56.6355 13.804C56.7009 13.86 56.7335 13.9253 56.7335 14C56.7335 14.056 56.7149 14.1307 56.6775 14.224L52.7155 23.394C52.6782 23.4687 52.6315 23.5293 52.5755 23.576C52.5195 23.632 52.4355 23.66 52.3235 23.66H51.2175Z" fill="#131313"/>
<rect x="0.5" y="0.5" width="67" height="31" rx="15.5" stroke="#131313"/>
</svg>
