<svg width="390" height="44" viewBox="0 0 390 44" fill="none" xmlns="http://www.w3.org/2000/svg">
<rect width="390" height="44" fill="#131313"/>
<path fill-rule="evenodd" clip-rule="evenodd" d="M40.091 28.5303C39.7981 28.2374 39.7981 27.7626 40.091 27.4697L45.0303 22.5303C45.3232 22.2374 45.3232 21.7626 45.0303 21.4697L40.091 16.5303C39.7981 16.2374 39.7981 15.7626 40.091 15.4697C40.3839 15.1768 40.8588 15.1768 41.1517 15.4697L46.091 20.409C46.9697 21.2877 46.9697 22.7123 46.091 23.591L41.1517 28.5303C40.8588 28.8232 40.3839 28.8232 40.091 28.5303Z" fill="#54FA80"/>
<path fill-rule="evenodd" clip-rule="evenodd" d="M56.091 28.5303C55.7981 28.2374 55.7981 27.7626 56.091 27.4697L61.0303 22.5303C61.3232 22.2374 61.3232 21.7626 61.0303 21.4697L56.091 16.5303C55.7981 16.2374 55.7981 15.7626 56.091 15.4697C56.3839 15.1768 56.8588 15.1768 57.1517 15.4697L62.091 20.409C62.9697 21.2877 62.9697 22.7123 62.091 23.591L57.1517 28.5303C56.8588 28.8232 56.3839 28.8232 56.091 28.5303Z" fill="#54FA80"/>
<path fill-rule="evenodd" clip-rule="evenodd" d="M72.091 28.5303C71.7981 28.2374 71.7981 27.7626 72.091 27.4697L77.0303 22.5303C77.3232 22.2374 77.3232 21.7626 77.0303 21.4697L72.091 16.5303C71.7981 16.2374 71.7981 15.7626 72.091 15.4697C72.3839 15.1768 72.8588 15.1768 73.1517 15.4697L78.091 20.409C78.9697 21.2877 78.9697 22.7123 78.091 23.591L73.1517 28.5303C72.8588 28.8232 72.3839 28.8232 72.091 28.5303Z" fill="#54FA80"/>
<path d="M125.084 29C124.937 29 124.817 28.9533 124.724 28.86C124.63 28.7667 124.584 28.6467 124.584 28.5V15.5C124.584 15.3533 124.63 15.2333 124.724 15.14C124.817 15.0467 124.937 15 125.084 15H127.664C127.81 15 127.93 15.0467 128.024 15.14C128.13 15.2333 128.184 15.3533 128.184 15.5V20.32H133.104V15.5C133.104 15.3533 133.15 15.2333 133.244 15.14C133.337 15.0467 133.457 15 133.604 15H136.184C136.33 15 136.45 15.0467 136.544 15.14C136.637 15.2333 136.684 15.3533 136.684 15.5V28.5C136.684 28.6333 136.637 28.7533 136.544 28.86C136.45 28.9533 136.33 29 136.184 29H133.604C133.457 29 133.337 28.9533 133.244 28.86C133.15 28.7533 133.104 28.6333 133.104 28.5V23.52H128.184V28.5C128.184 28.6333 128.13 28.7533 128.024 28.86C127.93 28.9533 127.81 29 127.664 29H125.084ZM145.206 29.2C143.979 29.2 142.913 29 142.006 28.6C141.099 28.2 140.393 27.6 139.886 26.8C139.379 25.9867 139.099 24.9733 139.046 23.76C139.033 23.1867 139.026 22.6133 139.026 22.04C139.026 21.4533 139.033 20.8733 139.046 20.3C139.099 19.1 139.379 18.0933 139.886 17.28C140.406 16.4533 141.119 15.8333 142.026 15.42C142.946 15.0067 144.006 14.8 145.206 14.8C146.419 14.8 147.479 15.0067 148.386 15.42C149.293 15.8333 150.006 16.4533 150.526 17.28C151.046 18.0933 151.326 19.1 151.366 20.3C151.393 20.8733 151.406 21.4533 151.406 22.04C151.406 22.6133 151.393 23.1867 151.366 23.76C151.326 24.9733 151.046 25.9867 150.526 26.8C150.019 27.6 149.313 28.2 148.406 28.6C147.499 29 146.433 29.2 145.206 29.2ZM145.206 26.32C145.913 26.32 146.486 26.1067 146.926 25.68C147.379 25.2533 147.619 24.5733 147.646 23.64C147.673 23.0533 147.686 22.5 147.686 21.98C147.686 21.46 147.673 20.92 147.646 20.36C147.619 19.7333 147.499 19.2267 147.286 18.84C147.086 18.44 146.806 18.1467 146.446 17.96C146.086 17.7733 145.673 17.68 145.206 17.68C144.753 17.68 144.346 17.7733 143.986 17.96C143.626 18.1467 143.339 18.44 143.126 18.84C142.913 19.2267 142.793 19.7333 142.766 20.36C142.753 20.92 142.746 21.46 142.746 21.98C142.746 22.5 142.753 23.0533 142.766 23.64C142.806 24.5733 143.046 25.2533 143.486 25.68C143.939 26.1067 144.513 26.32 145.206 26.32ZM155.808 29C155.581 29 155.401 28.9333 155.268 28.8C155.135 28.6667 155.055 28.5133 155.028 28.34L152.848 15.56C152.835 15.52 152.828 15.4933 152.828 15.48C152.828 15.4533 152.828 15.4333 152.828 15.42C152.828 15.3133 152.868 15.22 152.948 15.14C153.041 15.0467 153.141 15 153.248 15H155.728C156.101 15 156.308 15.1467 156.348 15.44L157.648 23.24L159.088 18.64C159.128 18.5333 159.195 18.42 159.288 18.3C159.381 18.1667 159.535 18.1 159.748 18.1H161.188C161.415 18.1 161.575 18.1667 161.668 18.3C161.761 18.42 161.821 18.5333 161.848 18.64L163.288 23.24L164.588 15.44C164.628 15.1467 164.835 15 165.208 15H167.688C167.808 15 167.908 15.0467 167.988 15.14C168.081 15.22 168.128 15.3133 168.128 15.42C168.128 15.4333 168.121 15.4533 168.108 15.48C168.108 15.4933 168.108 15.52 168.108 15.56L165.928 28.34C165.901 28.5133 165.821 28.6667 165.688 28.8C165.555 28.9333 165.375 29 165.148 29H163.248C163.021 29 162.848 28.94 162.728 28.82C162.608 28.7 162.528 28.5867 162.488 28.48L160.468 22.76L158.448 28.48C158.408 28.5867 158.328 28.7 158.208 28.82C158.101 28.94 157.935 29 157.708 29H155.808ZM177.421 29C177.275 29 177.155 28.9533 177.061 28.86C176.968 28.7533 176.921 28.6333 176.921 28.5V18.14H173.361C173.215 18.14 173.095 18.0933 173.001 18C172.908 17.8933 172.861 17.7733 172.861 17.64V15.5C172.861 15.3533 172.908 15.2333 173.001 15.14C173.095 15.0467 173.215 15 173.361 15H184.121C184.268 15 184.388 15.0467 184.481 15.14C184.575 15.2333 184.621 15.3533 184.621 15.5V17.64C184.621 17.7733 184.575 17.8933 184.481 18C184.388 18.0933 184.268 18.14 184.121 18.14H180.561V28.5C180.561 28.6333 180.515 28.7533 180.421 28.86C180.328 28.9533 180.208 29 180.061 29H177.421ZM191.944 29.2C190.718 29.2 189.651 29 188.744 28.6C187.838 28.2 187.131 27.6 186.624 26.8C186.118 25.9867 185.838 24.9733 185.784 23.76C185.771 23.1867 185.764 22.6133 185.764 22.04C185.764 21.4533 185.771 20.8733 185.784 20.3C185.838 19.1 186.118 18.0933 186.624 17.28C187.144 16.4533 187.858 15.8333 188.764 15.42C189.684 15.0067 190.744 14.8 191.944 14.8C193.158 14.8 194.218 15.0067 195.124 15.42C196.031 15.8333 196.744 16.4533 197.264 17.28C197.784 18.0933 198.064 19.1 198.104 20.3C198.131 20.8733 198.144 21.4533 198.144 22.04C198.144 22.6133 198.131 23.1867 198.104 23.76C198.064 24.9733 197.784 25.9867 197.264 26.8C196.758 27.6 196.051 28.2 195.144 28.6C194.238 29 193.171 29.2 191.944 29.2ZM191.944 26.32C192.651 26.32 193.224 26.1067 193.664 25.68C194.118 25.2533 194.358 24.5733 194.384 23.64C194.411 23.0533 194.424 22.5 194.424 21.98C194.424 21.46 194.411 20.92 194.384 20.36C194.358 19.7333 194.238 19.2267 194.024 18.84C193.824 18.44 193.544 18.1467 193.184 17.96C192.824 17.7733 192.411 17.68 191.944 17.68C191.491 17.68 191.084 17.7733 190.724 17.96C190.364 18.1467 190.078 18.44 189.864 18.84C189.651 19.2267 189.531 19.7333 189.504 20.36C189.491 20.92 189.484 21.46 189.484 21.98C189.484 22.5 189.491 23.0533 189.504 23.64C189.544 24.5733 189.784 25.2533 190.224 25.68C190.678 26.1067 191.251 26.32 191.944 26.32ZM205.22 29C205.074 29 204.954 28.9533 204.86 28.86C204.767 28.7533 204.72 28.6333 204.72 28.5V15.5C204.72 15.3533 204.767 15.2333 204.86 15.14C204.954 15.0467 205.074 15 205.22 15H210.82C211.927 15 212.887 15.1733 213.7 15.52C214.527 15.8533 215.167 16.36 215.62 17.04C216.087 17.72 216.32 18.58 216.32 19.62C216.32 20.6467 216.087 21.4933 215.62 22.16C215.167 22.8267 214.527 23.32 213.7 23.64C212.887 23.96 211.927 24.12 210.82 24.12H208.44V28.5C208.44 28.6333 208.387 28.7533 208.28 28.86C208.187 28.9533 208.067 29 207.92 29H205.22ZM208.38 21.36H210.72C211.294 21.36 211.747 21.2133 212.08 20.92C212.427 20.6267 212.6 20.18 212.6 19.58C212.6 19.0733 212.454 18.6467 212.16 18.3C211.867 17.9533 211.387 17.78 210.72 17.78H208.38V21.36ZM218.736 29C218.589 29 218.469 28.9533 218.376 28.86C218.283 28.7533 218.236 28.6333 218.236 28.5V15.5C218.236 15.3533 218.283 15.2333 218.376 15.14C218.469 15.0467 218.589 15 218.736 15H221.376C221.523 15 221.643 15.0467 221.736 15.14C221.829 15.2333 221.876 15.3533 221.876 15.5V25.98H227.936C228.083 25.98 228.203 26.0333 228.296 26.14C228.389 26.2333 228.436 26.3533 228.436 26.5V28.5C228.436 28.6333 228.389 28.7533 228.296 28.86C228.203 28.9533 228.083 29 227.936 29H218.736ZM229.37 29C229.263 29 229.163 28.96 229.07 28.88C228.99 28.7867 228.95 28.6867 228.95 28.58C228.95 28.5133 228.956 28.4533 228.97 28.4L233.67 15.56C233.71 15.4133 233.79 15.2867 233.91 15.18C234.043 15.06 234.223 15 234.45 15H237.41C237.636 15 237.81 15.06 237.93 15.18C238.063 15.2867 238.15 15.4133 238.19 15.56L242.87 28.4C242.896 28.4533 242.91 28.5133 242.91 28.58C242.91 28.6867 242.863 28.7867 242.77 28.88C242.69 28.96 242.59 29 242.47 29H240.01C239.81 29 239.656 28.9533 239.55 28.86C239.456 28.7533 239.396 28.66 239.37 28.58L238.59 26.54H233.25L232.49 28.58C232.463 28.66 232.403 28.7533 232.31 28.86C232.216 28.9533 232.056 29 231.83 29H229.37ZM234.07 23.66H237.79L235.93 18.38L234.07 23.66ZM246.984 29C246.851 29 246.731 28.9533 246.624 28.86C246.531 28.7533 246.484 28.6333 246.484 28.5V24.2L241.844 15.64C241.831 15.6 241.818 15.5667 241.804 15.54C241.791 15.5 241.784 15.46 241.784 15.42C241.784 15.3133 241.824 15.22 241.904 15.14C241.998 15.0467 242.104 15 242.224 15H244.724C244.924 15 245.078 15.0533 245.184 15.16C245.304 15.2533 245.384 15.34 245.424 15.42L248.284 20.58L251.164 15.42C251.204 15.34 251.278 15.2533 251.384 15.16C251.504 15.0533 251.664 15 251.864 15H254.364C254.484 15 254.584 15.0467 254.664 15.14C254.744 15.22 254.784 15.3133 254.784 15.42C254.784 15.46 254.778 15.5 254.764 15.54C254.764 15.5667 254.758 15.6 254.744 15.64L250.104 24.2V28.5C250.104 28.6333 250.051 28.7533 249.944 28.86C249.851 28.9533 249.731 29 249.584 29H246.984ZM259.563 24.76C259.456 24.76 259.363 24.7267 259.283 24.66C259.203 24.58 259.163 24.4867 259.163 24.38C259.163 24.3 259.163 24.22 259.163 24.14C259.163 24.06 259.163 23.9867 259.163 23.92C259.243 23.4533 259.396 23.0333 259.623 22.66C259.863 22.2733 260.136 21.92 260.443 21.6C260.763 21.28 261.069 20.98 261.363 20.7C261.656 20.42 261.903 20.1467 262.103 19.88C262.316 19.6 262.429 19.32 262.443 19.04C262.469 18.7467 262.409 18.5 262.263 18.3C262.129 18.1 261.936 17.9467 261.683 17.84C261.443 17.7333 261.183 17.68 260.903 17.68C260.369 17.68 259.949 17.8067 259.643 18.06C259.336 18.3133 259.116 18.6867 258.983 19.18C258.943 19.3267 258.876 19.4467 258.783 19.54C258.689 19.62 258.549 19.66 258.363 19.66H255.923C255.789 19.66 255.676 19.6133 255.583 19.52C255.489 19.4133 255.443 19.28 255.443 19.12C255.456 18.5867 255.583 18.0667 255.823 17.56C256.076 17.0533 256.436 16.5933 256.903 16.18C257.383 15.7533 257.976 15.42 258.683 15.18C259.389 14.9267 260.209 14.8 261.143 14.8C262.143 14.8 262.969 14.92 263.623 15.16C264.289 15.4 264.809 15.7133 265.183 16.1C265.569 16.4867 265.843 16.9 266.003 17.34C266.163 17.7667 266.236 18.1667 266.223 18.54C266.196 19.02 266.096 19.4533 265.923 19.84C265.749 20.2267 265.529 20.5867 265.263 20.92C265.009 21.24 264.736 21.5533 264.443 21.86C264.163 22.1533 263.903 22.4533 263.663 22.76C263.423 23.0533 263.243 23.3667 263.123 23.7C263.096 23.7933 263.069 23.8867 263.043 23.98C263.016 24.06 262.996 24.1467 262.983 24.24C262.903 24.4133 262.816 24.5467 262.723 24.64C262.643 24.72 262.523 24.76 262.363 24.76H259.563ZM259.603 29C259.456 29 259.336 28.9533 259.243 28.86C259.149 28.7533 259.103 28.6333 259.103 28.5V26.22C259.103 26.0867 259.149 25.9733 259.243 25.88C259.336 25.7733 259.456 25.72 259.603 25.72H262.163C262.309 25.72 262.429 25.7733 262.523 25.88C262.629 25.9733 262.683 26.0867 262.683 26.22V28.5C262.683 28.6333 262.629 28.7533 262.523 28.86C262.429 28.9533 262.309 29 262.163 29H259.603Z" fill="white"/>
<path fill-rule="evenodd" clip-rule="evenodd" d="M317.909 15.4697C318.202 15.7626 318.202 16.2374 317.909 16.5303L312.97 21.4697C312.677 21.7626 312.677 22.2374 312.97 22.5303L317.909 27.4697C318.202 27.7626 318.202 28.2374 317.909 28.5303C317.616 28.8232 317.141 28.8232 316.848 28.5303L311.909 23.591C311.03 22.7123 311.03 21.2877 311.909 20.409L316.848 15.4697C317.141 15.1768 317.616 15.1768 317.909 15.4697Z" fill="#54FA80"/>
<path fill-rule="evenodd" clip-rule="evenodd" d="M333.909 15.4697C334.202 15.7626 334.202 16.2374 333.909 16.5303L328.97 21.4697C328.677 21.7626 328.677 22.2374 328.97 22.5303L333.909 27.4697C334.202 27.7626 334.202 28.2374 333.909 28.5303C333.616 28.8232 333.141 28.8232 332.848 28.5303L327.909 23.591C327.03 22.7123 327.03 21.2877 327.909 20.409L332.848 15.4697C333.141 15.1768 333.616 15.1768 333.909 15.4697Z" fill="#54FA80"/>
<path fill-rule="evenodd" clip-rule="evenodd" d="M349.909 15.4697C350.202 15.7626 350.202 16.2374 349.909 16.5303L344.97 21.4697C344.677 21.7626 344.677 22.2374 344.97 22.5303L349.909 27.4697C350.202 27.7626 350.202 28.2374 349.909 28.5303C349.616 28.8232 349.141 28.8232 348.848 28.5303L343.909 23.591C343.03 22.7123 343.03 21.2877 343.909 20.409L348.848 15.4697C349.141 15.1768 349.616 15.1768 349.909 15.4697Z" fill="#54FA80"/>
</svg>
