<svg width="40" height="40" viewBox="0 0 40 40" fill="none" xmlns="http://www.w3.org/2000/svg">
<rect x="0.5" y="0.5" width="39" height="39" rx="19.5" fill="#131313"/>
<path fill-rule="evenodd" clip-rule="evenodd" d="M13.125 26.875C12.7798 26.5298 12.7798 25.9702 13.125 25.625L25.625 13.125C25.9702 12.7798 26.5298 12.7798 26.875 13.125C27.2202 13.4702 27.2202 14.0298 26.875 14.375L14.375 26.875C14.0298 27.2202 13.4702 27.2202 13.125 26.875Z" fill="white"/>
<path fill-rule="evenodd" clip-rule="evenodd" d="M13.125 13.125C13.4702 12.7798 14.0298 12.7798 14.375 13.125L26.875 25.625C27.2202 25.9702 27.2202 26.5298 26.875 26.875C26.5298 27.2202 25.9702 27.2202 25.625 26.875L13.125 14.375C12.7798 14.0298 12.7798 13.4702 13.125 13.125Z" fill="white"/>
<rect x="0.5" y="0.5" width="39" height="39" rx="19.5" stroke="white"/>
</svg>
