<svg width="144" height="56" viewBox="0 0 144 56" fill="none" xmlns="http://www.w3.org/2000/svg">
<rect x="1" y="1" width="142" height="54" rx="27" fill="white"/>
<path d="M26.186 35.2C24.906 35.2 23.8327 35.0133 22.966 34.64C22.1127 34.2667 21.466 33.78 21.026 33.18C20.586 32.58 20.3527 31.94 20.326 31.26C20.326 31.1533 20.366 31.06 20.446 30.98C20.526 30.8867 20.626 30.84 20.746 30.84H22.886C23.0593 30.84 23.1927 30.88 23.286 30.96C23.3793 31.0267 23.466 31.1133 23.546 31.22C23.6393 31.4467 23.786 31.6667 23.986 31.88C24.1993 32.0933 24.486 32.2733 24.846 32.42C25.206 32.5533 25.6527 32.62 26.186 32.62C27.0527 32.62 27.6993 32.48 28.126 32.2C28.566 31.92 28.786 31.54 28.786 31.06C28.786 30.7133 28.666 30.4333 28.426 30.22C28.1993 30.0067 27.8327 29.8133 27.326 29.64C26.8327 29.4667 26.1727 29.28 25.346 29.08C24.346 28.8667 23.4927 28.5933 22.786 28.26C22.0927 27.9133 21.566 27.4733 21.206 26.94C20.8593 26.3933 20.686 25.72 20.686 24.92C20.686 24.12 20.906 23.4133 21.346 22.8C21.786 22.1733 22.406 21.6867 23.206 21.34C24.006 20.98 24.9593 20.8 26.066 20.8C26.9593 20.8 27.746 20.92 28.426 21.16C29.1193 21.4 29.6927 21.7133 30.146 22.1C30.6127 22.4867 30.966 22.9 31.206 23.34C31.446 23.78 31.5727 24.2067 31.586 24.62C31.586 24.7267 31.546 24.8267 31.466 24.92C31.386 25 31.286 25.04 31.166 25.04H28.926C28.7927 25.04 28.6727 25.0133 28.566 24.96C28.4593 24.9067 28.3727 24.8133 28.306 24.68C28.226 24.3333 27.986 24.0333 27.586 23.78C27.1993 23.5133 26.6927 23.38 26.066 23.38C25.4127 23.38 24.8927 23.5 24.506 23.74C24.1327 23.98 23.946 24.3467 23.946 24.84C23.946 25.16 24.0393 25.4333 24.226 25.66C24.426 25.8733 24.7527 26.0667 25.206 26.24C25.6727 26.4 26.286 26.58 27.046 26.78C28.2193 27.02 29.1727 27.3067 29.906 27.64C30.6393 27.9733 31.1793 28.4067 31.526 28.94C31.8727 29.46 32.046 30.12 32.046 30.92C32.046 31.8133 31.7927 32.58 31.286 33.22C30.7927 33.86 30.106 34.3533 29.226 34.7C28.3593 35.0333 27.346 35.2 26.186 35.2ZM34.4729 35C34.3262 35 34.2062 34.9533 34.1129 34.86C34.0196 34.7667 33.9729 34.6467 33.9729 34.5V21.3C33.9729 21.1533 34.0196 21.0333 34.1129 20.94C34.2062 20.8467 34.3262 20.8 34.4729 20.8H36.6329C36.7662 20.8 36.8796 20.8467 36.9729 20.94C37.0662 21.0333 37.1129 21.1533 37.1129 21.3V25.8C37.4729 25.3733 37.9129 25.0333 38.4329 24.78C38.9529 24.5267 39.5796 24.4 40.3129 24.4C41.0996 24.4 41.7929 24.58 42.3929 24.94C43.0062 25.2867 43.4862 25.8 43.8329 26.48C44.1796 27.1467 44.3529 27.96 44.3529 28.92V34.5C44.3529 34.6467 44.3062 34.7667 44.2129 34.86C44.1196 34.9533 43.9996 35 43.8529 35H41.6729C41.5396 35 41.4262 34.9533 41.3329 34.86C41.2396 34.7667 41.1929 34.6467 41.1929 34.5V29.04C41.1929 28.3333 41.0196 27.7867 40.6729 27.4C40.3262 27 39.8329 26.8 39.1929 26.8C38.5662 26.8 38.0596 27 37.6729 27.4C37.2996 27.7867 37.1129 28.3333 37.1129 29.04V34.5C37.1129 34.6467 37.0662 34.7667 36.9729 34.86C36.8796 34.9533 36.7662 35 36.6329 35H34.4729ZM49.8063 35.2C49.0997 35.2 48.4663 35.0667 47.9063 34.8C47.3463 34.52 46.8997 34.1467 46.5663 33.68C46.233 33.2133 46.0663 32.6933 46.0663 32.12C46.0663 31.1733 46.4463 30.4267 47.2063 29.88C47.9797 29.3333 48.993 28.96 50.2463 28.76L52.8663 28.38V28.02C52.8663 27.5 52.7463 27.1 52.5063 26.82C52.2663 26.54 51.8463 26.4 51.2463 26.4C50.8063 26.4 50.453 26.4867 50.1863 26.66C49.9197 26.8333 49.713 27.06 49.5663 27.34C49.4597 27.5133 49.3063 27.6 49.1063 27.6H47.2063C47.0597 27.6 46.9463 27.56 46.8663 27.48C46.7863 27.3867 46.753 27.28 46.7663 27.16C46.7663 26.9333 46.853 26.6667 47.0263 26.36C47.1997 26.0533 47.4663 25.7533 47.8263 25.46C48.1863 25.1533 48.6463 24.9 49.2063 24.7C49.7663 24.5 50.453 24.4 51.2663 24.4C52.1063 24.4 52.8263 24.5 53.4263 24.7C54.0263 24.9 54.5063 25.18 54.8663 25.54C55.2263 25.9 55.493 26.32 55.6663 26.8C55.8397 27.2667 55.9263 27.7733 55.9263 28.32V34.5C55.9263 34.6467 55.8797 34.7667 55.7863 34.86C55.693 34.9533 55.573 35 55.4263 35H53.4663C53.333 35 53.2197 34.9533 53.1263 34.86C53.033 34.7667 52.9863 34.6467 52.9863 34.5V33.76C52.813 34.0133 52.5797 34.2533 52.2863 34.48C51.993 34.6933 51.6397 34.8667 51.2263 35C50.8263 35.1333 50.353 35.2 49.8063 35.2ZM50.6063 33.12C51.0463 33.12 51.4397 33.0267 51.7863 32.84C52.133 32.6533 52.4063 32.3667 52.6063 31.98C52.8063 31.5933 52.9063 31.1067 52.9063 30.52V30.18L51.0463 30.48C50.3263 30.6 49.7997 30.78 49.4663 31.02C49.133 31.26 48.9663 31.5533 48.9663 31.9C48.9663 32.1533 49.0397 32.3733 49.1863 32.56C49.3463 32.7467 49.553 32.8867 49.8063 32.98C50.0597 33.0733 50.3263 33.12 50.6063 33.12ZM58.8279 35C58.6946 35 58.5812 34.9533 58.4879 34.86C58.3946 34.7667 58.3479 34.6467 58.3479 34.5V25.1C58.3479 24.9667 58.3946 24.8533 58.4879 24.76C58.5812 24.6533 58.6946 24.6 58.8279 24.6H60.7879C60.9212 24.6 61.0346 24.6533 61.1279 24.76C61.2346 24.8533 61.2879 24.9667 61.2879 25.1V25.9C61.6212 25.4867 62.0279 25.1667 62.5079 24.94C63.0012 24.7133 63.5679 24.6 64.2079 24.6H65.0679C65.2012 24.6 65.3146 24.6467 65.4079 24.74C65.5012 24.8333 65.5479 24.9533 65.5479 25.1V26.82C65.5479 26.9667 65.5012 27.0867 65.4079 27.18C65.3146 27.2733 65.2012 27.32 65.0679 27.32H63.3079C62.7212 27.32 62.2612 27.4867 61.9279 27.82C61.5946 28.14 61.4279 28.6 61.4279 29.2V34.5C61.4279 34.6467 61.3812 34.7667 61.2879 34.86C61.1946 34.9533 61.0746 35 60.9279 35H58.8279ZM71.5621 35.2C70.0288 35.2 68.8088 34.7733 67.9021 33.92C67.0088 33.0667 66.5354 31.8267 66.4821 30.2C66.4821 30.0933 66.4821 29.9533 66.4821 29.78C66.4821 29.5933 66.4821 29.4467 66.4821 29.34C66.5354 28.3133 66.7688 27.4333 67.1821 26.7C67.5954 25.9533 68.1754 25.3867 68.9221 25C69.6688 24.6 70.5421 24.4 71.5421 24.4C72.6621 24.4 73.5954 24.6333 74.3421 25.1C75.1021 25.5533 75.6688 26.18 76.0421 26.98C76.4288 27.7667 76.6221 28.6733 76.6221 29.7V30.16C76.6221 30.2933 76.5688 30.4067 76.4621 30.5C76.3688 30.5933 76.2554 30.64 76.1221 30.64H69.5821C69.5821 30.6533 69.5821 30.68 69.5821 30.72C69.5821 30.7467 69.5821 30.7733 69.5821 30.8C69.5954 31.2267 69.6754 31.62 69.8221 31.98C69.9821 32.3267 70.2021 32.6067 70.4821 32.82C70.7754 33.0333 71.1221 33.14 71.5221 33.14C71.8554 33.14 72.1288 33.0933 72.3421 33C72.5554 32.9067 72.7288 32.7933 72.8621 32.66C73.0088 32.5267 73.1154 32.4133 73.1821 32.32C73.3021 32.1867 73.3954 32.1067 73.4621 32.08C73.5421 32.04 73.6621 32.02 73.8221 32.02H75.9021C76.0354 32.02 76.1421 32.06 76.2221 32.14C76.3154 32.2067 76.3554 32.3067 76.3421 32.44C76.3288 32.6533 76.2154 32.92 76.0021 33.24C75.8021 33.5467 75.5021 33.8533 75.1021 34.16C74.7021 34.4533 74.2021 34.7 73.6021 34.9C73.0154 35.1 72.3354 35.2 71.5621 35.2ZM69.5821 28.82H73.5021V28.78C73.5021 28.3 73.4221 27.8867 73.2621 27.54C73.1154 27.18 72.8954 26.9 72.6021 26.7C72.3088 26.5 71.9554 26.4 71.5421 26.4C71.1288 26.4 70.7754 26.5 70.4821 26.7C70.1888 26.9 69.9621 27.18 69.8021 27.54C69.6554 27.8867 69.5821 28.3 69.5821 28.78V28.82ZM83.7554 35C83.6087 35 83.4887 34.9533 83.3954 34.86C83.3021 34.7667 83.2554 34.6467 83.2554 34.5V21.5C83.2554 21.3533 83.3021 21.2333 83.3954 21.14C83.4887 21.0467 83.6087 21 83.7554 21H85.5754C85.7754 21 85.9221 21.0467 86.0154 21.14C86.1087 21.2333 86.1687 21.3067 86.1954 21.36L91.5354 29.7V21.5C91.5354 21.3533 91.5821 21.2333 91.6754 21.14C91.7687 21.0467 91.8821 21 92.0154 21H94.0554C94.2021 21 94.3221 21.0467 94.4154 21.14C94.5087 21.2333 94.5554 21.3533 94.5554 21.5V34.5C94.5554 34.6333 94.5087 34.7533 94.4154 34.86C94.3221 34.9533 94.2021 35 94.0554 35H92.2154C92.0154 35 91.8687 34.9533 91.7754 34.86C91.6954 34.7533 91.6354 34.68 91.5954 34.64L86.2754 26.56V34.5C86.2754 34.6467 86.2287 34.7667 86.1354 34.86C86.0421 34.9533 85.9221 35 85.7754 35H83.7554ZM102.053 35.2C100.947 35.2 100.02 35.02 99.2732 34.66C98.5265 34.2867 97.9532 33.76 97.5532 33.08C97.1665 32.4 96.9532 31.6067 96.9132 30.7C96.8999 30.4333 96.8932 30.1333 96.8932 29.8C96.8932 29.4533 96.8999 29.1533 96.9132 28.9C96.9532 27.98 97.1799 27.1867 97.5932 26.52C98.0065 25.84 98.5865 25.32 99.3332 24.96C100.08 24.5867 100.987 24.4 102.053 24.4C103.107 24.4 104.007 24.5867 104.753 24.96C105.5 25.32 106.08 25.84 106.493 26.52C106.907 27.1867 107.133 27.98 107.173 28.9C107.2 29.1533 107.213 29.4533 107.213 29.8C107.213 30.1333 107.2 30.4333 107.173 30.7C107.133 31.6067 106.913 32.4 106.513 33.08C106.127 33.76 105.56 34.2867 104.813 34.66C104.067 35.02 103.147 35.2 102.053 35.2ZM102.053 33C102.707 33 103.2 32.8 103.533 32.4C103.867 31.9867 104.047 31.3867 104.073 30.6C104.087 30.4 104.093 30.1333 104.093 29.8C104.093 29.4667 104.087 29.2 104.073 29C104.047 28.2267 103.867 27.6333 103.533 27.22C103.2 26.8067 102.707 26.6 102.053 26.6C101.4 26.6 100.9 26.8067 100.553 27.22C100.22 27.6333 100.04 28.2267 100.013 29C99.9999 29.2 99.9932 29.4667 99.9932 29.8C99.9932 30.1333 99.9999 30.4 100.013 30.6C100.04 31.3867 100.22 31.9867 100.553 32.4C100.9 32.8 101.4 33 102.053 33ZM111.872 35C111.685 35 111.539 34.9533 111.432 34.86C111.339 34.7667 111.265 34.6467 111.212 34.5L108.352 25.24C108.325 25.1733 108.312 25.1067 108.312 25.04C108.312 24.92 108.352 24.82 108.432 24.74C108.525 24.6467 108.632 24.6 108.752 24.6H110.512C110.685 24.6 110.819 24.6467 110.912 24.74C111.005 24.8333 111.065 24.92 111.092 25L112.912 31.18L114.852 25.04C114.879 24.9467 114.939 24.8533 115.032 24.76C115.139 24.6533 115.285 24.6 115.472 24.6H116.612C116.799 24.6 116.939 24.6533 117.032 24.76C117.139 24.8533 117.205 24.9467 117.232 25.04L119.172 31.18L120.992 25C121.005 24.92 121.059 24.8333 121.152 24.74C121.259 24.6467 121.392 24.6 121.552 24.6H123.312C123.432 24.6 123.532 24.6467 123.612 24.74C123.705 24.82 123.752 24.92 123.752 25.04C123.752 25.1067 123.745 25.1733 123.732 25.24L120.852 34.5C120.812 34.6467 120.739 34.7667 120.632 34.86C120.539 34.9533 120.399 35 120.212 35H118.672C118.485 35 118.339 34.9533 118.232 34.86C118.125 34.7667 118.045 34.6467 117.992 34.5L116.052 28.58L114.072 34.5C114.032 34.6467 113.959 34.7667 113.852 34.86C113.745 34.9533 113.599 35 113.412 35H111.872Z" fill="black"/>
<rect x="1" y="1" width="142" height="54" rx="27" stroke="#BFBFBF" stroke-width="2"/>
</svg>
