<svg width="68" height="32" viewBox="0 0 68 32" fill="none" xmlns="http://www.w3.org/2000/svg">
<rect x="0.5" y="0.5" width="67" height="31" rx="15.5" fill="white"/>
<path d="M21.0205 21C20.9272 21 20.8479 20.9673 20.7825 20.902C20.7172 20.8367 20.6845 20.7573 20.6845 20.664V12.922H18.0945C18.0012 12.922 17.9219 12.8893 17.8565 12.824C17.7912 12.7587 17.7585 12.6793 17.7585 12.586V11.55C17.7585 11.4473 17.7912 11.3633 17.8565 11.298C17.9219 11.2327 18.0012 11.2 18.0945 11.2H25.2345C25.3372 11.2 25.4212 11.2327 25.4865 11.298C25.5519 11.3633 25.5845 11.4473 25.5845 11.55V12.586C25.5845 12.6793 25.5519 12.7587 25.4865 12.824C25.4212 12.8893 25.3372 12.922 25.2345 12.922H22.6585V20.664C22.6585 20.7573 22.6259 20.8367 22.5605 20.902C22.4952 20.9673 22.4112 21 22.3085 21H21.0205ZM28.7719 21.14C28.0253 21.14 27.3953 21.0093 26.8819 20.748C26.3779 20.4867 25.9906 20.118 25.7199 19.642C25.4586 19.166 25.3093 18.6107 25.2719 17.976C25.2626 17.808 25.2579 17.6027 25.2579 17.36C25.2579 17.1173 25.2626 16.912 25.2719 16.744C25.3093 16.1 25.4633 15.5447 25.7339 15.078C26.0139 14.602 26.4059 14.2333 26.9099 13.972C27.4233 13.7107 28.0439 13.58 28.7719 13.58C29.4999 13.58 30.1159 13.7107 30.6199 13.972C31.1333 14.2333 31.5253 14.602 31.7959 15.078C32.0759 15.5447 32.2346 16.1 32.2719 16.744C32.2813 16.912 32.2859 17.1173 32.2859 17.36C32.2859 17.6027 32.2813 17.808 32.2719 17.976C32.2346 18.6107 32.0806 19.166 31.8099 19.642C31.5486 20.118 31.1613 20.4867 30.6479 20.748C30.1439 21.0093 29.5186 21.14 28.7719 21.14ZM28.7719 19.754C29.2666 19.754 29.6493 19.6 29.9199 19.292C30.1906 18.9747 30.3399 18.5127 30.3679 17.906C30.3773 17.766 30.3819 17.584 30.3819 17.36C30.3819 17.136 30.3773 16.954 30.3679 16.814C30.3399 16.2073 30.1906 15.75 29.9199 15.442C29.6493 15.1247 29.2666 14.966 28.7719 14.966C28.2773 14.966 27.8946 15.1247 27.6239 15.442C27.3533 15.75 27.2039 16.2073 27.1759 16.814C27.1666 16.954 27.1619 17.136 27.1619 17.36C27.1619 17.584 27.1666 17.766 27.1759 17.906C27.2039 18.5127 27.3533 18.9747 27.6239 19.292C27.8946 19.6 28.2773 19.754 28.7719 19.754ZM37.0724 21C36.5124 21 36.0411 20.902 35.6584 20.706C35.2757 20.51 34.9911 20.2207 34.8044 19.838C34.6177 19.446 34.5244 18.9607 34.5244 18.382V15.204H33.4184C33.3251 15.204 33.2457 15.1713 33.1804 15.106C33.1151 15.0407 33.0824 14.9567 33.0824 14.854V14.056C33.0824 13.9627 33.1151 13.8833 33.1804 13.818C33.2457 13.7527 33.3251 13.72 33.4184 13.72H34.5244V11.396C34.5244 11.3027 34.5524 11.2233 34.6084 11.158C34.6737 11.0927 34.7577 11.06 34.8604 11.06H35.9944C36.0877 11.06 36.1671 11.0927 36.2324 11.158C36.2977 11.2233 36.3304 11.3027 36.3304 11.396V13.72H38.0804C38.1737 13.72 38.2531 13.7527 38.3184 13.818C38.3837 13.8833 38.4164 13.9627 38.4164 14.056V14.854C38.4164 14.9567 38.3837 15.0407 38.3184 15.106C38.2531 15.1713 38.1737 15.204 38.0804 15.204H36.3304V18.242C36.3304 18.6247 36.3957 18.9233 36.5264 19.138C36.6664 19.3527 36.9044 19.46 37.2404 19.46H38.2064C38.2997 19.46 38.3791 19.4927 38.4444 19.558C38.5097 19.6233 38.5424 19.7027 38.5424 19.796V20.664C38.5424 20.7573 38.5097 20.8367 38.4444 20.902C38.3791 20.9673 38.2997 21 38.2064 21H37.0724ZM41.8984 21.14C41.413 21.14 40.9744 21.0467 40.5824 20.86C40.1904 20.664 39.8777 20.4073 39.6444 20.09C39.4204 19.7633 39.3084 19.3993 39.3084 18.998C39.3084 18.3447 39.5744 17.8267 40.1064 17.444C40.6384 17.052 41.3337 16.7907 42.1924 16.66L44.1104 16.38V16.086C44.1104 15.694 44.0124 15.3907 43.8164 15.176C43.6204 14.9613 43.2844 14.854 42.8084 14.854C42.4724 14.854 42.197 14.924 41.9824 15.064C41.777 15.1947 41.623 15.372 41.5204 15.596C41.4457 15.7173 41.3384 15.778 41.1984 15.778H40.0924C39.9897 15.778 39.9104 15.75 39.8544 15.694C39.8077 15.638 39.7844 15.5633 39.7844 15.47C39.7937 15.3207 39.8544 15.1387 39.9664 14.924C40.0877 14.7093 40.265 14.504 40.4984 14.308C40.741 14.1027 41.0537 13.93 41.4364 13.79C41.819 13.65 42.281 13.58 42.8224 13.58C43.4104 13.58 43.905 13.6547 44.3064 13.804C44.717 13.944 45.0437 14.1353 45.2864 14.378C45.529 14.6207 45.7064 14.9053 45.8184 15.232C45.9304 15.5587 45.9864 15.904 45.9864 16.268V20.664C45.9864 20.7573 45.9537 20.8367 45.8884 20.902C45.823 20.9673 45.7437 21 45.6504 21H44.5164C44.4137 21 44.3297 20.9673 44.2644 20.902C44.2084 20.8367 44.1804 20.7573 44.1804 20.664V20.118C44.059 20.286 43.8957 20.4493 43.6904 20.608C43.485 20.7667 43.233 20.8973 42.9344 21C42.645 21.0933 42.2997 21.14 41.8984 21.14ZM42.3744 19.81C42.701 19.81 42.995 19.74 43.2564 19.6C43.527 19.46 43.737 19.2453 43.8864 18.956C44.045 18.6573 44.1244 18.284 44.1244 17.836V17.542L42.7244 17.766C42.1737 17.85 41.763 17.9853 41.4924 18.172C41.2217 18.3587 41.0864 18.5873 41.0864 18.858C41.0864 19.0633 41.147 19.2407 41.2684 19.39C41.399 19.53 41.5624 19.6373 41.7584 19.712C41.9544 19.7773 42.1597 19.81 42.3744 19.81ZM48.1324 21C48.0391 21 47.9597 20.9673 47.8944 20.902C47.8291 20.8367 47.7964 20.7573 47.7964 20.664V11.396C47.7964 11.3027 47.8291 11.2233 47.8944 11.158C47.9597 11.0927 48.0391 11.06 48.1324 11.06H49.2944C49.3877 11.06 49.4671 11.0927 49.5324 11.158C49.5977 11.2233 49.6304 11.3027 49.6304 11.396V20.664C49.6304 20.7573 49.5977 20.8367 49.5324 20.902C49.4671 20.9673 49.3877 21 49.2944 21H48.1324Z" fill="#131313"/>
<rect x="0.5" y="0.5" width="67" height="31" rx="15.5" stroke="#131313"/>
</svg>
