<svg width="344" height="512" viewBox="0 0 344 512" fill="none" xmlns="http://www.w3.org/2000/svg">
<rect width="344" height="512" rx="20" fill="#F0F0F0"/>
<rect x="8" y="8" width="76" height="76" rx="12" fill="#F0F0F0"/>
<rect x="52" y="12" width="28" height="16" rx="8" fill="#F0F0F0"/>
<path d="M60.9728 23.09C60.5408 23.09 60.1688 23.03 59.8568 22.91C59.5508 22.784 59.2958 22.613 59.0918 22.397C58.8938 22.175 58.7438 21.92 58.6418 21.632C58.5458 21.338 58.4888 21.026 58.4708 20.696C58.4648 20.534 58.4588 20.354 58.4528 20.156C58.4528 19.952 58.4528 19.748 58.4528 19.544C58.4588 19.34 58.4648 19.154 58.4708 18.986C58.4828 18.656 58.5398 18.347 58.6418 18.059C58.7498 17.771 58.9058 17.519 59.1098 17.303C59.3138 17.087 59.5688 16.919 59.8748 16.799C60.1868 16.673 60.5528 16.61 60.9728 16.61C61.3928 16.61 61.7558 16.673 62.0618 16.799C62.3678 16.919 62.6228 17.087 62.8268 17.303C63.0308 17.519 63.1838 17.771 63.2858 18.059C63.3938 18.347 63.4568 18.656 63.4748 18.986C63.4808 19.154 63.4838 19.34 63.4838 19.544C63.4898 19.748 63.4898 19.952 63.4838 20.156C63.4838 20.354 63.4808 20.534 63.4748 20.696C63.4568 21.026 63.3968 21.338 63.2948 21.632C63.1928 21.92 63.0398 22.175 62.8358 22.397C62.6378 22.613 62.3828 22.784 62.0708 22.91C61.7648 23.03 61.3988 23.09 60.9728 23.09ZM60.9728 21.92C61.3208 21.92 61.5758 21.806 61.7378 21.578C61.8998 21.35 61.9868 21.041 61.9988 20.651C62.0048 20.477 62.0078 20.297 62.0078 20.111C62.0138 19.925 62.0138 19.739 62.0078 19.553C62.0078 19.367 62.0048 19.193 61.9988 19.031C61.9868 18.659 61.8998 18.356 61.7378 18.122C61.5758 17.888 61.3208 17.768 60.9728 17.762C60.6188 17.768 60.3608 17.888 60.1988 18.122C60.0428 18.356 59.9588 18.659 59.9468 19.031C59.9408 19.193 59.9348 19.367 59.9288 19.553C59.9288 19.739 59.9288 19.925 59.9288 20.111C59.9348 20.297 59.9408 20.477 59.9468 20.651C59.9588 21.041 60.0458 21.35 60.2078 21.578C60.3698 21.806 60.6248 21.92 60.9728 21.92ZM64.1726 23.756C64.1186 23.756 64.0736 23.735 64.0376 23.693C64.0016 23.657 63.9836 23.615 63.9836 23.567C63.9836 23.537 63.9896 23.507 64.0016 23.477L67.0616 16.133C67.0796 16.085 67.1096 16.04 67.1516 15.998C67.1996 15.95 67.2686 15.926 67.3586 15.926H68.0516C68.1056 15.926 68.1506 15.947 68.1866 15.989C68.2226 16.025 68.2406 16.067 68.2406 16.115C68.2406 16.139 68.2346 16.169 68.2226 16.205L65.1536 23.549C65.1356 23.591 65.1026 23.636 65.0546 23.684C65.0126 23.732 64.9436 23.756 64.8476 23.756H64.1726ZM71.1637 23.099C70.6237 23.099 70.1707 23.012 69.8047 22.838C69.4387 22.664 69.1597 22.436 68.9677 22.154C68.7817 21.872 68.6827 21.572 68.6707 21.254C68.6707 21.2 68.6887 21.155 68.7247 21.119C68.7607 21.083 68.8057 21.065 68.8597 21.065H69.8767C69.9487 21.065 70.0057 21.083 70.0477 21.119C70.0957 21.149 70.1317 21.191 70.1557 21.245C70.2157 21.407 70.2937 21.539 70.3897 21.641C70.4917 21.743 70.6087 21.818 70.7407 21.866C70.8727 21.914 71.0137 21.938 71.1637 21.938C71.3557 21.938 71.5327 21.899 71.6947 21.821C71.8567 21.737 71.9857 21.617 72.0817 21.461C72.1777 21.305 72.2257 21.113 72.2257 20.885C72.2257 20.687 72.1807 20.513 72.0907 20.363C72.0007 20.213 71.8747 20.096 71.7127 20.012C71.5507 19.928 71.3677 19.886 71.1637 19.886C71.0077 19.886 70.8787 19.904 70.7767 19.94C70.6807 19.976 70.5997 20.021 70.5337 20.075C70.4677 20.123 70.4077 20.168 70.3537 20.21C70.2997 20.246 70.2397 20.264 70.1737 20.264H69.1747C69.1207 20.264 69.0727 20.246 69.0307 20.21C68.9947 20.168 68.9767 20.12 68.9767 20.066L69.2917 16.961C69.3037 16.877 69.3337 16.814 69.3817 16.772C69.4357 16.724 69.4987 16.7 69.5707 16.7H73.0627C73.1287 16.7 73.1827 16.721 73.2247 16.763C73.2667 16.805 73.2877 16.859 73.2877 16.925V17.645C73.2877 17.705 73.2667 17.756 73.2247 17.798C73.1827 17.84 73.1287 17.861 73.0627 17.861H70.4617L70.3267 19.184C70.4467 19.106 70.5937 19.037 70.7677 18.977C70.9477 18.911 71.1967 18.878 71.5147 18.878C71.8027 18.878 72.0757 18.926 72.3337 19.022C72.5977 19.112 72.8317 19.247 73.0357 19.427C73.2397 19.607 73.3987 19.823 73.5127 20.075C73.6327 20.321 73.6927 20.603 73.6927 20.921C73.6927 21.353 73.5907 21.734 73.3867 22.064C73.1827 22.388 72.8917 22.643 72.5137 22.829C72.1357 23.009 71.6857 23.099 71.1637 23.099Z" fill="#F0F0F0"/>
<rect x="92" y="8" width="76" height="76" rx="12" fill="#F0F0F0"/>
<rect x="136" y="12" width="28" height="16" rx="8" fill="#F0F0F0"/>
<path d="M144.973 23.09C144.541 23.09 144.169 23.03 143.857 22.91C143.551 22.784 143.296 22.613 143.092 22.397C142.894 22.175 142.744 21.92 142.642 21.632C142.546 21.338 142.489 21.026 142.471 20.696C142.465 20.534 142.459 20.354 142.453 20.156C142.453 19.952 142.453 19.748 142.453 19.544C142.459 19.34 142.465 19.154 142.471 18.986C142.483 18.656 142.54 18.347 142.642 18.059C142.75 17.771 142.906 17.519 143.11 17.303C143.314 17.087 143.569 16.919 143.875 16.799C144.187 16.673 144.553 16.61 144.973 16.61C145.393 16.61 145.756 16.673 146.062 16.799C146.368 16.919 146.623 17.087 146.827 17.303C147.031 17.519 147.184 17.771 147.286 18.059C147.394 18.347 147.457 18.656 147.475 18.986C147.481 19.154 147.484 19.34 147.484 19.544C147.49 19.748 147.49 19.952 147.484 20.156C147.484 20.354 147.481 20.534 147.475 20.696C147.457 21.026 147.397 21.338 147.295 21.632C147.193 21.92 147.04 22.175 146.836 22.397C146.638 22.613 146.383 22.784 146.071 22.91C145.765 23.03 145.399 23.09 144.973 23.09ZM144.973 21.92C145.321 21.92 145.576 21.806 145.738 21.578C145.9 21.35 145.987 21.041 145.999 20.651C146.005 20.477 146.008 20.297 146.008 20.111C146.014 19.925 146.014 19.739 146.008 19.553C146.008 19.367 146.005 19.193 145.999 19.031C145.987 18.659 145.9 18.356 145.738 18.122C145.576 17.888 145.321 17.768 144.973 17.762C144.619 17.768 144.361 17.888 144.199 18.122C144.043 18.356 143.959 18.659 143.947 19.031C143.941 19.193 143.935 19.367 143.929 19.553C143.929 19.739 143.929 19.925 143.929 20.111C143.935 20.297 143.941 20.477 143.947 20.651C143.959 21.041 144.046 21.35 144.208 21.578C144.37 21.806 144.625 21.92 144.973 21.92ZM148.173 23.756C148.119 23.756 148.074 23.735 148.038 23.693C148.002 23.657 147.984 23.615 147.984 23.567C147.984 23.537 147.99 23.507 148.002 23.477L151.062 16.133C151.08 16.085 151.11 16.04 151.152 15.998C151.2 15.95 151.269 15.926 151.359 15.926H152.052C152.106 15.926 152.151 15.947 152.187 15.989C152.223 16.025 152.241 16.067 152.241 16.115C152.241 16.139 152.235 16.169 152.223 16.205L149.154 23.549C149.136 23.591 149.103 23.636 149.055 23.684C149.013 23.732 148.944 23.756 148.848 23.756H148.173ZM155.164 23.099C154.624 23.099 154.171 23.012 153.805 22.838C153.439 22.664 153.16 22.436 152.968 22.154C152.782 21.872 152.683 21.572 152.671 21.254C152.671 21.2 152.689 21.155 152.725 21.119C152.761 21.083 152.806 21.065 152.86 21.065H153.877C153.949 21.065 154.006 21.083 154.048 21.119C154.096 21.149 154.132 21.191 154.156 21.245C154.216 21.407 154.294 21.539 154.39 21.641C154.492 21.743 154.609 21.818 154.741 21.866C154.873 21.914 155.014 21.938 155.164 21.938C155.356 21.938 155.533 21.899 155.695 21.821C155.857 21.737 155.986 21.617 156.082 21.461C156.178 21.305 156.226 21.113 156.226 20.885C156.226 20.687 156.181 20.513 156.091 20.363C156.001 20.213 155.875 20.096 155.713 20.012C155.551 19.928 155.368 19.886 155.164 19.886C155.008 19.886 154.879 19.904 154.777 19.94C154.681 19.976 154.6 20.021 154.534 20.075C154.468 20.123 154.408 20.168 154.354 20.21C154.3 20.246 154.24 20.264 154.174 20.264H153.175C153.121 20.264 153.073 20.246 153.031 20.21C152.995 20.168 152.977 20.12 152.977 20.066L153.292 16.961C153.304 16.877 153.334 16.814 153.382 16.772C153.436 16.724 153.499 16.7 153.571 16.7H157.063C157.129 16.7 157.183 16.721 157.225 16.763C157.267 16.805 157.288 16.859 157.288 16.925V17.645C157.288 17.705 157.267 17.756 157.225 17.798C157.183 17.84 157.129 17.861 157.063 17.861H154.462L154.327 19.184C154.447 19.106 154.594 19.037 154.768 18.977C154.948 18.911 155.197 18.878 155.515 18.878C155.803 18.878 156.076 18.926 156.334 19.022C156.598 19.112 156.832 19.247 157.036 19.427C157.24 19.607 157.399 19.823 157.513 20.075C157.633 20.321 157.693 20.603 157.693 20.921C157.693 21.353 157.591 21.734 157.387 22.064C157.183 22.388 156.892 22.643 156.514 22.829C156.136 23.009 155.686 23.099 155.164 23.099Z" fill="#F0F0F0"/>
<rect x="176" y="8" width="76" height="76" rx="12" fill="#F0F0F0"/>
<rect x="220" y="12" width="28" height="16" rx="8" fill="#F0F0F0"/>
<path d="M228.973 23.09C228.541 23.09 228.169 23.03 227.857 22.91C227.551 22.784 227.296 22.613 227.092 22.397C226.894 22.175 226.744 21.92 226.642 21.632C226.546 21.338 226.489 21.026 226.471 20.696C226.465 20.534 226.459 20.354 226.453 20.156C226.453 19.952 226.453 19.748 226.453 19.544C226.459 19.34 226.465 19.154 226.471 18.986C226.483 18.656 226.54 18.347 226.642 18.059C226.75 17.771 226.906 17.519 227.11 17.303C227.314 17.087 227.569 16.919 227.875 16.799C228.187 16.673 228.553 16.61 228.973 16.61C229.393 16.61 229.756 16.673 230.062 16.799C230.368 16.919 230.623 17.087 230.827 17.303C231.031 17.519 231.184 17.771 231.286 18.059C231.394 18.347 231.457 18.656 231.475 18.986C231.481 19.154 231.484 19.34 231.484 19.544C231.49 19.748 231.49 19.952 231.484 20.156C231.484 20.354 231.481 20.534 231.475 20.696C231.457 21.026 231.397 21.338 231.295 21.632C231.193 21.92 231.04 22.175 230.836 22.397C230.638 22.613 230.383 22.784 230.071 22.91C229.765 23.03 229.399 23.09 228.973 23.09ZM228.973 21.92C229.321 21.92 229.576 21.806 229.738 21.578C229.9 21.35 229.987 21.041 229.999 20.651C230.005 20.477 230.008 20.297 230.008 20.111C230.014 19.925 230.014 19.739 230.008 19.553C230.008 19.367 230.005 19.193 229.999 19.031C229.987 18.659 229.9 18.356 229.738 18.122C229.576 17.888 229.321 17.768 228.973 17.762C228.619 17.768 228.361 17.888 228.199 18.122C228.043 18.356 227.959 18.659 227.947 19.031C227.941 19.193 227.935 19.367 227.929 19.553C227.929 19.739 227.929 19.925 227.929 20.111C227.935 20.297 227.941 20.477 227.947 20.651C227.959 21.041 228.046 21.35 228.208 21.578C228.37 21.806 228.625 21.92 228.973 21.92ZM232.173 23.756C232.119 23.756 232.074 23.735 232.038 23.693C232.002 23.657 231.984 23.615 231.984 23.567C231.984 23.537 231.99 23.507 232.002 23.477L235.062 16.133C235.08 16.085 235.11 16.04 235.152 15.998C235.2 15.95 235.269 15.926 235.359 15.926H236.052C236.106 15.926 236.151 15.947 236.187 15.989C236.223 16.025 236.241 16.067 236.241 16.115C236.241 16.139 236.235 16.169 236.223 16.205L233.154 23.549C233.136 23.591 233.103 23.636 233.055 23.684C233.013 23.732 232.944 23.756 232.848 23.756H232.173ZM239.164 23.099C238.624 23.099 238.171 23.012 237.805 22.838C237.439 22.664 237.16 22.436 236.968 22.154C236.782 21.872 236.683 21.572 236.671 21.254C236.671 21.2 236.689 21.155 236.725 21.119C236.761 21.083 236.806 21.065 236.86 21.065H237.877C237.949 21.065 238.006 21.083 238.048 21.119C238.096 21.149 238.132 21.191 238.156 21.245C238.216 21.407 238.294 21.539 238.39 21.641C238.492 21.743 238.609 21.818 238.741 21.866C238.873 21.914 239.014 21.938 239.164 21.938C239.356 21.938 239.533 21.899 239.695 21.821C239.857 21.737 239.986 21.617 240.082 21.461C240.178 21.305 240.226 21.113 240.226 20.885C240.226 20.687 240.181 20.513 240.091 20.363C240.001 20.213 239.875 20.096 239.713 20.012C239.551 19.928 239.368 19.886 239.164 19.886C239.008 19.886 238.879 19.904 238.777 19.94C238.681 19.976 238.6 20.021 238.534 20.075C238.468 20.123 238.408 20.168 238.354 20.21C238.3 20.246 238.24 20.264 238.174 20.264H237.175C237.121 20.264 237.073 20.246 237.031 20.21C236.995 20.168 236.977 20.12 236.977 20.066L237.292 16.961C237.304 16.877 237.334 16.814 237.382 16.772C237.436 16.724 237.499 16.7 237.571 16.7H241.063C241.129 16.7 241.183 16.721 241.225 16.763C241.267 16.805 241.288 16.859 241.288 16.925V17.645C241.288 17.705 241.267 17.756 241.225 17.798C241.183 17.84 241.129 17.861 241.063 17.861H238.462L238.327 19.184C238.447 19.106 238.594 19.037 238.768 18.977C238.948 18.911 239.197 18.878 239.515 18.878C239.803 18.878 240.076 18.926 240.334 19.022C240.598 19.112 240.832 19.247 241.036 19.427C241.24 19.607 241.399 19.823 241.513 20.075C241.633 20.321 241.693 20.603 241.693 20.921C241.693 21.353 241.591 21.734 241.387 22.064C241.183 22.388 240.892 22.643 240.514 22.829C240.136 23.009 239.686 23.099 239.164 23.099Z" fill="#F0F0F0"/>
<rect x="260" y="8" width="76" height="76" rx="12" fill="#F0F0F0"/>
<rect x="304" y="12" width="28" height="16" rx="8" fill="#F0F0F0"/>
<path d="M312.973 23.09C312.541 23.09 312.169 23.03 311.857 22.91C311.551 22.784 311.296 22.613 311.092 22.397C310.894 22.175 310.744 21.92 310.642 21.632C310.546 21.338 310.489 21.026 310.471 20.696C310.465 20.534 310.459 20.354 310.453 20.156C310.453 19.952 310.453 19.748 310.453 19.544C310.459 19.34 310.465 19.154 310.471 18.986C310.483 18.656 310.54 18.347 310.642 18.059C310.75 17.771 310.906 17.519 311.11 17.303C311.314 17.087 311.569 16.919 311.875 16.799C312.187 16.673 312.553 16.61 312.973 16.61C313.393 16.61 313.756 16.673 314.062 16.799C314.368 16.919 314.623 17.087 314.827 17.303C315.031 17.519 315.184 17.771 315.286 18.059C315.394 18.347 315.457 18.656 315.475 18.986C315.481 19.154 315.484 19.34 315.484 19.544C315.49 19.748 315.49 19.952 315.484 20.156C315.484 20.354 315.481 20.534 315.475 20.696C315.457 21.026 315.397 21.338 315.295 21.632C315.193 21.92 315.04 22.175 314.836 22.397C314.638 22.613 314.383 22.784 314.071 22.91C313.765 23.03 313.399 23.09 312.973 23.09ZM312.973 21.92C313.321 21.92 313.576 21.806 313.738 21.578C313.9 21.35 313.987 21.041 313.999 20.651C314.005 20.477 314.008 20.297 314.008 20.111C314.014 19.925 314.014 19.739 314.008 19.553C314.008 19.367 314.005 19.193 313.999 19.031C313.987 18.659 313.9 18.356 313.738 18.122C313.576 17.888 313.321 17.768 312.973 17.762C312.619 17.768 312.361 17.888 312.199 18.122C312.043 18.356 311.959 18.659 311.947 19.031C311.941 19.193 311.935 19.367 311.929 19.553C311.929 19.739 311.929 19.925 311.929 20.111C311.935 20.297 311.941 20.477 311.947 20.651C311.959 21.041 312.046 21.35 312.208 21.578C312.37 21.806 312.625 21.92 312.973 21.92ZM316.173 23.756C316.119 23.756 316.074 23.735 316.038 23.693C316.002 23.657 315.984 23.615 315.984 23.567C315.984 23.537 315.99 23.507 316.002 23.477L319.062 16.133C319.08 16.085 319.11 16.04 319.152 15.998C319.2 15.95 319.269 15.926 319.359 15.926H320.052C320.106 15.926 320.151 15.947 320.187 15.989C320.223 16.025 320.241 16.067 320.241 16.115C320.241 16.139 320.235 16.169 320.223 16.205L317.154 23.549C317.136 23.591 317.103 23.636 317.055 23.684C317.013 23.732 316.944 23.756 316.848 23.756H316.173ZM323.164 23.099C322.624 23.099 322.171 23.012 321.805 22.838C321.439 22.664 321.16 22.436 320.968 22.154C320.782 21.872 320.683 21.572 320.671 21.254C320.671 21.2 320.689 21.155 320.725 21.119C320.761 21.083 320.806 21.065 320.86 21.065H321.877C321.949 21.065 322.006 21.083 322.048 21.119C322.096 21.149 322.132 21.191 322.156 21.245C322.216 21.407 322.294 21.539 322.39 21.641C322.492 21.743 322.609 21.818 322.741 21.866C322.873 21.914 323.014 21.938 323.164 21.938C323.356 21.938 323.533 21.899 323.695 21.821C323.857 21.737 323.986 21.617 324.082 21.461C324.178 21.305 324.226 21.113 324.226 20.885C324.226 20.687 324.181 20.513 324.091 20.363C324.001 20.213 323.875 20.096 323.713 20.012C323.551 19.928 323.368 19.886 323.164 19.886C323.008 19.886 322.879 19.904 322.777 19.94C322.681 19.976 322.6 20.021 322.534 20.075C322.468 20.123 322.408 20.168 322.354 20.21C322.3 20.246 322.24 20.264 322.174 20.264H321.175C321.121 20.264 321.073 20.246 321.031 20.21C320.995 20.168 320.977 20.12 320.977 20.066L321.292 16.961C321.304 16.877 321.334 16.814 321.382 16.772C321.436 16.724 321.499 16.7 321.571 16.7H325.063C325.129 16.7 325.183 16.721 325.225 16.763C325.267 16.805 325.288 16.859 325.288 16.925V17.645C325.288 17.705 325.267 17.756 325.225 17.798C325.183 17.84 325.129 17.861 325.063 17.861H322.462L322.327 19.184C322.447 19.106 322.594 19.037 322.768 18.977C322.948 18.911 323.197 18.878 323.515 18.878C323.803 18.878 324.076 18.926 324.334 19.022C324.598 19.112 324.832 19.247 325.036 19.427C325.24 19.607 325.399 19.823 325.513 20.075C325.633 20.321 325.693 20.603 325.693 20.921C325.693 21.353 325.591 21.734 325.387 22.064C325.183 22.388 324.892 22.643 324.514 22.829C324.136 23.009 323.686 23.099 323.164 23.099Z" fill="#F0F0F0"/>
<rect x="8.5" y="92.5" width="75" height="75" rx="11.5" fill="#F0F0F0" stroke="#F0F0F0"/>
<rect x="64" y="96" width="16" height="16" rx="8" fill="#F0F0F0"/>
<path d="M75.8368 100.818C75.4963 100.532 74.9839 100.567 74.6873 100.901L71.0305 105.015L69.6465 103.67C69.3271 103.36 68.8135 103.36 68.4941 103.67C68.1686 103.987 68.1686 104.504 68.4941 104.82L70.498 106.767C70.66 106.925 70.8796 107.007 71.1038 106.999C71.328 106.991 71.5413 106.893 71.6915 106.724L75.922 101.965C76.2241 101.625 76.1836 101.109 75.8368 100.818Z" fill="#F0F0F0"/>
<rect x="92" y="92" width="76" height="76" rx="12" fill="#F0F0F0"/>
<rect x="136" y="96" width="28" height="16" rx="8" fill="#F0F0F0"/>
<path d="M144.973 107.09C144.541 107.09 144.169 107.03 143.857 106.91C143.551 106.784 143.296 106.613 143.092 106.397C142.894 106.175 142.744 105.92 142.642 105.632C142.546 105.338 142.489 105.026 142.471 104.696C142.465 104.534 142.459 104.354 142.453 104.156C142.453 103.952 142.453 103.748 142.453 103.544C142.459 103.34 142.465 103.154 142.471 102.986C142.483 102.656 142.54 102.347 142.642 102.059C142.75 101.771 142.906 101.519 143.11 101.303C143.314 101.087 143.569 100.919 143.875 100.799C144.187 100.673 144.553 100.61 144.973 100.61C145.393 100.61 145.756 100.673 146.062 100.799C146.368 100.919 146.623 101.087 146.827 101.303C147.031 101.519 147.184 101.771 147.286 102.059C147.394 102.347 147.457 102.656 147.475 102.986C147.481 103.154 147.484 103.34 147.484 103.544C147.49 103.748 147.49 103.952 147.484 104.156C147.484 104.354 147.481 104.534 147.475 104.696C147.457 105.026 147.397 105.338 147.295 105.632C147.193 105.92 147.04 106.175 146.836 106.397C146.638 106.613 146.383 106.784 146.071 106.91C145.765 107.03 145.399 107.09 144.973 107.09ZM144.973 105.92C145.321 105.92 145.576 105.806 145.738 105.578C145.9 105.35 145.987 105.041 145.999 104.651C146.005 104.477 146.008 104.297 146.008 104.111C146.014 103.925 146.014 103.739 146.008 103.553C146.008 103.367 146.005 103.193 145.999 103.031C145.987 102.659 145.9 102.356 145.738 102.122C145.576 101.888 145.321 101.768 144.973 101.762C144.619 101.768 144.361 101.888 144.199 102.122C144.043 102.356 143.959 102.659 143.947 103.031C143.941 103.193 143.935 103.367 143.929 103.553C143.929 103.739 143.929 103.925 143.929 104.111C143.935 104.297 143.941 104.477 143.947 104.651C143.959 105.041 144.046 105.35 144.208 105.578C144.37 105.806 144.625 105.92 144.973 105.92ZM148.173 107.756C148.119 107.756 148.074 107.735 148.038 107.693C148.002 107.657 147.984 107.615 147.984 107.567C147.984 107.537 147.99 107.507 148.002 107.477L151.062 100.133C151.08 100.085 151.11 100.04 151.152 99.998C151.2 99.95 151.269 99.926 151.359 99.926H152.052C152.106 99.926 152.151 99.947 152.187 99.989C152.223 100.025 152.241 100.067 152.241 100.115C152.241 100.139 152.235 100.169 152.223 100.205L149.154 107.549C149.136 107.591 149.103 107.636 149.055 107.684C149.013 107.732 148.944 107.756 148.848 107.756H148.173ZM155.164 107.099C154.624 107.099 154.171 107.012 153.805 106.838C153.439 106.664 153.16 106.436 152.968 106.154C152.782 105.872 152.683 105.572 152.671 105.254C152.671 105.2 152.689 105.155 152.725 105.119C152.761 105.083 152.806 105.065 152.86 105.065H153.877C153.949 105.065 154.006 105.083 154.048 105.119C154.096 105.149 154.132 105.191 154.156 105.245C154.216 105.407 154.294 105.539 154.39 105.641C154.492 105.743 154.609 105.818 154.741 105.866C154.873 105.914 155.014 105.938 155.164 105.938C155.356 105.938 155.533 105.899 155.695 105.821C155.857 105.737 155.986 105.617 156.082 105.461C156.178 105.305 156.226 105.113 156.226 104.885C156.226 104.687 156.181 104.513 156.091 104.363C156.001 104.213 155.875 104.096 155.713 104.012C155.551 103.928 155.368 103.886 155.164 103.886C155.008 103.886 154.879 103.904 154.777 103.94C154.681 103.976 154.6 104.021 154.534 104.075C154.468 104.123 154.408 104.168 154.354 104.21C154.3 104.246 154.24 104.264 154.174 104.264H153.175C153.121 104.264 153.073 104.246 153.031 104.21C152.995 104.168 152.977 104.12 152.977 104.066L153.292 100.961C153.304 100.877 153.334 100.814 153.382 100.772C153.436 100.724 153.499 100.7 153.571 100.7H157.063C157.129 100.7 157.183 100.721 157.225 100.763C157.267 100.805 157.288 100.859 157.288 100.925V101.645C157.288 101.705 157.267 101.756 157.225 101.798C157.183 101.84 157.129 101.861 157.063 101.861H154.462L154.327 103.184C154.447 103.106 154.594 103.037 154.768 102.977C154.948 102.911 155.197 102.878 155.515 102.878C155.803 102.878 156.076 102.926 156.334 103.022C156.598 103.112 156.832 103.247 157.036 103.427C157.24 103.607 157.399 103.823 157.513 104.075C157.633 104.321 157.693 104.603 157.693 104.921C157.693 105.353 157.591 105.734 157.387 106.064C157.183 106.388 156.892 106.643 156.514 106.829C156.136 107.009 155.686 107.099 155.164 107.099Z" fill="#F0F0F0"/>
<rect x="176" y="92" width="76" height="76" rx="12" fill="#F0F0F0"/>
<rect x="220" y="96" width="28" height="16" rx="8" fill="#F0F0F0"/>
<path d="M228.973 107.09C228.541 107.09 228.169 107.03 227.857 106.91C227.551 106.784 227.296 106.613 227.092 106.397C226.894 106.175 226.744 105.92 226.642 105.632C226.546 105.338 226.489 105.026 226.471 104.696C226.465 104.534 226.459 104.354 226.453 104.156C226.453 103.952 226.453 103.748 226.453 103.544C226.459 103.34 226.465 103.154 226.471 102.986C226.483 102.656 226.54 102.347 226.642 102.059C226.75 101.771 226.906 101.519 227.11 101.303C227.314 101.087 227.569 100.919 227.875 100.799C228.187 100.673 228.553 100.61 228.973 100.61C229.393 100.61 229.756 100.673 230.062 100.799C230.368 100.919 230.623 101.087 230.827 101.303C231.031 101.519 231.184 101.771 231.286 102.059C231.394 102.347 231.457 102.656 231.475 102.986C231.481 103.154 231.484 103.34 231.484 103.544C231.49 103.748 231.49 103.952 231.484 104.156C231.484 104.354 231.481 104.534 231.475 104.696C231.457 105.026 231.397 105.338 231.295 105.632C231.193 105.92 231.04 106.175 230.836 106.397C230.638 106.613 230.383 106.784 230.071 106.91C229.765 107.03 229.399 107.09 228.973 107.09ZM228.973 105.92C229.321 105.92 229.576 105.806 229.738 105.578C229.9 105.35 229.987 105.041 229.999 104.651C230.005 104.477 230.008 104.297 230.008 104.111C230.014 103.925 230.014 103.739 230.008 103.553C230.008 103.367 230.005 103.193 229.999 103.031C229.987 102.659 229.9 102.356 229.738 102.122C229.576 101.888 229.321 101.768 228.973 101.762C228.619 101.768 228.361 101.888 228.199 102.122C228.043 102.356 227.959 102.659 227.947 103.031C227.941 103.193 227.935 103.367 227.929 103.553C227.929 103.739 227.929 103.925 227.929 104.111C227.935 104.297 227.941 104.477 227.947 104.651C227.959 105.041 228.046 105.35 228.208 105.578C228.37 105.806 228.625 105.92 228.973 105.92ZM232.173 107.756C232.119 107.756 232.074 107.735 232.038 107.693C232.002 107.657 231.984 107.615 231.984 107.567C231.984 107.537 231.99 107.507 232.002 107.477L235.062 100.133C235.08 100.085 235.11 100.04 235.152 99.998C235.2 99.95 235.269 99.926 235.359 99.926H236.052C236.106 99.926 236.151 99.947 236.187 99.989C236.223 100.025 236.241 100.067 236.241 100.115C236.241 100.139 236.235 100.169 236.223 100.205L233.154 107.549C233.136 107.591 233.103 107.636 233.055 107.684C233.013 107.732 232.944 107.756 232.848 107.756H232.173ZM239.164 107.099C238.624 107.099 238.171 107.012 237.805 106.838C237.439 106.664 237.16 106.436 236.968 106.154C236.782 105.872 236.683 105.572 236.671 105.254C236.671 105.2 236.689 105.155 236.725 105.119C236.761 105.083 236.806 105.065 236.86 105.065H237.877C237.949 105.065 238.006 105.083 238.048 105.119C238.096 105.149 238.132 105.191 238.156 105.245C238.216 105.407 238.294 105.539 238.39 105.641C238.492 105.743 238.609 105.818 238.741 105.866C238.873 105.914 239.014 105.938 239.164 105.938C239.356 105.938 239.533 105.899 239.695 105.821C239.857 105.737 239.986 105.617 240.082 105.461C240.178 105.305 240.226 105.113 240.226 104.885C240.226 104.687 240.181 104.513 240.091 104.363C240.001 104.213 239.875 104.096 239.713 104.012C239.551 103.928 239.368 103.886 239.164 103.886C239.008 103.886 238.879 103.904 238.777 103.94C238.681 103.976 238.6 104.021 238.534 104.075C238.468 104.123 238.408 104.168 238.354 104.21C238.3 104.246 238.24 104.264 238.174 104.264H237.175C237.121 104.264 237.073 104.246 237.031 104.21C236.995 104.168 236.977 104.12 236.977 104.066L237.292 100.961C237.304 100.877 237.334 100.814 237.382 100.772C237.436 100.724 237.499 100.7 237.571 100.7H241.063C241.129 100.7 241.183 100.721 241.225 100.763C241.267 100.805 241.288 100.859 241.288 100.925V101.645C241.288 101.705 241.267 101.756 241.225 101.798C241.183 101.84 241.129 101.861 241.063 101.861H238.462L238.327 103.184C238.447 103.106 238.594 103.037 238.768 102.977C238.948 102.911 239.197 102.878 239.515 102.878C239.803 102.878 240.076 102.926 240.334 103.022C240.598 103.112 240.832 103.247 241.036 103.427C241.24 103.607 241.399 103.823 241.513 104.075C241.633 104.321 241.693 104.603 241.693 104.921C241.693 105.353 241.591 105.734 241.387 106.064C241.183 106.388 240.892 106.643 240.514 106.829C240.136 107.009 239.686 107.099 239.164 107.099Z" fill="#F0F0F0"/>
<rect x="260" y="92" width="76" height="76" rx="12" fill="#F0F0F0"/>
<rect x="304" y="96" width="28" height="16" rx="8" fill="#F0F0F0"/>
<path d="M312.973 107.09C312.541 107.09 312.169 107.03 311.857 106.91C311.551 106.784 311.296 106.613 311.092 106.397C310.894 106.175 310.744 105.92 310.642 105.632C310.546 105.338 310.489 105.026 310.471 104.696C310.465 104.534 310.459 104.354 310.453 104.156C310.453 103.952 310.453 103.748 310.453 103.544C310.459 103.34 310.465 103.154 310.471 102.986C310.483 102.656 310.54 102.347 310.642 102.059C310.75 101.771 310.906 101.519 311.11 101.303C311.314 101.087 311.569 100.919 311.875 100.799C312.187 100.673 312.553 100.61 312.973 100.61C313.393 100.61 313.756 100.673 314.062 100.799C314.368 100.919 314.623 101.087 314.827 101.303C315.031 101.519 315.184 101.771 315.286 102.059C315.394 102.347 315.457 102.656 315.475 102.986C315.481 103.154 315.484 103.34 315.484 103.544C315.49 103.748 315.49 103.952 315.484 104.156C315.484 104.354 315.481 104.534 315.475 104.696C315.457 105.026 315.397 105.338 315.295 105.632C315.193 105.92 315.04 106.175 314.836 106.397C314.638 106.613 314.383 106.784 314.071 106.91C313.765 107.03 313.399 107.09 312.973 107.09ZM312.973 105.92C313.321 105.92 313.576 105.806 313.738 105.578C313.9 105.35 313.987 105.041 313.999 104.651C314.005 104.477 314.008 104.297 314.008 104.111C314.014 103.925 314.014 103.739 314.008 103.553C314.008 103.367 314.005 103.193 313.999 103.031C313.987 102.659 313.9 102.356 313.738 102.122C313.576 101.888 313.321 101.768 312.973 101.762C312.619 101.768 312.361 101.888 312.199 102.122C312.043 102.356 311.959 102.659 311.947 103.031C311.941 103.193 311.935 103.367 311.929 103.553C311.929 103.739 311.929 103.925 311.929 104.111C311.935 104.297 311.941 104.477 311.947 104.651C311.959 105.041 312.046 105.35 312.208 105.578C312.37 105.806 312.625 105.92 312.973 105.92ZM316.173 107.756C316.119 107.756 316.074 107.735 316.038 107.693C316.002 107.657 315.984 107.615 315.984 107.567C315.984 107.537 315.99 107.507 316.002 107.477L319.062 100.133C319.08 100.085 319.11 100.04 319.152 99.998C319.2 99.95 319.269 99.926 319.359 99.926H320.052C320.106 99.926 320.151 99.947 320.187 99.989C320.223 100.025 320.241 100.067 320.241 100.115C320.241 100.139 320.235 100.169 320.223 100.205L317.154 107.549C317.136 107.591 317.103 107.636 317.055 107.684C317.013 107.732 316.944 107.756 316.848 107.756H316.173ZM323.164 107.099C322.624 107.099 322.171 107.012 321.805 106.838C321.439 106.664 321.16 106.436 320.968 106.154C320.782 105.872 320.683 105.572 320.671 105.254C320.671 105.2 320.689 105.155 320.725 105.119C320.761 105.083 320.806 105.065 320.86 105.065H321.877C321.949 105.065 322.006 105.083 322.048 105.119C322.096 105.149 322.132 105.191 322.156 105.245C322.216 105.407 322.294 105.539 322.39 105.641C322.492 105.743 322.609 105.818 322.741 105.866C322.873 105.914 323.014 105.938 323.164 105.938C323.356 105.938 323.533 105.899 323.695 105.821C323.857 105.737 323.986 105.617 324.082 105.461C324.178 105.305 324.226 105.113 324.226 104.885C324.226 104.687 324.181 104.513 324.091 104.363C324.001 104.213 323.875 104.096 323.713 104.012C323.551 103.928 323.368 103.886 323.164 103.886C323.008 103.886 322.879 103.904 322.777 103.94C322.681 103.976 322.6 104.021 322.534 104.075C322.468 104.123 322.408 104.168 322.354 104.21C322.3 104.246 322.24 104.264 322.174 104.264H321.175C321.121 104.264 321.073 104.246 321.031 104.21C320.995 104.168 320.977 104.12 320.977 104.066L321.292 100.961C321.304 100.877 321.334 100.814 321.382 100.772C321.436 100.724 321.499 100.7 321.571 100.7H325.063C325.129 100.7 325.183 100.721 325.225 100.763C325.267 100.805 325.288 100.859 325.288 100.925V101.645C325.288 101.705 325.267 101.756 325.225 101.798C325.183 101.84 325.129 101.861 325.063 101.861H322.462L322.327 103.184C322.447 103.106 322.594 103.037 322.768 102.977C322.948 102.911 323.197 102.878 323.515 102.878C323.803 102.878 324.076 102.926 324.334 103.022C324.598 103.112 324.832 103.247 325.036 103.427C325.24 103.607 325.399 103.823 325.513 104.075C325.633 104.321 325.693 104.603 325.693 104.921C325.693 105.353 325.591 105.734 325.387 106.064C325.183 106.388 324.892 106.643 324.514 106.829C324.136 107.009 323.686 107.099 323.164 107.099Z" fill="#F0F0F0"/>
<rect x="8" y="176" width="76" height="76" rx="12" fill="#F0F0F0"/>
<rect x="52" y="180" width="28" height="16" rx="8" fill="#F0F0F0"/>
<path d="M61.2069 191C61.1469 191 61.0929 190.979 61.0449 190.937C61.0029 190.895 60.9819 190.841 60.9819 190.775V186.302L59.6859 187.301C59.6319 187.343 59.5749 187.358 59.5149 187.346C59.4609 187.334 59.4129 187.301 59.3709 187.247L58.9209 186.662C58.8849 186.608 58.8699 186.551 58.8759 186.491C58.8879 186.431 58.9209 186.383 58.9749 186.347L61.0269 184.763C61.0629 184.739 61.0959 184.724 61.1259 184.718C61.1619 184.706 61.2009 184.7 61.2429 184.7H62.1969C62.2569 184.7 62.3079 184.721 62.3499 184.763C62.3919 184.805 62.4129 184.859 62.4129 184.925V190.775C62.4129 190.841 62.3919 190.895 62.3499 190.937C62.3079 190.979 62.2569 191 62.1969 191H61.2069ZM63.4255 191.756C63.3715 191.756 63.3265 191.735 63.2905 191.693C63.2545 191.657 63.2365 191.615 63.2365 191.567C63.2365 191.537 63.2425 191.507 63.2545 191.477L66.3145 184.133C66.3325 184.085 66.3625 184.04 66.4045 183.998C66.4525 183.95 66.5215 183.926 66.6115 183.926H67.3045C67.3585 183.926 67.4035 183.947 67.4395 183.989C67.4755 184.025 67.4935 184.067 67.4935 184.115C67.4935 184.139 67.4875 184.169 67.4755 184.205L64.4065 191.549C64.3885 191.591 64.3555 191.636 64.3075 191.684C64.2655 191.732 64.1965 191.756 64.1005 191.756H63.4255ZM70.4166 191.099C69.8766 191.099 69.4236 191.012 69.0576 190.838C68.6916 190.664 68.4126 190.436 68.2206 190.154C68.0346 189.872 67.9356 189.572 67.9236 189.254C67.9236 189.2 67.9416 189.155 67.9776 189.119C68.0136 189.083 68.0586 189.065 68.1126 189.065H69.1296C69.2016 189.065 69.2586 189.083 69.3006 189.119C69.3486 189.149 69.3846 189.191 69.4086 189.245C69.4686 189.407 69.5466 189.539 69.6426 189.641C69.7446 189.743 69.8616 189.818 69.9936 189.866C70.1256 189.914 70.2666 189.938 70.4166 189.938C70.6086 189.938 70.7856 189.899 70.9476 189.821C71.1096 189.737 71.2386 189.617 71.3346 189.461C71.4306 189.305 71.4786 189.113 71.4786 188.885C71.4786 188.687 71.4336 188.513 71.3436 188.363C71.2536 188.213 71.1276 188.096 70.9656 188.012C70.8036 187.928 70.6206 187.886 70.4166 187.886C70.2606 187.886 70.1316 187.904 70.0296 187.94C69.9336 187.976 69.8526 188.021 69.7866 188.075C69.7206 188.123 69.6606 188.168 69.6066 188.21C69.5526 188.246 69.4926 188.264 69.4266 188.264H68.4276C68.3736 188.264 68.3256 188.246 68.2836 188.21C68.2476 188.168 68.2296 188.12 68.2296 188.066L68.5446 184.961C68.5566 184.877 68.5866 184.814 68.6346 184.772C68.6886 184.724 68.7516 184.7 68.8236 184.7H72.3156C72.3816 184.7 72.4356 184.721 72.4776 184.763C72.5196 184.805 72.5406 184.859 72.5406 184.925V185.645C72.5406 185.705 72.5196 185.756 72.4776 185.798C72.4356 185.84 72.3816 185.861 72.3156 185.861H69.7146L69.5796 187.184C69.6996 187.106 69.8466 187.037 70.0206 186.977C70.2006 186.911 70.4496 186.878 70.7676 186.878C71.0556 186.878 71.3286 186.926 71.5866 187.022C71.8506 187.112 72.0846 187.247 72.2886 187.427C72.4926 187.607 72.6516 187.823 72.7656 188.075C72.8856 188.321 72.9456 188.603 72.9456 188.921C72.9456 189.353 72.8436 189.734 72.6396 190.064C72.4356 190.388 72.1446 190.643 71.7666 190.829C71.3886 191.009 70.9386 191.099 70.4166 191.099Z" fill="#F0F0F0"/>
<rect x="92" y="176" width="76" height="76" rx="12" fill="#F0F0F0"/>
<rect x="136" y="180" width="28" height="16" rx="8" fill="#F0F0F0"/>
<path d="M145.207 191C145.147 191 145.093 190.979 145.045 190.937C145.003 190.895 144.982 190.841 144.982 190.775V186.302L143.686 187.301C143.632 187.343 143.575 187.358 143.515 187.346C143.461 187.334 143.413 187.301 143.371 187.247L142.921 186.662C142.885 186.608 142.87 186.551 142.876 186.491C142.888 186.431 142.921 186.383 142.975 186.347L145.027 184.763C145.063 184.739 145.096 184.724 145.126 184.718C145.162 184.706 145.201 184.7 145.243 184.7H146.197C146.257 184.7 146.308 184.721 146.35 184.763C146.392 184.805 146.413 184.859 146.413 184.925V190.775C146.413 190.841 146.392 190.895 146.35 190.937C146.308 190.979 146.257 191 146.197 191H145.207ZM147.426 191.756C147.372 191.756 147.327 191.735 147.291 191.693C147.255 191.657 147.237 191.615 147.237 191.567C147.237 191.537 147.243 191.507 147.255 191.477L150.315 184.133C150.333 184.085 150.363 184.04 150.405 183.998C150.453 183.95 150.522 183.926 150.612 183.926H151.305C151.359 183.926 151.404 183.947 151.44 183.989C151.476 184.025 151.494 184.067 151.494 184.115C151.494 184.139 151.488 184.169 151.476 184.205L148.407 191.549C148.389 191.591 148.356 191.636 148.308 191.684C148.266 191.732 148.197 191.756 148.101 191.756H147.426ZM154.417 191.099C153.877 191.099 153.424 191.012 153.058 190.838C152.692 190.664 152.413 190.436 152.221 190.154C152.035 189.872 151.936 189.572 151.924 189.254C151.924 189.2 151.942 189.155 151.978 189.119C152.014 189.083 152.059 189.065 152.113 189.065H153.13C153.202 189.065 153.259 189.083 153.301 189.119C153.349 189.149 153.385 189.191 153.409 189.245C153.469 189.407 153.547 189.539 153.643 189.641C153.745 189.743 153.862 189.818 153.994 189.866C154.126 189.914 154.267 189.938 154.417 189.938C154.609 189.938 154.786 189.899 154.948 189.821C155.11 189.737 155.239 189.617 155.335 189.461C155.431 189.305 155.479 189.113 155.479 188.885C155.479 188.687 155.434 188.513 155.344 188.363C155.254 188.213 155.128 188.096 154.966 188.012C154.804 187.928 154.621 187.886 154.417 187.886C154.261 187.886 154.132 187.904 154.03 187.94C153.934 187.976 153.853 188.021 153.787 188.075C153.721 188.123 153.661 188.168 153.607 188.21C153.553 188.246 153.493 188.264 153.427 188.264H152.428C152.374 188.264 152.326 188.246 152.284 188.21C152.248 188.168 152.23 188.12 152.23 188.066L152.545 184.961C152.557 184.877 152.587 184.814 152.635 184.772C152.689 184.724 152.752 184.7 152.824 184.7H156.316C156.382 184.7 156.436 184.721 156.478 184.763C156.52 184.805 156.541 184.859 156.541 184.925V185.645C156.541 185.705 156.52 185.756 156.478 185.798C156.436 185.84 156.382 185.861 156.316 185.861H153.715L153.58 187.184C153.7 187.106 153.847 187.037 154.021 186.977C154.201 186.911 154.45 186.878 154.768 186.878C155.056 186.878 155.329 186.926 155.587 187.022C155.851 187.112 156.085 187.247 156.289 187.427C156.493 187.607 156.652 187.823 156.766 188.075C156.886 188.321 156.946 188.603 156.946 188.921C156.946 189.353 156.844 189.734 156.64 190.064C156.436 190.388 156.145 190.643 155.767 190.829C155.389 191.009 154.939 191.099 154.417 191.099Z" fill="#F0F0F0"/>
<rect x="176" y="176" width="76" height="76" rx="12" fill="#F0F0F0"/>
<rect x="220" y="180" width="28" height="16" rx="8" fill="#F0F0F0"/>
<path d="M229.207 191C229.147 191 229.093 190.979 229.045 190.937C229.003 190.895 228.982 190.841 228.982 190.775V186.302L227.686 187.301C227.632 187.343 227.575 187.358 227.515 187.346C227.461 187.334 227.413 187.301 227.371 187.247L226.921 186.662C226.885 186.608 226.87 186.551 226.876 186.491C226.888 186.431 226.921 186.383 226.975 186.347L229.027 184.763C229.063 184.739 229.096 184.724 229.126 184.718C229.162 184.706 229.201 184.7 229.243 184.7H230.197C230.257 184.7 230.308 184.721 230.35 184.763C230.392 184.805 230.413 184.859 230.413 184.925V190.775C230.413 190.841 230.392 190.895 230.35 190.937C230.308 190.979 230.257 191 230.197 191H229.207ZM231.426 191.756C231.372 191.756 231.327 191.735 231.291 191.693C231.255 191.657 231.237 191.615 231.237 191.567C231.237 191.537 231.243 191.507 231.255 191.477L234.315 184.133C234.333 184.085 234.363 184.04 234.405 183.998C234.453 183.95 234.522 183.926 234.612 183.926H235.305C235.359 183.926 235.404 183.947 235.44 183.989C235.476 184.025 235.494 184.067 235.494 184.115C235.494 184.139 235.488 184.169 235.476 184.205L232.407 191.549C232.389 191.591 232.356 191.636 232.308 191.684C232.266 191.732 232.197 191.756 232.101 191.756H231.426ZM238.417 191.099C237.877 191.099 237.424 191.012 237.058 190.838C236.692 190.664 236.413 190.436 236.221 190.154C236.035 189.872 235.936 189.572 235.924 189.254C235.924 189.2 235.942 189.155 235.978 189.119C236.014 189.083 236.059 189.065 236.113 189.065H237.13C237.202 189.065 237.259 189.083 237.301 189.119C237.349 189.149 237.385 189.191 237.409 189.245C237.469 189.407 237.547 189.539 237.643 189.641C237.745 189.743 237.862 189.818 237.994 189.866C238.126 189.914 238.267 189.938 238.417 189.938C238.609 189.938 238.786 189.899 238.948 189.821C239.11 189.737 239.239 189.617 239.335 189.461C239.431 189.305 239.479 189.113 239.479 188.885C239.479 188.687 239.434 188.513 239.344 188.363C239.254 188.213 239.128 188.096 238.966 188.012C238.804 187.928 238.621 187.886 238.417 187.886C238.261 187.886 238.132 187.904 238.03 187.94C237.934 187.976 237.853 188.021 237.787 188.075C237.721 188.123 237.661 188.168 237.607 188.21C237.553 188.246 237.493 188.264 237.427 188.264H236.428C236.374 188.264 236.326 188.246 236.284 188.21C236.248 188.168 236.23 188.12 236.23 188.066L236.545 184.961C236.557 184.877 236.587 184.814 236.635 184.772C236.689 184.724 236.752 184.7 236.824 184.7H240.316C240.382 184.7 240.436 184.721 240.478 184.763C240.52 184.805 240.541 184.859 240.541 184.925V185.645C240.541 185.705 240.52 185.756 240.478 185.798C240.436 185.84 240.382 185.861 240.316 185.861H237.715L237.58 187.184C237.7 187.106 237.847 187.037 238.021 186.977C238.201 186.911 238.45 186.878 238.768 186.878C239.056 186.878 239.329 186.926 239.587 187.022C239.851 187.112 240.085 187.247 240.289 187.427C240.493 187.607 240.652 187.823 240.766 188.075C240.886 188.321 240.946 188.603 240.946 188.921C240.946 189.353 240.844 189.734 240.64 190.064C240.436 190.388 240.145 190.643 239.767 190.829C239.389 191.009 238.939 191.099 238.417 191.099Z" fill="#F0F0F0"/>
<rect x="260" y="176" width="76" height="76" rx="12" fill="#F0F0F0"/>
<rect x="304" y="180" width="28" height="16" rx="8" fill="#F0F0F0"/>
<path d="M313.207 191C313.147 191 313.093 190.979 313.045 190.937C313.003 190.895 312.982 190.841 312.982 190.775V186.302L311.686 187.301C311.632 187.343 311.575 187.358 311.515 187.346C311.461 187.334 311.413 187.301 311.371 187.247L310.921 186.662C310.885 186.608 310.87 186.551 310.876 186.491C310.888 186.431 310.921 186.383 310.975 186.347L313.027 184.763C313.063 184.739 313.096 184.724 313.126 184.718C313.162 184.706 313.201 184.7 313.243 184.7H314.197C314.257 184.7 314.308 184.721 314.35 184.763C314.392 184.805 314.413 184.859 314.413 184.925V190.775C314.413 190.841 314.392 190.895 314.35 190.937C314.308 190.979 314.257 191 314.197 191H313.207ZM315.426 191.756C315.372 191.756 315.327 191.735 315.291 191.693C315.255 191.657 315.237 191.615 315.237 191.567C315.237 191.537 315.243 191.507 315.255 191.477L318.315 184.133C318.333 184.085 318.363 184.04 318.405 183.998C318.453 183.95 318.522 183.926 318.612 183.926H319.305C319.359 183.926 319.404 183.947 319.44 183.989C319.476 184.025 319.494 184.067 319.494 184.115C319.494 184.139 319.488 184.169 319.476 184.205L316.407 191.549C316.389 191.591 316.356 191.636 316.308 191.684C316.266 191.732 316.197 191.756 316.101 191.756H315.426ZM322.417 191.099C321.877 191.099 321.424 191.012 321.058 190.838C320.692 190.664 320.413 190.436 320.221 190.154C320.035 189.872 319.936 189.572 319.924 189.254C319.924 189.2 319.942 189.155 319.978 189.119C320.014 189.083 320.059 189.065 320.113 189.065H321.13C321.202 189.065 321.259 189.083 321.301 189.119C321.349 189.149 321.385 189.191 321.409 189.245C321.469 189.407 321.547 189.539 321.643 189.641C321.745 189.743 321.862 189.818 321.994 189.866C322.126 189.914 322.267 189.938 322.417 189.938C322.609 189.938 322.786 189.899 322.948 189.821C323.11 189.737 323.239 189.617 323.335 189.461C323.431 189.305 323.479 189.113 323.479 188.885C323.479 188.687 323.434 188.513 323.344 188.363C323.254 188.213 323.128 188.096 322.966 188.012C322.804 187.928 322.621 187.886 322.417 187.886C322.261 187.886 322.132 187.904 322.03 187.94C321.934 187.976 321.853 188.021 321.787 188.075C321.721 188.123 321.661 188.168 321.607 188.21C321.553 188.246 321.493 188.264 321.427 188.264H320.428C320.374 188.264 320.326 188.246 320.284 188.21C320.248 188.168 320.23 188.12 320.23 188.066L320.545 184.961C320.557 184.877 320.587 184.814 320.635 184.772C320.689 184.724 320.752 184.7 320.824 184.7H324.316C324.382 184.7 324.436 184.721 324.478 184.763C324.52 184.805 324.541 184.859 324.541 184.925V185.645C324.541 185.705 324.52 185.756 324.478 185.798C324.436 185.84 324.382 185.861 324.316 185.861H321.715L321.58 187.184C321.7 187.106 321.847 187.037 322.021 186.977C322.201 186.911 322.45 186.878 322.768 186.878C323.056 186.878 323.329 186.926 323.587 187.022C323.851 187.112 324.085 187.247 324.289 187.427C324.493 187.607 324.652 187.823 324.766 188.075C324.886 188.321 324.946 188.603 324.946 188.921C324.946 189.353 324.844 189.734 324.64 190.064C324.436 190.388 324.145 190.643 323.767 190.829C323.389 191.009 322.939 191.099 322.417 191.099Z" fill="#F0F0F0"/>
<rect x="8" y="260" width="76" height="76" rx="12" fill="#F0F0F0"/>
<rect x="52" y="264" width="28" height="16" rx="8" fill="#F0F0F0"/>
<path d="M60.9728 275.09C60.5408 275.09 60.1688 275.03 59.8568 274.91C59.5508 274.784 59.2958 274.613 59.0918 274.397C58.8938 274.175 58.7438 273.92 58.6418 273.632C58.5458 273.338 58.4888 273.026 58.4708 272.696C58.4648 272.534 58.4588 272.354 58.4528 272.156C58.4528 271.952 58.4528 271.748 58.4528 271.544C58.4588 271.34 58.4648 271.154 58.4708 270.986C58.4828 270.656 58.5398 270.347 58.6418 270.059C58.7498 269.771 58.9058 269.519 59.1098 269.303C59.3138 269.087 59.5688 268.919 59.8748 268.799C60.1868 268.673 60.5528 268.61 60.9728 268.61C61.3928 268.61 61.7558 268.673 62.0618 268.799C62.3678 268.919 62.6228 269.087 62.8268 269.303C63.0308 269.519 63.1838 269.771 63.2858 270.059C63.3938 270.347 63.4568 270.656 63.4748 270.986C63.4808 271.154 63.4838 271.34 63.4838 271.544C63.4898 271.748 63.4898 271.952 63.4838 272.156C63.4838 272.354 63.4808 272.534 63.4748 272.696C63.4568 273.026 63.3968 273.338 63.2948 273.632C63.1928 273.92 63.0398 274.175 62.8358 274.397C62.6378 274.613 62.3828 274.784 62.0708 274.91C61.7648 275.03 61.3988 275.09 60.9728 275.09ZM60.9728 273.92C61.3208 273.92 61.5758 273.806 61.7378 273.578C61.8998 273.35 61.9868 273.041 61.9988 272.651C62.0048 272.477 62.0078 272.297 62.0078 272.111C62.0138 271.925 62.0138 271.739 62.0078 271.553C62.0078 271.367 62.0048 271.193 61.9988 271.031C61.9868 270.659 61.8998 270.356 61.7378 270.122C61.5758 269.888 61.3208 269.768 60.9728 269.762C60.6188 269.768 60.3608 269.888 60.1988 270.122C60.0428 270.356 59.9588 270.659 59.9468 271.031C59.9408 271.193 59.9348 271.367 59.9288 271.553C59.9288 271.739 59.9288 271.925 59.9288 272.111C59.9348 272.297 59.9408 272.477 59.9468 272.651C59.9588 273.041 60.0458 273.35 60.2078 273.578C60.3698 273.806 60.6248 273.92 60.9728 273.92ZM64.1726 275.756C64.1186 275.756 64.0736 275.735 64.0376 275.693C64.0016 275.657 63.9836 275.615 63.9836 275.567C63.9836 275.537 63.9896 275.507 64.0016 275.477L67.0616 268.133C67.0796 268.085 67.1096 268.04 67.1516 267.998C67.1996 267.95 67.2686 267.926 67.3586 267.926H68.0516C68.1056 267.926 68.1506 267.947 68.1866 267.989C68.2226 268.025 68.2406 268.067 68.2406 268.115C68.2406 268.139 68.2346 268.169 68.2226 268.205L65.1536 275.549C65.1356 275.591 65.1026 275.636 65.0546 275.684C65.0126 275.732 64.9436 275.756 64.8476 275.756H64.1726ZM71.1637 275.099C70.6237 275.099 70.1707 275.012 69.8047 274.838C69.4387 274.664 69.1597 274.436 68.9677 274.154C68.7817 273.872 68.6827 273.572 68.6707 273.254C68.6707 273.2 68.6887 273.155 68.7247 273.119C68.7607 273.083 68.8057 273.065 68.8597 273.065H69.8767C69.9487 273.065 70.0057 273.083 70.0477 273.119C70.0957 273.149 70.1317 273.191 70.1557 273.245C70.2157 273.407 70.2937 273.539 70.3897 273.641C70.4917 273.743 70.6087 273.818 70.7407 273.866C70.8727 273.914 71.0137 273.938 71.1637 273.938C71.3557 273.938 71.5327 273.899 71.6947 273.821C71.8567 273.737 71.9857 273.617 72.0817 273.461C72.1777 273.305 72.2257 273.113 72.2257 272.885C72.2257 272.687 72.1807 272.513 72.0907 272.363C72.0007 272.213 71.8747 272.096 71.7127 272.012C71.5507 271.928 71.3677 271.886 71.1637 271.886C71.0077 271.886 70.8787 271.904 70.7767 271.94C70.6807 271.976 70.5997 272.021 70.5337 272.075C70.4677 272.123 70.4077 272.168 70.3537 272.21C70.2997 272.246 70.2397 272.264 70.1737 272.264H69.1747C69.1207 272.264 69.0727 272.246 69.0307 272.21C68.9947 272.168 68.9767 272.12 68.9767 272.066L69.2917 268.961C69.3037 268.877 69.3337 268.814 69.3817 268.772C69.4357 268.724 69.4987 268.7 69.5707 268.7H73.0627C73.1287 268.7 73.1827 268.721 73.2247 268.763C73.2667 268.805 73.2877 268.859 73.2877 268.925V269.645C73.2877 269.705 73.2667 269.756 73.2247 269.798C73.1827 269.84 73.1287 269.861 73.0627 269.861H70.4617L70.3267 271.184C70.4467 271.106 70.5937 271.037 70.7677 270.977C70.9477 270.911 71.1967 270.878 71.5147 270.878C71.8027 270.878 72.0757 270.926 72.3337 271.022C72.5977 271.112 72.8317 271.247 73.0357 271.427C73.2397 271.607 73.3987 271.823 73.5127 272.075C73.6327 272.321 73.6927 272.603 73.6927 272.921C73.6927 273.353 73.5907 273.734 73.3867 274.064C73.1827 274.388 72.8917 274.643 72.5137 274.829C72.1357 275.009 71.6857 275.099 71.1637 275.099Z" fill="#F0F0F0"/>
<rect x="92" y="260" width="76" height="76" rx="12" fill="#F0F0F0"/>
<rect x="136" y="264" width="28" height="16" rx="8" fill="#F0F0F0"/>
<path d="M144.973 275.09C144.541 275.09 144.169 275.03 143.857 274.91C143.551 274.784 143.296 274.613 143.092 274.397C142.894 274.175 142.744 273.92 142.642 273.632C142.546 273.338 142.489 273.026 142.471 272.696C142.465 272.534 142.459 272.354 142.453 272.156C142.453 271.952 142.453 271.748 142.453 271.544C142.459 271.34 142.465 271.154 142.471 270.986C142.483 270.656 142.54 270.347 142.642 270.059C142.75 269.771 142.906 269.519 143.11 269.303C143.314 269.087 143.569 268.919 143.875 268.799C144.187 268.673 144.553 268.61 144.973 268.61C145.393 268.61 145.756 268.673 146.062 268.799C146.368 268.919 146.623 269.087 146.827 269.303C147.031 269.519 147.184 269.771 147.286 270.059C147.394 270.347 147.457 270.656 147.475 270.986C147.481 271.154 147.484 271.34 147.484 271.544C147.49 271.748 147.49 271.952 147.484 272.156C147.484 272.354 147.481 272.534 147.475 272.696C147.457 273.026 147.397 273.338 147.295 273.632C147.193 273.92 147.04 274.175 146.836 274.397C146.638 274.613 146.383 274.784 146.071 274.91C145.765 275.03 145.399 275.09 144.973 275.09ZM144.973 273.92C145.321 273.92 145.576 273.806 145.738 273.578C145.9 273.35 145.987 273.041 145.999 272.651C146.005 272.477 146.008 272.297 146.008 272.111C146.014 271.925 146.014 271.739 146.008 271.553C146.008 271.367 146.005 271.193 145.999 271.031C145.987 270.659 145.9 270.356 145.738 270.122C145.576 269.888 145.321 269.768 144.973 269.762C144.619 269.768 144.361 269.888 144.199 270.122C144.043 270.356 143.959 270.659 143.947 271.031C143.941 271.193 143.935 271.367 143.929 271.553C143.929 271.739 143.929 271.925 143.929 272.111C143.935 272.297 143.941 272.477 143.947 272.651C143.959 273.041 144.046 273.35 144.208 273.578C144.37 273.806 144.625 273.92 144.973 273.92ZM148.173 275.756C148.119 275.756 148.074 275.735 148.038 275.693C148.002 275.657 147.984 275.615 147.984 275.567C147.984 275.537 147.99 275.507 148.002 275.477L151.062 268.133C151.08 268.085 151.11 268.04 151.152 267.998C151.2 267.95 151.269 267.926 151.359 267.926H152.052C152.106 267.926 152.151 267.947 152.187 267.989C152.223 268.025 152.241 268.067 152.241 268.115C152.241 268.139 152.235 268.169 152.223 268.205L149.154 275.549C149.136 275.591 149.103 275.636 149.055 275.684C149.013 275.732 148.944 275.756 148.848 275.756H148.173ZM155.164 275.099C154.624 275.099 154.171 275.012 153.805 274.838C153.439 274.664 153.16 274.436 152.968 274.154C152.782 273.872 152.683 273.572 152.671 273.254C152.671 273.2 152.689 273.155 152.725 273.119C152.761 273.083 152.806 273.065 152.86 273.065H153.877C153.949 273.065 154.006 273.083 154.048 273.119C154.096 273.149 154.132 273.191 154.156 273.245C154.216 273.407 154.294 273.539 154.39 273.641C154.492 273.743 154.609 273.818 154.741 273.866C154.873 273.914 155.014 273.938 155.164 273.938C155.356 273.938 155.533 273.899 155.695 273.821C155.857 273.737 155.986 273.617 156.082 273.461C156.178 273.305 156.226 273.113 156.226 272.885C156.226 272.687 156.181 272.513 156.091 272.363C156.001 272.213 155.875 272.096 155.713 272.012C155.551 271.928 155.368 271.886 155.164 271.886C155.008 271.886 154.879 271.904 154.777 271.94C154.681 271.976 154.6 272.021 154.534 272.075C154.468 272.123 154.408 272.168 154.354 272.21C154.3 272.246 154.24 272.264 154.174 272.264H153.175C153.121 272.264 153.073 272.246 153.031 272.21C152.995 272.168 152.977 272.12 152.977 272.066L153.292 268.961C153.304 268.877 153.334 268.814 153.382 268.772C153.436 268.724 153.499 268.7 153.571 268.7H157.063C157.129 268.7 157.183 268.721 157.225 268.763C157.267 268.805 157.288 268.859 157.288 268.925V269.645C157.288 269.705 157.267 269.756 157.225 269.798C157.183 269.84 157.129 269.861 157.063 269.861H154.462L154.327 271.184C154.447 271.106 154.594 271.037 154.768 270.977C154.948 270.911 155.197 270.878 155.515 270.878C155.803 270.878 156.076 270.926 156.334 271.022C156.598 271.112 156.832 271.247 157.036 271.427C157.24 271.607 157.399 271.823 157.513 272.075C157.633 272.321 157.693 272.603 157.693 272.921C157.693 273.353 157.591 273.734 157.387 274.064C157.183 274.388 156.892 274.643 156.514 274.829C156.136 275.009 155.686 275.099 155.164 275.099Z" fill="#F0F0F0"/>
<rect x="176.5" y="260.5" width="75" height="75" rx="11.5" fill="#F0F0F0" stroke="#F0F0F0"/>
<rect x="180" y="264" width="68" height="16" rx="8" fill="#F0F0F0"/>
<path d="M195.548 275.09C194.984 275.09 194.504 274.997 194.108 274.811C193.718 274.619 193.415 274.343 193.199 273.983C192.983 273.617 192.863 273.173 192.839 272.651C192.833 272.405 192.83 272.141 192.83 271.859C192.83 271.577 192.833 271.307 192.839 271.049C192.863 270.533 192.983 270.095 193.199 269.735C193.421 269.369 193.73 269.09 194.126 268.898C194.522 268.706 194.996 268.61 195.548 268.61C195.95 268.61 196.316 268.661 196.646 268.763C196.976 268.865 197.261 269.012 197.501 269.204C197.741 269.396 197.927 269.621 198.059 269.879C198.191 270.137 198.263 270.425 198.275 270.743C198.275 270.797 198.254 270.842 198.212 270.878C198.176 270.914 198.131 270.932 198.077 270.932H197.051C196.979 270.932 196.922 270.914 196.88 270.878C196.838 270.842 196.805 270.782 196.781 270.698C196.691 270.344 196.541 270.101 196.331 269.969C196.121 269.837 195.86 269.771 195.548 269.771C195.176 269.771 194.882 269.873 194.666 270.077C194.45 270.281 194.333 270.62 194.315 271.094C194.297 271.586 194.297 272.09 194.315 272.606C194.333 273.08 194.45 273.419 194.666 273.623C194.882 273.827 195.176 273.929 195.548 273.929C195.86 273.929 196.121 273.863 196.331 273.731C196.547 273.593 196.697 273.35 196.781 273.002C196.805 272.912 196.838 272.852 196.88 272.822C196.922 272.786 196.979 272.768 197.051 272.768H198.077C198.131 272.768 198.176 272.786 198.212 272.822C198.254 272.858 198.275 272.903 198.275 272.957C198.263 273.275 198.191 273.563 198.059 273.821C197.927 274.079 197.741 274.304 197.501 274.496C197.261 274.688 196.976 274.835 196.646 274.937C196.316 275.039 195.95 275.09 195.548 275.09ZM202.148 275.09C201.602 275.09 201.131 275 200.735 274.82C200.339 274.64 200.03 274.37 199.808 274.01C199.586 273.644 199.466 273.185 199.448 272.633C199.442 272.375 199.439 272.12 199.439 271.868C199.439 271.61 199.442 271.349 199.448 271.085C199.466 270.545 199.586 270.092 199.808 269.726C200.036 269.354 200.348 269.075 200.744 268.889C201.146 268.703 201.614 268.61 202.148 268.61C202.676 268.61 203.138 268.703 203.534 268.889C203.936 269.075 204.251 269.354 204.479 269.726C204.707 270.092 204.827 270.545 204.839 271.085C204.851 271.349 204.857 271.61 204.857 271.868C204.857 272.12 204.851 272.375 204.839 272.633C204.821 273.185 204.701 273.644 204.479 274.01C204.257 274.37 203.948 274.64 203.552 274.82C203.156 275 202.688 275.09 202.148 275.09ZM202.148 273.929C202.496 273.929 202.781 273.824 203.003 273.614C203.231 273.398 203.351 273.056 203.363 272.588C203.375 272.324 203.381 272.078 203.381 271.85C203.381 271.616 203.375 271.37 203.363 271.112C203.357 270.8 203.3 270.545 203.192 270.347C203.084 270.149 202.94 270.005 202.76 269.915C202.586 269.819 202.382 269.771 202.148 269.771C201.914 269.771 201.707 269.819 201.527 269.915C201.347 270.005 201.203 270.149 201.095 270.347C200.993 270.545 200.936 270.8 200.924 271.112C200.918 271.37 200.915 271.616 200.915 271.85C200.915 272.078 200.918 272.324 200.924 272.588C200.942 273.056 201.062 273.398 201.284 273.614C201.506 273.824 201.794 273.929 202.148 273.929ZM206.559 275C206.499 275 206.445 274.979 206.397 274.937C206.355 274.895 206.334 274.841 206.334 274.775V268.925C206.334 268.859 206.355 268.805 206.397 268.763C206.445 268.721 206.499 268.7 206.559 268.7H207.396C207.486 268.7 207.552 268.724 207.594 268.772C207.642 268.82 207.675 268.856 207.693 268.88L209.349 271.931L211.023 268.88C211.035 268.856 211.062 268.82 211.104 268.772C211.152 268.724 211.221 268.7 211.311 268.7H212.148C212.214 268.7 212.268 268.721 212.31 268.763C212.352 268.805 212.373 268.859 212.373 268.925V274.775C212.373 274.841 212.352 274.895 212.31 274.937C212.268 274.979 212.214 275 212.148 275H211.23C211.17 275 211.119 274.979 211.077 274.937C211.035 274.895 211.014 274.841 211.014 274.775V271.139L209.871 273.281C209.841 273.335 209.802 273.383 209.754 273.425C209.706 273.467 209.643 273.488 209.565 273.488H209.142C209.064 273.488 209.001 273.467 208.953 273.425C208.905 273.383 208.866 273.335 208.836 273.281L207.693 271.139V274.775C207.693 274.841 207.672 274.895 207.63 274.937C207.588 274.979 207.537 275 207.477 275H206.559ZM214.293 275C214.227 275 214.173 274.979 214.131 274.937C214.089 274.895 214.068 274.841 214.068 274.775V268.925C214.068 268.859 214.089 268.805 214.131 268.763C214.173 268.721 214.227 268.7 214.293 268.7H216.966C217.464 268.7 217.872 268.772 218.19 268.916C218.508 269.06 218.742 269.264 218.892 269.528C219.048 269.792 219.126 270.101 219.126 270.455C219.126 270.677 219.084 270.872 219 271.04C218.922 271.208 218.823 271.346 218.703 271.454C218.589 271.562 218.478 271.643 218.37 271.697C218.604 271.805 218.808 271.985 218.982 272.237C219.162 272.483 219.252 272.777 219.252 273.119C219.252 273.497 219.168 273.827 219 274.109C218.832 274.391 218.583 274.61 218.253 274.766C217.923 274.922 217.521 275 217.047 275H214.293ZM215.499 273.947H216.876C217.17 273.947 217.392 273.866 217.542 273.704C217.692 273.536 217.767 273.338 217.767 273.11C217.767 272.876 217.689 272.681 217.533 272.525C217.383 272.363 217.164 272.282 216.876 272.282H215.499V273.947ZM215.499 271.247H216.795C217.077 271.247 217.287 271.178 217.425 271.04C217.569 270.896 217.641 270.713 217.641 270.491C217.641 270.269 217.569 270.092 217.425 269.96C217.287 269.822 217.077 269.753 216.795 269.753H215.499V271.247ZM220.911 275C220.845 275 220.791 274.979 220.749 274.937C220.707 274.895 220.686 274.841 220.686 274.775V268.925C220.686 268.859 220.707 268.805 220.749 268.763C220.791 268.721 220.845 268.7 220.911 268.7H221.928C221.994 268.7 222.048 268.721 222.09 268.763C222.132 268.805 222.153 268.859 222.153 268.925V274.775C222.153 274.841 222.132 274.895 222.09 274.937C222.048 274.979 221.994 275 221.928 275H220.911ZM224.066 275C224 275 223.946 274.979 223.904 274.937C223.862 274.895 223.841 274.841 223.841 274.775V268.925C223.841 268.859 223.862 268.805 223.904 268.763C223.946 268.721 224 268.7 224.066 268.7H224.885C224.975 268.7 225.041 268.721 225.083 268.763C225.125 268.805 225.152 268.838 225.164 268.862L227.567 272.615V268.925C227.567 268.859 227.588 268.805 227.63 268.763C227.672 268.721 227.723 268.7 227.783 268.7H228.701C228.767 268.7 228.821 268.721 228.863 268.763C228.905 268.805 228.926 268.859 228.926 268.925V274.775C228.926 274.835 228.905 274.889 228.863 274.937C228.821 274.979 228.767 275 228.701 275H227.873C227.783 275 227.717 274.979 227.675 274.937C227.639 274.889 227.612 274.856 227.594 274.838L225.2 271.202V274.775C225.2 274.841 225.179 274.895 225.137 274.937C225.095 274.979 225.041 275 224.975 275H224.066ZM230.842 275C230.776 275 230.722 274.979 230.68 274.937C230.638 274.895 230.617 274.841 230.617 274.775V268.925C230.617 268.859 230.638 268.805 230.68 268.763C230.722 268.721 230.776 268.7 230.842 268.7H234.919C234.985 268.7 235.039 268.721 235.081 268.763C235.123 268.805 235.144 268.859 235.144 268.925V269.645C235.144 269.705 235.123 269.756 235.081 269.798C235.039 269.84 234.985 269.861 234.919 269.861H232.003V271.274H234.721C234.787 271.274 234.841 271.295 234.883 271.337C234.925 271.379 234.946 271.433 234.946 271.499V272.165C234.946 272.225 234.925 272.276 234.883 272.318C234.841 272.36 234.787 272.381 234.721 272.381H232.003V273.839H234.991C235.057 273.839 235.111 273.86 235.153 273.902C235.195 273.944 235.216 273.998 235.216 274.064V274.775C235.216 274.841 235.195 274.895 235.153 274.937C235.111 274.979 235.057 275 234.991 275H230.842Z" fill="#F0F0F0"/>
<rect x="260" y="260" width="76" height="76" rx="12" fill="#F0F0F0"/>
<rect x="304" y="264" width="28" height="16" rx="8" fill="#F0F0F0"/>
<path d="M312.973 275.09C312.541 275.09 312.169 275.03 311.857 274.91C311.551 274.784 311.296 274.613 311.092 274.397C310.894 274.175 310.744 273.92 310.642 273.632C310.546 273.338 310.489 273.026 310.471 272.696C310.465 272.534 310.459 272.354 310.453 272.156C310.453 271.952 310.453 271.748 310.453 271.544C310.459 271.34 310.465 271.154 310.471 270.986C310.483 270.656 310.54 270.347 310.642 270.059C310.75 269.771 310.906 269.519 311.11 269.303C311.314 269.087 311.569 268.919 311.875 268.799C312.187 268.673 312.553 268.61 312.973 268.61C313.393 268.61 313.756 268.673 314.062 268.799C314.368 268.919 314.623 269.087 314.827 269.303C315.031 269.519 315.184 269.771 315.286 270.059C315.394 270.347 315.457 270.656 315.475 270.986C315.481 271.154 315.484 271.34 315.484 271.544C315.49 271.748 315.49 271.952 315.484 272.156C315.484 272.354 315.481 272.534 315.475 272.696C315.457 273.026 315.397 273.338 315.295 273.632C315.193 273.92 315.04 274.175 314.836 274.397C314.638 274.613 314.383 274.784 314.071 274.91C313.765 275.03 313.399 275.09 312.973 275.09ZM312.973 273.92C313.321 273.92 313.576 273.806 313.738 273.578C313.9 273.35 313.987 273.041 313.999 272.651C314.005 272.477 314.008 272.297 314.008 272.111C314.014 271.925 314.014 271.739 314.008 271.553C314.008 271.367 314.005 271.193 313.999 271.031C313.987 270.659 313.9 270.356 313.738 270.122C313.576 269.888 313.321 269.768 312.973 269.762C312.619 269.768 312.361 269.888 312.199 270.122C312.043 270.356 311.959 270.659 311.947 271.031C311.941 271.193 311.935 271.367 311.929 271.553C311.929 271.739 311.929 271.925 311.929 272.111C311.935 272.297 311.941 272.477 311.947 272.651C311.959 273.041 312.046 273.35 312.208 273.578C312.37 273.806 312.625 273.92 312.973 273.92ZM316.173 275.756C316.119 275.756 316.074 275.735 316.038 275.693C316.002 275.657 315.984 275.615 315.984 275.567C315.984 275.537 315.99 275.507 316.002 275.477L319.062 268.133C319.08 268.085 319.11 268.04 319.152 267.998C319.2 267.95 319.269 267.926 319.359 267.926H320.052C320.106 267.926 320.151 267.947 320.187 267.989C320.223 268.025 320.241 268.067 320.241 268.115C320.241 268.139 320.235 268.169 320.223 268.205L317.154 275.549C317.136 275.591 317.103 275.636 317.055 275.684C317.013 275.732 316.944 275.756 316.848 275.756H316.173ZM323.164 275.099C322.624 275.099 322.171 275.012 321.805 274.838C321.439 274.664 321.16 274.436 320.968 274.154C320.782 273.872 320.683 273.572 320.671 273.254C320.671 273.2 320.689 273.155 320.725 273.119C320.761 273.083 320.806 273.065 320.86 273.065H321.877C321.949 273.065 322.006 273.083 322.048 273.119C322.096 273.149 322.132 273.191 322.156 273.245C322.216 273.407 322.294 273.539 322.39 273.641C322.492 273.743 322.609 273.818 322.741 273.866C322.873 273.914 323.014 273.938 323.164 273.938C323.356 273.938 323.533 273.899 323.695 273.821C323.857 273.737 323.986 273.617 324.082 273.461C324.178 273.305 324.226 273.113 324.226 272.885C324.226 272.687 324.181 272.513 324.091 272.363C324.001 272.213 323.875 272.096 323.713 272.012C323.551 271.928 323.368 271.886 323.164 271.886C323.008 271.886 322.879 271.904 322.777 271.94C322.681 271.976 322.6 272.021 322.534 272.075C322.468 272.123 322.408 272.168 322.354 272.21C322.3 272.246 322.24 272.264 322.174 272.264H321.175C321.121 272.264 321.073 272.246 321.031 272.21C320.995 272.168 320.977 272.12 320.977 272.066L321.292 268.961C321.304 268.877 321.334 268.814 321.382 268.772C321.436 268.724 321.499 268.7 321.571 268.7H325.063C325.129 268.7 325.183 268.721 325.225 268.763C325.267 268.805 325.288 268.859 325.288 268.925V269.645C325.288 269.705 325.267 269.756 325.225 269.798C325.183 269.84 325.129 269.861 325.063 269.861H322.462L322.327 271.184C322.447 271.106 322.594 271.037 322.768 270.977C322.948 270.911 323.197 270.878 323.515 270.878C323.803 270.878 324.076 270.926 324.334 271.022C324.598 271.112 324.832 271.247 325.036 271.427C325.24 271.607 325.399 271.823 325.513 272.075C325.633 272.321 325.693 272.603 325.693 272.921C325.693 273.353 325.591 273.734 325.387 274.064C325.183 274.388 324.892 274.643 324.514 274.829C324.136 275.009 323.686 275.099 323.164 275.099Z" fill="#F0F0F0"/>
<rect x="8" y="344" width="76" height="76" rx="12" fill="#F0F0F0"/>
<rect x="52" y="348" width="28" height="16" rx="8" fill="#F0F0F0"/>
<path d="M60.8859 359.09C60.4419 359.09 60.0609 359.036 59.7429 358.928C59.4249 358.82 59.1639 358.682 58.9599 358.514C58.7559 358.346 58.6029 358.163 58.5009 357.965C58.3989 357.761 58.3449 357.566 58.3389 357.38C58.3389 357.326 58.3569 357.281 58.3929 357.245C58.4289 357.209 58.4739 357.191 58.5279 357.191H59.5179C59.5839 357.191 59.6379 357.206 59.6799 357.236C59.7219 357.26 59.7609 357.305 59.7969 357.371C59.8449 357.509 59.9229 357.62 60.0309 357.704C60.1389 357.788 60.2649 357.848 60.4089 357.884C60.5589 357.914 60.7179 357.929 60.8859 357.929C61.2219 357.929 61.4859 357.851 61.6779 357.695C61.8699 357.539 61.9659 357.32 61.9659 357.038C61.9659 356.75 61.8759 356.543 61.6959 356.417C61.5159 356.291 61.2609 356.228 60.9309 356.228H59.9679C59.9079 356.228 59.8569 356.207 59.8149 356.165C59.7729 356.123 59.7519 356.072 59.7519 356.012V355.571C59.7519 355.499 59.7639 355.439 59.7879 355.391C59.8179 355.343 59.8479 355.307 59.8779 355.283L61.4259 353.861H58.8879C58.8219 353.861 58.7679 353.84 58.7259 353.798C58.6839 353.756 58.6629 353.705 58.6629 353.645V352.925C58.6629 352.859 58.6839 352.805 58.7259 352.763C58.7679 352.721 58.8219 352.7 58.8879 352.7H62.8839C62.9499 352.7 63.0039 352.721 63.0459 352.763C63.0879 352.805 63.1089 352.859 63.1089 352.925V353.573C63.1089 353.639 63.0969 353.696 63.0729 353.744C63.0489 353.786 63.0189 353.819 62.9829 353.843L61.5159 355.292L61.6059 355.301C61.9599 355.337 62.2749 355.424 62.5509 355.562C62.8269 355.7 63.0429 355.898 63.1989 356.156C63.3609 356.408 63.4419 356.729 63.4419 357.119C63.4419 357.527 63.3309 357.878 63.1089 358.172C62.8869 358.466 62.5839 358.694 62.1999 358.856C61.8159 359.012 61.3779 359.09 60.8859 359.09ZM64.1154 359.756C64.0614 359.756 64.0164 359.735 63.9804 359.693C63.9444 359.657 63.9264 359.615 63.9264 359.567C63.9264 359.537 63.9324 359.507 63.9444 359.477L67.0044 352.133C67.0224 352.085 67.0524 352.04 67.0944 351.998C67.1424 351.95 67.2114 351.926 67.3014 351.926H67.9944C68.0484 351.926 68.0934 351.947 68.1294 351.989C68.1654 352.025 68.1834 352.067 68.1834 352.115C68.1834 352.139 68.1774 352.169 68.1654 352.205L65.0964 359.549C65.0784 359.591 65.0454 359.636 64.9974 359.684C64.9554 359.732 64.8864 359.756 64.7904 359.756H64.1154ZM71.1066 359.099C70.5666 359.099 70.1136 359.012 69.7476 358.838C69.3816 358.664 69.1026 358.436 68.9106 358.154C68.7246 357.872 68.6256 357.572 68.6136 357.254C68.6136 357.2 68.6316 357.155 68.6676 357.119C68.7036 357.083 68.7486 357.065 68.8026 357.065H69.8196C69.8916 357.065 69.9486 357.083 69.9906 357.119C70.0386 357.149 70.0746 357.191 70.0986 357.245C70.1586 357.407 70.2366 357.539 70.3326 357.641C70.4346 357.743 70.5516 357.818 70.6836 357.866C70.8156 357.914 70.9566 357.938 71.1066 357.938C71.2986 357.938 71.4756 357.899 71.6376 357.821C71.7996 357.737 71.9286 357.617 72.0246 357.461C72.1206 357.305 72.1686 357.113 72.1686 356.885C72.1686 356.687 72.1236 356.513 72.0336 356.363C71.9436 356.213 71.8176 356.096 71.6556 356.012C71.4936 355.928 71.3106 355.886 71.1066 355.886C70.9506 355.886 70.8216 355.904 70.7196 355.94C70.6236 355.976 70.5426 356.021 70.4766 356.075C70.4106 356.123 70.3506 356.168 70.2966 356.21C70.2426 356.246 70.1826 356.264 70.1166 356.264H69.1176C69.0636 356.264 69.0156 356.246 68.9736 356.21C68.9376 356.168 68.9196 356.12 68.9196 356.066L69.2346 352.961C69.2466 352.877 69.2766 352.814 69.3246 352.772C69.3786 352.724 69.4416 352.7 69.5136 352.7H73.0056C73.0716 352.7 73.1256 352.721 73.1676 352.763C73.2096 352.805 73.2306 352.859 73.2306 352.925V353.645C73.2306 353.705 73.2096 353.756 73.1676 353.798C73.1256 353.84 73.0716 353.861 73.0056 353.861H70.4046L70.2696 355.184C70.3896 355.106 70.5366 355.037 70.7106 354.977C70.8906 354.911 71.1396 354.878 71.4576 354.878C71.7456 354.878 72.0186 354.926 72.2766 355.022C72.5406 355.112 72.7746 355.247 72.9786 355.427C73.1826 355.607 73.3416 355.823 73.4556 356.075C73.5756 356.321 73.6356 356.603 73.6356 356.921C73.6356 357.353 73.5336 357.734 73.3296 358.064C73.1256 358.388 72.8346 358.643 72.4566 358.829C72.0786 359.009 71.6286 359.099 71.1066 359.099Z" fill="#F0F0F0"/>
<rect x="92" y="344" width="76" height="76" rx="12" fill="#F0F0F0"/>
<rect x="136" y="348" width="28" height="16" rx="8" fill="#F0F0F0"/>
<path d="M145.207 359C145.147 359 145.093 358.979 145.045 358.937C145.003 358.895 144.982 358.841 144.982 358.775V354.302L143.686 355.301C143.632 355.343 143.575 355.358 143.515 355.346C143.461 355.334 143.413 355.301 143.371 355.247L142.921 354.662C142.885 354.608 142.87 354.551 142.876 354.491C142.888 354.431 142.921 354.383 142.975 354.347L145.027 352.763C145.063 352.739 145.096 352.724 145.126 352.718C145.162 352.706 145.201 352.7 145.243 352.7H146.197C146.257 352.7 146.308 352.721 146.35 352.763C146.392 352.805 146.413 352.859 146.413 352.925V358.775C146.413 358.841 146.392 358.895 146.35 358.937C146.308 358.979 146.257 359 146.197 359H145.207ZM147.426 359.756C147.372 359.756 147.327 359.735 147.291 359.693C147.255 359.657 147.237 359.615 147.237 359.567C147.237 359.537 147.243 359.507 147.255 359.477L150.315 352.133C150.333 352.085 150.363 352.04 150.405 351.998C150.453 351.95 150.522 351.926 150.612 351.926H151.305C151.359 351.926 151.404 351.947 151.44 351.989C151.476 352.025 151.494 352.067 151.494 352.115C151.494 352.139 151.488 352.169 151.476 352.205L148.407 359.549C148.389 359.591 148.356 359.636 148.308 359.684C148.266 359.732 148.197 359.756 148.101 359.756H147.426ZM154.417 359.099C153.877 359.099 153.424 359.012 153.058 358.838C152.692 358.664 152.413 358.436 152.221 358.154C152.035 357.872 151.936 357.572 151.924 357.254C151.924 357.2 151.942 357.155 151.978 357.119C152.014 357.083 152.059 357.065 152.113 357.065H153.13C153.202 357.065 153.259 357.083 153.301 357.119C153.349 357.149 153.385 357.191 153.409 357.245C153.469 357.407 153.547 357.539 153.643 357.641C153.745 357.743 153.862 357.818 153.994 357.866C154.126 357.914 154.267 357.938 154.417 357.938C154.609 357.938 154.786 357.899 154.948 357.821C155.11 357.737 155.239 357.617 155.335 357.461C155.431 357.305 155.479 357.113 155.479 356.885C155.479 356.687 155.434 356.513 155.344 356.363C155.254 356.213 155.128 356.096 154.966 356.012C154.804 355.928 154.621 355.886 154.417 355.886C154.261 355.886 154.132 355.904 154.03 355.94C153.934 355.976 153.853 356.021 153.787 356.075C153.721 356.123 153.661 356.168 153.607 356.21C153.553 356.246 153.493 356.264 153.427 356.264H152.428C152.374 356.264 152.326 356.246 152.284 356.21C152.248 356.168 152.23 356.12 152.23 356.066L152.545 352.961C152.557 352.877 152.587 352.814 152.635 352.772C152.689 352.724 152.752 352.7 152.824 352.7H156.316C156.382 352.7 156.436 352.721 156.478 352.763C156.52 352.805 156.541 352.859 156.541 352.925V353.645C156.541 353.705 156.52 353.756 156.478 353.798C156.436 353.84 156.382 353.861 156.316 353.861H153.715L153.58 355.184C153.7 355.106 153.847 355.037 154.021 354.977C154.201 354.911 154.45 354.878 154.768 354.878C155.056 354.878 155.329 354.926 155.587 355.022C155.851 355.112 156.085 355.247 156.289 355.427C156.493 355.607 156.652 355.823 156.766 356.075C156.886 356.321 156.946 356.603 156.946 356.921C156.946 357.353 156.844 357.734 156.64 358.064C156.436 358.388 156.145 358.643 155.767 358.829C155.389 359.009 154.939 359.099 154.417 359.099Z" fill="#F0F0F0"/>
<rect x="176" y="344" width="76" height="76" rx="12" fill="#F0F0F0"/>
<rect x="220" y="348" width="28" height="16" rx="8" fill="#F0F0F0"/>
<path d="M228.973 359.09C228.541 359.09 228.169 359.03 227.857 358.91C227.551 358.784 227.296 358.613 227.092 358.397C226.894 358.175 226.744 357.92 226.642 357.632C226.546 357.338 226.489 357.026 226.471 356.696C226.465 356.534 226.459 356.354 226.453 356.156C226.453 355.952 226.453 355.748 226.453 355.544C226.459 355.34 226.465 355.154 226.471 354.986C226.483 354.656 226.54 354.347 226.642 354.059C226.75 353.771 226.906 353.519 227.11 353.303C227.314 353.087 227.569 352.919 227.875 352.799C228.187 352.673 228.553 352.61 228.973 352.61C229.393 352.61 229.756 352.673 230.062 352.799C230.368 352.919 230.623 353.087 230.827 353.303C231.031 353.519 231.184 353.771 231.286 354.059C231.394 354.347 231.457 354.656 231.475 354.986C231.481 355.154 231.484 355.34 231.484 355.544C231.49 355.748 231.49 355.952 231.484 356.156C231.484 356.354 231.481 356.534 231.475 356.696C231.457 357.026 231.397 357.338 231.295 357.632C231.193 357.92 231.04 358.175 230.836 358.397C230.638 358.613 230.383 358.784 230.071 358.91C229.765 359.03 229.399 359.09 228.973 359.09ZM228.973 357.92C229.321 357.92 229.576 357.806 229.738 357.578C229.9 357.35 229.987 357.041 229.999 356.651C230.005 356.477 230.008 356.297 230.008 356.111C230.014 355.925 230.014 355.739 230.008 355.553C230.008 355.367 230.005 355.193 229.999 355.031C229.987 354.659 229.9 354.356 229.738 354.122C229.576 353.888 229.321 353.768 228.973 353.762C228.619 353.768 228.361 353.888 228.199 354.122C228.043 354.356 227.959 354.659 227.947 355.031C227.941 355.193 227.935 355.367 227.929 355.553C227.929 355.739 227.929 355.925 227.929 356.111C227.935 356.297 227.941 356.477 227.947 356.651C227.959 357.041 228.046 357.35 228.208 357.578C228.37 357.806 228.625 357.92 228.973 357.92ZM232.173 359.756C232.119 359.756 232.074 359.735 232.038 359.693C232.002 359.657 231.984 359.615 231.984 359.567C231.984 359.537 231.99 359.507 232.002 359.477L235.062 352.133C235.08 352.085 235.11 352.04 235.152 351.998C235.2 351.95 235.269 351.926 235.359 351.926H236.052C236.106 351.926 236.151 351.947 236.187 351.989C236.223 352.025 236.241 352.067 236.241 352.115C236.241 352.139 236.235 352.169 236.223 352.205L233.154 359.549C233.136 359.591 233.103 359.636 233.055 359.684C233.013 359.732 232.944 359.756 232.848 359.756H232.173ZM239.164 359.099C238.624 359.099 238.171 359.012 237.805 358.838C237.439 358.664 237.16 358.436 236.968 358.154C236.782 357.872 236.683 357.572 236.671 357.254C236.671 357.2 236.689 357.155 236.725 357.119C236.761 357.083 236.806 357.065 236.86 357.065H237.877C237.949 357.065 238.006 357.083 238.048 357.119C238.096 357.149 238.132 357.191 238.156 357.245C238.216 357.407 238.294 357.539 238.39 357.641C238.492 357.743 238.609 357.818 238.741 357.866C238.873 357.914 239.014 357.938 239.164 357.938C239.356 357.938 239.533 357.899 239.695 357.821C239.857 357.737 239.986 357.617 240.082 357.461C240.178 357.305 240.226 357.113 240.226 356.885C240.226 356.687 240.181 356.513 240.091 356.363C240.001 356.213 239.875 356.096 239.713 356.012C239.551 355.928 239.368 355.886 239.164 355.886C239.008 355.886 238.879 355.904 238.777 355.94C238.681 355.976 238.6 356.021 238.534 356.075C238.468 356.123 238.408 356.168 238.354 356.21C238.3 356.246 238.24 356.264 238.174 356.264H237.175C237.121 356.264 237.073 356.246 237.031 356.21C236.995 356.168 236.977 356.12 236.977 356.066L237.292 352.961C237.304 352.877 237.334 352.814 237.382 352.772C237.436 352.724 237.499 352.7 237.571 352.7H241.063C241.129 352.7 241.183 352.721 241.225 352.763C241.267 352.805 241.288 352.859 241.288 352.925V353.645C241.288 353.705 241.267 353.756 241.225 353.798C241.183 353.84 241.129 353.861 241.063 353.861H238.462L238.327 355.184C238.447 355.106 238.594 355.037 238.768 354.977C238.948 354.911 239.197 354.878 239.515 354.878C239.803 354.878 240.076 354.926 240.334 355.022C240.598 355.112 240.832 355.247 241.036 355.427C241.24 355.607 241.399 355.823 241.513 356.075C241.633 356.321 241.693 356.603 241.693 356.921C241.693 357.353 241.591 357.734 241.387 358.064C241.183 358.388 240.892 358.643 240.514 358.829C240.136 359.009 239.686 359.099 239.164 359.099Z" fill="#F0F0F0"/>
<rect x="260" y="344" width="76" height="76" rx="12" fill="#F0F0F0"/>
<rect x="304" y="348" width="28" height="16" rx="8" fill="#F0F0F0"/>
<path d="M310.627 359C310.561 359 310.507 358.979 310.465 358.937C310.423 358.895 310.402 358.841 310.402 358.775V358.235C310.402 358.187 310.414 358.124 310.438 358.046C310.468 357.962 310.531 357.881 310.627 357.803L311.815 356.624C312.253 356.288 312.607 356.003 312.877 355.769C313.153 355.535 313.357 355.322 313.489 355.13C313.621 354.938 313.687 354.752 313.687 354.572C313.687 354.338 313.621 354.146 313.489 353.996C313.363 353.84 313.156 353.762 312.868 353.762C312.676 353.762 312.514 353.804 312.382 353.888C312.256 353.966 312.157 354.071 312.085 354.203C312.013 354.335 311.965 354.479 311.941 354.635C311.923 354.713 311.884 354.767 311.824 354.797C311.77 354.827 311.713 354.842 311.653 354.842H310.699C310.639 354.842 310.591 354.824 310.555 354.788C310.519 354.746 310.501 354.701 310.501 354.653C310.507 354.377 310.564 354.116 310.672 353.87C310.786 353.624 310.945 353.405 311.149 353.213C311.353 353.021 311.599 352.871 311.887 352.763C312.175 352.649 312.502 352.592 312.868 352.592C313.372 352.592 313.795 352.676 314.137 352.844C314.479 353.006 314.737 353.231 314.911 353.519C315.085 353.807 315.172 354.14 315.172 354.518C315.172 354.806 315.112 355.073 314.992 355.319C314.878 355.565 314.71 355.802 314.488 356.03C314.266 356.252 314.002 356.483 313.696 356.723L312.634 357.785H315.082C315.148 357.785 315.202 357.806 315.244 357.848C315.286 357.89 315.307 357.944 315.307 358.01V358.775C315.307 358.841 315.286 358.895 315.244 358.937C315.202 358.979 315.148 359 315.082 359H310.627ZM316.124 359.756C316.07 359.756 316.025 359.735 315.989 359.693C315.953 359.657 315.935 359.615 315.935 359.567C315.935 359.537 315.941 359.507 315.953 359.477L319.013 352.133C319.031 352.085 319.061 352.04 319.103 351.998C319.151 351.95 319.22 351.926 319.31 351.926H320.003C320.057 351.926 320.102 351.947 320.138 351.989C320.174 352.025 320.192 352.067 320.192 352.115C320.192 352.139 320.186 352.169 320.174 352.205L317.105 359.549C317.087 359.591 317.054 359.636 317.006 359.684C316.964 359.732 316.895 359.756 316.799 359.756H316.124ZM323.115 359.099C322.575 359.099 322.122 359.012 321.756 358.838C321.39 358.664 321.111 358.436 320.919 358.154C320.733 357.872 320.634 357.572 320.622 357.254C320.622 357.2 320.64 357.155 320.676 357.119C320.712 357.083 320.757 357.065 320.811 357.065H321.828C321.9 357.065 321.957 357.083 321.999 357.119C322.047 357.149 322.083 357.191 322.107 357.245C322.167 357.407 322.245 357.539 322.341 357.641C322.443 357.743 322.56 357.818 322.692 357.866C322.824 357.914 322.965 357.938 323.115 357.938C323.307 357.938 323.484 357.899 323.646 357.821C323.808 357.737 323.937 357.617 324.033 357.461C324.129 357.305 324.177 357.113 324.177 356.885C324.177 356.687 324.132 356.513 324.042 356.363C323.952 356.213 323.826 356.096 323.664 356.012C323.502 355.928 323.319 355.886 323.115 355.886C322.959 355.886 322.83 355.904 322.728 355.94C322.632 355.976 322.551 356.021 322.485 356.075C322.419 356.123 322.359 356.168 322.305 356.21C322.251 356.246 322.191 356.264 322.125 356.264H321.126C321.072 356.264 321.024 356.246 320.982 356.21C320.946 356.168 320.928 356.12 320.928 356.066L321.243 352.961C321.255 352.877 321.285 352.814 321.333 352.772C321.387 352.724 321.45 352.7 321.522 352.7H325.014C325.08 352.7 325.134 352.721 325.176 352.763C325.218 352.805 325.239 352.859 325.239 352.925V353.645C325.239 353.705 325.218 353.756 325.176 353.798C325.134 353.84 325.08 353.861 325.014 353.861H322.413L322.278 355.184C322.398 355.106 322.545 355.037 322.719 354.977C322.899 354.911 323.148 354.878 323.466 354.878C323.754 354.878 324.027 354.926 324.285 355.022C324.549 355.112 324.783 355.247 324.987 355.427C325.191 355.607 325.35 355.823 325.464 356.075C325.584 356.321 325.644 356.603 325.644 356.921C325.644 357.353 325.542 357.734 325.338 358.064C325.134 358.388 324.843 358.643 324.465 358.829C324.087 359.009 323.637 359.099 323.115 359.099Z" fill="#F0F0F0"/>
<rect x="8.5" y="428.5" width="75" height="75" rx="11.5" fill="#F0F0F0" stroke="#F0F0F0"/>
<rect x="64" y="432" width="16" height="16" rx="8" fill="#F0F0F0"/>
<path d="M72.3397 443C72.2797 443 72.2257 442.979 72.1777 442.937C72.1357 442.895 72.1147 442.841 72.1147 442.775V438.302L70.8187 439.301C70.7647 439.343 70.7077 439.358 70.6477 439.346C70.5937 439.334 70.5457 439.301 70.5037 439.247L70.0537 438.662C70.0177 438.608 70.0027 438.551 70.0087 438.491C70.0207 438.431 70.0537 438.383 70.1077 438.347L72.1597 436.763C72.1957 436.739 72.2287 436.724 72.2587 436.718C72.2947 436.706 72.3337 436.7 72.3757 436.7H73.3297C73.3897 436.7 73.4407 436.721 73.4827 436.763C73.5247 436.805 73.5457 436.859 73.5457 436.925V442.775C73.5457 442.841 73.5247 442.895 73.4827 442.937C73.4407 442.979 73.3897 443 73.3297 443H72.3397Z" fill="#F0F0F0"/>
<rect x="92.5" y="428.5" width="75" height="75" rx="11.5" fill="#F0F0F0" stroke="#F0F0F0"/>
<rect x="148" y="432" width="16" height="16" rx="8" fill="#F0F0F0"/>
<path d="M153.76 443C153.694 443 153.64 442.979 153.598 442.937C153.556 442.895 153.535 442.841 153.535 442.775V442.235C153.535 442.187 153.547 442.124 153.571 442.046C153.601 441.962 153.664 441.881 153.76 441.803L154.948 440.624C155.386 440.288 155.74 440.003 156.01 439.769C156.286 439.535 156.49 439.322 156.622 439.13C156.754 438.938 156.82 438.752 156.82 438.572C156.82 438.338 156.754 438.146 156.622 437.996C156.496 437.84 156.289 437.762 156.001 437.762C155.809 437.762 155.647 437.804 155.515 437.888C155.389 437.966 155.29 438.071 155.218 438.203C155.146 438.335 155.098 438.479 155.074 438.635C155.056 438.713 155.017 438.767 154.957 438.797C154.903 438.827 154.846 438.842 154.786 438.842H153.832C153.772 438.842 153.724 438.824 153.688 438.788C153.652 438.746 153.634 438.701 153.634 438.653C153.64 438.377 153.697 438.116 153.805 437.87C153.919 437.624 154.078 437.405 154.282 437.213C154.486 437.021 154.732 436.871 155.02 436.763C155.308 436.649 155.635 436.592 156.001 436.592C156.505 436.592 156.928 436.676 157.27 436.844C157.612 437.006 157.87 437.231 158.044 437.519C158.218 437.807 158.305 438.14 158.305 438.518C158.305 438.806 158.245 439.073 158.125 439.319C158.011 439.565 157.843 439.802 157.621 440.03C157.399 440.252 157.135 440.483 156.829 440.723L155.767 441.785H158.215C158.281 441.785 158.335 441.806 158.377 441.848C158.419 441.89 158.44 441.944 158.44 442.01V442.775C158.44 442.841 158.419 442.895 158.377 442.937C158.335 442.979 158.281 443 158.215 443H153.76Z" fill="#F0F0F0"/>
<rect x="176" y="428" width="76" height="76" rx="12" fill="#F0F0F0"/>
<rect x="220" y="432" width="28" height="16" rx="8" fill="#F0F0F0"/>
<path d="M229.42 443C229.36 443 229.309 442.979 229.267 442.937C229.225 442.895 229.204 442.841 229.204 442.775V441.695H226.369C226.309 441.695 226.258 441.674 226.216 441.632C226.174 441.59 226.153 441.536 226.153 441.47V440.741C226.153 440.699 226.162 440.654 226.18 440.606C226.198 440.558 226.222 440.513 226.252 440.471L228.889 436.853C228.967 436.751 229.078 436.7 229.222 436.7H230.365C230.425 436.7 230.476 436.721 230.518 436.763C230.56 436.805 230.581 436.859 230.581 436.925V440.498H231.382C231.454 440.498 231.508 440.519 231.544 440.561C231.586 440.603 231.607 440.654 231.607 440.714V441.47C231.607 441.536 231.586 441.59 231.544 441.632C231.502 441.674 231.451 441.695 231.391 441.695H230.581V442.775C230.581 442.841 230.56 442.895 230.518 442.937C230.476 442.979 230.425 443 230.365 443H229.42ZM227.548 440.543H229.231V438.176L227.548 440.543ZM232.247 443.756C232.193 443.756 232.148 443.735 232.112 443.693C232.076 443.657 232.058 443.615 232.058 443.567C232.058 443.537 232.064 443.507 232.076 443.477L235.136 436.133C235.154 436.085 235.184 436.04 235.226 435.998C235.274 435.95 235.343 435.926 235.433 435.926H236.126C236.18 435.926 236.225 435.947 236.261 435.989C236.297 436.025 236.315 436.067 236.315 436.115C236.315 436.139 236.309 436.169 236.297 436.205L233.228 443.549C233.21 443.591 233.177 443.636 233.129 443.684C233.087 443.732 233.018 443.756 232.922 443.756H232.247ZM239.238 443.099C238.698 443.099 238.245 443.012 237.879 442.838C237.513 442.664 237.234 442.436 237.042 442.154C236.856 441.872 236.757 441.572 236.745 441.254C236.745 441.2 236.763 441.155 236.799 441.119C236.835 441.083 236.88 441.065 236.934 441.065H237.951C238.023 441.065 238.08 441.083 238.122 441.119C238.17 441.149 238.206 441.191 238.23 441.245C238.29 441.407 238.368 441.539 238.464 441.641C238.566 441.743 238.683 441.818 238.815 441.866C238.947 441.914 239.088 441.938 239.238 441.938C239.43 441.938 239.607 441.899 239.769 441.821C239.931 441.737 240.06 441.617 240.156 441.461C240.252 441.305 240.3 441.113 240.3 440.885C240.3 440.687 240.255 440.513 240.165 440.363C240.075 440.213 239.949 440.096 239.787 440.012C239.625 439.928 239.442 439.886 239.238 439.886C239.082 439.886 238.953 439.904 238.851 439.94C238.755 439.976 238.674 440.021 238.608 440.075C238.542 440.123 238.482 440.168 238.428 440.21C238.374 440.246 238.314 440.264 238.248 440.264H237.249C237.195 440.264 237.147 440.246 237.105 440.21C237.069 440.168 237.051 440.12 237.051 440.066L237.366 436.961C237.378 436.877 237.408 436.814 237.456 436.772C237.51 436.724 237.573 436.7 237.645 436.7H241.137C241.203 436.7 241.257 436.721 241.299 436.763C241.341 436.805 241.362 436.859 241.362 436.925V437.645C241.362 437.705 241.341 437.756 241.299 437.798C241.257 437.84 241.203 437.861 241.137 437.861H238.536L238.401 439.184C238.521 439.106 238.668 439.037 238.842 438.977C239.022 438.911 239.271 438.878 239.589 438.878C239.877 438.878 240.15 438.926 240.408 439.022C240.672 439.112 240.906 439.247 241.11 439.427C241.314 439.607 241.473 439.823 241.587 440.075C241.707 440.321 241.767 440.603 241.767 440.921C241.767 441.353 241.665 441.734 241.461 442.064C241.257 442.388 240.966 442.643 240.588 442.829C240.21 443.009 239.76 443.099 239.238 443.099Z" fill="#F0F0F0"/>
<rect x="260.5" y="428.5" width="75" height="75" rx="11.5" fill="#F0F0F0" stroke="#F0F0F0"/>
<rect x="316" y="432" width="16" height="16" rx="8" fill="#F0F0F0"/>
<path d="M323.966 443.09C323.522 443.09 323.141 443.036 322.823 442.928C322.505 442.82 322.244 442.682 322.04 442.514C321.836 442.346 321.683 442.163 321.581 441.965C321.479 441.761 321.425 441.566 321.419 441.38C321.419 441.326 321.437 441.281 321.473 441.245C321.509 441.209 321.554 441.191 321.608 441.191H322.598C322.664 441.191 322.718 441.206 322.76 441.236C322.802 441.26 322.841 441.305 322.877 441.371C322.925 441.509 323.003 441.62 323.111 441.704C323.219 441.788 323.345 441.848 323.489 441.884C323.639 441.914 323.798 441.929 323.966 441.929C324.302 441.929 324.566 441.851 324.758 441.695C324.95 441.539 325.046 441.32 325.046 441.038C325.046 440.75 324.956 440.543 324.776 440.417C324.596 440.291 324.341 440.228 324.011 440.228H323.048C322.988 440.228 322.937 440.207 322.895 440.165C322.853 440.123 322.832 440.072 322.832 440.012V439.571C322.832 439.499 322.844 439.439 322.868 439.391C322.898 439.343 322.928 439.307 322.958 439.283L324.506 437.861H321.968C321.902 437.861 321.848 437.84 321.806 437.798C321.764 437.756 321.743 437.705 321.743 437.645V436.925C321.743 436.859 321.764 436.805 321.806 436.763C321.848 436.721 321.902 436.7 321.968 436.7H325.964C326.03 436.7 326.084 436.721 326.126 436.763C326.168 436.805 326.189 436.859 326.189 436.925V437.573C326.189 437.639 326.177 437.696 326.153 437.744C326.129 437.786 326.099 437.819 326.063 437.843L324.596 439.292L324.686 439.301C325.04 439.337 325.355 439.424 325.631 439.562C325.907 439.7 326.123 439.898 326.279 440.156C326.441 440.408 326.522 440.729 326.522 441.119C326.522 441.527 326.411 441.878 326.189 442.172C325.967 442.466 325.664 442.694 325.28 442.856C324.896 443.012 324.458 443.09 323.966 443.09Z" fill="#F0F0F0"/>
</svg>
