<svg width="68" height="32" viewBox="0 0 68 32" fill="none" xmlns="http://www.w3.org/2000/svg">
<rect x="0.5" y="0.5" width="67" height="31" rx="15.5" fill="white"/>
<path d="M13.3231 21C13.1831 21 13.0711 20.9627 12.9871 20.888C12.9124 20.804 12.8611 20.7013 12.8331 20.58L11.1671 11.606C11.1671 11.578 11.1624 11.5547 11.1531 11.536C11.1531 11.5173 11.1531 11.5033 11.1531 11.494C11.1531 11.41 11.1811 11.34 11.2371 11.284C11.3024 11.228 11.3724 11.2 11.4471 11.2H12.6791C12.9124 11.2 13.0431 11.2933 13.0711 11.48L14.2331 17.822L15.4931 13.72C15.5211 13.6453 15.5678 13.5707 15.6331 13.496C15.7078 13.412 15.8151 13.37 15.9551 13.37H16.7111C16.8604 13.37 16.9678 13.412 17.0331 13.496C17.0984 13.5707 17.1404 13.6453 17.1591 13.72L18.4331 17.808L19.5951 11.48C19.6231 11.2933 19.7538 11.2 19.9871 11.2H21.2191C21.2938 11.2 21.3591 11.228 21.4151 11.284C21.4711 11.34 21.4991 11.41 21.4991 11.494C21.4991 11.5033 21.4991 11.5173 21.4991 11.536C21.4991 11.5547 21.4944 11.578 21.4851 11.606L19.8191 20.58C19.8004 20.7013 19.7491 20.804 19.6651 20.888C19.5811 20.9627 19.4691 21 19.3291 21H18.3911C18.2511 21 18.1391 20.9627 18.0551 20.888C17.9804 20.8133 17.9291 20.734 17.9011 20.65L16.3331 15.974L14.7651 20.65C14.7278 20.734 14.6718 20.8133 14.5971 20.888C14.5224 20.9627 14.4104 21 14.2611 21H13.3231ZM25.8373 21.14C24.8013 21.14 23.98 20.8413 23.3733 20.244C22.7667 19.6467 22.44 18.7973 22.3933 17.696C22.384 17.6027 22.3793 17.486 22.3793 17.346C22.3793 17.1967 22.384 17.08 22.3933 16.996C22.4307 16.2867 22.5893 15.68 22.8693 15.176C23.1587 14.6627 23.5553 14.2707 24.0593 14C24.5633 13.72 25.156 13.58 25.8373 13.58C26.5933 13.58 27.228 13.7387 27.7413 14.056C28.2547 14.364 28.642 14.798 28.9033 15.358C29.1647 15.9087 29.2953 16.548 29.2953 17.276V17.57C29.2953 17.6633 29.2627 17.7427 29.1973 17.808C29.132 17.8733 29.048 17.906 28.9453 17.906H24.2973C24.2973 17.906 24.2973 17.92 24.2973 17.948C24.2973 17.976 24.2973 17.9993 24.2973 18.018C24.3067 18.3447 24.3673 18.648 24.4793 18.928C24.6007 19.1987 24.7733 19.418 24.9973 19.586C25.2307 19.754 25.506 19.838 25.8233 19.838C26.0847 19.838 26.304 19.8007 26.4813 19.726C26.6587 19.642 26.8033 19.5487 26.9153 19.446C27.0273 19.3433 27.1067 19.2593 27.1533 19.194C27.2373 19.082 27.3027 19.0167 27.3493 18.998C27.4053 18.97 27.4847 18.956 27.5873 18.956H28.7913C28.8847 18.956 28.9593 18.984 29.0153 19.04C29.0807 19.096 29.1087 19.166 29.0993 19.25C29.09 19.3993 29.0107 19.5813 28.8613 19.796C28.7213 20.0107 28.516 20.2207 28.2453 20.426C27.9747 20.6313 27.634 20.804 27.2233 20.944C26.822 21.0747 26.36 21.14 25.8373 21.14ZM24.2973 16.73H27.3913V16.688C27.3913 16.324 27.3307 16.0067 27.2093 15.736C27.088 15.456 26.9107 15.2413 26.6773 15.092C26.444 14.9333 26.164 14.854 25.8373 14.854C25.5107 14.854 25.2307 14.9333 24.9973 15.092C24.764 15.2413 24.5867 15.456 24.4653 15.736C24.3533 16.0067 24.2973 16.324 24.2973 16.688V16.73ZM33.9174 21.14C32.8814 21.14 32.0601 20.8413 31.4534 20.244C30.8468 19.6467 30.5201 18.7973 30.4734 17.696C30.4641 17.6027 30.4594 17.486 30.4594 17.346C30.4594 17.1967 30.4641 17.08 30.4734 16.996C30.5108 16.2867 30.6694 15.68 30.9494 15.176C31.2388 14.6627 31.6354 14.2707 32.1394 14C32.6434 13.72 33.2361 13.58 33.9174 13.58C34.6734 13.58 35.3081 13.7387 35.8214 14.056C36.3348 14.364 36.7221 14.798 36.9834 15.358C37.2448 15.9087 37.3754 16.548 37.3754 17.276V17.57C37.3754 17.6633 37.3428 17.7427 37.2774 17.808C37.2121 17.8733 37.1281 17.906 37.0254 17.906H32.3774C32.3774 17.906 32.3774 17.92 32.3774 17.948C32.3774 17.976 32.3774 17.9993 32.3774 18.018C32.3868 18.3447 32.4474 18.648 32.5594 18.928C32.6808 19.1987 32.8534 19.418 33.0774 19.586C33.3108 19.754 33.5861 19.838 33.9034 19.838C34.1648 19.838 34.3841 19.8007 34.5614 19.726C34.7388 19.642 34.8834 19.5487 34.9954 19.446C35.1074 19.3433 35.1868 19.2593 35.2334 19.194C35.3174 19.082 35.3828 19.0167 35.4294 18.998C35.4854 18.97 35.5648 18.956 35.6674 18.956H36.8714C36.9648 18.956 37.0394 18.984 37.0954 19.04C37.1608 19.096 37.1888 19.166 37.1794 19.25C37.1701 19.3993 37.0908 19.5813 36.9414 19.796C36.8014 20.0107 36.5961 20.2207 36.3254 20.426C36.0548 20.6313 35.7141 20.804 35.3034 20.944C34.9021 21.0747 34.4401 21.14 33.9174 21.14ZM32.3774 16.73H35.4714V16.688C35.4714 16.324 35.4108 16.0067 35.2894 15.736C35.1681 15.456 34.9908 15.2413 34.7574 15.092C34.5241 14.9333 34.2441 14.854 33.9174 14.854C33.5908 14.854 33.3108 14.9333 33.0774 15.092C32.8441 15.2413 32.6668 15.456 32.5454 15.736C32.4334 16.0067 32.3774 16.324 32.3774 16.688V16.73ZM39.2115 21C39.1182 21 39.0388 20.9673 38.9735 20.902C38.9082 20.8367 38.8755 20.7573 38.8755 20.664V11.396C38.8755 11.3027 38.9082 11.2233 38.9735 11.158C39.0388 11.0927 39.1182 11.06 39.2115 11.06H40.3455C40.4482 11.06 40.5275 11.0927 40.5835 11.158C40.6488 11.2233 40.6815 11.3027 40.6815 11.396V16.184L43.0335 13.958C43.1268 13.8833 43.2015 13.8273 43.2575 13.79C43.3228 13.7433 43.4208 13.72 43.5515 13.72H44.8535C44.9468 13.72 45.0215 13.748 45.0775 13.804C45.1335 13.86 45.1615 13.9347 45.1615 14.028C45.1615 14.0653 45.1522 14.1073 45.1335 14.154C45.1148 14.2007 45.0775 14.2427 45.0215 14.28L42.1375 16.982L45.3715 20.454C45.4648 20.5473 45.5115 20.6267 45.5115 20.692C45.5115 20.7853 45.4788 20.86 45.4135 20.916C45.3575 20.972 45.2875 21 45.2035 21H43.8735C43.7335 21 43.6308 20.9813 43.5655 20.944C43.5095 20.8973 43.4395 20.8367 43.3555 20.762L40.6815 17.948V20.664C40.6815 20.7573 40.6488 20.8367 40.5835 20.902C40.5275 20.9673 40.4482 21 40.3455 21H39.2115ZM46.9088 21C46.8154 21 46.7361 20.9673 46.6708 20.902C46.6054 20.8367 46.5728 20.7573 46.5728 20.664V11.396C46.5728 11.3027 46.6054 11.2233 46.6708 11.158C46.7361 11.0927 46.8154 11.06 46.9088 11.06H48.0708C48.1641 11.06 48.2434 11.0927 48.3088 11.158C48.3741 11.2233 48.4068 11.3027 48.4068 11.396V20.664C48.4068 20.7573 48.3741 20.8367 48.3088 20.902C48.2434 20.9673 48.1641 21 48.0708 21H46.9088ZM51.5798 23.66C51.5052 23.66 51.4398 23.632 51.3838 23.576C51.3278 23.52 51.2998 23.4547 51.2998 23.38C51.2998 23.3427 51.2998 23.3053 51.2998 23.268C51.3092 23.24 51.3278 23.2027 51.3558 23.156L52.4478 20.566L49.7598 14.224C49.7225 14.1307 49.7038 14.0653 49.7038 14.028C49.7132 13.944 49.7458 13.874 49.8018 13.818C49.8578 13.7527 49.9278 13.72 50.0118 13.72H51.1458C51.2578 13.72 51.3418 13.748 51.3978 13.804C51.4538 13.86 51.4958 13.9207 51.5238 13.986L53.3858 18.564L55.3038 13.986C55.3318 13.9113 55.3738 13.8507 55.4298 13.804C55.4858 13.748 55.5698 13.72 55.6818 13.72H56.8018C56.8765 13.72 56.9418 13.748 56.9978 13.804C57.0632 13.86 57.0958 13.9253 57.0958 14C57.0958 14.056 57.0772 14.1307 57.0398 14.224L53.0778 23.394C53.0405 23.4687 52.9938 23.5293 52.9378 23.576C52.8818 23.632 52.7978 23.66 52.6858 23.66H51.5798Z" fill="#131313"/>
<rect x="0.5" y="0.5" width="67" height="31" rx="15.5" stroke="#131313"/>
</svg>
