<svg width="104" height="40" viewBox="0 0 104 40" fill="none" xmlns="http://www.w3.org/2000/svg">
<rect width="104" height="40" rx="20" fill="white"/>
<path d="M11.5087 20.8839C11.0205 20.3958 11.0205 19.6043 11.5087 19.1162L16.6159 14.0089C17.1041 13.5208 17.8955 13.5208 18.3837 14.0089L23.4909 19.1162C23.9791 19.6043 23.9791 20.3958 23.4909 20.8839L18.3837 25.9912C17.8955 26.4793 17.1041 26.4793 16.6159 25.9912L11.5087 20.8839Z" fill="white"/>
<path fill-rule="evenodd" clip-rule="evenodd" d="M10.8458 18.4533L15.953 13.346C16.8073 12.4918 18.1923 12.4918 19.0466 13.346L24.1538 18.4533C25.0081 19.3075 25.0081 20.6926 24.1538 21.5469L19.0466 26.6541C18.1923 27.5084 16.8073 27.5084 15.953 26.6541L10.8458 21.5469C9.99151 20.6926 9.99151 19.3075 10.8458 18.4533ZM11.5087 19.1162C11.0205 19.6043 11.0205 20.3958 11.5087 20.8839L16.6159 25.9912C17.1041 26.4793 17.8955 26.4793 18.3837 25.9912L23.4909 20.8839C23.9791 20.3958 23.9791 19.6043 23.4909 19.1162L18.3837 14.0089C17.8955 13.5208 17.1041 13.5208 16.6159 14.0089L11.5087 19.1162Z" fill="white"/>
<path d="M16.5087 20.8839C16.0205 20.3958 16.0205 19.6043 16.5087 19.1162L21.6159 14.0089C22.1041 13.5208 22.8955 13.5208 23.3837 14.0089L28.4909 19.1162C28.9791 19.6043 28.9791 20.3958 28.4909 20.8839L23.3837 25.9912C22.8955 26.4793 22.1041 26.4793 21.6159 25.9912L16.5087 20.8839Z" fill="white"/>
<path fill-rule="evenodd" clip-rule="evenodd" d="M15.8458 18.4533L20.953 13.346C21.8073 12.4918 23.1923 12.4918 24.0466 13.346L29.1538 18.4533C30.0081 19.3075 30.0081 20.6926 29.1538 21.5469L24.0466 26.6541C23.1923 27.5084 21.8073 27.5084 20.953 26.6541L15.8458 21.5469C14.9915 20.6926 14.9915 19.3075 15.8458 18.4533ZM16.5087 19.1162C16.0205 19.6043 16.0205 20.3958 16.5087 20.8839L21.6159 25.9912C22.1041 26.4793 22.8955 26.4793 23.3837 25.9912L28.4909 20.8839C28.9791 20.3958 28.9791 19.6043 28.4909 19.1162L23.3837 14.0089C22.8955 13.5208 22.1041 13.5208 21.6159 14.0089L16.5087 19.1162Z" fill="white"/>
<rect x="36.5" y="4.5" width="63" height="31" rx="15.5" fill="white"/>
<rect x="36.5" y="4.5" width="63" height="31" rx="15.5" stroke="white"/>
</svg>
