<svg width="32" height="32" viewBox="0 0 32 32" fill="none" xmlns="http://www.w3.org/2000/svg">
<path d="M11.75 19V18.25H11H6C4.48122 18.25 3.25 19.4812 3.25 21V26C3.25 27.5188 4.48122 28.75 6 28.75H11H11.75V28V19Z" fill="#A06FE9" stroke="#131313" stroke-width="1.5"/>
<path d="M21 20.25H20.25V21V28V28.75H21H26C27.5188 28.75 28.75 27.5188 28.75 26V23C28.75 21.4812 27.5188 20.25 26 20.25H21Z" fill="#A06FE9" stroke="#131313" stroke-width="1.5"/>
<path d="M20 28.75H20.75V28V18C20.75 16.4812 19.5188 15.25 18 15.25H14C12.4812 15.25 11.25 16.4812 11.25 18V28V28.75H12H20Z" fill="#C099FB" stroke="#131313" stroke-width="1.5"/>
<path d="M17.704 11.8966L17.9966 11.206L17.704 11.8966C18.9186 12.4111 20.2442 11.448 20.1301 10.1339L19.9792 8.39561C19.9734 8.32817 19.9951 8.26124 20.0395 8.21011L21.1833 6.89247C22.048 5.89636 21.5417 4.33804 20.2566 4.04042L18.5568 3.64673C18.4908 3.63145 18.4339 3.59009 18.399 3.53208L17.4993 2.03709C16.8191 0.906906 15.1806 0.906908 14.5005 2.03709L13.6008 3.53208C13.5659 3.59009 13.5089 3.63145 13.443 3.64673L11.7431 4.04042C10.4581 4.33804 9.95174 5.89636 10.8164 6.89247L11.9602 8.21011C12.0046 8.26124 12.0264 8.32817 12.0205 8.39561L11.8696 10.1339C11.7556 11.448 13.0812 12.4111 14.2957 11.8966L15.9023 11.2159C15.9647 11.1895 16.0351 11.1895 16.0974 11.2159L17.704 11.8966Z" fill="#FFD540" stroke="#131313" stroke-width="1.5"/>
</svg>
