<svg width="16" height="16" viewBox="0 0 16 16" fill="none" xmlns="http://www.w3.org/2000/svg">
<path fill-rule="evenodd" clip-rule="evenodd" d="M5.45723 2.76469C4.87896 3.34297 4.87896 4.28054 5.45723 4.85881L5.90597 5.30755L8.0001 7.40168L10.0942 5.30755L10.543 4.85881C11.1212 4.28054 11.1212 3.34297 10.543 2.76469C9.96469 2.18641 9.02711 2.18641 8.44884 2.76469L8.0001 3.21343L7.55136 2.76469C6.97308 2.18641 6.03551 2.18641 5.45723 2.76469ZM10.543 13.2353C11.1212 12.657 11.1212 11.7195 10.543 11.1412L10.0942 10.6924L8.0001 8.59832L5.90598 10.6924L5.45723 11.1412C4.87896 11.7195 4.87896 12.657 5.45723 13.2353C6.03551 13.8136 6.97308 13.8136 7.55136 13.2353L8.0001 12.7866L8.44884 13.2353C9.02711 13.8136 9.96469 13.8136 10.543 13.2353ZM4.85891 10.5429C4.28064 11.1211 3.34306 11.1211 2.76479 10.5429C2.18651 9.96459 2.18651 9.02702 2.76479 8.44874L3.21353 8L2.76479 7.55126C2.18651 6.97298 2.18651 6.03541 2.76479 5.45714C3.34307 4.87886 4.28064 4.87886 4.85891 5.45714L5.30765 5.90588L7.40178 8L5.30765 10.0941L4.85891 10.5429ZM13.2354 5.45714C12.6571 4.87886 11.7196 4.87886 11.1413 5.45714L10.6925 5.90588L8.59842 8L10.6925 10.0941L11.1413 10.5429C11.7196 11.1211 12.6571 11.1211 13.2354 10.5429C13.8137 9.96459 13.8137 9.02702 13.2354 8.44874L12.7867 8L13.2354 7.55126C13.8137 6.97298 13.8137 6.03541 13.2354 5.45714Z" fill="#20FA58"/>
</svg>
