<svg width="32" height="32" viewBox="0 0 32 32" fill="none" xmlns="http://www.w3.org/2000/svg">
<path d="M5.75 14.75H26.25V25C26.25 26.7949 24.7949 28.25 23 28.25H9C7.20507 28.25 5.75 26.7949 5.75 25V14.75Z" fill="#888888" stroke="#131313" stroke-width="1.5"/>
<path fill-rule="evenodd" clip-rule="evenodd" d="M7.63873 8.43382L13.4343 6.8809L13.4344 6.88115L15.3663 6.36348L15.3663 6.36326L21.1618 4.81034L21.1619 4.81059L25.0261 3.77519L26.579 9.57074L20.7834 11.1237L20.7834 11.1234L18.8514 11.6411L18.8515 11.6413L13.0559 13.1942L13.0558 13.194L11.1239 13.7116L11.1239 13.7119L5.32836 15.2648L3.77545 9.46922L7.63879 8.43404L7.63873 8.43382ZM17.8161 7.77737L18.3338 9.70923L20.2652 9.19169L19.7476 7.25983L17.8161 7.77737ZM13.9525 8.81287L15.884 8.29533L16.4016 10.2272L14.4701 10.7447L13.9525 8.81287ZM8.67407 12.2977L8.15643 10.3659L6.22494 10.8834L6.74258 12.8153L8.67407 12.2977ZM12.5377 11.2622L10.6062 11.7798L10.0886 9.84793L12.0201 9.33039L12.5377 11.2622ZM22.1977 8.67417L21.68 6.74232L23.6119 6.22468L24.1295 8.15653L22.1977 8.67417Z" fill="#131313"/>
<rect x="1" y="3" width="16" height="16" rx="8" fill="#54FA80"/>
<path d="M8.96347 14.099C8.44747 14.099 8.01247 14.015 7.65847 13.847C7.30447 13.673 7.03447 13.448 6.84847 13.172C6.66847 12.896 6.57247 12.602 6.56047 12.29C6.55447 12.236 6.56947 12.194 6.60547 12.164C6.64747 12.128 6.69547 12.11 6.74947 12.11H7.58647C7.65247 12.11 7.70647 12.125 7.74847 12.155C7.79647 12.179 7.83247 12.224 7.85647 12.29C7.91647 12.47 8.00047 12.617 8.10847 12.731C8.22247 12.845 8.35147 12.929 8.49547 12.983C8.64547 13.037 8.80147 13.064 8.96347 13.064C9.17947 13.064 9.37447 13.022 9.54847 12.938C9.72847 12.848 9.87247 12.716 9.98047 12.542C10.0885 12.368 10.1425 12.155 10.1425 11.903C10.1425 11.681 10.0915 11.489 9.98947 11.327C9.88747 11.165 9.74647 11.039 9.56647 10.949C9.39247 10.853 9.19147 10.805 8.96347 10.805C8.79547 10.805 8.65747 10.826 8.54947 10.868C8.44147 10.91 8.34847 10.958 8.27047 11.012C8.19847 11.066 8.13247 11.114 8.07247 11.156C8.01847 11.198 7.95547 11.219 7.88347 11.219H7.05547C7.00147 11.219 6.95347 11.201 6.91147 11.165C6.87547 11.123 6.85747 11.075 6.85747 11.021L7.17247 7.943C7.17847 7.865 7.20547 7.805 7.25347 7.763C7.30147 7.721 7.35847 7.7 7.42447 7.7H10.8085C10.8685 7.7 10.9195 7.721 10.9615 7.763C11.0035 7.805 11.0245 7.856 11.0245 7.916V8.519C11.0245 8.579 11.0035 8.63 10.9615 8.672C10.9195 8.714 10.8685 8.735 10.8085 8.735H8.20747L8.06347 10.202C8.17147 10.13 8.31547 10.061 8.49547 9.995C8.67547 9.929 8.92447 9.896 9.24247 9.896C9.53047 9.896 9.80347 9.944 10.0615 10.04C10.3255 10.13 10.5595 10.265 10.7635 10.445C10.9675 10.619 11.1265 10.832 11.2405 11.084C11.3605 11.33 11.4205 11.612 11.4205 11.93C11.4205 12.368 11.3185 12.749 11.1145 13.073C10.9105 13.397 10.6255 13.649 10.2595 13.829C9.89347 14.009 9.46147 14.099 8.96347 14.099Z" fill="#131313"/>
</svg>
