<svg width="390" height="136" viewBox="0 0 390 136" fill="none" xmlns="http://www.w3.org/2000/svg">
<mask id="mask0_368_3543" style="mask-type:alpha" maskUnits="userSpaceOnUse" x="0" y="0" width="390" height="136">
<rect width="390" height="136" fill="black"/>
</mask>
<g mask="url(#mask0_368_3543)">
<path d="M265 94L215 94C203.954 94 195 102.954 195 114L195 136" stroke="#131313" stroke-width="12"/>
<path d="M-0.5 30H301C312.046 30 321 38.9543 321 50V74C321 85.0457 312.046 94 301 94H239.5" stroke="#131313" stroke-width="12"/>
<path d="M-0.5 30H195" stroke="white" stroke-width="12"/>
<circle cx="195" cy="30" r="23" fill="#54FA80" stroke="white" stroke-width="2"/>
<path d="M206.396 28.9184L189.79 19.1587C188.985 18.6983 188 19.2968 188 20.2175L188 23.9005L188 35.6398L188 39.737C188 40.7038 188.985 41.3023 189.79 40.8419L206.396 31.1282C207.201 30.6218 207.201 29.4249 206.396 28.9184Z" fill="#131313"/>
<circle cx="75" cy="30" r="12" fill="#131313" stroke="#131313" stroke-width="4"/>
<path d="M81.3946 24.6966C80.8271 24.2204 79.9731 24.2786 79.4789 24.8346L73.3841 31.6917L71.0775 29.4504C70.5451 28.9331 69.6892 28.9331 69.1568 29.4504C68.6144 29.9775 68.6144 30.8397 69.1568 31.3668L72.4967 34.612C72.7666 34.8743 73.1327 35.0123 73.5063 34.9991C73.8799 34.9858 74.2355 34.8221 74.4859 34.5404L81.5366 26.6077C82.0402 26.0412 81.9726 25.1816 81.3946 24.6966Z" fill="white"/>
<rect x="308" y="49" width="26" height="26" rx="13" fill="#54FA80"/>
<path d="M327.395 56.6966C326.827 56.2204 325.973 56.2786 325.479 56.8346L319.384 63.6917L317.078 61.4504C316.545 60.9331 315.689 60.9331 315.157 61.4504C314.614 61.9775 314.614 62.8397 315.157 63.3668L318.497 66.612C318.767 66.8743 319.133 67.0123 319.506 66.9991C319.88 66.9858 320.235 66.8221 320.486 66.5404L327.537 58.6077C328.04 58.0412 327.973 57.1816 327.395 56.6966Z" fill="#131313"/>
<rect x="308" y="49" width="26" height="26" rx="13" stroke="#131313" stroke-width="2"/>
</g>
</svg>
