<svg width="22" height="22" viewBox="0 0 22 22" fill="none" xmlns="http://www.w3.org/2000/svg">
<rect x="0.5" y="0.5" width="21" height="21" rx="10.5" fill="#BFBFBF"/>
<path d="M10.9933 15.11C10.4726 15.11 10.0289 15.033 9.66225 14.879C9.29559 14.725 8.99492 14.5123 8.76025 14.241C8.52559 13.9697 8.34959 13.658 8.23225 13.306C8.11492 12.9467 8.04525 12.5653 8.02325 12.162C8.01592 11.964 8.00859 11.7477 8.00125 11.513C8.00125 11.271 8.00125 11.029 8.00125 10.787C8.00859 10.545 8.01592 10.3213 8.02325 10.116C8.03792 9.71267 8.10759 9.335 8.23225 8.983C8.35692 8.62367 8.53659 8.312 8.77125 8.048C9.01325 7.784 9.31759 7.575 9.68425 7.421C10.0509 7.267 10.4873 7.19 10.9933 7.19C11.5066 7.19 11.9466 7.267 12.3133 7.421C12.6799 7.575 12.9806 7.784 13.2153 8.048C13.4573 8.312 13.6369 8.62367 13.7543 8.983C13.8789 9.335 13.9486 9.71267 13.9633 10.116C13.9779 10.3213 13.9853 10.545 13.9853 10.787C13.9853 11.029 13.9853 11.271 13.9853 11.513C13.9853 11.7477 13.9779 11.964 13.9633 12.162C13.9486 12.5653 13.8826 12.9467 13.7653 13.306C13.6479 13.658 13.4719 13.9697 13.2373 14.241C13.0026 14.5123 12.6983 14.725 12.3243 14.879C11.9576 15.033 11.5139 15.11 10.9933 15.11ZM10.9933 13.845C11.4699 13.845 11.8183 13.691 12.0383 13.383C12.2656 13.0677 12.3829 12.6423 12.3903 12.107C12.4049 11.8943 12.4123 11.6817 12.4123 11.469C12.4123 11.249 12.4123 11.029 12.4123 10.809C12.4123 10.589 12.4049 10.38 12.3903 10.182C12.3829 9.66133 12.2656 9.24333 12.0383 8.928C11.8183 8.60533 11.4699 8.444 10.9933 8.444C10.5239 8.444 10.1756 8.60533 9.94825 8.928C9.72825 9.24333 9.61092 9.66133 9.59625 10.182C9.59625 10.38 9.59259 10.589 9.58525 10.809C9.58525 11.029 9.58525 11.249 9.58525 11.469C9.59259 11.6817 9.59625 11.8943 9.59625 12.107C9.61092 12.6423 9.73192 13.0677 9.95925 13.383C10.1866 13.691 10.5313 13.845 10.9933 13.845Z" fill="white"/>
<rect x="0.5" y="0.5" width="21" height="21" rx="10.5" stroke="#BFBFBF"/>
</svg>
