<svg width="16" height="16" viewBox="0 0 16 16" fill="none" xmlns="http://www.w3.org/2000/svg">
<rect width="16" height="16" rx="8" fill="#131313"/>
<path d="M8.33968 11C8.27968 11 8.22568 10.979 8.17768 10.937C8.13568 10.895 8.11468 10.841 8.11468 10.775V6.302L6.81868 7.301C6.76468 7.343 6.70768 7.358 6.64768 7.346C6.59368 7.334 6.54568 7.301 6.50368 7.247L6.05368 6.662C6.01768 6.608 6.00268 6.551 6.00868 6.491C6.02068 6.431 6.05368 6.383 6.10768 6.347L8.15968 4.763C8.19568 4.739 8.22868 4.724 8.25868 4.718C8.29468 4.706 8.33368 4.7 8.37568 4.7H9.32968C9.38968 4.7 9.44068 4.721 9.48268 4.763C9.52468 4.805 9.54568 4.859 9.54568 4.925V10.775C9.54568 10.841 9.52468 10.895 9.48268 10.937C9.44068 10.979 9.38968 11 9.32968 11H8.33968Z" fill="#131313"/>
</svg>
