<svg width="68" height="16" viewBox="0 0 68 16" fill="none" xmlns="http://www.w3.org/2000/svg">
<rect width="68" height="16" rx="8" fill="#131313"/>
<path d="M15.548 11.09C14.984 11.09 14.504 10.997 14.108 10.811C13.718 10.619 13.415 10.343 13.199 9.983C12.983 9.617 12.863 9.173 12.839 8.651C12.833 8.405 12.83 8.141 12.83 7.859C12.83 7.577 12.833 7.307 12.839 7.049C12.863 6.533 12.983 6.095 13.199 5.735C13.421 5.369 13.73 5.09 14.126 4.898C14.522 4.706 14.996 4.61 15.548 4.61C15.95 4.61 16.316 4.661 16.646 4.763C16.976 4.865 17.261 5.012 17.501 5.204C17.741 5.396 17.927 5.621 18.059 5.879C18.191 6.137 18.263 6.425 18.275 6.743C18.275 6.797 18.254 6.842 18.212 6.878C18.176 6.914 18.131 6.932 18.077 6.932H17.051C16.979 6.932 16.922 6.914 16.88 6.878C16.838 6.842 16.805 6.782 16.781 6.698C16.691 6.344 16.541 6.101 16.331 5.969C16.121 5.837 15.86 5.771 15.548 5.771C15.176 5.771 14.882 5.873 14.666 6.077C14.45 6.281 14.333 6.62 14.315 7.094C14.297 7.586 14.297 8.09 14.315 8.606C14.333 9.08 14.45 9.419 14.666 9.623C14.882 9.827 15.176 9.929 15.548 9.929C15.86 9.929 16.121 9.863 16.331 9.731C16.547 9.593 16.697 9.35 16.781 9.002C16.805 8.912 16.838 8.852 16.88 8.822C16.922 8.786 16.979 8.768 17.051 8.768H18.077C18.131 8.768 18.176 8.786 18.212 8.822C18.254 8.858 18.275 8.903 18.275 8.957C18.263 9.275 18.191 9.563 18.059 9.821C17.927 10.079 17.741 10.304 17.501 10.496C17.261 10.688 16.976 10.835 16.646 10.937C16.316 11.039 15.95 11.09 15.548 11.09ZM22.1482 11.09C21.6022 11.09 21.1312 11 20.7352 10.82C20.3392 10.64 20.0302 10.37 19.8082 10.01C19.5862 9.644 19.4662 9.185 19.4482 8.633C19.4422 8.375 19.4392 8.12 19.4392 7.868C19.4392 7.61 19.4422 7.349 19.4482 7.085C19.4662 6.545 19.5862 6.092 19.8082 5.726C20.0362 5.354 20.3482 5.075 20.7442 4.889C21.1462 4.703 21.6142 4.61 22.1482 4.61C22.6762 4.61 23.1382 4.703 23.5342 4.889C23.9362 5.075 24.2512 5.354 24.4792 5.726C24.7072 6.092 24.8272 6.545 24.8392 7.085C24.8512 7.349 24.8572 7.61 24.8572 7.868C24.8572 8.12 24.8512 8.375 24.8392 8.633C24.8212 9.185 24.7012 9.644 24.4792 10.01C24.2572 10.37 23.9482 10.64 23.5522 10.82C23.1562 11 22.6882 11.09 22.1482 11.09ZM22.1482 9.929C22.4962 9.929 22.7812 9.824 23.0032 9.614C23.2312 9.398 23.3512 9.056 23.3632 8.588C23.3752 8.324 23.3812 8.078 23.3812 7.85C23.3812 7.616 23.3752 7.37 23.3632 7.112C23.3572 6.8 23.3002 6.545 23.1922 6.347C23.0842 6.149 22.9402 6.005 22.7602 5.915C22.5862 5.819 22.3822 5.771 22.1482 5.771C21.9142 5.771 21.7072 5.819 21.5272 5.915C21.3472 6.005 21.2032 6.149 21.0952 6.347C20.9932 6.545 20.9362 6.8 20.9242 7.112C20.9182 7.37 20.9152 7.616 20.9152 7.85C20.9152 8.078 20.9182 8.324 20.9242 8.588C20.9422 9.056 21.0622 9.398 21.2842 9.614C21.5062 9.824 21.7942 9.929 22.1482 9.929ZM26.5593 11C26.4993 11 26.4453 10.979 26.3973 10.937C26.3553 10.895 26.3343 10.841 26.3343 10.775V4.925C26.3343 4.859 26.3553 4.805 26.3973 4.763C26.4453 4.721 26.4993 4.7 26.5593 4.7H27.3963C27.4863 4.7 27.5523 4.724 27.5943 4.772C27.6423 4.82 27.6753 4.856 27.6933 4.88L29.3493 7.931L31.0233 4.88C31.0353 4.856 31.0623 4.82 31.1043 4.772C31.1523 4.724 31.2213 4.7 31.3113 4.7H32.1483C32.2143 4.7 32.2683 4.721 32.3103 4.763C32.3523 4.805 32.3733 4.859 32.3733 4.925V10.775C32.3733 10.841 32.3523 10.895 32.3103 10.937C32.2683 10.979 32.2143 11 32.1483 11H31.2303C31.1703 11 31.1193 10.979 31.0773 10.937C31.0353 10.895 31.0143 10.841 31.0143 10.775V7.139L29.8713 9.281C29.8413 9.335 29.8023 9.383 29.7543 9.425C29.7063 9.467 29.6433 9.488 29.5653 9.488H29.1423C29.0643 9.488 29.0013 9.467 28.9533 9.425C28.9053 9.383 28.8663 9.335 28.8363 9.281L27.6933 7.139V10.775C27.6933 10.841 27.6723 10.895 27.6303 10.937C27.5883 10.979 27.5373 11 27.4773 11H26.5593ZM34.2933 11C34.2273 11 34.1733 10.979 34.1313 10.937C34.0893 10.895 34.0683 10.841 34.0683 10.775V4.925C34.0683 4.859 34.0893 4.805 34.1313 4.763C34.1733 4.721 34.2273 4.7 34.2933 4.7H36.9663C37.4643 4.7 37.8723 4.772 38.1903 4.916C38.5083 5.06 38.7423 5.264 38.8923 5.528C39.0483 5.792 39.1263 6.101 39.1263 6.455C39.1263 6.677 39.0843 6.872 39.0003 7.04C38.9223 7.208 38.8233 7.346 38.7033 7.454C38.5893 7.562 38.4783 7.643 38.3703 7.697C38.6043 7.805 38.8083 7.985 38.9823 8.237C39.1623 8.483 39.2523 8.777 39.2523 9.119C39.2523 9.497 39.1683 9.827 39.0003 10.109C38.8323 10.391 38.5833 10.61 38.2533 10.766C37.9233 10.922 37.5213 11 37.0473 11H34.2933ZM35.4993 9.947H36.8763C37.1703 9.947 37.3923 9.866 37.5423 9.704C37.6923 9.536 37.7673 9.338 37.7673 9.11C37.7673 8.876 37.6893 8.681 37.5333 8.525C37.3833 8.363 37.1643 8.282 36.8763 8.282H35.4993V9.947ZM35.4993 7.247H36.7953C37.0773 7.247 37.2873 7.178 37.4253 7.04C37.5693 6.896 37.6413 6.713 37.6413 6.491C37.6413 6.269 37.5693 6.092 37.4253 5.96C37.2873 5.822 37.0773 5.753 36.7953 5.753H35.4993V7.247ZM40.9112 11C40.8452 11 40.7912 10.979 40.7492 10.937C40.7072 10.895 40.6862 10.841 40.6862 10.775V4.925C40.6862 4.859 40.7072 4.805 40.7492 4.763C40.7912 4.721 40.8452 4.7 40.9112 4.7H41.9282C41.9942 4.7 42.0482 4.721 42.0902 4.763C42.1322 4.805 42.1532 4.859 42.1532 4.925V10.775C42.1532 10.841 42.1322 10.895 42.0902 10.937C42.0482 10.979 41.9942 11 41.9282 11H40.9112ZM44.0661 11C44.0001 11 43.9461 10.979 43.9041 10.937C43.8621 10.895 43.8411 10.841 43.8411 10.775V4.925C43.8411 4.859 43.8621 4.805 43.9041 4.763C43.9461 4.721 44.0001 4.7 44.0661 4.7H44.8851C44.9751 4.7 45.0411 4.721 45.0831 4.763C45.1251 4.805 45.1521 4.838 45.1641 4.862L47.5671 8.615V4.925C47.5671 4.859 47.5881 4.805 47.6301 4.763C47.6721 4.721 47.7231 4.7 47.7831 4.7H48.7011C48.7671 4.7 48.8211 4.721 48.8631 4.763C48.9051 4.805 48.9261 4.859 48.9261 4.925V10.775C48.9261 10.835 48.9051 10.889 48.8631 10.937C48.8211 10.979 48.7671 11 48.7011 11H47.8731C47.7831 11 47.7171 10.979 47.6751 10.937C47.6391 10.889 47.6121 10.856 47.5941 10.838L45.2001 7.202V10.775C45.2001 10.841 45.1791 10.895 45.1371 10.937C45.0951 10.979 45.0411 11 44.9751 11H44.0661ZM50.8421 11C50.7761 11 50.7221 10.979 50.6801 10.937C50.6381 10.895 50.6171 10.841 50.6171 10.775V4.925C50.6171 4.859 50.6381 4.805 50.6801 4.763C50.7221 4.721 50.7761 4.7 50.8421 4.7H54.9191C54.9851 4.7 55.0391 4.721 55.0811 4.763C55.1231 4.805 55.1441 4.859 55.1441 4.925V5.645C55.1441 5.705 55.1231 5.756 55.0811 5.798C55.0391 5.84 54.9851 5.861 54.9191 5.861H52.0031V7.274H54.7211C54.7871 7.274 54.8411 7.295 54.8831 7.337C54.9251 7.379 54.9461 7.433 54.9461 7.499V8.165C54.9461 8.225 54.9251 8.276 54.8831 8.318C54.8411 8.36 54.7871 8.381 54.7211 8.381H52.0031V9.839H54.9911C55.0571 9.839 55.1111 9.86 55.1531 9.902C55.1951 9.944 55.2161 9.998 55.2161 10.064V10.775C55.2161 10.841 55.1951 10.895 55.1531 10.937C55.1111 10.979 55.0571 11 54.9911 11H50.8421Z" fill="#131313"/>
</svg>
