<svg width="208" height="36" viewBox="0 0 208 36" fill="none" xmlns="http://www.w3.org/2000/svg">
<rect width="208" height="36" rx="18" fill="white"/>
<rect x="2.5" y="2.5" width="67" height="31" rx="15.5" fill="white"/>
<path d="M15.3231 23C15.1831 23 15.0711 22.9627 14.9871 22.888C14.9124 22.804 14.8611 22.7013 14.8331 22.58L13.1671 13.606C13.1671 13.578 13.1624 13.5547 13.1531 13.536C13.1531 13.5173 13.1531 13.5033 13.1531 13.494C13.1531 13.41 13.1811 13.34 13.2371 13.284C13.3024 13.228 13.3724 13.2 13.4471 13.2H14.6791C14.9124 13.2 15.0431 13.2933 15.0711 13.48L16.2331 19.822L17.4931 15.72C17.5211 15.6453 17.5678 15.5707 17.6331 15.496C17.7078 15.412 17.8151 15.37 17.9551 15.37H18.7111C18.8604 15.37 18.9678 15.412 19.0331 15.496C19.0984 15.5707 19.1404 15.6453 19.1591 15.72L20.4331 19.808L21.5951 13.48C21.6231 13.2933 21.7538 13.2 21.9871 13.2H23.2191C23.2938 13.2 23.3591 13.228 23.4151 13.284C23.4711 13.34 23.4991 13.41 23.4991 13.494C23.4991 13.5033 23.4991 13.5173 23.4991 13.536C23.4991 13.5547 23.4944 13.578 23.4851 13.606L21.8191 22.58C21.8004 22.7013 21.7491 22.804 21.6651 22.888C21.5811 22.9627 21.4691 23 21.3291 23H20.3911C20.2511 23 20.1391 22.9627 20.0551 22.888C19.9804 22.8133 19.9291 22.734 19.9011 22.65L18.3331 17.974L16.7651 22.65C16.7278 22.734 16.6718 22.8133 16.5971 22.888C16.5224 22.9627 16.4104 23 16.2611 23H15.3231ZM27.8373 23.14C26.8013 23.14 25.98 22.8413 25.3733 22.244C24.7667 21.6467 24.44 20.7973 24.3933 19.696C24.384 19.6027 24.3793 19.486 24.3793 19.346C24.3793 19.1967 24.384 19.08 24.3933 18.996C24.4307 18.2867 24.5893 17.68 24.8693 17.176C25.1587 16.6627 25.5553 16.2707 26.0593 16C26.5633 15.72 27.156 15.58 27.8373 15.58C28.5933 15.58 29.228 15.7387 29.7413 16.056C30.2547 16.364 30.642 16.798 30.9033 17.358C31.1647 17.9087 31.2953 18.548 31.2953 19.276V19.57C31.2953 19.6633 31.2627 19.7427 31.1973 19.808C31.132 19.8733 31.048 19.906 30.9453 19.906H26.2973C26.2973 19.906 26.2973 19.92 26.2973 19.948C26.2973 19.976 26.2973 19.9993 26.2973 20.018C26.3067 20.3447 26.3673 20.648 26.4793 20.928C26.6007 21.1987 26.7733 21.418 26.9973 21.586C27.2307 21.754 27.506 21.838 27.8233 21.838C28.0847 21.838 28.304 21.8007 28.4813 21.726C28.6587 21.642 28.8033 21.5487 28.9153 21.446C29.0273 21.3433 29.1067 21.2593 29.1533 21.194C29.2373 21.082 29.3027 21.0167 29.3493 20.998C29.4053 20.97 29.4847 20.956 29.5873 20.956H30.7913C30.8847 20.956 30.9593 20.984 31.0153 21.04C31.0807 21.096 31.1087 21.166 31.0993 21.25C31.09 21.3993 31.0107 21.5813 30.8613 21.796C30.7213 22.0107 30.516 22.2207 30.2453 22.426C29.9747 22.6313 29.634 22.804 29.2233 22.944C28.822 23.0747 28.36 23.14 27.8373 23.14ZM26.2973 18.73H29.3913V18.688C29.3913 18.324 29.3307 18.0067 29.2093 17.736C29.088 17.456 28.9107 17.2413 28.6773 17.092C28.444 16.9333 28.164 16.854 27.8373 16.854C27.5107 16.854 27.2307 16.9333 26.9973 17.092C26.764 17.2413 26.5867 17.456 26.4653 17.736C26.3533 18.0067 26.2973 18.324 26.2973 18.688V18.73ZM35.9174 23.14C34.8814 23.14 34.0601 22.8413 33.4534 22.244C32.8468 21.6467 32.5201 20.7973 32.4734 19.696C32.4641 19.6027 32.4594 19.486 32.4594 19.346C32.4594 19.1967 32.4641 19.08 32.4734 18.996C32.5108 18.2867 32.6694 17.68 32.9494 17.176C33.2388 16.6627 33.6354 16.2707 34.1394 16C34.6434 15.72 35.2361 15.58 35.9174 15.58C36.6734 15.58 37.3081 15.7387 37.8214 16.056C38.3348 16.364 38.7221 16.798 38.9834 17.358C39.2448 17.9087 39.3754 18.548 39.3754 19.276V19.57C39.3754 19.6633 39.3428 19.7427 39.2774 19.808C39.2121 19.8733 39.1281 19.906 39.0254 19.906H34.3774C34.3774 19.906 34.3774 19.92 34.3774 19.948C34.3774 19.976 34.3774 19.9993 34.3774 20.018C34.3868 20.3447 34.4474 20.648 34.5594 20.928C34.6808 21.1987 34.8534 21.418 35.0774 21.586C35.3108 21.754 35.5861 21.838 35.9034 21.838C36.1648 21.838 36.3841 21.8007 36.5614 21.726C36.7388 21.642 36.8834 21.5487 36.9954 21.446C37.1074 21.3433 37.1868 21.2593 37.2334 21.194C37.3174 21.082 37.3828 21.0167 37.4294 20.998C37.4854 20.97 37.5648 20.956 37.6674 20.956H38.8714C38.9648 20.956 39.0394 20.984 39.0954 21.04C39.1608 21.096 39.1888 21.166 39.1794 21.25C39.1701 21.3993 39.0908 21.5813 38.9414 21.796C38.8014 22.0107 38.5961 22.2207 38.3254 22.426C38.0548 22.6313 37.7141 22.804 37.3034 22.944C36.9021 23.0747 36.4401 23.14 35.9174 23.14ZM34.3774 18.73H37.4714V18.688C37.4714 18.324 37.4108 18.0067 37.2894 17.736C37.1681 17.456 36.9908 17.2413 36.7574 17.092C36.5241 16.9333 36.2441 16.854 35.9174 16.854C35.5908 16.854 35.3108 16.9333 35.0774 17.092C34.8441 17.2413 34.6668 17.456 34.5454 17.736C34.4334 18.0067 34.3774 18.324 34.3774 18.688V18.73ZM41.2115 23C41.1182 23 41.0388 22.9673 40.9735 22.902C40.9082 22.8367 40.8755 22.7573 40.8755 22.664V13.396C40.8755 13.3027 40.9082 13.2233 40.9735 13.158C41.0388 13.0927 41.1182 13.06 41.2115 13.06H42.3455C42.4482 13.06 42.5275 13.0927 42.5835 13.158C42.6488 13.2233 42.6815 13.3027 42.6815 13.396V18.184L45.0335 15.958C45.1268 15.8833 45.2015 15.8273 45.2575 15.79C45.3228 15.7433 45.4208 15.72 45.5515 15.72H46.8535C46.9468 15.72 47.0215 15.748 47.0775 15.804C47.1335 15.86 47.1615 15.9347 47.1615 16.028C47.1615 16.0653 47.1522 16.1073 47.1335 16.154C47.1148 16.2007 47.0775 16.2427 47.0215 16.28L44.1375 18.982L47.3715 22.454C47.4648 22.5473 47.5115 22.6267 47.5115 22.692C47.5115 22.7853 47.4788 22.86 47.4135 22.916C47.3575 22.972 47.2875 23 47.2035 23H45.8735C45.7335 23 45.6308 22.9813 45.5655 22.944C45.5095 22.8973 45.4395 22.8367 45.3555 22.762L42.6815 19.948V22.664C42.6815 22.7573 42.6488 22.8367 42.5835 22.902C42.5275 22.9673 42.4482 23 42.3455 23H41.2115ZM48.9088 23C48.8154 23 48.7361 22.9673 48.6708 22.902C48.6054 22.8367 48.5728 22.7573 48.5728 22.664V13.396C48.5728 13.3027 48.6054 13.2233 48.6708 13.158C48.7361 13.0927 48.8154 13.06 48.9088 13.06H50.0708C50.1641 13.06 50.2434 13.0927 50.3088 13.158C50.3741 13.2233 50.4068 13.3027 50.4068 13.396V22.664C50.4068 22.7573 50.3741 22.8367 50.3088 22.902C50.2434 22.9673 50.1641 23 50.0708 23H48.9088ZM53.5798 25.66C53.5052 25.66 53.4398 25.632 53.3838 25.576C53.3278 25.52 53.2998 25.4547 53.2998 25.38C53.2998 25.3427 53.2998 25.3053 53.2998 25.268C53.3092 25.24 53.3278 25.2027 53.3558 25.156L54.4478 22.566L51.7598 16.224C51.7225 16.1307 51.7038 16.0653 51.7038 16.028C51.7132 15.944 51.7458 15.874 51.8018 15.818C51.8578 15.7527 51.9278 15.72 52.0118 15.72H53.1458C53.2578 15.72 53.3418 15.748 53.3978 15.804C53.4538 15.86 53.4958 15.9207 53.5238 15.986L55.3858 20.564L57.3038 15.986C57.3318 15.9113 57.3738 15.8507 57.4298 15.804C57.4858 15.748 57.5698 15.72 57.6818 15.72H58.8018C58.8765 15.72 58.9418 15.748 58.9978 15.804C59.0632 15.86 59.0958 15.9253 59.0958 16C59.0958 16.056 59.0772 16.1307 59.0398 16.224L55.0778 25.394C55.0405 25.4687 54.9938 25.5293 54.9378 25.576C54.8818 25.632 54.7978 25.66 54.6858 25.66H53.5798Z" fill="white"/>
<rect x="2.5" y="2.5" width="67" height="31" rx="15.5" stroke="white"/>
<rect x="70" y="2" width="68" height="32" rx="16" fill="white"/>
<path d="M82.4254 23C82.3227 23 82.2387 22.9673 82.1734 22.902C82.1081 22.8367 82.0754 22.7573 82.0754 22.664V13.55C82.0754 13.4473 82.1081 13.3633 82.1734 13.298C82.2387 13.2327 82.3227 13.2 82.4254 13.2H83.5314C83.6621 13.2 83.7601 13.2373 83.8254 13.312C83.8907 13.3773 83.9327 13.4287 83.9514 13.466L86.6534 18.506L89.3834 13.466C89.4021 13.4287 89.4441 13.3773 89.5094 13.312C89.5747 13.2373 89.6727 13.2 89.8034 13.2H90.8954C90.9981 13.2 91.0821 13.2327 91.1474 13.298C91.2127 13.3633 91.2454 13.4473 91.2454 13.55V22.664C91.2454 22.7573 91.2127 22.8367 91.1474 22.902C91.0821 22.9673 90.9981 23 90.8954 23H89.7194C89.6167 23 89.5327 22.9673 89.4674 22.902C89.4114 22.8367 89.3834 22.7573 89.3834 22.664V16.602L87.4234 20.34C87.3767 20.424 87.3161 20.4987 87.2414 20.564C87.1667 20.62 87.0687 20.648 86.9474 20.648H86.3734C86.2427 20.648 86.1401 20.62 86.0654 20.564C86.0001 20.4987 85.9441 20.424 85.8974 20.34L83.9374 16.602V22.664C83.9374 22.7573 83.9047 22.8367 83.8394 22.902C83.7741 22.9673 83.6947 23 83.6014 23H82.4254ZM96.4751 23.14C95.7284 23.14 95.0984 23.0093 94.5851 22.748C94.0811 22.4867 93.6937 22.118 93.4231 21.642C93.1617 21.166 93.0124 20.6107 92.9751 19.976C92.9657 19.808 92.9611 19.6027 92.9611 19.36C92.9611 19.1173 92.9657 18.912 92.9751 18.744C93.0124 18.1 93.1664 17.5447 93.4371 17.078C93.7171 16.602 94.1091 16.2333 94.6131 15.972C95.1264 15.7107 95.7471 15.58 96.4751 15.58C97.2031 15.58 97.8191 15.7107 98.3231 15.972C98.8364 16.2333 99.2284 16.602 99.4991 17.078C99.7791 17.5447 99.9377 18.1 99.9751 18.744C99.9844 18.912 99.9891 19.1173 99.9891 19.36C99.9891 19.6027 99.9844 19.808 99.9751 19.976C99.9377 20.6107 99.7837 21.166 99.5131 21.642C99.2517 22.118 98.8644 22.4867 98.3511 22.748C97.8471 23.0093 97.2217 23.14 96.4751 23.14ZM96.4751 21.754C96.9697 21.754 97.3524 21.6 97.6231 21.292C97.8937 20.9747 98.0431 20.5127 98.0711 19.906C98.0804 19.766 98.0851 19.584 98.0851 19.36C98.0851 19.136 98.0804 18.954 98.0711 18.814C98.0431 18.2073 97.8937 17.75 97.6231 17.442C97.3524 17.1247 96.9697 16.966 96.4751 16.966C95.9804 16.966 95.5977 17.1247 95.3271 17.442C95.0564 17.75 94.9071 18.2073 94.8791 18.814C94.8697 18.954 94.8651 19.136 94.8651 19.36C94.8651 19.584 94.8697 19.766 94.8791 19.906C94.9071 20.5127 95.0564 20.9747 95.3271 21.292C95.5977 21.6 95.9804 21.754 96.4751 21.754ZM101.876 23C101.783 23 101.704 22.9673 101.638 22.902C101.573 22.8367 101.54 22.7573 101.54 22.664V16.056C101.54 15.9627 101.573 15.8833 101.638 15.818C101.704 15.7527 101.783 15.72 101.876 15.72H103.024C103.118 15.72 103.197 15.7527 103.262 15.818C103.328 15.8833 103.36 15.9627 103.36 16.056V16.63C103.603 16.3313 103.911 16.084 104.284 15.888C104.667 15.6827 105.138 15.58 105.698 15.58C106.268 15.58 106.762 15.7107 107.182 15.972C107.602 16.224 107.924 16.5833 108.148 17.05C108.382 17.5167 108.498 18.0767 108.498 18.73V22.664C108.498 22.7573 108.466 22.8367 108.4 22.902C108.335 22.9673 108.256 23 108.162 23H106.93C106.837 23 106.758 22.9673 106.692 22.902C106.627 22.8367 106.594 22.7573 106.594 22.664V18.814C106.594 18.2727 106.459 17.848 106.188 17.54C105.927 17.232 105.544 17.078 105.04 17.078C104.555 17.078 104.168 17.232 103.878 17.54C103.589 17.848 103.444 18.2727 103.444 18.814V22.664C103.444 22.7573 103.412 22.8367 103.346 22.902C103.281 22.9673 103.202 23 103.108 23H101.876ZM113.485 23C112.925 23 112.453 22.902 112.071 22.706C111.688 22.51 111.403 22.2207 111.217 21.838C111.03 21.446 110.937 20.9607 110.937 20.382V17.204H109.831C109.737 17.204 109.658 17.1713 109.593 17.106C109.527 17.0407 109.495 16.9567 109.495 16.854V16.056C109.495 15.9627 109.527 15.8833 109.593 15.818C109.658 15.7527 109.737 15.72 109.831 15.72H110.937V13.396C110.937 13.3027 110.965 13.2233 111.021 13.158C111.086 13.0927 111.17 13.06 111.273 13.06H112.407C112.5 13.06 112.579 13.0927 112.645 13.158C112.71 13.2233 112.743 13.3027 112.743 13.396V15.72H114.493C114.586 15.72 114.665 15.7527 114.731 15.818C114.796 15.8833 114.829 15.9627 114.829 16.056V16.854C114.829 16.9567 114.796 17.0407 114.731 17.106C114.665 17.1713 114.586 17.204 114.493 17.204H112.743V20.242C112.743 20.6247 112.808 20.9233 112.939 21.138C113.079 21.3527 113.317 21.46 113.653 21.46H114.619C114.712 21.46 114.791 21.4927 114.857 21.558C114.922 21.6233 114.955 21.7027 114.955 21.796V22.664C114.955 22.7573 114.922 22.8367 114.857 22.902C114.791 22.9673 114.712 23 114.619 23H113.485ZM116.546 23C116.453 23 116.374 22.9673 116.308 22.902C116.243 22.8367 116.21 22.7573 116.21 22.664V13.396C116.21 13.3027 116.243 13.2233 116.308 13.158C116.374 13.0927 116.453 13.06 116.546 13.06H117.708C117.802 13.06 117.881 13.0927 117.946 13.158C118.012 13.2233 118.044 13.3027 118.044 13.396V22.664C118.044 22.7573 118.012 22.8367 117.946 22.902C117.881 22.9673 117.802 23 117.708 23H116.546ZM121.218 25.66C121.143 25.66 121.078 25.632 121.022 25.576C120.966 25.52 120.938 25.4547 120.938 25.38C120.938 25.3427 120.938 25.3053 120.938 25.268C120.947 25.24 120.966 25.2027 120.994 25.156L122.086 22.566L119.398 16.224C119.36 16.1307 119.342 16.0653 119.342 16.028C119.351 15.944 119.384 15.874 119.44 15.818C119.496 15.7527 119.566 15.72 119.65 15.72H120.784C120.896 15.72 120.98 15.748 121.036 15.804C121.092 15.86 121.134 15.9207 121.162 15.986L123.024 20.564L124.942 15.986C124.97 15.9113 125.012 15.8507 125.068 15.804C125.124 15.748 125.208 15.72 125.32 15.72H126.44C126.514 15.72 126.58 15.748 126.636 15.804C126.701 15.86 126.734 15.9253 126.734 16C126.734 16.056 126.715 16.1307 126.678 16.224L122.716 25.394C122.678 25.4687 122.632 25.5293 122.576 25.576C122.52 25.632 122.436 25.66 122.324 25.66H121.218Z" fill="white"/>
<rect x="138" y="2" width="68" height="32" rx="16" fill="white"/>
<path d="M159.021 23C158.927 23 158.848 22.9673 158.783 22.902C158.717 22.8367 158.685 22.7573 158.685 22.664V14.922H156.095C156.001 14.922 155.922 14.8893 155.857 14.824C155.791 14.7587 155.759 14.6793 155.759 14.586V13.55C155.759 13.4473 155.791 13.3633 155.857 13.298C155.922 13.2327 156.001 13.2 156.095 13.2H163.235C163.337 13.2 163.421 13.2327 163.487 13.298C163.552 13.3633 163.585 13.4473 163.585 13.55V14.586C163.585 14.6793 163.552 14.7587 163.487 14.824C163.421 14.8893 163.337 14.922 163.235 14.922H160.659V22.664C160.659 22.7573 160.626 22.8367 160.561 22.902C160.495 22.9673 160.411 23 160.309 23H159.021ZM166.772 23.14C166.025 23.14 165.395 23.0093 164.882 22.748C164.378 22.4867 163.991 22.118 163.72 21.642C163.459 21.166 163.309 20.6107 163.272 19.976C163.263 19.808 163.258 19.6027 163.258 19.36C163.258 19.1173 163.263 18.912 163.272 18.744C163.309 18.1 163.463 17.5447 163.734 17.078C164.014 16.602 164.406 16.2333 164.91 15.972C165.423 15.7107 166.044 15.58 166.772 15.58C167.5 15.58 168.116 15.7107 168.62 15.972C169.133 16.2333 169.525 16.602 169.796 17.078C170.076 17.5447 170.235 18.1 170.272 18.744C170.281 18.912 170.286 19.1173 170.286 19.36C170.286 19.6027 170.281 19.808 170.272 19.976C170.235 20.6107 170.081 21.166 169.81 21.642C169.549 22.118 169.161 22.4867 168.648 22.748C168.144 23.0093 167.519 23.14 166.772 23.14ZM166.772 21.754C167.267 21.754 167.649 21.6 167.92 21.292C168.191 20.9747 168.34 20.5127 168.368 19.906C168.377 19.766 168.382 19.584 168.382 19.36C168.382 19.136 168.377 18.954 168.368 18.814C168.34 18.2073 168.191 17.75 167.92 17.442C167.649 17.1247 167.267 16.966 166.772 16.966C166.277 16.966 165.895 17.1247 165.624 17.442C165.353 17.75 165.204 18.2073 165.176 18.814C165.167 18.954 165.162 19.136 165.162 19.36C165.162 19.584 165.167 19.766 165.176 19.906C165.204 20.5127 165.353 20.9747 165.624 21.292C165.895 21.6 166.277 21.754 166.772 21.754ZM175.072 23C174.512 23 174.041 22.902 173.658 22.706C173.276 22.51 172.991 22.2207 172.804 21.838C172.618 21.446 172.524 20.9607 172.524 20.382V17.204H171.418C171.325 17.204 171.246 17.1713 171.18 17.106C171.115 17.0407 171.082 16.9567 171.082 16.854V16.056C171.082 15.9627 171.115 15.8833 171.18 15.818C171.246 15.7527 171.325 15.72 171.418 15.72H172.524V13.396C172.524 13.3027 172.552 13.2233 172.608 13.158C172.674 13.0927 172.758 13.06 172.86 13.06H173.994C174.088 13.06 174.167 13.0927 174.232 13.158C174.298 13.2233 174.33 13.3027 174.33 13.396V15.72H176.08C176.174 15.72 176.253 15.7527 176.318 15.818C176.384 15.8833 176.416 15.9627 176.416 16.056V16.854C176.416 16.9567 176.384 17.0407 176.318 17.106C176.253 17.1713 176.174 17.204 176.08 17.204H174.33V20.242C174.33 20.6247 174.396 20.9233 174.526 21.138C174.666 21.3527 174.904 21.46 175.24 21.46H176.206C176.3 21.46 176.379 21.4927 176.444 21.558C176.51 21.6233 176.542 21.7027 176.542 21.796V22.664C176.542 22.7573 176.51 22.8367 176.444 22.902C176.379 22.9673 176.3 23 176.206 23H175.072ZM179.898 23.14C179.413 23.14 178.974 23.0467 178.582 22.86C178.19 22.664 177.878 22.4073 177.644 22.09C177.42 21.7633 177.308 21.3993 177.308 20.998C177.308 20.3447 177.574 19.8267 178.106 19.444C178.638 19.052 179.334 18.7907 180.192 18.66L182.11 18.38V18.086C182.11 17.694 182.012 17.3907 181.816 17.176C181.62 16.9613 181.284 16.854 180.808 16.854C180.472 16.854 180.197 16.924 179.982 17.064C179.777 17.1947 179.623 17.372 179.52 17.596C179.446 17.7173 179.338 17.778 179.198 17.778H178.092C177.99 17.778 177.91 17.75 177.854 17.694C177.808 17.638 177.784 17.5633 177.784 17.47C177.794 17.3207 177.854 17.1387 177.966 16.924C178.088 16.7093 178.265 16.504 178.498 16.308C178.741 16.1027 179.054 15.93 179.436 15.79C179.819 15.65 180.281 15.58 180.822 15.58C181.41 15.58 181.905 15.6547 182.306 15.804C182.717 15.944 183.044 16.1353 183.286 16.378C183.529 16.6207 183.706 16.9053 183.818 17.232C183.93 17.5587 183.986 17.904 183.986 18.268V22.664C183.986 22.7573 183.954 22.8367 183.888 22.902C183.823 22.9673 183.744 23 183.65 23H182.516C182.414 23 182.33 22.9673 182.264 22.902C182.208 22.8367 182.18 22.7573 182.18 22.664V22.118C182.059 22.286 181.896 22.4493 181.69 22.608C181.485 22.7667 181.233 22.8973 180.934 23C180.645 23.0933 180.3 23.14 179.898 23.14ZM180.374 21.81C180.701 21.81 180.995 21.74 181.256 21.6C181.527 21.46 181.737 21.2453 181.886 20.956C182.045 20.6573 182.124 20.284 182.124 19.836V19.542L180.724 19.766C180.174 19.85 179.763 19.9853 179.492 20.172C179.222 20.3587 179.086 20.5873 179.086 20.858C179.086 21.0633 179.147 21.2407 179.268 21.39C179.399 21.53 179.562 21.6373 179.758 21.712C179.954 21.7773 180.16 21.81 180.374 21.81ZM186.132 23C186.039 23 185.96 22.9673 185.894 22.902C185.829 22.8367 185.796 22.7573 185.796 22.664V13.396C185.796 13.3027 185.829 13.2233 185.894 13.158C185.96 13.0927 186.039 13.06 186.132 13.06H187.294C187.388 13.06 187.467 13.0927 187.532 13.158C187.598 13.2233 187.63 13.3027 187.63 13.396V22.664C187.63 22.7573 187.598 22.8367 187.532 22.902C187.467 22.9673 187.388 23 187.294 23H186.132Z" fill="white"/>
</svg>
