<svg width="100" height="124" viewBox="0 0 100 124" fill="none" xmlns="http://www.w3.org/2000/svg">
<path fill-rule="evenodd" clip-rule="evenodd" d="M0 12C0 5.37259 5.37258 0 12 0H88C94.6274 0 100 5.37258 100 12V112C100 118.627 94.6274 124 88 124H12C5.37258 124 0 118.627 0 112V12ZM1 12C1 5.92487 5.92487 1 12 1H88C94.0751 1 99 5.92487 99 12V108C99 114.075 94.0751 119 88 119H12C5.92487 119 1 114.075 1 108V12ZM98.9651 112.882C98.5157 118.545 93.7781 123 88 123H12C6.22189 123 1.48433 118.545 1.03488 112.882C2.90519 117.077 7.11119 120 12 120H88C92.8888 120 97.0948 117.077 98.9651 112.882Z" fill="#131313"/>
</svg>
