<svg width="26" height="22" viewBox="0 0 26 22" fill="none" xmlns="http://www.w3.org/2000/svg">
<path d="M22.834 2.6662C22.2268 2.05871 21.5059 1.5768 20.7124 1.24802C19.9189 0.919228 19.0684 0.75 18.2095 0.75C17.3505 0.75 16.5 0.919228 15.7065 1.24802C14.913 1.5768 14.1921 2.05871 13.5849 2.6662L12.9997 3.25137L12.4144 2.66608C11.1879 1.43959 9.52448 0.750563 7.78997 0.750563C6.05546 0.750563 4.39199 1.43959 3.16551 2.66608C1.93903 3.89256 1.25 5.55602 1.25 7.29053C1.25 9.02504 1.93903 10.6885 3.16551 11.915L4.28114 13.0306L11.7623 20.5118C12.4457 21.1952 13.5537 21.1952 14.2372 20.5118L21.7183 13.0306L22.8338 11.9151C22.8338 11.9151 22.8339 11.915 22.8339 11.915C23.4414 11.3078 23.9232 10.5869 24.252 9.79346C24.5808 8.99996 24.75 8.14945 24.75 7.29053C24.75 6.43161 24.5808 5.5811 24.252 4.78761C23.9232 3.99421 23.4414 3.27335 22.834 2.6662Z" fill="#FF007A" stroke="#131313" stroke-width="1.5" stroke-linecap="round" stroke-linejoin="round"/>
</svg>
