<svg width="164" height="164" viewBox="0 0 164 164" fill="none" xmlns="http://www.w3.org/2000/svg">
<rect width="164" height="164" rx="32" fill="url(#paint0_linear_454_4596)"/>
<path d="M25.1026 90C24.9426 90 24.7986 89.944 24.6706 89.832C24.5586 89.72 24.5026 89.576 24.5026 89.4V73.8C24.5026 73.624 24.5586 73.48 24.6706 73.368C24.7986 73.256 24.9426 73.2 25.1026 73.2H27.3346C27.5746 73.2 27.7506 73.264 27.8626 73.392C27.9906 73.52 28.0786 73.616 28.1266 73.68L32.5426 81.816L37.0066 73.68C37.0386 73.616 37.1106 73.52 37.2226 73.392C37.3506 73.264 37.5346 73.2 37.7746 73.2H40.0066C40.1826 73.2 40.3266 73.256 40.4386 73.368C40.5506 73.48 40.6066 73.624 40.6066 73.8V89.4C40.6066 89.576 40.5506 89.72 40.4386 89.832C40.3266 89.944 40.1826 90 40.0066 90H37.5586C37.3986 90 37.2626 89.944 37.1506 89.832C37.0386 89.72 36.9826 89.576 36.9826 89.4V79.704L33.9346 85.416C33.8546 85.56 33.7506 85.688 33.6226 85.8C33.4946 85.912 33.3266 85.968 33.1186 85.968H31.9906C31.7826 85.968 31.6146 85.912 31.4866 85.8C31.3586 85.688 31.2546 85.56 31.1746 85.416L28.1266 79.704V89.4C28.1266 89.576 28.0706 89.72 27.9586 89.832C27.8466 89.944 27.7106 90 27.5506 90H25.1026ZM49.4706 90.24C47.6306 90.24 46.1666 89.728 45.0786 88.704C44.0066 87.68 43.4386 86.192 43.3746 84.24C43.3746 84.112 43.3746 83.944 43.3746 83.736C43.3746 83.512 43.3746 83.336 43.3746 83.208C43.4386 81.976 43.7186 80.92 44.2146 80.04C44.7106 79.144 45.4066 78.464 46.3026 78C47.1986 77.52 48.2466 77.28 49.4466 77.28C50.7906 77.28 51.9106 77.56 52.8066 78.12C53.7186 78.664 54.3986 79.416 54.8466 80.376C55.3106 81.32 55.5426 82.408 55.5426 83.64V84.192C55.5426 84.352 55.4786 84.488 55.3506 84.6C55.2386 84.712 55.1026 84.768 54.9426 84.768H47.0946C47.0946 84.784 47.0946 84.816 47.0946 84.864C47.0946 84.896 47.0946 84.928 47.0946 84.96C47.1106 85.472 47.2066 85.944 47.3826 86.376C47.5746 86.792 47.8386 87.128 48.1746 87.384C48.5266 87.64 48.9426 87.768 49.4226 87.768C49.8226 87.768 50.1506 87.712 50.4066 87.6C50.6626 87.488 50.8706 87.352 51.0306 87.192C51.2066 87.032 51.3346 86.896 51.4146 86.784C51.5586 86.624 51.6706 86.528 51.7506 86.496C51.8466 86.448 51.9906 86.424 52.1826 86.424H54.6786C54.8386 86.424 54.9666 86.472 55.0626 86.568C55.1746 86.648 55.2226 86.768 55.2066 86.928C55.1906 87.184 55.0546 87.504 54.7986 87.888C54.5586 88.256 54.1986 88.624 53.7186 88.992C53.2386 89.344 52.6386 89.64 51.9186 89.88C51.2146 90.12 50.3986 90.24 49.4706 90.24ZM47.0946 82.584H51.7986V82.536C51.7986 81.96 51.7026 81.464 51.5106 81.048C51.3346 80.616 51.0706 80.28 50.7186 80.04C50.3666 79.8 49.9426 79.68 49.4466 79.68C48.9506 79.68 48.5266 79.8 48.1746 80.04C47.8226 80.28 47.5506 80.616 47.3586 81.048C47.1826 81.464 47.0946 81.96 47.0946 82.536V82.584ZM63.8948 90C62.9028 90 62.0548 89.84 61.3508 89.52C60.6468 89.184 60.1108 88.672 59.7428 87.984C59.3908 87.296 59.2148 86.432 59.2148 85.392V80.352H57.3428C57.1668 80.352 57.0228 80.296 56.9108 80.184C56.7988 80.072 56.7428 79.928 56.7428 79.752V78.12C56.7428 77.944 56.7988 77.8 56.9108 77.688C57.0228 77.576 57.1668 77.52 57.3428 77.52H59.2148V73.56C59.2148 73.384 59.2708 73.24 59.3828 73.128C59.5108 73.016 59.6548 72.96 59.8148 72.96H62.1668C62.3428 72.96 62.4868 73.016 62.5988 73.128C62.7108 73.24 62.7668 73.384 62.7668 73.56V77.52H65.7668C65.9268 77.52 66.0628 77.576 66.1748 77.688C66.2868 77.8 66.3428 77.944 66.3428 78.12V79.752C66.3428 79.928 66.2868 80.072 66.1748 80.184C66.0628 80.296 65.9268 80.352 65.7668 80.352H62.7668V85.104C62.7668 85.712 62.8708 86.192 63.0788 86.544C63.3028 86.88 63.6868 87.048 64.2308 87.048H65.9828C66.1428 87.048 66.2788 87.104 66.3908 87.216C66.5028 87.328 66.5588 87.464 66.5588 87.624V89.4C66.5588 89.576 66.5028 89.72 66.3908 89.832C66.2788 89.944 66.1428 90 65.9828 90H63.8948ZM72.3246 90.24C71.4766 90.24 70.7166 90.08 70.0446 89.76C69.3726 89.424 68.8366 88.976 68.4366 88.416C68.0366 87.856 67.8366 87.232 67.8366 86.544C67.8366 85.408 68.2926 84.512 69.2046 83.856C70.1326 83.2 71.3486 82.752 72.8526 82.512L75.9966 82.056V81.624C75.9966 81 75.8526 80.52 75.5646 80.184C75.2766 79.848 74.7726 79.68 74.0526 79.68C73.5246 79.68 73.1006 79.784 72.7806 79.992C72.4606 80.2 72.2126 80.472 72.0366 80.808C71.9086 81.016 71.7246 81.12 71.4846 81.12H69.2046C69.0286 81.12 68.8926 81.072 68.7966 80.976C68.7006 80.864 68.6606 80.736 68.6766 80.592C68.6766 80.32 68.7806 80 68.9886 79.632C69.1966 79.264 69.5166 78.904 69.9486 78.552C70.3806 78.184 70.9326 77.88 71.6046 77.64C72.2766 77.4 73.1006 77.28 74.0766 77.28C75.0846 77.28 75.9486 77.4 76.6686 77.64C77.3886 77.88 77.9646 78.216 78.3966 78.648C78.8286 79.08 79.1486 79.584 79.3566 80.16C79.5646 80.72 79.6686 81.328 79.6686 81.984V89.4C79.6686 89.576 79.6126 89.72 79.5006 89.832C79.3886 89.944 79.2446 90 79.0686 90H76.7166C76.5566 90 76.4206 89.944 76.3086 89.832C76.1966 89.72 76.1406 89.576 76.1406 89.4V88.512C75.9326 88.816 75.6526 89.104 75.3006 89.376C74.9486 89.632 74.5246 89.84 74.0286 90C73.5486 90.16 72.9806 90.24 72.3246 90.24ZM73.2846 87.744C73.8126 87.744 74.2846 87.632 74.7006 87.408C75.1166 87.184 75.4446 86.84 75.6846 86.376C75.9246 85.912 76.0446 85.328 76.0446 84.624V84.216L73.8126 84.576C72.9486 84.72 72.3166 84.936 71.9166 85.224C71.5166 85.512 71.3166 85.864 71.3166 86.28C71.3166 86.584 71.4046 86.848 71.5806 87.072C71.7726 87.296 72.0206 87.464 72.3246 87.576C72.6286 87.688 72.9486 87.744 73.2846 87.744ZM83.4385 90C83.2785 90 83.1345 89.944 83.0065 89.832C82.8945 89.72 82.8385 89.576 82.8385 89.4V73.8C82.8385 73.624 82.8945 73.48 83.0065 73.368C83.1345 73.256 83.2785 73.2 83.4385 73.2H85.6705C85.9105 73.2 86.0865 73.264 86.1985 73.392C86.3265 73.52 86.4145 73.616 86.4625 73.68L90.8785 81.816L95.3425 73.68C95.3745 73.616 95.4465 73.52 95.5585 73.392C95.6865 73.264 95.8705 73.2 96.1105 73.2H98.3425C98.5185 73.2 98.6625 73.256 98.7745 73.368C98.8865 73.48 98.9425 73.624 98.9425 73.8V89.4C98.9425 89.576 98.8865 89.72 98.7745 89.832C98.6625 89.944 98.5185 90 98.3425 90H95.8945C95.7345 90 95.5985 89.944 95.4865 89.832C95.3745 89.72 95.3185 89.576 95.3185 89.4V79.704L92.2705 85.416C92.1905 85.56 92.0865 85.688 91.9585 85.8C91.8305 85.912 91.6625 85.968 91.4545 85.968H90.3265C90.1185 85.968 89.9505 85.912 89.8225 85.8C89.6945 85.688 89.5905 85.56 89.5105 85.416L86.4625 79.704V89.4C86.4625 89.576 86.4065 89.72 86.2945 89.832C86.1825 89.944 86.0465 90 85.8865 90H83.4385ZM105.911 90.24C105.063 90.24 104.303 90.08 103.631 89.76C102.959 89.424 102.423 88.976 102.023 88.416C101.623 87.856 101.423 87.232 101.423 86.544C101.423 85.408 101.879 84.512 102.791 83.856C103.719 83.2 104.935 82.752 106.439 82.512L109.583 82.056V81.624C109.583 81 109.439 80.52 109.151 80.184C108.863 79.848 108.359 79.68 107.639 79.68C107.111 79.68 106.687 79.784 106.367 79.992C106.047 80.2 105.799 80.472 105.623 80.808C105.495 81.016 105.311 81.12 105.071 81.12H102.791C102.615 81.12 102.479 81.072 102.383 80.976C102.287 80.864 102.247 80.736 102.263 80.592C102.263 80.32 102.367 80 102.575 79.632C102.783 79.264 103.103 78.904 103.535 78.552C103.967 78.184 104.519 77.88 105.191 77.64C105.863 77.4 106.687 77.28 107.663 77.28C108.671 77.28 109.535 77.4 110.255 77.64C110.975 77.88 111.551 78.216 111.983 78.648C112.415 79.08 112.735 79.584 112.943 80.16C113.151 80.72 113.255 81.328 113.255 81.984V89.4C113.255 89.576 113.199 89.72 113.087 89.832C112.975 89.944 112.831 90 112.655 90H110.303C110.143 90 110.007 89.944 109.895 89.832C109.783 89.72 109.727 89.576 109.727 89.4V88.512C109.519 88.816 109.239 89.104 108.887 89.376C108.535 89.632 108.111 89.84 107.615 90C107.135 90.16 106.567 90.24 105.911 90.24ZM106.871 87.744C107.399 87.744 107.871 87.632 108.287 87.408C108.703 87.184 109.031 86.84 109.271 86.376C109.511 85.912 109.631 85.328 109.631 84.624V84.216L107.399 84.576C106.535 84.72 105.903 84.936 105.503 85.224C105.103 85.512 104.903 85.864 104.903 86.28C104.903 86.584 104.991 86.848 105.167 87.072C105.359 87.296 105.607 87.464 105.911 87.576C106.215 87.688 106.535 87.744 106.871 87.744ZM121.08 90.24C120.088 90.24 119.232 90.128 118.512 89.904C117.808 89.664 117.232 89.376 116.784 89.04C116.352 88.704 116.024 88.368 115.8 88.032C115.592 87.68 115.48 87.384 115.464 87.144C115.448 86.968 115.504 86.824 115.632 86.712C115.76 86.6 115.888 86.544 116.016 86.544H118.344C118.392 86.544 118.44 86.552 118.488 86.568C118.536 86.584 118.584 86.624 118.632 86.688C118.84 86.832 119.056 87 119.28 87.192C119.504 87.368 119.76 87.52 120.048 87.648C120.352 87.776 120.728 87.84 121.176 87.84C121.704 87.84 122.152 87.736 122.52 87.528C122.888 87.304 123.072 86.992 123.072 86.592C123.072 86.304 122.984 86.064 122.808 85.872C122.648 85.68 122.336 85.504 121.872 85.344C121.408 85.184 120.72 85.008 119.808 84.816C118.944 84.624 118.208 84.368 117.6 84.048C116.992 83.728 116.536 83.328 116.232 82.848C115.928 82.352 115.776 81.76 115.776 81.072C115.776 80.448 115.968 79.848 116.352 79.272C116.752 78.696 117.336 78.224 118.104 77.856C118.872 77.472 119.832 77.28 120.984 77.28C121.864 77.28 122.632 77.392 123.288 77.616C123.96 77.824 124.52 78.096 124.968 78.432C125.416 78.752 125.752 79.088 125.976 79.44C126.216 79.776 126.344 80.072 126.36 80.328C126.376 80.488 126.328 80.624 126.216 80.736C126.104 80.848 125.976 80.904 125.832 80.904H123.696C123.616 80.904 123.544 80.896 123.48 80.88C123.416 80.848 123.36 80.808 123.312 80.76C123.12 80.632 122.92 80.488 122.712 80.328C122.52 80.152 122.288 80 122.016 79.872C121.744 79.744 121.392 79.68 120.96 79.68C120.432 79.68 120.024 79.8 119.736 80.04C119.464 80.264 119.328 80.552 119.328 80.904C119.328 81.128 119.4 81.336 119.544 81.528C119.688 81.72 119.984 81.896 120.432 82.056C120.88 82.216 121.56 82.384 122.472 82.56C123.56 82.752 124.424 83.04 125.064 83.424C125.704 83.808 126.16 84.256 126.432 84.768C126.72 85.264 126.864 85.8 126.864 86.376C126.864 87.128 126.64 87.8 126.192 88.392C125.744 88.968 125.088 89.424 124.224 89.76C123.376 90.08 122.328 90.24 121.08 90.24ZM129.768 90C129.592 90 129.448 89.944 129.336 89.832C129.224 89.72 129.168 89.576 129.168 89.4V73.56C129.168 73.384 129.224 73.24 129.336 73.128C129.448 73.016 129.592 72.96 129.768 72.96H132.12C132.28 72.96 132.416 73.016 132.528 73.128C132.64 73.24 132.696 73.384 132.696 73.56V81.672L136.392 77.928C136.52 77.816 136.632 77.72 136.728 77.64C136.84 77.56 137.008 77.52 137.232 77.52H139.944C140.104 77.52 140.232 77.576 140.328 77.688C140.424 77.784 140.472 77.904 140.472 78.048C140.472 78.112 140.456 78.184 140.424 78.264C140.392 78.344 140.336 78.408 140.256 78.456L135.624 83.112L140.856 89.088C141 89.216 141.072 89.344 141.072 89.472C141.072 89.616 141.016 89.744 140.904 89.856C140.808 89.952 140.688 90 140.544 90H137.76C137.52 90 137.344 89.96 137.232 89.88C137.136 89.8 137.024 89.704 136.896 89.592L132.696 84.888V89.4C132.696 89.576 132.64 89.72 132.528 89.832C132.416 89.944 132.28 90 132.12 90H129.768Z" fill="white"/>
<defs>
<linearGradient id="paint0_linear_454_4596" x1="164" y1="82" x2="-6.23416e-09" y2="82" gradientUnits="userSpaceOnUse">
<stop stop-color="#FFD021"/>
<stop offset="1" stop-color="#FF5F01"/>
</linearGradient>
</defs>
</svg>
