<svg width="280" height="64" viewBox="0 0 280 64" fill="none" xmlns="http://www.w3.org/2000/svg">
<rect width="280" height="64" rx="32" fill="#F6F6F6"/>
<path d="M116.707 39C116.56 39 116.44 38.9533 116.347 38.86C116.253 38.7667 116.207 38.6467 116.207 38.5V25.5C116.207 25.3533 116.253 25.2333 116.347 25.14C116.44 25.0467 116.56 25 116.707 25H121.727C123.06 25 124.173 25.2133 125.067 25.64C125.96 26.0533 126.64 26.6667 127.107 27.48C127.587 28.28 127.84 29.2733 127.867 30.46C127.88 31.0467 127.887 31.56 127.887 32C127.887 32.44 127.88 32.9467 127.867 33.52C127.827 34.76 127.58 35.7867 127.127 36.6C126.673 37.4133 126.007 38.02 125.127 38.42C124.247 38.8067 123.147 39 121.827 39H116.707ZM119.387 36.42H121.727C122.393 36.42 122.94 36.32 123.367 36.12C123.793 35.92 124.107 35.6067 124.307 35.18C124.52 34.74 124.633 34.1733 124.647 33.48C124.66 33.0933 124.667 32.7467 124.667 32.44C124.68 32.1333 124.68 31.8267 124.667 31.52C124.667 31.2133 124.66 30.8733 124.647 30.5C124.62 29.5 124.36 28.7667 123.867 28.3C123.387 27.82 122.64 27.58 121.627 27.58H119.387V36.42ZM134.926 39.2C133.82 39.2 132.893 39.02 132.146 38.66C131.4 38.2867 130.826 37.76 130.426 37.08C130.04 36.4 129.826 35.6067 129.786 34.7C129.773 34.4333 129.766 34.1333 129.766 33.8C129.766 33.4533 129.773 33.1533 129.786 32.9C129.826 31.98 130.053 31.1867 130.466 30.52C130.88 29.84 131.46 29.32 132.206 28.96C132.953 28.5867 133.86 28.4 134.926 28.4C135.98 28.4 136.88 28.5867 137.626 28.96C138.373 29.32 138.953 29.84 139.366 30.52C139.78 31.1867 140.006 31.98 140.046 32.9C140.073 33.1533 140.086 33.4533 140.086 33.8C140.086 34.1333 140.073 34.4333 140.046 34.7C140.006 35.6067 139.786 36.4 139.386 37.08C139 37.76 138.433 38.2867 137.686 38.66C136.94 39.02 136.02 39.2 134.926 39.2ZM134.926 37C135.58 37 136.073 36.8 136.406 36.4C136.74 35.9867 136.92 35.3867 136.946 34.6C136.96 34.4 136.966 34.1333 136.966 33.8C136.966 33.4667 136.96 33.2 136.946 33C136.92 32.2267 136.74 31.6333 136.406 31.22C136.073 30.8067 135.58 30.6 134.926 30.6C134.273 30.6 133.773 30.8067 133.426 31.22C133.093 31.6333 132.913 32.2267 132.886 33C132.873 33.2 132.866 33.4667 132.866 33.8C132.866 34.1333 132.873 34.4 132.886 34.6C132.913 35.3867 133.093 35.9867 133.426 36.4C133.773 36.8 134.273 37 134.926 37ZM142.658 39C142.525 39 142.411 38.9533 142.318 38.86C142.225 38.7667 142.178 38.6467 142.178 38.5V29.1C142.178 28.9533 142.225 28.8333 142.318 28.74C142.411 28.6467 142.525 28.6 142.658 28.6H144.618C144.765 28.6 144.885 28.6467 144.978 28.74C145.071 28.8333 145.118 28.9533 145.118 29.1V29.88C145.465 29.4533 145.911 29.1 146.458 28.82C147.005 28.54 147.671 28.4 148.458 28.4C149.245 28.4 149.931 28.58 150.518 28.94C151.118 29.2867 151.585 29.8 151.918 30.48C152.265 31.1467 152.438 31.96 152.438 32.92V38.5C152.438 38.6467 152.385 38.7667 152.278 38.86C152.185 38.9533 152.071 39 151.938 39H149.818C149.671 39 149.551 38.9533 149.458 38.86C149.365 38.7667 149.318 38.6467 149.318 38.5V33.04C149.318 32.3333 149.145 31.7867 148.798 31.4C148.465 31 147.971 30.8 147.318 30.8C146.691 30.8 146.191 31 145.818 31.4C145.445 31.7867 145.258 32.3333 145.258 33.04V38.5C145.258 38.6467 145.211 38.7667 145.118 38.86C145.025 38.9533 144.911 39 144.778 39H142.658ZM159.474 39.2C157.941 39.2 156.721 38.7733 155.814 37.92C154.921 37.0667 154.448 35.8267 154.394 34.2C154.394 34.0933 154.394 33.9533 154.394 33.78C154.394 33.5933 154.394 33.4467 154.394 33.34C154.448 32.3133 154.681 31.4333 155.094 30.7C155.508 29.9533 156.088 29.3867 156.834 29C157.581 28.6 158.454 28.4 159.454 28.4C160.574 28.4 161.508 28.6333 162.254 29.1C163.014 29.5533 163.581 30.18 163.954 30.98C164.341 31.7667 164.534 32.6733 164.534 33.7V34.16C164.534 34.2933 164.481 34.4067 164.374 34.5C164.281 34.5933 164.168 34.64 164.034 34.64H157.494C157.494 34.6533 157.494 34.68 157.494 34.72C157.494 34.7467 157.494 34.7733 157.494 34.8C157.508 35.2267 157.588 35.62 157.734 35.98C157.894 36.3267 158.114 36.6067 158.394 36.82C158.688 37.0333 159.034 37.14 159.434 37.14C159.768 37.14 160.041 37.0933 160.254 37C160.468 36.9067 160.641 36.7933 160.774 36.66C160.921 36.5267 161.028 36.4133 161.094 36.32C161.214 36.1867 161.308 36.1067 161.374 36.08C161.454 36.04 161.574 36.02 161.734 36.02H163.814C163.948 36.02 164.054 36.06 164.134 36.14C164.228 36.2067 164.268 36.3067 164.254 36.44C164.241 36.6533 164.128 36.92 163.914 37.24C163.714 37.5467 163.414 37.8533 163.014 38.16C162.614 38.4533 162.114 38.7 161.514 38.9C160.928 39.1 160.248 39.2 159.474 39.2ZM157.494 32.82H161.414V32.78C161.414 32.3 161.334 31.8867 161.174 31.54C161.028 31.18 160.808 30.9 160.514 30.7C160.221 30.5 159.868 30.4 159.454 30.4C159.041 30.4 158.688 30.5 158.394 30.7C158.101 30.9 157.874 31.18 157.714 31.54C157.568 31.8867 157.494 32.3 157.494 32.78V32.82Z" fill="#BFBFBF"/>
</svg>
