<svg width="280" height="60" viewBox="0 0 280 60" fill="none" xmlns="http://www.w3.org/2000/svg">
<rect width="280" height="60" rx="30" fill="white"/>
<path d="M53.9609 35.16C53.3529 35.16 52.8089 35.0213 52.3289 34.744C51.8596 34.4667 51.4916 34.0613 51.2249 33.528C50.9583 32.984 50.8249 32.3227 50.8249 31.544V27.08C50.8249 26.9627 50.8623 26.8667 50.9369 26.792C51.0116 26.7173 51.1076 26.68 51.2249 26.68H53.2249C53.3423 26.68 53.4383 26.7173 53.5129 26.792C53.5983 26.8667 53.6409 26.9627 53.6409 27.08V31.448C53.6409 32.4933 54.1049 33.016 55.0329 33.016C55.4703 33.016 55.8169 32.8827 56.0729 32.616C56.3396 32.3387 56.4729 31.9493 56.4729 31.448V27.08C56.4729 26.9627 56.5103 26.8667 56.5849 26.792C56.6596 26.7173 56.7556 26.68 56.8729 26.68H58.8729C58.9903 26.68 59.0863 26.7173 59.1609 26.792C59.2356 26.8667 59.2729 26.9627 59.2729 27.08V34.6C59.2729 34.7067 59.2356 34.8027 59.1609 34.888C59.0863 34.9627 58.9903 35 58.8729 35H57.0169C56.9103 35 56.8143 34.9627 56.7289 34.888C56.6543 34.8027 56.6169 34.7067 56.6169 34.6V33.992C56.3396 34.376 55.9769 34.6693 55.5289 34.872C55.0916 35.064 54.5689 35.16 53.9609 35.16ZM65.2349 38.52C64.4136 38.52 63.7309 38.4133 63.1869 38.2C62.6536 37.9867 62.2269 37.7307 61.9069 37.432C61.5976 37.1333 61.3736 36.8347 61.2349 36.536C61.0963 36.248 61.0216 36.0187 61.0109 35.848C61.0003 35.7307 61.0376 35.6293 61.1229 35.544C61.2083 35.4693 61.3096 35.432 61.4269 35.432H63.4589C63.5656 35.432 63.6509 35.4587 63.7149 35.512C63.7789 35.5653 63.8323 35.6507 63.8749 35.768C63.9389 35.8853 64.0136 36.0027 64.0989 36.12C64.1843 36.248 64.3069 36.3547 64.4669 36.44C64.6376 36.5253 64.8669 36.568 65.1549 36.568C65.4749 36.568 65.7416 36.5147 65.9549 36.408C66.1683 36.312 66.3283 36.1467 66.4349 35.912C66.5416 35.688 66.5949 35.384 66.5949 35V33.928C66.3496 34.1947 66.0349 34.4133 65.6509 34.584C65.2669 34.744 64.8029 34.824 64.2589 34.824C63.7149 34.824 63.2349 34.744 62.8189 34.584C62.4029 34.424 62.0563 34.184 61.7789 33.864C61.5016 33.544 61.2829 33.1547 61.1229 32.696C60.9736 32.2373 60.8829 31.7093 60.8509 31.112C60.8403 30.8347 60.8403 30.552 60.8509 30.264C60.8829 29.6987 60.9736 29.1867 61.1229 28.728C61.2723 28.2587 61.4856 27.864 61.7629 27.544C62.0509 27.2133 62.4029 26.9627 62.8189 26.792C63.2349 26.6107 63.7149 26.52 64.2589 26.52C64.8349 26.52 65.3256 26.632 65.7309 26.856C66.1469 27.0693 66.4883 27.3413 66.7549 27.672V27.08C66.7549 26.9733 66.7923 26.8827 66.8669 26.808C66.9416 26.7227 67.0376 26.68 67.1549 26.68H68.9949C69.1123 26.68 69.2083 26.7227 69.2829 26.808C69.3683 26.8827 69.4109 26.9733 69.4109 27.08V34.776C69.4109 35.5867 69.2456 36.2693 68.9149 36.824C68.5949 37.3787 68.1203 37.8 67.4909 38.088C66.8723 38.376 66.1203 38.52 65.2349 38.52ZM65.1229 32.744C65.4643 32.744 65.7416 32.6693 65.9549 32.52C66.1683 32.3707 66.3229 32.1787 66.4189 31.944C66.5256 31.7093 66.5843 31.4587 66.5949 31.192C66.6056 31.0747 66.6109 30.9093 66.6109 30.696C66.6109 30.4827 66.6056 30.3227 66.5949 30.216C66.5843 29.9387 66.5256 29.6827 66.4189 29.448C66.3229 29.2133 66.1683 29.0267 65.9549 28.888C65.7416 28.7387 65.4643 28.664 65.1229 28.664C64.7709 28.664 64.4883 28.7387 64.2749 28.888C64.0723 29.0373 63.9229 29.24 63.8269 29.496C63.7416 29.752 63.6883 30.0347 63.6669 30.344C63.6563 30.5787 63.6563 30.8187 63.6669 31.064C63.6883 31.3733 63.7416 31.656 63.8269 31.912C63.9229 32.168 64.0723 32.3707 64.2749 32.52C64.4883 32.6693 64.7709 32.744 65.1229 32.744ZM74.3516 35.16C73.7436 35.16 73.1996 35.0213 72.7196 34.744C72.2502 34.4667 71.8822 34.0613 71.6156 33.528C71.3489 32.984 71.2156 32.3227 71.2156 31.544V27.08C71.2156 26.9627 71.2529 26.8667 71.3276 26.792C71.4022 26.7173 71.4982 26.68 71.6156 26.68H73.6156C73.7329 26.68 73.8289 26.7173 73.9036 26.792C73.9889 26.8667 74.0316 26.9627 74.0316 27.08V31.448C74.0316 32.4933 74.4956 33.016 75.4236 33.016C75.8609 33.016 76.2076 32.8827 76.4636 32.616C76.7302 32.3387 76.8636 31.9493 76.8636 31.448V27.08C76.8636 26.9627 76.9009 26.8667 76.9756 26.792C77.0502 26.7173 77.1462 26.68 77.2636 26.68H79.2636C79.3809 26.68 79.4769 26.7173 79.5516 26.792C79.6262 26.8667 79.6636 26.9627 79.6636 27.08V34.6C79.6636 34.7067 79.6262 34.8027 79.5516 34.888C79.4769 34.9627 79.3809 35 79.2636 35H77.4076C77.3009 35 77.2049 34.9627 77.1196 34.888C77.0449 34.8027 77.0076 34.7067 77.0076 34.6V33.992C76.7302 34.376 76.3676 34.6693 75.9196 34.872C75.4822 35.064 74.9596 35.16 74.3516 35.16ZM81.9456 35C81.8282 35 81.7322 34.9627 81.6576 34.888C81.5829 34.8027 81.5456 34.7067 81.5456 34.6V27.08C81.5456 26.9733 81.5829 26.8827 81.6576 26.808C81.7322 26.7227 81.8282 26.68 81.9456 26.68H83.7856C83.9029 26.68 83.9989 26.7227 84.0736 26.808C84.1589 26.8827 84.2016 26.9733 84.2016 27.08V27.72C84.4789 27.3893 84.8149 27.1333 85.2096 26.952C85.6149 26.7707 86.0682 26.68 86.5696 26.68H87.2736C87.3909 26.68 87.4869 26.7173 87.5616 26.792C87.6362 26.8667 87.6736 26.9627 87.6736 27.08V28.728C87.6736 28.8347 87.6362 28.9307 87.5616 29.016C87.4869 29.0907 87.3909 29.128 87.2736 29.128H85.7216C85.2842 29.128 84.9429 29.2507 84.6976 29.496C84.4629 29.7307 84.3456 30.0667 84.3456 30.504V34.6C84.3456 34.7067 84.3029 34.8027 84.2176 34.888C84.1429 34.9627 84.0469 35 83.9296 35H81.9456ZM92.5727 35.16C91.7834 35.16 91.0847 35.016 90.4767 34.728C89.8687 34.44 89.3834 34.024 89.0207 33.48C88.6687 32.9253 88.4767 32.264 88.4447 31.496C88.434 31.3253 88.4287 31.112 88.4287 30.856C88.4287 30.5893 88.434 30.3707 88.4447 30.2C88.4767 29.4213 88.6687 28.76 89.0207 28.216C89.3727 27.6613 89.8527 27.24 90.4607 26.952C91.0794 26.664 91.7834 26.52 92.5727 26.52C93.3087 26.52 93.938 26.6267 94.4607 26.84C94.994 27.0427 95.4207 27.2987 95.7407 27.608C96.0714 27.9173 96.3167 28.2373 96.4767 28.568C96.6474 28.888 96.738 29.1707 96.7487 29.416C96.7594 29.5227 96.722 29.6187 96.6367 29.704C96.5514 29.7787 96.4554 29.816 96.3487 29.816H94.3167C94.1994 29.816 94.1087 29.7893 94.0447 29.736C93.9807 29.6827 93.922 29.6027 93.8687 29.496C93.7407 29.1653 93.5754 28.9307 93.3727 28.792C93.1807 28.6533 92.93 28.584 92.6207 28.584C92.194 28.584 91.8634 28.7227 91.6287 29C91.4047 29.2773 91.282 29.704 91.2607 30.28C91.25 30.7067 91.25 31.0853 91.2607 31.416C91.2927 32.0027 91.4207 32.4293 91.6447 32.696C91.8687 32.9627 92.194 33.096 92.6207 33.096C92.9514 33.096 93.2127 33.0267 93.4047 32.888C93.5967 32.7387 93.7514 32.504 93.8687 32.184C93.922 32.0773 93.9807 31.9973 94.0447 31.944C94.1087 31.8907 94.1994 31.864 94.3167 31.864H96.3487C96.4554 31.864 96.5514 31.9013 96.6367 31.976C96.722 32.0507 96.7594 32.1467 96.7487 32.264C96.738 32.4347 96.6847 32.6427 96.5887 32.888C96.4927 33.1333 96.3434 33.3893 96.1407 33.656C95.938 33.9227 95.6714 34.168 95.3407 34.392C95.0207 34.616 94.6314 34.8027 94.1727 34.952C93.714 35.0907 93.1807 35.16 92.5727 35.16ZM98.5862 35C98.4689 35 98.3729 34.9627 98.2982 34.888C98.2235 34.8027 98.1862 34.7067 98.1862 34.6V27.08C98.1862 26.9627 98.2235 26.8667 98.2982 26.792C98.3729 26.7173 98.4689 26.68 98.5862 26.68H100.474C100.592 26.68 100.688 26.7173 100.762 26.792C100.837 26.8667 100.874 26.9627 100.874 27.08V34.6C100.874 34.7067 100.837 34.8027 100.762 34.888C100.688 34.9627 100.592 35 100.474 35H98.5862ZM98.5702 25.48C98.4529 25.48 98.3569 25.4427 98.2822 25.368C98.2075 25.2933 98.1702 25.1973 98.1702 25.08V23.64C98.1702 23.5333 98.2075 23.4427 98.2822 23.368C98.3569 23.2827 98.4529 23.24 98.5702 23.24H100.49C100.597 23.24 100.688 23.2827 100.762 23.368C100.848 23.4427 100.89 23.5333 100.89 23.64V25.08C100.89 25.1973 100.848 25.2933 100.762 25.368C100.688 25.4427 100.597 25.48 100.49 25.48H98.5702ZM103.164 35C103.047 35 102.951 34.9627 102.876 34.888C102.802 34.8027 102.764 34.7067 102.764 34.6V24.04C102.764 23.9227 102.802 23.8267 102.876 23.752C102.951 23.6773 103.047 23.64 103.164 23.64H105.052C105.17 23.64 105.266 23.6773 105.34 23.752C105.415 23.8267 105.452 23.9227 105.452 24.04V34.6C105.452 34.7067 105.415 34.8027 105.34 34.888C105.266 34.9627 105.17 35 105.052 35H103.164ZM112.43 35.16C111.844 35.16 111.348 35.0587 110.942 34.856C110.537 34.6533 110.206 34.3973 109.95 34.088V34.6C109.95 34.7067 109.908 34.8027 109.822 34.888C109.748 34.9627 109.657 35 109.55 35H107.742C107.625 35 107.529 34.9627 107.454 34.888C107.38 34.8027 107.342 34.7067 107.342 34.6V24.04C107.342 23.9227 107.38 23.8267 107.454 23.752C107.529 23.6773 107.625 23.64 107.742 23.64H109.694C109.812 23.64 109.908 23.6773 109.982 23.752C110.057 23.8267 110.094 23.9227 110.094 24.04V27.464C110.361 27.1867 110.686 26.9627 111.07 26.792C111.454 26.6107 111.908 26.52 112.43 26.52C112.964 26.52 113.433 26.6107 113.838 26.792C114.254 26.9627 114.606 27.2133 114.894 27.544C115.182 27.864 115.406 28.2587 115.566 28.728C115.726 29.1867 115.817 29.6987 115.838 30.264C115.849 30.4773 115.854 30.6693 115.854 30.84C115.854 31 115.849 31.1867 115.838 31.4C115.817 31.9973 115.726 32.5307 115.566 33C115.406 33.4587 115.177 33.8533 114.878 34.184C114.59 34.504 114.244 34.7493 113.838 34.92C113.433 35.08 112.964 35.16 112.43 35.16ZM111.566 33.016C111.929 33.016 112.212 32.9413 112.414 32.792C112.617 32.6427 112.761 32.44 112.846 32.184C112.942 31.928 113.001 31.6453 113.022 31.336C113.044 31.0053 113.044 30.6747 113.022 30.344C113.001 30.0347 112.942 29.752 112.846 29.496C112.761 29.24 112.617 29.0373 112.414 28.888C112.212 28.7387 111.929 28.664 111.566 28.664C111.236 28.664 110.964 28.7387 110.75 28.888C110.537 29.0267 110.377 29.2133 110.27 29.448C110.164 29.672 110.105 29.9173 110.094 30.184C110.084 30.3867 110.078 30.584 110.078 30.776C110.078 30.968 110.084 31.1707 110.094 31.384C110.116 31.672 110.174 31.9387 110.27 32.184C110.366 32.4293 110.521 32.632 110.734 32.792C110.948 32.9413 111.225 33.016 111.566 33.016ZM119.932 35.16C119.356 35.16 118.839 35.0533 118.38 34.84C117.932 34.616 117.575 34.3173 117.308 33.944C117.042 33.5707 116.908 33.1493 116.908 32.68C116.908 31.9227 117.218 31.3253 117.836 30.888C118.455 30.44 119.276 30.136 120.3 29.976L122.3 29.672V29.448C122.3 29.064 122.22 28.7707 122.06 28.568C121.9 28.3653 121.607 28.264 121.18 28.264C120.882 28.264 120.636 28.3227 120.444 28.44C120.263 28.5573 120.119 28.7173 120.012 28.92C119.916 29.0587 119.783 29.128 119.612 29.128H117.82C117.703 29.128 117.612 29.096 117.548 29.032C117.484 28.9573 117.458 28.872 117.468 28.776C117.468 28.584 117.538 28.3653 117.676 28.12C117.826 27.864 118.05 27.6133 118.348 27.368C118.647 27.1227 119.031 26.92 119.5 26.76C119.97 26.6 120.54 26.52 121.212 26.52C121.895 26.52 122.482 26.6 122.972 26.76C123.463 26.92 123.863 27.144 124.172 27.432C124.482 27.72 124.706 28.0613 124.844 28.456C124.994 28.84 125.068 29.2667 125.068 29.736V34.6C125.068 34.7067 125.026 34.8027 124.94 34.888C124.866 34.9627 124.775 35 124.668 35H122.812C122.695 35 122.599 34.9627 122.524 34.888C122.45 34.8027 122.412 34.7067 122.412 34.6V34.04C122.274 34.2427 122.087 34.4293 121.852 34.6C121.618 34.7707 121.34 34.904 121.02 35C120.711 35.1067 120.348 35.16 119.932 35.16ZM120.684 33.336C120.994 33.336 121.271 33.272 121.516 33.144C121.772 33.0053 121.97 32.7973 122.108 32.52C122.258 32.232 122.332 31.8747 122.332 31.448V31.224L120.972 31.464C120.471 31.5493 120.103 31.6827 119.868 31.864C119.644 32.0347 119.532 32.2373 119.532 32.472C119.532 32.6533 119.586 32.808 119.692 32.936C119.799 33.064 119.938 33.1653 120.108 33.24C120.29 33.304 120.482 33.336 120.684 33.336ZM130.298 35.16C129.604 35.16 129.012 35.0853 128.522 34.936C128.042 34.776 127.647 34.584 127.338 34.36C127.039 34.136 126.815 33.9067 126.666 33.672C126.516 33.4267 126.436 33.2133 126.426 33.032C126.415 32.9147 126.452 32.8187 126.538 32.744C126.623 32.6693 126.714 32.632 126.81 32.632H128.634C128.666 32.632 128.692 32.6373 128.714 32.648C128.746 32.6587 128.778 32.68 128.81 32.712C128.948 32.7867 129.087 32.8827 129.226 33C129.364 33.1067 129.524 33.2027 129.706 33.288C129.887 33.3733 130.106 33.416 130.362 33.416C130.66 33.416 130.911 33.3573 131.114 33.24C131.316 33.112 131.418 32.936 131.418 32.712C131.418 32.5413 131.37 32.4027 131.274 32.296C131.178 32.1787 130.98 32.0667 130.682 31.96C130.394 31.8533 129.956 31.7467 129.37 31.64C128.815 31.512 128.33 31.3467 127.914 31.144C127.498 30.9307 127.178 30.6587 126.954 30.328C126.73 29.9867 126.618 29.576 126.618 29.096C126.618 28.6693 126.756 28.2587 127.034 27.864C127.311 27.4693 127.716 27.1493 128.25 26.904C128.783 26.648 129.444 26.52 130.234 26.52C130.842 26.52 131.375 26.5947 131.834 26.744C132.292 26.8827 132.676 27.064 132.986 27.288C133.295 27.512 133.53 27.7413 133.69 27.976C133.85 28.2107 133.935 28.424 133.946 28.616C133.956 28.7227 133.924 28.8187 133.85 28.904C133.775 28.9787 133.69 29.016 133.594 29.016H131.93C131.887 29.016 131.844 29.0107 131.802 29C131.759 28.9787 131.722 28.9573 131.69 28.936C131.562 28.872 131.434 28.7867 131.306 28.68C131.178 28.5733 131.028 28.4773 130.858 28.392C130.687 28.3067 130.474 28.264 130.218 28.264C129.93 28.264 129.706 28.328 129.546 28.456C129.386 28.584 129.306 28.7493 129.306 28.952C129.306 29.0907 129.348 29.2187 129.434 29.336C129.53 29.4533 129.716 29.56 129.994 29.656C130.282 29.752 130.724 29.8587 131.322 29.976C132.058 30.0933 132.644 30.2853 133.082 30.552C133.519 30.808 133.828 31.112 134.01 31.464C134.202 31.8053 134.298 32.168 134.298 32.552C134.298 33.064 134.143 33.5173 133.834 33.912C133.524 34.3067 133.071 34.616 132.474 34.84C131.887 35.0533 131.162 35.16 130.298 35.16ZM141.637 37.08C140.336 37.08 139.248 36.8667 138.373 36.44C137.509 36.0133 136.848 35.416 136.389 34.648C135.941 33.88 135.669 33.0053 135.573 32.024C135.563 31.8747 135.552 31.6773 135.541 31.432C135.531 31.1867 135.525 30.9253 135.525 30.648C135.525 30.3707 135.531 30.1093 135.541 29.864C135.552 29.6187 135.563 29.4267 135.573 29.288C135.637 28.616 135.803 27.976 136.069 27.368C136.347 26.7493 136.725 26.2053 137.205 25.736C137.696 25.256 138.288 24.8827 138.981 24.616C139.685 24.3387 140.501 24.2 141.429 24.2C142.539 24.2 143.472 24.328 144.229 24.584C144.987 24.8293 145.6 25.1813 146.069 25.64C146.549 26.0987 146.907 26.6427 147.141 27.272C147.376 27.8907 147.52 28.5627 147.573 29.288C147.595 29.512 147.605 29.752 147.605 30.008C147.605 30.2533 147.6 30.4933 147.589 30.728C147.589 30.9627 147.584 31.1547 147.573 31.304C147.541 31.8373 147.408 32.2853 147.173 32.648C146.939 33.0107 146.64 33.2827 146.277 33.464C145.925 33.6453 145.541 33.736 145.125 33.736C144.773 33.736 144.464 33.688 144.197 33.592C143.931 33.496 143.712 33.3893 143.541 33.272C143.381 33.144 143.259 33.0267 143.173 32.92C143.088 33.048 142.971 33.192 142.821 33.352C142.683 33.5013 142.475 33.6293 142.197 33.736C141.931 33.8427 141.563 33.896 141.093 33.896C140.304 33.896 139.68 33.6027 139.221 33.016C138.763 32.4293 138.533 31.6347 138.533 30.632C138.533 29.6187 138.752 28.8187 139.189 28.232C139.637 27.6453 140.256 27.352 141.045 27.352C141.472 27.352 141.808 27.4213 142.053 27.56C142.299 27.6987 142.501 27.8747 142.661 28.088V27.88C142.661 27.7627 142.699 27.6667 142.773 27.592C142.848 27.5173 142.944 27.48 143.061 27.48H143.877C143.995 27.48 144.091 27.5173 144.165 27.592C144.24 27.6667 144.277 27.7627 144.277 27.88V31.112C144.277 31.464 144.352 31.7307 144.501 31.912C144.661 32.0933 144.869 32.184 145.125 32.184C145.339 32.184 145.504 32.1307 145.621 32.024C145.749 31.9067 145.835 31.768 145.877 31.608C145.931 31.4373 145.957 31.2773 145.957 31.128C145.968 30.8933 145.973 30.6267 145.973 30.328C145.984 30.0187 145.979 29.6987 145.957 29.368C145.904 28.5573 145.728 27.8853 145.429 27.352C145.131 26.808 144.661 26.408 144.021 26.152C143.381 25.8853 142.517 25.752 141.429 25.752C140.523 25.752 139.771 25.9067 139.173 26.216C138.587 26.5147 138.128 26.936 137.797 27.48C137.477 28.024 137.275 28.6533 137.189 29.368C137.168 29.5493 137.152 29.8053 137.141 30.136C137.141 30.4667 137.141 30.8027 137.141 31.144C137.152 31.4747 137.168 31.7413 137.189 31.944C137.317 33.0747 137.739 33.9547 138.453 34.584C139.168 35.2133 140.229 35.528 141.637 35.528C142.309 35.528 142.843 35.4853 143.237 35.4C143.632 35.3253 143.947 35.2187 144.181 35.08C144.427 34.952 144.645 34.8187 144.837 34.68C144.923 34.616 144.997 34.5627 145.061 34.52C145.136 34.4773 145.227 34.456 145.333 34.456H146.469C146.576 34.456 146.667 34.4933 146.741 34.568C146.827 34.6427 146.864 34.7387 146.853 34.856C146.853 34.8987 146.843 34.9413 146.821 34.984C146.811 35.016 146.789 35.0533 146.757 35.096C146.459 35.4373 146.08 35.7573 145.621 36.056C145.173 36.3653 144.619 36.6107 143.957 36.792C143.307 36.984 142.533 37.08 141.637 37.08ZM141.397 32.344C141.824 32.344 142.139 32.2053 142.341 31.928C142.555 31.6507 142.661 31.2187 142.661 30.632C142.661 30.0453 142.555 29.6133 142.341 29.336C142.139 29.048 141.824 28.904 141.397 28.904C140.992 28.904 140.683 29.048 140.469 29.336C140.256 29.6133 140.149 30.0453 140.149 30.632C140.149 30.9947 140.192 31.304 140.277 31.56C140.373 31.816 140.512 32.0133 140.693 32.152C140.885 32.28 141.12 32.344 141.397 32.344ZM153.313 38.52C152.492 38.52 151.809 38.4133 151.265 38.2C150.732 37.9867 150.305 37.7307 149.985 37.432C149.676 37.1333 149.452 36.8347 149.313 36.536C149.174 36.248 149.1 36.0187 149.089 35.848C149.078 35.7307 149.116 35.6293 149.201 35.544C149.286 35.4693 149.388 35.432 149.505 35.432H151.537C151.644 35.432 151.729 35.4587 151.793 35.512C151.857 35.5653 151.91 35.6507 151.953 35.768C152.017 35.8853 152.092 36.0027 152.177 36.12C152.262 36.248 152.385 36.3547 152.545 36.44C152.716 36.5253 152.945 36.568 153.233 36.568C153.553 36.568 153.82 36.5147 154.033 36.408C154.246 36.312 154.406 36.1467 154.513 35.912C154.62 35.688 154.673 35.384 154.673 35V33.928C154.428 34.1947 154.113 34.4133 153.729 34.584C153.345 34.744 152.881 34.824 152.337 34.824C151.793 34.824 151.313 34.744 150.897 34.584C150.481 34.424 150.134 34.184 149.857 33.864C149.58 33.544 149.361 33.1547 149.201 32.696C149.052 32.2373 148.961 31.7093 148.929 31.112C148.918 30.8347 148.918 30.552 148.929 30.264C148.961 29.6987 149.052 29.1867 149.201 28.728C149.35 28.2587 149.564 27.864 149.841 27.544C150.129 27.2133 150.481 26.9627 150.897 26.792C151.313 26.6107 151.793 26.52 152.337 26.52C152.913 26.52 153.404 26.632 153.809 26.856C154.225 27.0693 154.566 27.3413 154.833 27.672V27.08C154.833 26.9733 154.87 26.8827 154.945 26.808C155.02 26.7227 155.116 26.68 155.233 26.68H157.073C157.19 26.68 157.286 26.7227 157.361 26.808C157.446 26.8827 157.489 26.9733 157.489 27.08V34.776C157.489 35.5867 157.324 36.2693 156.993 36.824C156.673 37.3787 156.198 37.8 155.569 38.088C154.95 38.376 154.198 38.52 153.313 38.52ZM153.201 32.744C153.542 32.744 153.82 32.6693 154.033 32.52C154.246 32.3707 154.401 32.1787 154.497 31.944C154.604 31.7093 154.662 31.4587 154.673 31.192C154.684 31.0747 154.689 30.9093 154.689 30.696C154.689 30.4827 154.684 30.3227 154.673 30.216C154.662 29.9387 154.604 29.6827 154.497 29.448C154.401 29.2133 154.246 29.0267 154.033 28.888C153.82 28.7387 153.542 28.664 153.201 28.664C152.849 28.664 152.566 28.7387 152.353 28.888C152.15 29.0373 152.001 29.24 151.905 29.496C151.82 29.752 151.766 30.0347 151.745 30.344C151.734 30.5787 151.734 30.8187 151.745 31.064C151.766 31.3733 151.82 31.656 151.905 31.912C152.001 32.168 152.15 32.3707 152.353 32.52C152.566 32.6693 152.849 32.744 153.201 32.744ZM159.774 35C159.656 35 159.56 34.9627 159.486 34.888C159.411 34.8027 159.374 34.7067 159.374 34.6V27.08C159.374 26.9627 159.411 26.8667 159.486 26.792C159.56 26.7173 159.656 26.68 159.774 26.68H161.518C161.635 26.68 161.731 26.7173 161.806 26.792C161.88 26.8667 161.918 26.9627 161.918 27.08V27.624C162.131 27.336 162.43 27.0853 162.814 26.872C163.198 26.648 163.651 26.5307 164.174 26.52C165.411 26.488 166.259 26.9467 166.718 27.896C166.963 27.4907 167.31 27.16 167.758 26.904C168.216 26.648 168.718 26.52 169.262 26.52C169.816 26.52 170.312 26.648 170.75 26.904C171.198 27.1493 171.555 27.5333 171.822 28.056C172.088 28.568 172.222 29.2347 172.222 30.056V34.6C172.222 34.7067 172.184 34.8027 172.11 34.888C172.035 34.9627 171.939 35 171.822 35H169.966C169.848 35 169.747 34.9627 169.662 34.888C169.587 34.8027 169.55 34.7067 169.55 34.6V30.168C169.55 29.7947 169.496 29.5013 169.39 29.288C169.283 29.064 169.139 28.904 168.958 28.808C168.776 28.712 168.568 28.664 168.334 28.664C168.142 28.664 167.95 28.712 167.758 28.808C167.576 28.904 167.427 29.064 167.31 29.288C167.203 29.5013 167.15 29.7947 167.15 30.168V34.6C167.15 34.7067 167.112 34.8027 167.038 34.888C166.963 34.9627 166.867 35 166.75 35H164.894C164.776 35 164.68 34.9627 164.606 34.888C164.531 34.8027 164.494 34.7067 164.494 34.6V30.168C164.494 29.7947 164.435 29.5013 164.318 29.288C164.2 29.064 164.051 28.904 163.87 28.808C163.688 28.712 163.491 28.664 163.278 28.664C163.075 28.664 162.878 28.712 162.686 28.808C162.504 28.904 162.355 29.064 162.238 29.288C162.131 29.5013 162.078 29.7893 162.078 30.152V34.6C162.078 34.7067 162.035 34.8027 161.95 34.888C161.875 34.9627 161.784 35 161.678 35H159.774ZM176.526 35.16C175.95 35.16 175.433 35.0533 174.974 34.84C174.526 34.616 174.169 34.3173 173.902 33.944C173.635 33.5707 173.502 33.1493 173.502 32.68C173.502 31.9227 173.811 31.3253 174.43 30.888C175.049 30.44 175.87 30.136 176.894 29.976L178.894 29.672V29.448C178.894 29.064 178.814 28.7707 178.654 28.568C178.494 28.3653 178.201 28.264 177.774 28.264C177.475 28.264 177.23 28.3227 177.038 28.44C176.857 28.5573 176.713 28.7173 176.606 28.92C176.51 29.0587 176.377 29.128 176.206 29.128H174.414C174.297 29.128 174.206 29.096 174.142 29.032C174.078 28.9573 174.051 28.872 174.062 28.776C174.062 28.584 174.131 28.3653 174.27 28.12C174.419 27.864 174.643 27.6133 174.942 27.368C175.241 27.1227 175.625 26.92 176.094 26.76C176.563 26.6 177.134 26.52 177.806 26.52C178.489 26.52 179.075 26.6 179.566 26.76C180.057 26.92 180.457 27.144 180.766 27.432C181.075 27.72 181.299 28.0613 181.438 28.456C181.587 28.84 181.662 29.2667 181.662 29.736V34.6C181.662 34.7067 181.619 34.8027 181.534 34.888C181.459 34.9627 181.369 35 181.262 35H179.406C179.289 35 179.193 34.9627 179.118 34.888C179.043 34.8027 179.006 34.7067 179.006 34.6V34.04C178.867 34.2427 178.681 34.4293 178.446 34.6C178.211 34.7707 177.934 34.904 177.614 35C177.305 35.1067 176.942 35.16 176.526 35.16ZM177.278 33.336C177.587 33.336 177.865 33.272 178.11 33.144C178.366 33.0053 178.563 32.7973 178.702 32.52C178.851 32.232 178.926 31.8747 178.926 31.448V31.224L177.566 31.464C177.065 31.5493 176.697 31.6827 176.462 31.864C176.238 32.0347 176.126 32.2373 176.126 32.472C176.126 32.6533 176.179 32.808 176.286 32.936C176.393 33.064 176.531 33.1653 176.702 33.24C176.883 33.304 177.075 33.336 177.278 33.336ZM183.867 35C183.75 35 183.654 34.9627 183.579 34.888C183.505 34.8027 183.467 34.7067 183.467 34.6V27.08C183.467 26.9627 183.505 26.8667 183.579 26.792C183.654 26.7173 183.75 26.68 183.867 26.68H185.755C185.873 26.68 185.969 26.7173 186.043 26.792C186.118 26.8667 186.155 26.9627 186.155 27.08V34.6C186.155 34.7067 186.118 34.8027 186.043 34.888C185.969 34.9627 185.873 35 185.755 35H183.867ZM183.851 25.48C183.734 25.48 183.638 25.4427 183.563 25.368C183.489 25.2933 183.451 25.1973 183.451 25.08V23.64C183.451 23.5333 183.489 23.4427 183.563 23.368C183.638 23.2827 183.734 23.24 183.851 23.24H185.771C185.878 23.24 185.969 23.2827 186.043 23.368C186.129 23.4427 186.171 23.5333 186.171 23.64V25.08C186.171 25.1973 186.129 25.2933 186.043 25.368C185.969 25.4427 185.878 25.48 185.771 25.48H183.851ZM188.446 35C188.328 35 188.232 34.9627 188.158 34.888C188.083 34.8027 188.046 34.7067 188.046 34.6V24.04C188.046 23.9227 188.083 23.8267 188.158 23.752C188.232 23.6773 188.328 23.64 188.446 23.64H190.334C190.451 23.64 190.547 23.6773 190.622 23.752C190.696 23.8267 190.734 23.9227 190.734 24.04V34.6C190.734 34.7067 190.696 34.8027 190.622 34.888C190.547 34.9627 190.451 35 190.334 35H188.446ZM192.944 35C192.826 35 192.73 34.9627 192.656 34.888C192.581 34.8027 192.544 34.7067 192.544 34.6V32.568C192.544 32.4507 192.581 32.3547 192.656 32.28C192.73 32.2053 192.826 32.168 192.944 32.168H194.976C195.082 32.168 195.173 32.2053 195.248 32.28C195.333 32.3547 195.376 32.4507 195.376 32.568V34.6C195.376 34.7067 195.333 34.8027 195.248 34.888C195.173 34.9627 195.082 35 194.976 35H192.944ZM200.932 35.16C200.143 35.16 199.444 35.016 198.836 34.728C198.228 34.44 197.743 34.024 197.38 33.48C197.028 32.9253 196.836 32.264 196.804 31.496C196.793 31.3253 196.788 31.112 196.788 30.856C196.788 30.5893 196.793 30.3707 196.804 30.2C196.836 29.4213 197.028 28.76 197.38 28.216C197.732 27.6613 198.212 27.24 198.82 26.952C199.439 26.664 200.143 26.52 200.932 26.52C201.668 26.52 202.297 26.6267 202.82 26.84C203.353 27.0427 203.78 27.2987 204.1 27.608C204.431 27.9173 204.676 28.2373 204.836 28.568C205.007 28.888 205.097 29.1707 205.108 29.416C205.119 29.5227 205.081 29.6187 204.996 29.704C204.911 29.7787 204.815 29.816 204.708 29.816H202.676C202.559 29.816 202.468 29.7893 202.404 29.736C202.34 29.6827 202.281 29.6027 202.228 29.496C202.1 29.1653 201.935 28.9307 201.732 28.792C201.54 28.6533 201.289 28.584 200.98 28.584C200.553 28.584 200.223 28.7227 199.988 29C199.764 29.2773 199.641 29.704 199.62 30.28C199.609 30.7067 199.609 31.0853 199.62 31.416C199.652 32.0027 199.78 32.4293 200.004 32.696C200.228 32.9627 200.553 33.096 200.98 33.096C201.311 33.096 201.572 33.0267 201.764 32.888C201.956 32.7387 202.111 32.504 202.228 32.184C202.281 32.0773 202.34 31.9973 202.404 31.944C202.468 31.8907 202.559 31.864 202.676 31.864H204.708C204.815 31.864 204.911 31.9013 204.996 31.976C205.081 32.0507 205.119 32.1467 205.108 32.264C205.097 32.4347 205.044 32.6427 204.948 32.888C204.852 33.1333 204.703 33.3893 204.5 33.656C204.297 33.9227 204.031 34.168 203.7 34.392C203.38 34.616 202.991 34.8027 202.532 34.952C202.073 35.0907 201.54 35.16 200.932 35.16ZM210.482 35.16C209.586 35.16 208.828 35.016 208.21 34.728C207.602 34.44 207.132 34.0293 206.802 33.496C206.482 32.952 206.3 32.3067 206.258 31.56C206.247 31.3467 206.242 31.1067 206.242 30.84C206.242 30.5627 206.247 30.3227 206.258 30.12C206.3 29.3627 206.492 28.7173 206.834 28.184C207.175 27.6507 207.65 27.24 208.258 26.952C208.876 26.664 209.618 26.52 210.482 26.52C211.356 26.52 212.098 26.664 212.706 26.952C213.324 27.24 213.804 27.6507 214.146 28.184C214.487 28.7173 214.679 29.3627 214.722 30.12C214.732 30.3227 214.738 30.5627 214.738 30.84C214.738 31.1067 214.732 31.3467 214.722 31.56C214.679 32.3067 214.492 32.952 214.162 33.496C213.842 34.0293 213.372 34.44 212.754 34.728C212.146 35.016 211.388 35.16 210.482 35.16ZM210.482 33.208C210.962 33.208 211.308 33.064 211.522 32.776C211.746 32.488 211.874 32.056 211.906 31.48C211.916 31.32 211.922 31.1067 211.922 30.84C211.922 30.5733 211.916 30.36 211.906 30.2C211.874 29.6347 211.746 29.208 211.522 28.92C211.308 28.6213 210.962 28.472 210.482 28.472C210.023 28.472 209.676 28.6213 209.442 28.92C209.218 29.208 209.095 29.6347 209.074 30.2C209.063 30.36 209.058 30.5733 209.058 30.84C209.058 31.1067 209.063 31.32 209.074 31.48C209.095 32.056 209.218 32.488 209.442 32.776C209.676 33.064 210.023 33.208 210.482 33.208ZM216.727 35C216.609 35 216.513 34.9627 216.439 34.888C216.364 34.8027 216.327 34.7067 216.327 34.6V27.08C216.327 26.9627 216.364 26.8667 216.439 26.792C216.513 26.7173 216.609 26.68 216.727 26.68H218.471C218.588 26.68 218.684 26.7173 218.759 26.792C218.833 26.8667 218.871 26.9627 218.871 27.08V27.624C219.084 27.336 219.383 27.0853 219.767 26.872C220.151 26.648 220.604 26.5307 221.127 26.52C222.364 26.488 223.212 26.9467 223.671 27.896C223.916 27.4907 224.263 27.16 224.711 26.904C225.169 26.648 225.671 26.52 226.215 26.52C226.769 26.52 227.265 26.648 227.703 26.904C228.151 27.1493 228.508 27.5333 228.775 28.056C229.041 28.568 229.175 29.2347 229.175 30.056V34.6C229.175 34.7067 229.137 34.8027 229.063 34.888C228.988 34.9627 228.892 35 228.775 35H226.919C226.801 35 226.7 34.9627 226.615 34.888C226.54 34.8027 226.503 34.7067 226.503 34.6V30.168C226.503 29.7947 226.449 29.5013 226.343 29.288C226.236 29.064 226.092 28.904 225.911 28.808C225.729 28.712 225.521 28.664 225.287 28.664C225.095 28.664 224.903 28.712 224.711 28.808C224.529 28.904 224.38 29.064 224.263 29.288C224.156 29.5013 224.103 29.7947 224.103 30.168V34.6C224.103 34.7067 224.065 34.8027 223.991 34.888C223.916 34.9627 223.82 35 223.703 35H221.847C221.729 35 221.633 34.9627 221.559 34.888C221.484 34.8027 221.447 34.7067 221.447 34.6V30.168C221.447 29.7947 221.388 29.5013 221.271 29.288C221.153 29.064 221.004 28.904 220.823 28.808C220.641 28.712 220.444 28.664 220.231 28.664C220.028 28.664 219.831 28.712 219.639 28.808C219.457 28.904 219.308 29.064 219.191 29.288C219.084 29.5013 219.031 29.7893 219.031 30.152V34.6C219.031 34.7067 218.988 34.8027 218.903 34.888C218.828 34.9627 218.737 35 218.631 35H216.727Z" fill="#131313"/>
</svg>
