<svg width="280" height="64" viewBox="0 0 280 64" fill="none" xmlns="http://www.w3.org/2000/svg">
<rect width="280" height="64" rx="32" fill="#54FA80"/>
<path d="M101.864 39.2C100.611 39.2 99.5442 38.9933 98.6642 38.58C97.7976 38.1533 97.1242 37.54 96.6442 36.74C96.1642 35.9267 95.8976 34.94 95.8442 33.78C95.8309 33.2333 95.8242 32.6467 95.8242 32.02C95.8242 31.3933 95.8309 30.7933 95.8442 30.22C95.8976 29.0733 96.1642 28.1 96.6442 27.3C97.1376 26.4867 97.8242 25.8667 98.7042 25.44C99.5842 25.0133 100.638 24.8 101.864 24.8C102.758 24.8 103.571 24.9133 104.304 25.14C105.038 25.3667 105.671 25.6933 106.204 26.12C106.738 26.5467 107.151 27.0467 107.444 27.62C107.738 28.1933 107.898 28.8333 107.924 29.54C107.924 29.66 107.878 29.76 107.784 29.84C107.704 29.92 107.604 29.96 107.484 29.96H105.204C105.044 29.96 104.918 29.92 104.824 29.84C104.731 29.76 104.658 29.6267 104.604 29.44C104.404 28.6533 104.071 28.1133 103.604 27.82C103.138 27.5267 102.558 27.38 101.864 27.38C101.038 27.38 100.384 27.6067 99.9042 28.06C99.4242 28.5133 99.1642 29.2667 99.1242 30.32C99.0842 31.4133 99.0842 32.5333 99.1242 33.68C99.1642 34.7333 99.4242 35.4867 99.9042 35.94C100.384 36.3933 101.038 36.62 101.864 36.62C102.558 36.62 103.138 36.4733 103.604 36.18C104.084 35.8733 104.418 35.3333 104.604 34.56C104.658 34.36 104.731 34.2267 104.824 34.16C104.918 34.08 105.044 34.04 105.204 34.04H107.484C107.604 34.04 107.704 34.08 107.784 34.16C107.878 34.24 107.924 34.34 107.924 34.46C107.898 35.1667 107.738 35.8067 107.444 36.38C107.151 36.9533 106.738 37.4533 106.204 37.88C105.671 38.3067 105.038 38.6333 104.304 38.86C103.571 39.0867 102.758 39.2 101.864 39.2ZM114.711 39.2C113.605 39.2 112.678 39.02 111.931 38.66C111.185 38.2867 110.611 37.76 110.211 37.08C109.825 36.4 109.611 35.6067 109.571 34.7C109.558 34.4333 109.551 34.1333 109.551 33.8C109.551 33.4533 109.558 33.1533 109.571 32.9C109.611 31.98 109.838 31.1867 110.251 30.52C110.665 29.84 111.245 29.32 111.991 28.96C112.738 28.5867 113.645 28.4 114.711 28.4C115.765 28.4 116.665 28.5867 117.411 28.96C118.158 29.32 118.738 29.84 119.151 30.52C119.565 31.1867 119.791 31.98 119.831 32.9C119.858 33.1533 119.871 33.4533 119.871 33.8C119.871 34.1333 119.858 34.4333 119.831 34.7C119.791 35.6067 119.571 36.4 119.171 37.08C118.785 37.76 118.218 38.2867 117.471 38.66C116.725 39.02 115.805 39.2 114.711 39.2ZM114.711 37C115.365 37 115.858 36.8 116.191 36.4C116.525 35.9867 116.705 35.3867 116.731 34.6C116.745 34.4 116.751 34.1333 116.751 33.8C116.751 33.4667 116.745 33.2 116.731 33C116.705 32.2267 116.525 31.6333 116.191 31.22C115.858 30.8067 115.365 30.6 114.711 30.6C114.058 30.6 113.558 30.8067 113.211 31.22C112.878 31.6333 112.698 32.2267 112.671 33C112.658 33.2 112.651 33.4667 112.651 33.8C112.651 34.1333 112.658 34.4 112.671 34.6C112.698 35.3867 112.878 35.9867 113.211 36.4C113.558 36.8 114.058 37 114.711 37ZM122.443 39C122.31 39 122.196 38.9533 122.103 38.86C122.01 38.7667 121.963 38.6467 121.963 38.5V29.1C121.963 28.9533 122.01 28.8333 122.103 28.74C122.196 28.6467 122.31 28.6 122.443 28.6H124.403C124.55 28.6 124.67 28.6467 124.763 28.74C124.856 28.8333 124.903 28.9533 124.903 29.1V29.88C125.25 29.4533 125.696 29.1 126.243 28.82C126.79 28.54 127.456 28.4 128.243 28.4C129.03 28.4 129.716 28.58 130.303 28.94C130.903 29.2867 131.37 29.8 131.703 30.48C132.05 31.1467 132.223 31.96 132.223 32.92V38.5C132.223 38.6467 132.17 38.7667 132.063 38.86C131.97 38.9533 131.856 39 131.723 39H129.603C129.456 39 129.336 38.9533 129.243 38.86C129.15 38.7667 129.103 38.6467 129.103 38.5V33.04C129.103 32.3333 128.93 31.7867 128.583 31.4C128.25 31 127.756 30.8 127.103 30.8C126.476 30.8 125.976 31 125.603 31.4C125.23 31.7867 125.043 32.3333 125.043 33.04V38.5C125.043 38.6467 124.996 38.7667 124.903 38.86C124.81 38.9533 124.696 39 124.563 39H122.443ZM139.502 39C138.676 39 137.969 38.8667 137.382 38.6C136.796 38.32 136.349 37.8933 136.042 37.32C135.749 36.7467 135.602 36.0267 135.602 35.16V30.96H134.042C133.896 30.96 133.776 30.9133 133.682 30.82C133.589 30.7267 133.542 30.6067 133.542 30.46V29.1C133.542 28.9533 133.589 28.8333 133.682 28.74C133.776 28.6467 133.896 28.6 134.042 28.6H135.602V25.3C135.602 25.1533 135.649 25.0333 135.742 24.94C135.849 24.8467 135.969 24.8 136.102 24.8H138.062C138.209 24.8 138.329 24.8467 138.422 24.94C138.516 25.0333 138.562 25.1533 138.562 25.3V28.6H141.062C141.196 28.6 141.309 28.6467 141.402 28.74C141.496 28.8333 141.542 28.9533 141.542 29.1V30.46C141.542 30.6067 141.496 30.7267 141.402 30.82C141.309 30.9133 141.196 30.96 141.062 30.96H138.562V34.92C138.562 35.4267 138.649 35.8267 138.822 36.12C139.009 36.4 139.329 36.54 139.782 36.54H141.242C141.376 36.54 141.489 36.5867 141.582 36.68C141.676 36.7733 141.722 36.8867 141.722 37.02V38.5C141.722 38.6467 141.676 38.7667 141.582 38.86C141.489 38.9533 141.376 39 141.242 39H139.502ZM143.947 39C143.814 39 143.7 38.9533 143.607 38.86C143.514 38.7667 143.467 38.6467 143.467 38.5V29.1C143.467 28.9533 143.514 28.8333 143.607 28.74C143.7 28.6467 143.814 28.6 143.947 28.6H145.947C146.094 28.6 146.214 28.6467 146.307 28.74C146.4 28.8333 146.447 28.9533 146.447 29.1V38.5C146.447 38.6467 146.4 38.7667 146.307 38.86C146.214 38.9533 146.094 39 145.947 39H143.947ZM143.887 27C143.754 27 143.64 26.9533 143.547 26.86C143.454 26.7667 143.407 26.6467 143.407 26.5V24.9C143.407 24.7533 143.454 24.6333 143.547 24.54C143.64 24.4333 143.754 24.38 143.887 24.38H145.987C146.134 24.38 146.254 24.4333 146.347 24.54C146.454 24.6333 146.507 24.7533 146.507 24.9V26.5C146.507 26.6467 146.454 26.7667 146.347 26.86C146.254 26.9533 146.134 27 145.987 27H143.887ZM149.943 39C149.81 39 149.696 38.9533 149.603 38.86C149.51 38.7667 149.463 38.6467 149.463 38.5V29.1C149.463 28.9533 149.51 28.8333 149.603 28.74C149.696 28.6467 149.81 28.6 149.943 28.6H151.903C152.05 28.6 152.17 28.6467 152.263 28.74C152.356 28.8333 152.403 28.9533 152.403 29.1V29.88C152.75 29.4533 153.196 29.1 153.743 28.82C154.29 28.54 154.956 28.4 155.743 28.4C156.53 28.4 157.216 28.58 157.803 28.94C158.403 29.2867 158.87 29.8 159.203 30.48C159.55 31.1467 159.723 31.96 159.723 32.92V38.5C159.723 38.6467 159.67 38.7667 159.563 38.86C159.47 38.9533 159.356 39 159.223 39H157.103C156.956 39 156.836 38.9533 156.743 38.86C156.65 38.7667 156.603 38.6467 156.603 38.5V33.04C156.603 32.3333 156.43 31.7867 156.083 31.4C155.75 31 155.256 30.8 154.603 30.8C153.976 30.8 153.476 31 153.103 31.4C152.73 31.7867 152.543 32.3333 152.543 33.04V38.5C152.543 38.6467 152.496 38.7667 152.403 38.86C152.31 38.9533 152.196 39 152.063 39H149.943ZM165.939 39.2C165.166 39.2 164.479 39.0267 163.879 38.68C163.293 38.32 162.833 37.8067 162.499 37.14C162.179 36.46 162.019 35.64 162.019 34.68V29.1C162.019 28.9533 162.066 28.8333 162.159 28.74C162.253 28.6467 162.366 28.6 162.499 28.6H164.619C164.766 28.6 164.886 28.6467 164.979 28.74C165.073 28.8333 165.119 28.9533 165.119 29.1V34.56C165.119 36.0533 165.773 36.8 167.079 36.8C167.706 36.8 168.199 36.6067 168.559 36.22C168.933 35.82 169.119 35.2667 169.119 34.56V29.1C169.119 28.9533 169.166 28.8333 169.259 28.74C169.353 28.6467 169.473 28.6 169.619 28.6H171.739C171.873 28.6 171.986 28.6467 172.079 28.74C172.173 28.8333 172.219 28.9533 172.219 29.1V38.5C172.219 38.6467 172.173 38.7667 172.079 38.86C171.986 38.9533 171.873 39 171.739 39H169.779C169.633 39 169.513 38.9533 169.419 38.86C169.326 38.7667 169.279 38.6467 169.279 38.5V37.72C168.933 38.2 168.486 38.5667 167.939 38.82C167.393 39.0733 166.726 39.2 165.939 39.2ZM179.377 39.2C177.843 39.2 176.623 38.7733 175.717 37.92C174.823 37.0667 174.35 35.8267 174.297 34.2C174.297 34.0933 174.297 33.9533 174.297 33.78C174.297 33.5933 174.297 33.4467 174.297 33.34C174.35 32.3133 174.583 31.4333 174.997 30.7C175.41 29.9533 175.99 29.3867 176.737 29C177.483 28.6 178.357 28.4 179.357 28.4C180.477 28.4 181.41 28.6333 182.157 29.1C182.917 29.5533 183.483 30.18 183.857 30.98C184.243 31.7667 184.437 32.6733 184.437 33.7V34.16C184.437 34.2933 184.383 34.4067 184.277 34.5C184.183 34.5933 184.07 34.64 183.937 34.64H177.397C177.397 34.6533 177.397 34.68 177.397 34.72C177.397 34.7467 177.397 34.7733 177.397 34.8C177.41 35.2267 177.49 35.62 177.637 35.98C177.797 36.3267 178.017 36.6067 178.297 36.82C178.59 37.0333 178.937 37.14 179.337 37.14C179.67 37.14 179.943 37.0933 180.157 37C180.37 36.9067 180.543 36.7933 180.677 36.66C180.823 36.5267 180.93 36.4133 180.997 36.32C181.117 36.1867 181.21 36.1067 181.277 36.08C181.357 36.04 181.477 36.02 181.637 36.02H183.717C183.85 36.02 183.957 36.06 184.037 36.14C184.13 36.2067 184.17 36.3067 184.157 36.44C184.143 36.6533 184.03 36.92 183.817 37.24C183.617 37.5467 183.317 37.8533 182.917 38.16C182.517 38.4533 182.017 38.7 181.417 38.9C180.83 39.1 180.15 39.2 179.377 39.2ZM177.397 32.82H181.317V32.78C181.317 32.3 181.237 31.8867 181.077 31.54C180.93 31.18 180.71 30.9 180.417 30.7C180.123 30.5 179.77 30.4 179.357 30.4C178.943 30.4 178.59 30.5 178.297 30.7C178.003 30.9 177.777 31.18 177.617 31.54C177.47 31.8867 177.397 32.3 177.397 32.78V32.82Z" fill="#131313"/>
</svg>
