<svg width="195" height="64" viewBox="0 0 195 64" fill="none" xmlns="http://www.w3.org/2000/svg">
<path d="M69.7046 15.3321H63.5429C63.1818 15.3321 62.893 15.6209 62.893 15.9819V17.5224C62.5801 17.3298 62.2431 17.1373 61.9062 16.9447C59.2585 15.5487 56.274 14.8507 52.9283 14.8507C49.5827 14.8507 46.5741 15.5487 43.9265 16.9447C41.2788 18.3407 39.1848 20.2903 37.6925 22.7695C36.2002 25.2486 35.4541 28.0647 35.4541 31.2178C35.4541 34.3708 36.2002 37.1869 37.6925 39.666C39.1848 42.1452 41.2788 44.0948 43.9265 45.4908C46.5741 46.8868 49.5827 47.5848 52.9283 47.5848C56.274 47.5848 59.2826 46.8868 61.9062 45.4908C62.2431 45.3223 62.5801 45.1297 62.893 44.9131V46.4536C62.893 46.8146 63.1818 47.1034 63.5429 47.1034H69.7046C70.0656 47.1034 70.3544 46.8146 70.3544 46.4536V15.9819C70.3544 15.6209 70.0656 15.3321 69.7046 15.3321ZM58.7531 37.6442C57.2367 39.2328 55.2871 40.0271 52.9283 40.0271C50.5696 40.0271 48.62 39.2328 47.0795 37.6442C45.5391 36.0557 44.7689 33.9135 44.7689 31.2418C44.7689 28.5701 45.5391 26.428 47.0795 24.8394C48.62 23.2508 50.5696 22.4566 52.9283 22.4566C55.2871 22.4566 57.2367 23.2508 58.7531 24.8394C60.2694 26.428 61.0397 28.5701 61.0397 31.2418C61.0156 33.9135 60.2694 36.0316 58.7531 37.6442Z" fill="black"/>
<path d="M19.3276 14.8507C17.1613 14.8507 15.1636 15.2117 13.3584 15.9338C11.5532 16.6559 10.0369 17.6909 8.80933 19.0387V15.9819C8.80933 15.6209 8.5205 15.3321 8.15946 15.3321H0.649868C0.28883 15.3321 0 15.6209 0 15.9819V46.4776C0 46.8387 0.28883 47.1275 0.649868 47.1275H8.56863C8.92967 47.1275 9.2185 46.8387 9.2185 46.4776V31.4103C9.2185 28.5701 9.91651 26.428 11.2885 25.0079C12.6604 23.5637 14.5137 22.8417 16.8484 22.8417C18.9425 22.8417 20.531 23.4675 21.6382 24.695C22.7454 25.9466 23.299 27.824 23.299 30.3272V46.4536C23.299 46.8146 23.5878 47.1034 23.9489 47.1034H31.8676C32.2287 47.1034 32.5175 46.8146 32.5175 46.4536V28.9071C32.5175 24.2618 31.314 20.7477 28.883 18.3889C26.4521 16.0301 23.2749 14.8507 19.3276 14.8507Z" fill="black"/>
<path d="M141.936 15.3321H134.474C134.21 15.3321 133.969 15.5006 133.873 15.7413L124.943 36.9703L116.302 15.7413C116.206 15.5006 115.965 15.3321 115.7 15.3321H108.576H107.613H101.139C100.874 15.3321 100.633 15.5006 100.537 15.7413L91.6072 36.9703L82.9663 15.7413C82.8701 15.5006 82.6294 15.3321 82.3646 15.3321H74.2773C73.82 15.3321 73.5071 15.8135 73.6756 16.2467L86.4804 46.7424C86.5767 46.9831 86.8174 47.1516 87.0822 47.1516H95.723C95.9878 47.1516 96.2285 46.9831 96.3247 46.7424L108.095 18.8462L119.816 46.7424C119.913 46.9831 120.153 47.1516 120.418 47.1516H129.059C129.324 47.1516 129.564 46.9831 129.661 46.7424L142.514 16.2467C142.73 15.8135 142.417 15.3321 141.936 15.3321Z" fill="black"/>
<path d="M186.296 49.7029C183.648 48.3069 180.639 47.6089 177.27 47.6089C173.924 47.6089 170.939 48.3069 168.292 49.7029C165.644 51.0989 163.574 53.0485 162.082 55.5276C160.686 57.8383 159.94 60.4378 159.844 63.3261C159.82 63.6871 160.132 64 160.493 64H168.533C168.87 64 169.158 63.7352 169.182 63.3742C169.303 60.9913 170.049 59.0417 171.445 57.5735C172.961 55.985 174.911 55.1907 177.27 55.1907C179.628 55.1907 181.578 55.985 183.119 57.5735C184.539 59.0417 185.309 60.9673 185.429 63.3742C185.453 63.7112 185.742 64 186.079 64H194.118C194.479 64 194.792 63.7112 194.768 63.3261C194.672 60.4378 193.926 57.8383 192.53 55.5276C191.037 53.0244 188.967 51.0989 186.296 49.7029Z" fill="black"/>
<path d="M147.448 10.3016C148.339 10.783 149.35 10.9996 150.481 10.9996C151.612 10.9996 152.623 10.7589 153.514 10.3016C154.404 9.82023 155.102 9.17037 155.608 8.32794C156.113 7.48552 156.354 6.54682 156.354 5.48778C156.354 4.42873 156.113 3.46596 155.608 2.64761C155.102 1.80519 154.404 1.15532 153.514 0.698007C152.623 0.216623 151.612 0 150.481 0C149.35 0 148.339 0.240692 147.448 0.698007C146.558 1.17939 145.86 1.82926 145.354 2.64761C144.849 3.49003 144.608 4.42873 144.608 5.48778C144.608 6.54682 144.849 7.50959 145.354 8.32794C145.835 9.17037 146.558 9.8443 147.448 10.3016Z" fill="black"/>
<path d="M194.118 14.8507H176.933C173.756 14.8988 170.891 15.5968 168.34 16.9447C165.692 18.3407 163.598 20.2903 162.106 22.7695C160.614 25.2486 159.868 28.0647 159.868 31.2178C159.868 34.3708 160.614 37.1869 162.106 39.666C163.598 42.1452 165.692 44.0948 168.34 45.4908C170.988 46.8868 173.996 47.5848 177.342 47.5848C180.688 47.5848 183.696 46.8868 186.32 45.4908C188.967 44.0948 191.037 42.1452 192.53 39.666C194.022 37.1869 194.768 34.3708 194.768 31.2178C194.768 28.0647 194.022 25.2486 192.53 22.7695C192.457 22.6491 192.385 22.5288 192.289 22.4084H194.118C194.479 22.4084 194.768 22.1196 194.768 21.7586V15.5006C194.768 15.1395 194.479 14.8507 194.118 14.8507ZM183.167 24.8153C184.683 26.4039 185.453 28.5461 185.453 31.2178C185.453 33.8894 184.683 36.0316 183.167 37.6202C181.65 39.2087 179.701 40.003 177.342 40.003C174.983 40.003 173.034 39.2087 171.493 37.6202C169.953 36.0316 169.182 33.8894 169.182 31.2178C169.182 28.5461 169.953 26.4039 171.493 24.8153C173.034 23.2268 174.983 22.4325 177.342 22.4325C179.701 22.4084 181.65 23.2268 183.167 24.8153Z" fill="black"/>
<path d="M157.364 15.3321H154.428H146.75H146.509C146.148 15.3321 145.859 15.6209 145.859 15.9819V46.4776C145.859 46.8387 146.148 47.1275 146.509 47.1275H154.428C154.789 47.1275 155.078 46.8387 155.078 46.4776V22.8898H157.364C157.725 22.8898 158.014 22.601 158.014 22.2399V15.9819C158.014 15.6209 157.725 15.3321 157.364 15.3321Z" fill="black"/>
</svg>
