<svg width="74" height="40" viewBox="0 0 74 40" fill="none" xmlns="http://www.w3.org/2000/svg">
<path d="M70.9979 9.67647C69.1743 6.64706 66.6449 4.26471 63.4096 2.55882C60.1743 0.852941 56.5272 0 52.439 0H52.4096H21.3529C17.2647 0 13.6176 0.852941 10.3824 2.55882C7.14706 4.26471 4.58823 6.64706 2.7647 9.67647C0.941166 12.7059 0 16.1471 0 20C0 23.8529 0.911754 27.2941 2.7647 30.3235C4.58823 33.3529 7.14706 35.7353 10.3824 37.4412C13.6176 39.1471 17.2647 40 21.3529 40H52.4096H52.439C56.5272 40 60.2037 39.1471 63.4096 37.4412C66.6449 35.7353 69.1743 33.3824 70.9979 30.3235C72.8214 27.2941 73.7331 23.8529 73.7331 20C73.7331 16.1471 72.8214 12.7059 70.9979 9.67647ZM59.5566 27.8529C57.7037 29.7941 55.3214 30.7647 52.439 30.7647H52.4096H21.3529C18.4706 30.7647 16.1176 29.7941 14.2353 27.8529C12.3529 25.9118 11.4118 23.2941 11.4118 20.0294C11.4118 16.7647 12.3529 14.1471 14.2353 12.1765C16.0882 10.2353 18.4706 9.26471 21.3529 9.26471H52.4096H52.439C55.3214 9.26471 57.7037 10.2353 59.5566 12.1765C61.4096 14.1176 62.3508 16.7353 62.3508 20.0294C62.3213 23.2941 61.4096 25.8824 59.5566 27.8529Z" fill="#131313"/>
<path d="M53.7926 19.1472L42.8808 12.9119C42.3514 12.6178 41.7043 13.0002 41.7043 13.5884V15.9414V23.4414V26.059C41.7043 26.6766 42.3514 27.059 42.8808 26.7649L53.7926 20.559C54.322 20.2355 54.322 19.4708 53.7926 19.1472Z" fill="#54FA80"/>
<path d="M34.8409 19.1472L23.9292 12.9119C23.3997 12.6178 22.7527 13.0002 22.7527 13.5884V15.9414V23.4414V26.059C22.7527 26.6766 23.3997 27.059 23.9292 26.7649L34.8409 20.559C35.3703 20.2355 35.3703 19.4708 34.8409 19.1472Z" fill="#54FA80"/>
</svg>
