<svg width="194" height="48" viewBox="0 0 194 48" fill="none" xmlns="http://www.w3.org/2000/svg">
<path d="M52.2908 11.4992H47.6684C47.3976 11.4992 47.1809 11.7158 47.1809 11.9866V13.1419C46.9462 12.9975 46.6934 12.8531 46.4406 12.7087C44.4544 11.6617 42.2154 11.1382 39.7056 11.1382C37.1957 11.1382 34.9387 11.6617 32.9525 12.7087C30.9663 13.7557 29.3954 15.2179 28.2759 17.0773C27.1564 18.9366 26.5967 21.0487 26.5967 23.4135C26.5967 25.7783 27.1564 27.8903 28.2759 29.7497C29.3954 31.609 30.9663 33.0712 32.9525 34.1182C34.9387 35.1653 37.1957 35.6888 39.7056 35.6888C42.2154 35.6888 44.4724 35.1653 46.4406 34.1182C46.6934 33.9919 46.9462 33.8475 47.1809 33.685V34.8403C47.1809 35.1111 47.3976 35.3277 47.6684 35.3277H52.2908C52.5617 35.3277 52.7783 35.1111 52.7783 34.8403V11.9866C52.7783 11.7158 52.5617 11.4992 52.2908 11.4992ZM44.0752 28.2333C42.9377 29.4248 41.4751 30.0205 39.7056 30.0205C37.936 30.0205 36.4735 29.4248 35.3179 28.2333C34.1623 27.0419 33.5845 25.4353 33.5845 23.4315C33.5845 21.4278 34.1623 19.8211 35.3179 18.6297C36.4735 17.4383 37.936 16.8426 39.7056 16.8426C41.4751 16.8426 42.9377 17.4383 44.0752 18.6297C45.2127 19.8211 45.7906 21.4278 45.7906 23.4315C45.7725 25.4353 45.2127 27.0239 44.0752 28.2333Z" fill="#131313"/>
<path d="M14.4992 11.1382C12.8742 11.1382 11.3755 11.409 10.0213 11.9505C8.66704 12.4921 7.52949 13.2683 6.60861 14.2792V11.9866C6.60861 11.7158 6.39194 11.4992 6.12109 11.4992H0.487521C0.216676 11.4992 0 11.7158 0 11.9866V34.8584C0 35.1292 0.216676 35.3458 0.487521 35.3458H6.42805C6.6989 35.3458 6.91557 35.1292 6.91557 34.8584V23.5579C6.91557 21.4278 7.43921 19.8211 8.46842 18.7561C9.49763 17.673 10.888 17.1314 12.6394 17.1314C14.2103 17.1314 15.402 17.6008 16.2326 18.5214C17.0632 19.4601 17.4785 20.8682 17.4785 22.7456V34.8403C17.4785 35.1111 17.6952 35.3277 17.966 35.3277H23.9066C24.1774 35.3277 24.3941 35.1111 24.3941 34.8403V21.6805C24.3941 18.1965 23.4913 15.5609 21.6676 13.7918C19.8439 12.0227 17.4605 11.1382 14.4992 11.1382Z" fill="#131313"/>
<path d="M106.478 11.499H100.881C100.682 11.499 100.502 11.6254 100.429 11.8059L93.7305 27.7277L87.2483 11.8059C87.176 11.6254 86.9955 11.499 86.7969 11.499H81.4522H80.7299H75.8728C75.6742 11.499 75.4936 11.6254 75.4214 11.8059L68.7225 27.7277L62.2403 11.8059C62.168 11.6254 61.9875 11.499 61.7888 11.499H55.7219C55.3789 11.499 55.1441 11.8601 55.2705 12.185L64.8765 35.0568C64.9487 35.2373 65.1293 35.3636 65.3279 35.3636H71.8101C72.0087 35.3636 72.1893 35.2373 72.2615 35.0568L81.0911 14.1346L89.8845 35.0568C89.9567 35.2373 90.1373 35.3636 90.3359 35.3636H96.8181C97.0167 35.3636 97.1973 35.2373 97.2695 35.0568L106.912 12.185C107.074 11.8601 106.839 11.499 106.478 11.499Z" fill="#131313"/>
<path d="M191.921 17.0773C190.801 15.2179 189.249 13.7557 187.262 12.7087C185.276 11.6617 183.037 11.1382 180.527 11.1382H180.509H161.424C158.914 11.1382 156.675 11.6617 154.689 12.7087C152.703 13.7557 151.132 15.2179 150.012 17.0773C148.893 18.9366 148.315 21.0487 148.315 23.4135C148.315 25.7783 148.875 27.8903 150.012 29.7497C151.132 31.609 152.703 33.0712 154.689 34.1182C156.675 35.1653 158.914 35.6888 161.424 35.6888H180.509H180.527C183.037 35.6888 185.294 35.1653 187.262 34.1182C189.249 33.0712 190.801 31.6271 191.921 29.7497C193.04 27.8903 193.6 25.7783 193.6 23.4135C193.6 21.0487 193.04 18.9366 191.921 17.0773ZM184.897 28.2333C183.76 29.4248 182.297 30.0205 180.527 30.0205H180.509H161.424C159.654 30.0205 158.21 29.4248 157.054 28.2333C155.899 27.0419 155.321 25.4353 155.321 23.4315C155.321 21.4278 155.899 19.8211 157.054 18.6117C158.192 17.4202 159.654 16.8245 161.424 16.8245H180.509H180.527C182.297 16.8245 183.76 17.4202 184.897 18.6117C186.035 19.8031 186.612 21.4097 186.612 23.4315C186.594 25.4353 186.035 27.0239 184.897 28.2333Z" fill="#131313"/>
<path d="M139.756 37.2771C137.77 36.2301 135.513 35.7065 132.985 35.7065C130.475 35.7065 128.236 36.2301 126.25 37.2771C124.264 38.3241 122.711 39.7863 121.591 41.6456C120.544 43.3786 119.984 45.3282 119.912 47.4944C119.894 47.7652 120.129 47.9999 120.4 47.9999H126.43C126.683 47.9999 126.9 47.8013 126.918 47.5305C127.008 45.7434 127.568 44.2812 128.615 43.18C129.753 41.9886 131.215 41.3929 132.985 41.3929C134.754 41.3929 136.217 41.9886 137.373 43.18C138.438 44.2812 139.016 45.7253 139.106 47.5305C139.124 47.7833 139.341 47.9999 139.594 47.9999H145.624C145.895 47.9999 146.13 47.7833 146.112 47.4944C146.04 45.3282 145.48 43.3786 144.433 41.6456C143.313 39.7682 141.76 38.3241 139.756 37.2771Z" fill="#131313"/>
<path d="M110.613 7.72621C111.281 8.08725 112.04 8.24972 112.888 8.24972C113.737 8.24972 114.495 8.0692 115.163 7.72621C115.831 7.36517 116.355 6.87777 116.734 6.24596C117.113 5.61414 117.294 4.91012 117.294 4.11583C117.294 3.32155 117.113 2.59947 116.734 1.98571C116.355 1.35389 115.831 0.866491 115.163 0.523505C114.495 0.162467 113.737 0 112.888 0C112.04 0 111.281 0.180519 110.613 0.523505C109.945 0.884543 109.421 1.37194 109.042 1.98571C108.663 2.61753 108.482 3.32155 108.482 4.11583C108.482 4.91012 108.663 5.63219 109.042 6.24596C109.403 6.87777 109.945 7.38323 110.613 7.72621Z" fill="#131313"/>
<path d="M145.624 11.1382H132.732C130.349 11.1743 128.2 11.6978 126.286 12.7087C124.3 13.7557 122.729 15.2179 121.609 17.0773C120.49 18.9366 119.93 21.0487 119.93 23.4135C119.93 25.7783 120.49 27.8903 121.609 29.7497C122.729 31.609 124.3 33.0712 126.286 34.1182C128.272 35.1653 130.529 35.6888 133.039 35.6888C135.549 35.6888 137.806 35.1653 139.774 34.1182C141.76 33.0712 143.313 31.609 144.433 29.7497C145.552 27.8903 146.112 25.7783 146.112 23.4135C146.112 21.0487 145.552 18.9366 144.433 17.0773C144.378 16.987 144.324 16.8967 144.252 16.8065H145.624C145.895 16.8065 146.112 16.5899 146.112 16.3191V11.6256C146.112 11.3548 145.895 11.1382 145.624 11.1382ZM137.409 18.6117C138.546 19.8031 139.124 21.4097 139.124 23.4135C139.124 25.4172 138.546 27.0239 137.409 28.2153C136.271 29.4067 134.809 30.0024 133.039 30.0024C131.27 30.0024 129.807 29.4067 128.651 28.2153C127.496 27.0239 126.918 25.4172 126.918 23.4135C126.918 21.4097 127.496 19.8031 128.651 18.6117C129.807 17.4202 131.27 16.8245 133.039 16.8245C134.809 16.8065 136.271 17.4202 137.409 18.6117Z" fill="#131313"/>
<path d="M118.052 11.499H115.849H110.089H109.909C109.638 11.499 109.421 11.7156 109.421 11.9864V34.8582C109.421 35.129 109.638 35.3456 109.909 35.3456H115.849C116.12 35.3456 116.337 35.129 116.337 34.8582V17.1673H118.052C118.323 17.1673 118.54 16.9507 118.54 16.6799V11.9864C118.54 11.7156 118.323 11.499 118.052 11.499Z" fill="#131313"/>
<path d="M181.358 22.8897L174.659 19.0627C174.334 18.8822 173.937 19.1169 173.937 19.4779V20.9221V25.5253V27.1319C173.937 27.511 174.334 27.7457 174.659 27.5652L181.358 23.7562C181.683 23.5576 181.683 23.0883 181.358 22.8897Z" fill="#54FA80"/>
<path d="M169.621 22.8897L162.922 19.0627C162.597 18.8822 162.2 19.1169 162.2 19.4779V20.9221V25.5253V27.1319C162.2 27.511 162.597 27.7457 162.922 27.5652L169.621 23.7562C169.946 23.5576 169.946 23.0883 169.621 22.8897Z" fill="#54FA80"/>
</svg>
