<svg width="25" height="33" viewBox="0 0 25 33" fill="none" xmlns="http://www.w3.org/2000/svg">
<path d="M0 25.1764H6.9136C9.2724 25.1764 11.222 24.3821 12.7383 22.7935C14.2547 21.1809 15.0009 19.0628 15.0249 16.3911C15.0249 13.6954 14.2547 11.5532 12.7383 9.96466C11.222 8.37607 9.2724 7.58179 6.9136 7.58179H0V0H6.9136C10.2592 0 13.2438 0.697998 15.8914 2.09402C18.539 3.49002 20.609 5.43964 22.1013 7.91876C23.5936 10.3979 24.3397 13.214 24.3397 16.3671C24.3397 19.5201 23.5936 22.3362 22.1013 24.8153C20.609 27.3185 18.539 29.2441 15.8914 30.6401C13.2679 32.0361 10.2592 32.7341 6.9136 32.7341H0V25.1764Z" fill="black"/>
</svg>
