<svg width="24" height="33" viewBox="0 0 24 33" fill="none" xmlns="http://www.w3.org/2000/svg">
<path d="M24 0H17.4742C14.1286 0 11.144 0.697998 8.49643 2.09402C5.84882 3.49002 3.75479 5.43964 2.26248 7.91876C0.770203 10.3979 0 13.214 0 16.3671C0 19.5201 0.746124 22.3362 2.26248 24.8153C3.75479 27.2945 5.84882 29.2441 8.49643 30.6401C11.144 32.0361 14.1286 32.7341 17.4742 32.7341H24V25.1764H17.4742C15.1154 25.1764 13.1899 24.3821 11.6495 22.7935C10.1091 21.205 9.33884 19.0628 9.33884 16.3911C9.33884 13.7195 10.1091 11.5773 11.6495 9.96466C13.1658 8.37607 15.1154 7.58179 17.4742 7.58179H24V0Z" fill="black"/>
</svg>
