<svg width="247" height="34" viewBox="0 0 247 34" fill="none" xmlns="http://www.w3.org/2000/svg">
<path d="M244.127 8.76947C242.635 6.29035 240.565 4.34074 237.917 2.94473C235.27 1.54871 232.285 0.850708 228.939 0.850708H228.915H17.4742C14.1286 0.850708 11.144 1.54871 8.49643 2.94473C5.84881 4.34074 3.75479 6.29035 2.2625 8.76947C0.770206 11.2486 0 14.0647 0 17.2178C0 20.3708 0.746136 23.1869 2.2625 25.6661C3.75479 28.1452 5.84881 30.0948 8.49643 31.4908C11.144 32.8868 14.1286 33.5848 17.4742 33.5848H228.915H228.939C232.285 33.5848 235.294 32.8868 237.917 31.4908C240.565 30.0948 242.635 28.1692 244.127 25.6661C245.619 23.1869 246.366 20.3708 246.366 17.2178C246.366 14.0647 245.619 11.2486 244.127 8.76947ZM234.764 23.6442C233.248 25.2328 231.298 26.0271 228.939 26.0271H228.915H17.4742C15.1155 26.0271 13.1899 25.2328 11.6495 23.6442C10.1091 22.0557 9.33885 19.9135 9.33885 17.2418C9.33885 14.5701 10.1091 12.428 11.6495 10.8154C13.1658 9.22679 15.1155 8.43251 17.4742 8.43251H228.915H228.939C231.298 8.43251 233.248 9.22679 234.764 10.8154C236.281 12.4039 237.051 14.5461 237.051 17.2418C237.027 19.9135 236.281 22.0316 234.764 23.6442Z" fill="black"/>
</svg>
