<svg width="390" height="55" viewBox="0 0 390 55" fill="none" xmlns="http://www.w3.org/2000/svg">
<path d="M-80 45.3123C-66.6829 50.1415 -30.8982 51.0311 13.5122 34.3367C45 22.5 104.829 5.36105 89.0244 19.8489C73.2195 34.3367 62.561 45.0685 68.2683 51.2148C72.8341 56.1319 91.9512 40.0441 100.439 30.3856C97.3659 35.9465 92.5366 47.5075 97.8049 49.2636C104.39 51.4587 115.061 34.3368 115.5 31.2636C115.939 28.1904 111.415 28.1905 111.854 31.2636C112.293 34.3367 112.505 43.3538 126.78 40.9221C141 38.5 144 30.3856 141.707 28.1904C139.858 26.42 123.584 31.1974 127 46C130 59 171.122 31.2637 177.268 25.5563C183.415 19.8489 196.585 7.11725 192.195 2.72701C187.805 -1.66324 162.341 14.5807 158.829 31.2636C155.317 47.9465 169.805 51.971 187.805 37.9221C202.205 26.683 206.707 25.7025 207 26.8733C199.5 28.1904 192.107 40.5708 197.024 44.4342C203.171 49.2636 219.415 37.8489 222.488 32.1416C220.293 35.6537 216.741 44.0923 221.171 44.4342C228.5 45 235.22 33.8977 235.659 26.8733C236.098 19.8489 228.193 20 224 28.1904C220.953 34.1434 225.122 39.1659 235.659 35.2147C244.088 32.0538 253.561 25.5318 258.244 22.1659C254.146 27.8733 249.478 41.3074 251.585 49.3855C257 41.7757 267.112 26.5563 276.244 26.5563C287.659 26.5563 269.659 44.9952 269.22 49.3855C274.195 43.3855 287.551 30.5612 293.171 31.2636C300.195 32.1416 286.146 44.4342 295.805 44.4342C305.463 44.4342 312.171 40.0439 317 35.2147C321.829 30.3856 322.981 25.9463 319.073 25.5563C313.5 25 295 36.5 306.268 48.3855C320.059 62.9313 366.709 36.5535 378.78 32.1416C412 20 427.951 22.483 460 32.1416" stroke="#54FA80" stroke-width="4" stroke-linecap="round" stroke-linejoin="round"/>
</svg>
