<svg width="246" height="48" viewBox="0 0 246 48" fill="none" xmlns="http://www.w3.org/2000/svg">
<rect width="246" height="48" rx="16" fill="white"/>
<path d="M24.288 29.16C23.6053 29.16 23.024 29.0107 22.544 28.712C22.0747 28.4027 21.7173 27.976 21.472 27.432C21.2267 26.888 21.104 26.264 21.104 25.56V21.048C21.104 20.9413 21.136 20.856 21.2 20.792C21.2747 20.7173 21.3653 20.68 21.472 20.68H22.272C22.3787 20.68 22.464 20.7173 22.528 20.792C22.6027 20.856 22.64 20.9413 22.64 21.048V25.48C22.64 27.0693 23.3333 27.864 24.72 27.864C25.3813 27.864 25.9093 27.656 26.304 27.24C26.7093 26.8133 26.912 26.2267 26.912 25.48V21.048C26.912 20.9413 26.944 20.856 27.008 20.792C27.0827 20.7173 27.1733 20.68 27.28 20.68H28.064C28.1813 20.68 28.272 20.7173 28.336 20.792C28.4 20.856 28.432 20.9413 28.432 21.048V28.632C28.432 28.7387 28.4 28.8293 28.336 28.904C28.272 28.968 28.1813 29 28.064 29H27.328C27.2213 29 27.1307 28.968 27.056 28.904C26.992 28.8293 26.96 28.7387 26.96 28.632V27.928C26.672 28.3013 26.32 28.6 25.904 28.824C25.4987 29.048 24.96 29.16 24.288 29.16ZM34.217 32.52C33.4917 32.52 32.8943 32.424 32.425 32.232C31.9663 32.04 31.6037 31.8053 31.337 31.528C31.081 31.2613 30.8943 30.9893 30.777 30.712C30.6703 30.4453 30.6117 30.232 30.601 30.072C30.5903 29.9653 30.6223 29.8747 30.697 29.8C30.7823 29.7253 30.873 29.688 30.969 29.688H31.737C31.833 29.688 31.913 29.7093 31.977 29.752C32.041 29.7947 32.0943 29.8853 32.137 30.024C32.201 30.184 32.297 30.36 32.425 30.552C32.553 30.7547 32.7503 30.9253 33.017 31.064C33.2837 31.2133 33.657 31.288 34.137 31.288C34.6383 31.288 35.0597 31.2187 35.401 31.08C35.7423 30.952 35.9983 30.7173 36.169 30.376C36.3503 30.0453 36.441 29.5867 36.441 29V27.912C36.185 28.2427 35.849 28.52 35.433 28.744C35.017 28.9573 34.4943 29.064 33.865 29.064C33.2677 29.064 32.7557 28.9627 32.329 28.76C31.9023 28.5467 31.5503 28.264 31.273 27.912C31.0063 27.5493 30.8037 27.1387 30.665 26.68C30.537 26.2213 30.4623 25.7413 30.441 25.24C30.4303 24.9413 30.4303 24.648 30.441 24.36C30.4623 23.8587 30.537 23.3787 30.665 22.92C30.8037 22.4613 31.0063 22.0507 31.273 21.688C31.5503 21.3253 31.9023 21.0427 32.329 20.84C32.7557 20.6267 33.2677 20.52 33.865 20.52C34.505 20.52 35.033 20.6427 35.449 20.888C35.8757 21.1227 36.2223 21.4107 36.489 21.752V21.064C36.489 20.9573 36.521 20.8667 36.585 20.792C36.6597 20.7173 36.7503 20.68 36.857 20.68H37.593C37.6997 20.68 37.7903 20.7173 37.865 20.792C37.9397 20.8667 37.977 20.9573 37.977 21.064V28.824C37.977 29.5387 37.8543 30.1733 37.609 30.728C37.3743 31.2827 36.9797 31.72 36.425 32.04C35.881 32.36 35.145 32.52 34.217 32.52ZM34.185 27.784C34.7183 27.784 35.145 27.6613 35.465 27.416C35.7957 27.1707 36.0357 26.8613 36.185 26.488C36.345 26.1147 36.4303 25.736 36.441 25.352C36.4517 25.2027 36.457 25.0213 36.457 24.808C36.457 24.584 36.4517 24.3973 36.441 24.248C36.4303 23.864 36.345 23.4853 36.185 23.112C36.0357 22.7387 35.7957 22.4293 35.465 22.184C35.145 21.9387 34.7183 21.816 34.185 21.816C33.6517 21.816 33.225 21.9387 32.905 22.184C32.585 22.4187 32.3557 22.7333 32.217 23.128C32.0783 23.512 31.9983 23.928 31.977 24.376C31.9663 24.6533 31.9663 24.936 31.977 25.224C31.9983 25.672 32.0783 26.0933 32.217 26.488C32.3557 26.872 32.585 27.1867 32.905 27.432C33.225 27.6667 33.6517 27.784 34.185 27.784ZM43.4599 29.16C42.7772 29.16 42.1959 29.0107 41.7159 28.712C41.2465 28.4027 40.8892 27.976 40.6439 27.432C40.3985 26.888 40.2759 26.264 40.2759 25.56V21.048C40.2759 20.9413 40.3079 20.856 40.3719 20.792C40.4465 20.7173 40.5372 20.68 40.6439 20.68H41.4439C41.5505 20.68 41.6359 20.7173 41.6999 20.792C41.7745 20.856 41.8119 20.9413 41.8119 21.048V25.48C41.8119 27.0693 42.5052 27.864 43.8919 27.864C44.5532 27.864 45.0812 27.656 45.4759 27.24C45.8812 26.8133 46.0839 26.2267 46.0839 25.48V21.048C46.0839 20.9413 46.1159 20.856 46.1799 20.792C46.2545 20.7173 46.3452 20.68 46.4519 20.68H47.2359C47.3532 20.68 47.4439 20.7173 47.5079 20.792C47.5719 20.856 47.6039 20.9413 47.6039 21.048V28.632C47.6039 28.7387 47.5719 28.8293 47.5079 28.904C47.4439 28.968 47.3532 29 47.2359 29H46.4999C46.3932 29 46.3025 28.968 46.2279 28.904C46.1639 28.8293 46.1319 28.7387 46.1319 28.632V27.928C45.8439 28.3013 45.4919 28.6 45.0759 28.824C44.6705 29.048 44.1319 29.16 43.4599 29.16ZM50.3489 29C50.2422 29 50.1515 28.968 50.0769 28.904C50.0129 28.8293 49.9809 28.7387 49.9809 28.632V21.064C49.9809 20.9573 50.0129 20.8667 50.0769 20.792C50.1515 20.7173 50.2422 20.68 50.3489 20.68H51.0849C51.1915 20.68 51.2822 20.7173 51.3569 20.792C51.4315 20.8667 51.4689 20.9573 51.4689 21.064V21.768C51.6822 21.4053 51.9755 21.1333 52.3489 20.952C52.7222 20.7707 53.1702 20.68 53.6929 20.68H54.3329C54.4395 20.68 54.5249 20.7173 54.5889 20.792C54.6529 20.856 54.6849 20.9413 54.6849 21.048V21.704C54.6849 21.8107 54.6529 21.896 54.5889 21.96C54.5249 22.024 54.4395 22.056 54.3329 22.056H53.3729C52.7969 22.056 52.3435 22.2267 52.0129 22.568C51.6822 22.8987 51.5169 23.352 51.5169 23.928V28.632C51.5169 28.7387 51.4795 28.8293 51.4049 28.904C51.3302 28.968 51.2395 29 51.1329 29H50.3489ZM59.2628 29.16C58.5054 29.16 57.8494 29.016 57.2948 28.728C56.7508 28.4293 56.3294 28.008 56.0308 27.464C55.7321 26.9093 55.5721 26.248 55.5508 25.48C55.5401 25.32 55.5348 25.1067 55.5348 24.84C55.5348 24.5733 55.5401 24.36 55.5508 24.2C55.5721 23.432 55.7321 22.776 56.0308 22.232C56.3294 21.6773 56.7508 21.256 57.2948 20.968C57.8494 20.6693 58.5054 20.52 59.2628 20.52C59.8814 20.52 60.4094 20.6053 60.8468 20.776C61.2948 20.9467 61.6628 21.1653 61.9508 21.432C62.2388 21.6987 62.4521 21.9867 62.5908 22.296C62.7401 22.6053 62.8201 22.8987 62.8308 23.176C62.8414 23.2827 62.8094 23.368 62.7348 23.432C62.6601 23.496 62.5694 23.528 62.4628 23.528H61.6948C61.5881 23.528 61.5081 23.5067 61.4548 23.464C61.4014 23.4107 61.3481 23.3253 61.2948 23.208C61.1028 22.6853 60.8414 22.3173 60.5108 22.104C60.1801 21.8907 59.7694 21.784 59.2788 21.784C58.6388 21.784 58.1161 21.9813 57.7108 22.376C57.3161 22.7707 57.1028 23.4053 57.0707 24.28C57.0601 24.664 57.0601 25.0373 57.0707 25.4C57.1028 26.2853 57.3161 26.9253 57.7108 27.32C58.1161 27.704 58.6388 27.896 59.2788 27.896C59.7694 27.896 60.1801 27.7893 60.5108 27.576C60.8414 27.3627 61.1028 26.9947 61.2948 26.472C61.3481 26.3547 61.4014 26.2747 61.4548 26.232C61.5081 26.1787 61.5881 26.152 61.6948 26.152H62.4628C62.5694 26.152 62.6601 26.184 62.7348 26.248C62.8094 26.312 62.8414 26.3973 62.8308 26.504C62.8201 26.728 62.7721 26.9573 62.6868 27.192C62.6014 27.4267 62.4628 27.6667 62.2708 27.912C62.0894 28.1467 61.8601 28.36 61.5828 28.552C61.3054 28.7333 60.9694 28.8827 60.5748 29C60.1908 29.1067 59.7534 29.16 59.2628 29.16ZM65.0989 29C64.9922 29 64.9015 28.968 64.8269 28.904C64.7629 28.8293 64.7309 28.7387 64.7309 28.632V21.048C64.7309 20.9413 64.7629 20.856 64.8269 20.792C64.9015 20.7173 64.9922 20.68 65.0989 20.68H65.8669C65.9735 20.68 66.0589 20.7173 66.1229 20.792C66.1869 20.856 66.2189 20.9413 66.2189 21.048V28.632C66.2189 28.7387 66.1869 28.8293 66.1229 28.904C66.0589 28.968 65.9735 29 65.8669 29H65.0989ZM64.9709 19.128C64.8642 19.128 64.7735 19.096 64.6989 19.032C64.6349 18.9573 64.6029 18.8667 64.6029 18.76V17.896C64.6029 17.7893 64.6349 17.704 64.6989 17.64C64.7735 17.5653 64.8642 17.528 64.9709 17.528H65.9789C66.0855 17.528 66.1709 17.5653 66.2349 17.64C66.3095 17.704 66.3469 17.7893 66.3469 17.896V18.76C66.3469 18.8667 66.3095 18.9573 66.2349 19.032C66.1709 19.096 66.0855 19.128 65.9789 19.128H64.9709ZM68.9899 29C68.8832 29 68.7925 28.968 68.7179 28.904C68.6539 28.8293 68.6219 28.7387 68.6219 28.632V18.008C68.6219 17.9013 68.6539 17.816 68.7179 17.752C68.7925 17.6773 68.8832 17.64 68.9899 17.64H69.7419C69.8592 17.64 69.9499 17.6773 70.0139 17.752C70.0779 17.816 70.1099 17.9013 70.1099 18.008V28.632C70.1099 28.7387 70.0779 28.8293 70.0139 28.904C69.9499 28.968 69.8592 29 69.7419 29H68.9899ZM76.6085 29.16C75.9685 29.16 75.4352 29.048 75.0085 28.824C74.5818 28.5893 74.2405 28.3013 73.9845 27.96V28.632C73.9845 28.7387 73.9472 28.8293 73.8725 28.904C73.8085 28.968 73.7232 29 73.6165 29H72.8805C72.7738 29 72.6832 28.968 72.6085 28.904C72.5445 28.8293 72.5125 28.7387 72.5125 28.632V18.008C72.5125 17.9013 72.5445 17.816 72.6085 17.752C72.6832 17.6773 72.7738 17.64 72.8805 17.64H73.6485C73.7658 17.64 73.8565 17.6773 73.9205 17.752C73.9845 17.816 74.0165 17.9013 74.0165 18.008V21.688C74.2832 21.3573 74.6245 21.08 75.0405 20.856C75.4672 20.632 75.9898 20.52 76.6085 20.52C77.2058 20.52 77.7125 20.6267 78.1285 20.84C78.5552 21.0427 78.9018 21.3253 79.1685 21.688C79.4458 22.0507 79.6538 22.4613 79.7925 22.92C79.9312 23.3787 80.0058 23.8587 80.0165 24.36C80.0272 24.5307 80.0325 24.6907 80.0325 24.84C80.0325 24.9893 80.0272 25.1493 80.0165 25.32C80.0058 25.832 79.9312 26.3173 79.7925 26.776C79.6538 27.2347 79.4458 27.6453 79.1685 28.008C78.9018 28.36 78.5552 28.6427 78.1285 28.856C77.7125 29.0587 77.2058 29.16 76.6085 29.16ZM76.2725 27.864C76.8272 27.864 77.2592 27.7467 77.5685 27.512C77.8885 27.2667 78.1178 26.952 78.2565 26.568C78.3952 26.1733 78.4752 25.752 78.4965 25.304C78.5072 24.9947 78.5072 24.6853 78.4965 24.376C78.4752 23.928 78.3952 23.512 78.2565 23.128C78.1178 22.7333 77.8885 22.4187 77.5685 22.184C77.2592 21.9387 76.8272 21.816 76.2725 21.816C75.7712 21.816 75.3552 21.9333 75.0245 22.168C74.6938 22.4027 74.4432 22.7013 74.2725 23.064C74.1125 23.4267 74.0272 23.7947 74.0165 24.168C74.0058 24.3387 74.0005 24.5467 74.0005 24.792C74.0005 25.0267 74.0058 25.2293 74.0165 25.4C74.0378 25.7947 74.1232 26.184 74.2725 26.568C74.4325 26.9413 74.6725 27.2507 74.9925 27.496C75.3232 27.7413 75.7498 27.864 76.2725 27.864ZM84.3321 29.16C83.7988 29.16 83.3135 29.0533 82.8761 28.84C82.4388 28.6267 82.0868 28.3387 81.8201 27.976C81.5535 27.6133 81.4201 27.2027 81.4201 26.744C81.4201 26.008 81.7188 25.4213 82.3161 24.984C82.9135 24.5467 83.6921 24.2587 84.6521 24.12L87.0361 23.784V23.32C87.0361 22.808 86.8868 22.408 86.5881 22.12C86.3001 21.832 85.8255 21.688 85.1641 21.688C84.6841 21.688 84.2948 21.784 83.9961 21.976C83.7081 22.168 83.5055 22.4133 83.3881 22.712C83.3241 22.872 83.2121 22.952 83.0521 22.952H82.3321C82.2148 22.952 82.1241 22.92 82.0601 22.856C82.0068 22.7813 81.9801 22.696 81.9801 22.6C81.9801 22.44 82.0388 22.2427 82.1561 22.008C82.2841 21.7733 82.4761 21.544 82.7321 21.32C82.9881 21.096 83.3135 20.9093 83.7081 20.76C84.1135 20.6 84.6041 20.52 85.1801 20.52C85.8201 20.52 86.3588 20.6053 86.7961 20.776C87.2335 20.936 87.5748 21.1547 87.8201 21.432C88.0761 21.7093 88.2575 22.024 88.3641 22.376C88.4815 22.728 88.5401 23.0853 88.5401 23.448V28.632C88.5401 28.7387 88.5028 28.8293 88.4281 28.904C88.3641 28.968 88.2788 29 88.1721 29H87.4361C87.3188 29 87.2281 28.968 87.1641 28.904C87.1001 28.8293 87.0681 28.7387 87.0681 28.632V27.944C86.9295 28.136 86.7428 28.328 86.5081 28.52C86.2735 28.7013 85.9801 28.856 85.6281 28.984C85.2761 29.1013 84.8441 29.16 84.3321 29.16ZM84.6681 27.96C85.1055 27.96 85.5055 27.8693 85.8681 27.688C86.2308 27.496 86.5135 27.2027 86.7161 26.808C86.9295 26.4133 87.0361 25.9173 87.0361 25.32V24.872L85.1801 25.144C84.4228 25.2507 83.8521 25.432 83.4681 25.688C83.0841 25.9333 82.8921 26.248 82.8921 26.632C82.8921 26.9307 82.9775 27.1813 83.1481 27.384C83.3295 27.576 83.5535 27.72 83.8201 27.816C84.0975 27.912 84.3801 27.96 84.6681 27.96ZM93.7203 29.16C93.1229 29.16 92.6109 29.0853 92.1843 28.936C91.7576 28.7867 91.4109 28.6053 91.1443 28.392C90.8776 28.1787 90.6749 27.9653 90.5363 27.752C90.4083 27.5387 90.3389 27.368 90.3283 27.24C90.3176 27.1227 90.3549 27.032 90.4403 26.968C90.5256 26.904 90.6109 26.872 90.6963 26.872H91.4003C91.4643 26.872 91.5123 26.8827 91.5443 26.904C91.5869 26.9147 91.6403 26.9573 91.7043 27.032C91.8429 27.1813 91.9976 27.3307 92.1683 27.48C92.3389 27.6293 92.5469 27.752 92.7923 27.848C93.0483 27.944 93.3629 27.992 93.7363 27.992C94.2803 27.992 94.7283 27.8907 95.0803 27.688C95.4323 27.4747 95.6083 27.1653 95.6083 26.76C95.6083 26.4933 95.5336 26.28 95.3843 26.12C95.2456 25.96 94.9896 25.816 94.6163 25.688C94.2536 25.56 93.7523 25.4267 93.1123 25.288C92.4723 25.1387 91.9656 24.9573 91.5923 24.744C91.2189 24.52 90.9523 24.2587 90.7923 23.96C90.6323 23.6507 90.5523 23.304 90.5523 22.92C90.5523 22.5253 90.6696 22.1467 90.9043 21.784C91.1389 21.4107 91.4803 21.1067 91.9283 20.872C92.3869 20.6373 92.9576 20.52 93.6403 20.52C94.1949 20.52 94.6696 20.5893 95.0643 20.728C95.4589 20.8667 95.7843 21.0427 96.0403 21.256C96.2963 21.4587 96.4883 21.6613 96.6163 21.864C96.7443 22.0667 96.8136 22.2373 96.8243 22.376C96.8349 22.4827 96.8029 22.5733 96.7283 22.648C96.6536 22.712 96.5683 22.744 96.4723 22.744H95.8003C95.7256 22.744 95.6616 22.728 95.6083 22.696C95.5656 22.664 95.5229 22.6267 95.4803 22.584C95.3736 22.4453 95.2456 22.3067 95.0963 22.168C94.9576 22.0293 94.7709 21.9173 94.5363 21.832C94.3123 21.736 94.0136 21.688 93.6403 21.688C93.1069 21.688 92.7069 21.8 92.4403 22.024C92.1736 22.248 92.0403 22.5307 92.0403 22.872C92.0403 23.0747 92.0989 23.256 92.2163 23.416C92.3336 23.576 92.5576 23.72 92.8883 23.848C93.2189 23.976 93.7096 24.1147 94.3602 24.264C95.0643 24.4027 95.6189 24.5893 96.0243 24.824C96.4296 25.0587 96.7176 25.3307 96.8883 25.64C97.0589 25.9493 97.1443 26.3067 97.1443 26.712C97.1443 27.16 97.0109 27.5707 96.7443 27.944C96.4883 28.3173 96.1043 28.616 95.5923 28.84C95.0909 29.0533 94.4669 29.16 93.7203 29.16ZM104.389 30.888C103.247 30.888 102.277 30.696 101.477 30.312C100.677 29.928 100.053 29.3733 99.6045 28.648C99.1565 27.912 98.8792 27.032 98.7725 26.008C98.7618 25.8587 98.7512 25.6613 98.7405 25.416C98.7298 25.1707 98.7245 24.9093 98.7245 24.632C98.7245 24.3547 98.7298 24.0933 98.7405 23.848C98.7512 23.6027 98.7618 23.4107 98.7725 23.272C98.8472 22.5467 99.0232 21.88 99.3005 21.272C99.5778 20.664 99.9458 20.1467 100.405 19.72C100.874 19.2827 101.434 18.9467 102.085 18.712C102.735 18.4773 103.482 18.36 104.325 18.36C105.295 18.36 106.133 18.472 106.837 18.696C107.551 18.92 108.143 19.2453 108.613 19.672C109.093 20.0987 109.455 20.616 109.701 21.224C109.946 21.832 110.09 22.5147 110.133 23.272C110.154 23.5493 110.165 23.8267 110.165 24.104C110.165 24.3813 110.159 24.6373 110.149 24.872C110.149 25.096 110.143 25.2613 110.133 25.368C110.101 25.8907 109.994 26.328 109.813 26.68C109.631 27.032 109.381 27.2987 109.061 27.48C108.751 27.6507 108.383 27.736 107.957 27.736C107.605 27.736 107.306 27.6773 107.061 27.56C106.815 27.4427 106.623 27.3147 106.485 27.176C106.346 27.0267 106.245 26.9093 106.181 26.824C106.095 26.9627 105.973 27.1173 105.812 27.288C105.663 27.4587 105.455 27.6027 105.189 27.72C104.922 27.8373 104.575 27.896 104.149 27.896C103.359 27.896 102.73 27.6133 102.261 27.048C101.791 26.4827 101.557 25.6773 101.557 24.632C101.557 23.5867 101.791 22.7813 102.261 22.216C102.73 21.64 103.359 21.352 104.149 21.352C104.586 21.352 104.927 21.432 105.173 21.592C105.429 21.752 105.631 21.928 105.781 22.12V21.848C105.781 21.7413 105.813 21.656 105.877 21.592C105.951 21.5173 106.042 21.48 106.149 21.48H106.581C106.687 21.48 106.773 21.5173 106.837 21.592C106.911 21.656 106.949 21.7413 106.949 21.848V25.256C106.949 25.7147 107.045 26.056 107.237 26.28C107.429 26.504 107.669 26.616 107.957 26.616C108.245 26.616 108.458 26.536 108.597 26.376C108.746 26.216 108.842 26.0293 108.885 25.816C108.938 25.592 108.965 25.4053 108.965 25.256C108.975 25.096 108.986 24.84 108.997 24.488C109.007 24.136 108.997 23.7573 108.965 23.352C108.901 22.5093 108.703 21.8 108.373 21.224C108.053 20.648 107.562 20.2107 106.901 19.912C106.25 19.6133 105.391 19.464 104.325 19.464C103.45 19.464 102.703 19.624 102.085 19.944C101.466 20.2533 100.975 20.696 100.613 21.272C100.261 21.848 100.037 22.5413 99.9405 23.352C99.9192 23.5333 99.9032 23.7893 99.8925 24.12C99.8925 24.4507 99.8925 24.7867 99.8925 25.128C99.9032 25.4587 99.9192 25.7253 99.9405 25.928C100.069 27.1547 100.506 28.104 101.253 28.776C102.01 29.4373 103.055 29.768 104.389 29.768C105.157 29.768 105.765 29.704 106.213 29.576C106.661 29.4587 107.002 29.3147 107.237 29.144C107.482 28.984 107.679 28.8507 107.829 28.744C107.882 28.7013 107.941 28.6587 108.005 28.616C108.069 28.5627 108.149 28.536 108.245 28.536H108.885C108.981 28.536 109.061 28.5733 109.125 28.648C109.199 28.712 109.237 28.792 109.237 28.888C109.237 28.9307 109.226 28.968 109.205 29C109.194 29.0427 109.173 29.08 109.141 29.112C108.863 29.4213 108.517 29.7093 108.101 29.976C107.685 30.2533 107.173 30.472 106.565 30.632C105.967 30.8027 105.242 30.888 104.389 30.888ZM104.245 26.776C104.81 26.776 105.205 26.584 105.429 26.2C105.663 25.8053 105.781 25.2827 105.781 24.632C105.781 23.9813 105.663 23.4587 105.429 23.064C105.205 22.6693 104.81 22.472 104.245 22.472C103.701 22.472 103.311 22.6693 103.077 23.064C102.842 23.4587 102.725 23.9813 102.725 24.632C102.725 25.016 102.773 25.3733 102.869 25.704C102.975 26.024 103.141 26.2853 103.365 26.488C103.589 26.68 103.882 26.776 104.245 26.776ZM115.717 32.52C114.992 32.52 114.394 32.424 113.925 32.232C113.466 32.04 113.104 31.8053 112.837 31.528C112.581 31.2613 112.394 30.9893 112.277 30.712C112.17 30.4453 112.112 30.232 112.101 30.072C112.09 29.9653 112.122 29.8747 112.197 29.8C112.282 29.7253 112.373 29.688 112.469 29.688H113.237C113.333 29.688 113.413 29.7093 113.477 29.752C113.541 29.7947 113.594 29.8853 113.637 30.024C113.701 30.184 113.797 30.36 113.925 30.552C114.053 30.7547 114.25 30.9253 114.517 31.064C114.784 31.2133 115.157 31.288 115.637 31.288C116.138 31.288 116.56 31.2187 116.901 31.08C117.242 30.952 117.498 30.7173 117.669 30.376C117.85 30.0453 117.941 29.5867 117.941 29V27.912C117.685 28.2427 117.349 28.52 116.933 28.744C116.517 28.9573 115.994 29.064 115.365 29.064C114.768 29.064 114.256 28.9627 113.829 28.76C113.402 28.5467 113.05 28.264 112.773 27.912C112.506 27.5493 112.304 27.1387 112.165 26.68C112.037 26.2213 111.962 25.7413 111.941 25.24C111.93 24.9413 111.93 24.648 111.941 24.36C111.962 23.8587 112.037 23.3787 112.165 22.92C112.304 22.4613 112.506 22.0507 112.773 21.688C113.05 21.3253 113.402 21.0427 113.829 20.84C114.256 20.6267 114.768 20.52 115.365 20.52C116.005 20.52 116.533 20.6427 116.949 20.888C117.376 21.1227 117.722 21.4107 117.989 21.752V21.064C117.989 20.9573 118.021 20.8667 118.085 20.792C118.16 20.7173 118.25 20.68 118.357 20.68H119.093C119.2 20.68 119.29 20.7173 119.365 20.792C119.44 20.8667 119.477 20.9573 119.477 21.064V28.824C119.477 29.5387 119.354 30.1733 119.109 30.728C118.874 31.2827 118.48 31.72 117.925 32.04C117.381 32.36 116.645 32.52 115.717 32.52ZM115.685 27.784C116.218 27.784 116.645 27.6613 116.965 27.416C117.296 27.1707 117.536 26.8613 117.685 26.488C117.845 26.1147 117.93 25.736 117.941 25.352C117.952 25.2027 117.957 25.0213 117.957 24.808C117.957 24.584 117.952 24.3973 117.941 24.248C117.93 23.864 117.845 23.4853 117.685 23.112C117.536 22.7387 117.296 22.4293 116.965 22.184C116.645 21.9387 116.218 21.816 115.685 21.816C115.152 21.816 114.725 21.9387 114.405 22.184C114.085 22.4187 113.856 22.7333 113.717 23.128C113.578 23.512 113.498 23.928 113.477 24.376C113.466 24.6533 113.466 24.936 113.477 25.224C113.498 25.672 113.578 26.0933 113.717 26.488C113.856 26.872 114.085 27.1867 114.405 27.432C114.725 27.6667 115.152 27.784 115.685 27.784ZM122.224 29C122.117 29 122.027 28.968 121.952 28.904C121.888 28.8293 121.856 28.7387 121.856 28.632V21.048C121.856 20.9413 121.888 20.856 121.952 20.792C122.027 20.7173 122.117 20.68 122.224 20.68H122.944C123.051 20.68 123.136 20.7173 123.2 20.792C123.275 20.856 123.312 20.9413 123.312 21.048V21.608C123.557 21.2773 123.867 21.016 124.24 20.824C124.613 20.6213 125.061 20.52 125.584 20.52C126.789 20.5093 127.643 21 128.144 21.992C128.389 21.544 128.747 21.1867 129.216 20.92C129.685 20.6533 130.219 20.52 130.816 20.52C131.371 20.52 131.872 20.648 132.32 20.904C132.779 21.16 133.136 21.5493 133.392 22.072C133.659 22.584 133.792 23.2293 133.792 24.008V28.632C133.792 28.7387 133.755 28.8293 133.68 28.904C133.616 28.968 133.531 29 133.424 29H132.672C132.565 29 132.475 28.968 132.4 28.904C132.336 28.8293 132.304 28.7387 132.304 28.632V24.152C132.304 23.5547 132.219 23.0853 132.048 22.744C131.877 22.4027 131.648 22.1627 131.36 22.024C131.072 21.8853 130.757 21.816 130.416 21.816C130.139 21.816 129.856 21.8853 129.568 22.024C129.28 22.1627 129.04 22.4027 128.848 22.744C128.667 23.0853 128.576 23.5547 128.576 24.152V28.632C128.576 28.7387 128.539 28.8293 128.464 28.904C128.4 28.968 128.315 29 128.208 29H127.456C127.349 29 127.259 28.968 127.184 28.904C127.12 28.8293 127.088 28.7387 127.088 28.632V24.152C127.088 23.5547 126.997 23.0853 126.816 22.744C126.635 22.4027 126.4 22.1627 126.112 22.024C125.824 21.8853 125.52 21.816 125.2 21.816C124.923 21.816 124.64 21.8853 124.352 22.024C124.064 22.1627 123.824 22.4027 123.632 22.744C123.451 23.0853 123.36 23.5493 123.36 24.136V28.632C123.36 28.7387 123.323 28.8293 123.248 28.904C123.184 28.968 123.099 29 122.992 29H122.224ZM138.395 29.16C137.861 29.16 137.376 29.0533 136.939 28.84C136.501 28.6267 136.149 28.3387 135.883 27.976C135.616 27.6133 135.483 27.2027 135.483 26.744C135.483 26.008 135.781 25.4213 136.379 24.984C136.976 24.5467 137.755 24.2587 138.715 24.12L141.099 23.784V23.32C141.099 22.808 140.949 22.408 140.651 22.12C140.363 21.832 139.888 21.688 139.227 21.688C138.747 21.688 138.357 21.784 138.059 21.976C137.771 22.168 137.568 22.4133 137.451 22.712C137.387 22.872 137.275 22.952 137.115 22.952H136.395C136.277 22.952 136.187 22.92 136.123 22.856C136.069 22.7813 136.043 22.696 136.043 22.6C136.043 22.44 136.101 22.2427 136.219 22.008C136.347 21.7733 136.539 21.544 136.795 21.32C137.051 21.096 137.376 20.9093 137.771 20.76C138.176 20.6 138.667 20.52 139.243 20.52C139.883 20.52 140.421 20.6053 140.859 20.776C141.296 20.936 141.637 21.1547 141.883 21.432C142.139 21.7093 142.32 22.024 142.427 22.376C142.544 22.728 142.603 23.0853 142.603 23.448V28.632C142.603 28.7387 142.565 28.8293 142.491 28.904C142.427 28.968 142.341 29 142.235 29H141.499C141.381 29 141.291 28.968 141.227 28.904C141.163 28.8293 141.131 28.7387 141.131 28.632V27.944C140.992 28.136 140.805 28.328 140.571 28.52C140.336 28.7013 140.043 28.856 139.691 28.984C139.339 29.1013 138.907 29.16 138.395 29.16ZM138.731 27.96C139.168 27.96 139.568 27.8693 139.931 27.688C140.293 27.496 140.576 27.2027 140.779 26.808C140.992 26.4133 141.099 25.9173 141.099 25.32V24.872L139.243 25.144C138.485 25.2507 137.915 25.432 137.531 25.688C137.147 25.9333 136.955 26.248 136.955 26.632C136.955 26.9307 137.04 27.1813 137.211 27.384C137.392 27.576 137.616 27.72 137.883 27.816C138.16 27.912 138.443 27.96 138.731 27.96ZM145.271 29C145.164 29 145.073 28.968 144.999 28.904C144.935 28.8293 144.903 28.7387 144.903 28.632V21.048C144.903 20.9413 144.935 20.856 144.999 20.792C145.073 20.7173 145.164 20.68 145.271 20.68H146.039C146.145 20.68 146.231 20.7173 146.295 20.792C146.359 20.856 146.391 20.9413 146.391 21.048V28.632C146.391 28.7387 146.359 28.8293 146.295 28.904C146.231 28.968 146.145 29 146.039 29H145.271ZM145.143 19.128C145.036 19.128 144.945 19.096 144.871 19.032C144.807 18.9573 144.775 18.8667 144.775 18.76V17.896C144.775 17.7893 144.807 17.704 144.871 17.64C144.945 17.5653 145.036 17.528 145.143 17.528H146.151C146.257 17.528 146.343 17.5653 146.407 17.64C146.481 17.704 146.519 17.7893 146.519 17.896V18.76C146.519 18.8667 146.481 18.9573 146.407 19.032C146.343 19.096 146.257 19.128 146.151 19.128H145.143ZM149.162 29C149.055 29 148.964 28.968 148.89 28.904C148.826 28.8293 148.794 28.7387 148.794 28.632V18.008C148.794 17.9013 148.826 17.816 148.89 17.752C148.964 17.6773 149.055 17.64 149.162 17.64H149.914C150.031 17.64 150.122 17.6773 150.186 17.752C150.25 17.816 150.282 17.9013 150.282 18.008V28.632C150.282 28.7387 150.25 28.8293 150.186 28.904C150.122 28.968 150.031 29 149.914 29H149.162ZM152.924 29C152.818 29 152.727 28.968 152.652 28.904C152.588 28.8293 152.556 28.7387 152.556 28.632V27.48C152.556 27.3733 152.588 27.288 152.652 27.224C152.727 27.1493 152.818 27.112 152.924 27.112H154.076C154.183 27.112 154.268 27.1493 154.332 27.224C154.407 27.288 154.444 27.3733 154.444 27.48V28.632C154.444 28.7387 154.407 28.8293 154.332 28.904C154.268 28.968 154.183 29 154.076 29H152.924ZM159.903 29.16C159.146 29.16 158.49 29.016 157.935 28.728C157.391 28.4293 156.97 28.008 156.671 27.464C156.373 26.9093 156.213 26.248 156.191 25.48C156.181 25.32 156.175 25.1067 156.175 24.84C156.175 24.5733 156.181 24.36 156.191 24.2C156.213 23.432 156.373 22.776 156.671 22.232C156.97 21.6773 157.391 21.256 157.935 20.968C158.49 20.6693 159.146 20.52 159.903 20.52C160.522 20.52 161.05 20.6053 161.487 20.776C161.935 20.9467 162.303 21.1653 162.591 21.432C162.879 21.6987 163.093 21.9867 163.231 22.296C163.381 22.6053 163.461 22.8987 163.471 23.176C163.482 23.2827 163.45 23.368 163.375 23.432C163.301 23.496 163.21 23.528 163.103 23.528H162.335C162.229 23.528 162.149 23.5067 162.095 23.464C162.042 23.4107 161.989 23.3253 161.935 23.208C161.743 22.6853 161.482 22.3173 161.151 22.104C160.821 21.8907 160.41 21.784 159.919 21.784C159.279 21.784 158.757 21.9813 158.351 22.376C157.957 22.7707 157.743 23.4053 157.711 24.28C157.701 24.664 157.701 25.0373 157.711 25.4C157.743 26.2853 157.957 26.9253 158.351 27.32C158.757 27.704 159.279 27.896 159.919 27.896C160.41 27.896 160.821 27.7893 161.151 27.576C161.482 27.3627 161.743 26.9947 161.935 26.472C161.989 26.3547 162.042 26.2747 162.095 26.232C162.149 26.1787 162.229 26.152 162.335 26.152H163.103C163.21 26.152 163.301 26.184 163.375 26.248C163.45 26.312 163.482 26.3973 163.471 26.504C163.461 26.728 163.413 26.9573 163.327 27.192C163.242 27.4267 163.103 27.6667 162.911 27.912C162.73 28.1467 162.501 28.36 162.223 28.552C161.946 28.7333 161.61 28.8827 161.215 29C160.831 29.1067 160.394 29.16 159.903 29.16ZM168.78 29.16C167.969 29.16 167.292 29.0053 166.748 28.696C166.204 28.3867 165.788 27.96 165.5 27.416C165.212 26.8613 165.052 26.232 165.02 25.528C165.009 25.3467 165.004 25.1173 165.004 24.84C165.004 24.552 165.009 24.3227 165.02 24.152C165.052 23.4373 165.212 22.808 165.5 22.264C165.798 21.72 166.22 21.2933 166.764 20.984C167.308 20.6747 167.98 20.52 168.78 20.52C169.58 20.52 170.252 20.6747 170.796 20.984C171.34 21.2933 171.756 21.72 172.044 22.264C172.342 22.808 172.508 23.4373 172.54 24.152C172.55 24.3227 172.556 24.552 172.556 24.84C172.556 25.1173 172.55 25.3467 172.54 25.528C172.508 26.232 172.348 26.8613 172.06 27.416C171.772 27.96 171.356 28.3867 170.812 28.696C170.268 29.0053 169.59 29.16 168.78 29.16ZM168.78 27.928C169.441 27.928 169.969 27.72 170.364 27.304C170.758 26.8773 170.972 26.2587 171.004 25.448C171.014 25.288 171.02 25.0853 171.02 24.84C171.02 24.5947 171.014 24.392 171.004 24.232C170.972 23.4213 170.758 22.808 170.364 22.392C169.969 21.9653 169.441 21.752 168.78 21.752C168.118 21.752 167.585 21.9653 167.18 22.392C166.785 22.808 166.577 23.4213 166.556 24.232C166.545 24.392 166.539 24.5947 166.539 24.84C166.539 25.0853 166.545 25.288 166.556 25.448C166.577 26.2587 166.785 26.8773 167.18 27.304C167.585 27.72 168.118 27.928 168.78 27.928ZM174.927 29C174.82 29 174.73 28.968 174.655 28.904C174.591 28.8293 174.559 28.7387 174.559 28.632V21.048C174.559 20.9413 174.591 20.856 174.655 20.792C174.73 20.7173 174.82 20.68 174.927 20.68H175.647C175.754 20.68 175.839 20.7173 175.903 20.792C175.978 20.856 176.015 20.9413 176.015 21.048V21.608C176.26 21.2773 176.57 21.016 176.943 20.824C177.316 20.6213 177.764 20.52 178.287 20.52C179.492 20.5093 180.346 21 180.847 21.992C181.092 21.544 181.45 21.1867 181.919 20.92C182.388 20.6533 182.922 20.52 183.519 20.52C184.074 20.52 184.575 20.648 185.023 20.904C185.482 21.16 185.839 21.5493 186.095 22.072C186.362 22.584 186.495 23.2293 186.495 24.008V28.632C186.495 28.7387 186.458 28.8293 186.383 28.904C186.319 28.968 186.234 29 186.127 29H185.375C185.268 29 185.178 28.968 185.103 28.904C185.039 28.8293 185.007 28.7387 185.007 28.632V24.152C185.007 23.5547 184.922 23.0853 184.751 22.744C184.58 22.4027 184.351 22.1627 184.063 22.024C183.775 21.8853 183.46 21.816 183.119 21.816C182.842 21.816 182.559 21.8853 182.271 22.024C181.983 22.1627 181.743 22.4027 181.551 22.744C181.37 23.0853 181.279 23.5547 181.279 24.152V28.632C181.279 28.7387 181.242 28.8293 181.167 28.904C181.103 28.968 181.018 29 180.911 29H180.159C180.052 29 179.962 28.968 179.887 28.904C179.823 28.8293 179.791 28.7387 179.791 28.632V24.152C179.791 23.5547 179.7 23.0853 179.519 22.744C179.338 22.4027 179.103 22.1627 178.815 22.024C178.527 21.8853 178.223 21.816 177.903 21.816C177.626 21.816 177.343 21.8853 177.055 22.024C176.767 22.1627 176.527 22.4027 176.335 22.744C176.154 23.0853 176.063 23.5493 176.063 24.136V28.632C176.063 28.7387 176.026 28.8293 175.951 28.904C175.887 28.968 175.802 29 175.695 29H174.927Z" fill="white"/>
<circle cx="220" cy="24" r="14" fill="white"/>
<path d="M226.395 18.6966C225.827 18.2204 224.973 18.2786 224.479 18.8346L218.384 25.6917L216.078 23.4504C215.545 22.9331 214.689 22.9331 214.157 23.4504C213.614 23.9775 213.614 24.8397 214.157 25.3668L217.497 28.612C217.767 28.8743 218.133 29.0123 218.506 28.9991C218.88 28.9858 219.235 28.8221 219.486 28.5404L226.537 20.6077C227.04 20.0412 226.973 19.1816 226.395 18.6966Z" fill="white"/>
</svg>
