<svg width="24" height="24" viewBox="0 0 24 24" fill="none" xmlns="http://www.w3.org/2000/svg">
<path fill-rule="evenodd" clip-rule="evenodd" d="M5.125 18.875C4.77982 18.5298 4.77982 17.9702 5.125 17.625L17.625 5.125C17.9702 4.77982 18.5298 4.77982 18.875 5.125C19.2202 5.47018 19.2202 6.02982 18.875 6.375L6.375 18.875C6.02982 19.2202 5.47018 19.2202 5.125 18.875Z" fill="white"/>
<path fill-rule="evenodd" clip-rule="evenodd" d="M5.125 5.125C5.47018 4.77982 6.02982 4.77982 6.375 5.125L18.875 17.625C19.2202 17.9702 19.2202 18.5298 18.875 18.875C18.5298 19.2202 17.9702 19.2202 17.625 18.875L5.125 6.375C4.77982 6.02982 4.77982 5.47018 5.125 5.125Z" fill="white"/>
</svg>
