<svg width="80" height="44" viewBox="0 0 80 44" fill="none" xmlns="http://www.w3.org/2000/svg">
<rect width="80" height="44" rx="22" fill="white"/>
<path d="M25.8106 27C25.6932 27 25.5972 26.9627 25.5226 26.888C25.4479 26.8133 25.4106 26.7173 25.4106 26.6V16.2C25.4106 16.0827 25.4479 15.9867 25.5226 15.912C25.5972 15.8373 25.6932 15.8 25.8106 15.8H33.0586C33.1759 15.8 33.2719 15.8373 33.3466 15.912C33.4212 15.9867 33.4586 16.0827 33.4586 16.2V17.48C33.4586 17.5867 33.4212 17.6773 33.3466 17.752C33.2719 17.8267 33.1759 17.864 33.0586 17.864H27.8746V20.376H32.7066C32.8239 20.376 32.9199 20.4133 32.9946 20.488C33.0692 20.5627 33.1066 20.6587 33.1066 20.776V21.96C33.1066 22.0667 33.0692 22.1573 32.9946 22.232C32.9199 22.3067 32.8239 22.344 32.7066 22.344H27.8746V24.936H33.1866C33.3039 24.936 33.3999 24.9733 33.4746 25.048C33.5492 25.1227 33.5866 25.2187 33.5866 25.336V26.6C33.5866 26.7173 33.5492 26.8133 33.4746 26.888C33.3999 26.9627 33.3039 27 33.1866 27H25.8106ZM38.3538 27.16C37.8205 27.16 37.3458 27.0747 36.9298 26.904C36.5138 26.7227 36.1618 26.4667 35.8738 26.136C35.5858 25.7947 35.3671 25.3947 35.2178 24.936C35.0685 24.4667 34.9778 23.9493 34.9458 23.384C34.9351 23.1813 34.9298 23 34.9298 22.84C34.9298 22.6693 34.9351 22.488 34.9458 22.296C34.9671 21.7413 35.0525 21.2347 35.2018 20.776C35.3618 20.3173 35.5805 19.9227 35.8578 19.592C36.1458 19.2507 36.4978 18.9893 36.9138 18.808C37.3405 18.616 37.8205 18.52 38.3538 18.52C38.9085 18.52 39.3831 18.616 39.7778 18.808C40.1725 18.9893 40.4978 19.2293 40.7538 19.528V16.04C40.7538 15.9227 40.7911 15.8267 40.8658 15.752C40.9405 15.6773 41.0365 15.64 41.1538 15.64H42.8018C42.9085 15.64 42.9991 15.6773 43.0738 15.752C43.1485 15.8267 43.1858 15.9227 43.1858 16.04V26.6C43.1858 26.7173 43.1485 26.8133 43.0738 26.888C42.9991 26.9627 42.9085 27 42.8018 27H41.2658C41.1591 27 41.0685 26.9627 40.9938 26.888C40.9191 26.8133 40.8818 26.7173 40.8818 26.6V26.056C40.6151 26.376 40.2791 26.6427 39.8738 26.856C39.4685 27.0587 38.9618 27.16 38.3538 27.16ZM39.0898 25.24C39.4845 25.24 39.7991 25.1493 40.0338 24.968C40.2791 24.7867 40.4551 24.5573 40.5618 24.28C40.6791 24.0027 40.7431 23.704 40.7538 23.384C40.7751 23.1813 40.7858 22.9787 40.7858 22.776C40.7858 22.5733 40.7751 22.376 40.7538 22.184C40.7431 21.8853 40.6791 21.608 40.5618 21.352C40.4445 21.0853 40.2631 20.8667 40.0178 20.696C39.7831 20.5253 39.4738 20.44 39.0898 20.44C38.6845 20.44 38.3645 20.5307 38.1298 20.712C37.8951 20.8827 37.7245 21.112 37.6178 21.4C37.5218 21.688 37.4631 22.0027 37.4418 22.344C37.4098 22.6747 37.4098 23.0053 37.4418 23.336C37.4631 23.6773 37.5218 23.992 37.6178 24.28C37.7245 24.568 37.8951 24.8027 38.1298 24.984C38.3645 25.1547 38.6845 25.24 39.0898 25.24ZM45.6029 27C45.4963 27 45.4056 26.9627 45.3309 26.888C45.2563 26.8133 45.2189 26.7173 45.2189 26.6V19.08C45.2189 18.9627 45.2563 18.8667 45.3309 18.792C45.4056 18.7173 45.4963 18.68 45.6029 18.68H47.2029C47.3203 18.68 47.4163 18.7173 47.4909 18.792C47.5656 18.8667 47.6029 18.9627 47.6029 19.08V26.6C47.6029 26.7173 47.5656 26.8133 47.4909 26.888C47.4163 26.9627 47.3203 27 47.2029 27H45.6029ZM45.5549 17.4C45.4483 17.4 45.3576 17.3627 45.2829 17.288C45.2083 17.2133 45.1709 17.1173 45.1709 17V15.72C45.1709 15.6027 45.2083 15.5067 45.2829 15.432C45.3576 15.3467 45.4483 15.304 45.5549 15.304H47.2349C47.3523 15.304 47.4483 15.3467 47.5229 15.432C47.6083 15.5067 47.6509 15.6027 47.6509 15.72V17C47.6509 17.1173 47.6083 17.2133 47.5229 17.288C47.4483 17.3627 47.3523 17.4 47.2349 17.4H45.5549ZM53.6096 27C52.9482 27 52.3829 26.8933 51.9136 26.68C51.4442 26.456 51.0869 26.1147 50.8416 25.656C50.6069 25.1973 50.4896 24.6213 50.4896 23.928V20.568H49.2416C49.1242 20.568 49.0282 20.5307 48.9536 20.456C48.8789 20.3813 48.8416 20.2853 48.8416 20.168V19.08C48.8416 18.9627 48.8789 18.8667 48.9536 18.792C49.0282 18.7173 49.1242 18.68 49.2416 18.68H50.4896V16.04C50.4896 15.9227 50.5269 15.8267 50.6016 15.752C50.6869 15.6773 50.7829 15.64 50.8896 15.64H52.4576C52.5749 15.64 52.6709 15.6773 52.7456 15.752C52.8202 15.8267 52.8576 15.9227 52.8576 16.04V18.68H54.8576C54.9642 18.68 55.0549 18.7173 55.1296 18.792C55.2042 18.8667 55.2416 18.9627 55.2416 19.08V20.168C55.2416 20.2853 55.2042 20.3813 55.1296 20.456C55.0549 20.5307 54.9642 20.568 54.8576 20.568H52.8576V23.736C52.8576 24.1413 52.9269 24.4613 53.0656 24.696C53.2149 24.92 53.4709 25.032 53.8336 25.032H55.0016C55.1082 25.032 55.1989 25.0693 55.2736 25.144C55.3482 25.2187 55.3856 25.3093 55.3856 25.416V26.6C55.3856 26.7173 55.3482 26.8133 55.2736 26.888C55.1989 26.9627 55.1082 27 55.0016 27H53.6096Z" fill="#131313"/>
</svg>
