<svg width="128" height="56" viewBox="0 0 128 56" fill="none" xmlns="http://www.w3.org/2000/svg">
<rect width="128" height="56" rx="28" fill="#242424"/>
<path d="M40.7066 35C40.5599 35 40.4399 34.9533 40.3466 34.86C40.2532 34.7667 40.2066 34.6467 40.2066 34.5V21.5C40.2066 21.3533 40.2532 21.2333 40.3466 21.14C40.4399 21.0467 40.5599 21 40.7066 21H45.7266C47.0599 21 48.1732 21.2133 49.0666 21.64C49.9599 22.0533 50.6399 22.6667 51.1066 23.48C51.5866 24.28 51.8399 25.2733 51.8666 26.46C51.8799 27.0467 51.8866 27.56 51.8866 28C51.8866 28.44 51.8799 28.9467 51.8666 29.52C51.8266 30.76 51.5799 31.7867 51.1266 32.6C50.6732 33.4133 50.0066 34.02 49.1266 34.42C48.2466 34.8067 47.1466 35 45.8266 35H40.7066ZM43.3866 32.42H45.7266C46.3932 32.42 46.9399 32.32 47.3666 32.12C47.7932 31.92 48.1066 31.6067 48.3066 31.18C48.5199 30.74 48.6332 30.1733 48.6466 29.48C48.6599 29.0933 48.6666 28.7467 48.6666 28.44C48.6799 28.1333 48.6799 27.8267 48.6666 27.52C48.6666 27.2133 48.6599 26.8733 48.6466 26.5C48.6199 25.5 48.3599 24.7667 47.8666 24.3C47.3866 23.82 46.6399 23.58 45.6266 23.58H43.3866V32.42ZM58.9263 35.2C57.8196 35.2 56.8929 35.02 56.1463 34.66C55.3996 34.2867 54.8263 33.76 54.4263 33.08C54.0396 32.4 53.8263 31.6067 53.7863 30.7C53.7729 30.4333 53.7663 30.1333 53.7663 29.8C53.7663 29.4533 53.7729 29.1533 53.7863 28.9C53.8263 27.98 54.0529 27.1867 54.4663 26.52C54.8796 25.84 55.4596 25.32 56.2063 24.96C56.9529 24.5867 57.8596 24.4 58.9263 24.4C59.9796 24.4 60.8796 24.5867 61.6263 24.96C62.3729 25.32 62.9529 25.84 63.3663 26.52C63.7796 27.1867 64.0063 27.98 64.0463 28.9C64.0729 29.1533 64.0863 29.4533 64.0863 29.8C64.0863 30.1333 64.0729 30.4333 64.0463 30.7C64.0063 31.6067 63.7863 32.4 63.3863 33.08C62.9996 33.76 62.4329 34.2867 61.6863 34.66C60.9396 35.02 60.0196 35.2 58.9263 35.2ZM58.9263 33C59.5796 33 60.0729 32.8 60.4063 32.4C60.7396 31.9867 60.9196 31.3867 60.9463 30.6C60.9596 30.4 60.9663 30.1333 60.9663 29.8C60.9663 29.4667 60.9596 29.2 60.9463 29C60.9196 28.2267 60.7396 27.6333 60.4063 27.22C60.0729 26.8067 59.5796 26.6 58.9263 26.6C58.2729 26.6 57.7729 26.8067 57.4263 27.22C57.0929 27.6333 56.9129 28.2267 56.8863 29C56.8729 29.2 56.8663 29.4667 56.8663 29.8C56.8663 30.1333 56.8729 30.4 56.8863 30.6C56.9129 31.3867 57.0929 31.9867 57.4263 32.4C57.7729 32.8 58.2729 33 58.9263 33ZM66.658 35C66.5246 35 66.4113 34.9533 66.318 34.86C66.2246 34.7667 66.178 34.6467 66.178 34.5V25.1C66.178 24.9533 66.2246 24.8333 66.318 24.74C66.4113 24.6467 66.5246 24.6 66.658 24.6H68.618C68.7646 24.6 68.8846 24.6467 68.978 24.74C69.0713 24.8333 69.118 24.9533 69.118 25.1V25.88C69.4646 25.4533 69.9113 25.1 70.458 24.82C71.0046 24.54 71.6713 24.4 72.458 24.4C73.2446 24.4 73.9313 24.58 74.518 24.94C75.118 25.2867 75.5846 25.8 75.918 26.48C76.2646 27.1467 76.438 27.96 76.438 28.92V34.5C76.438 34.6467 76.3846 34.7667 76.278 34.86C76.1846 34.9533 76.0713 35 75.938 35H73.818C73.6713 35 73.5513 34.9533 73.458 34.86C73.3646 34.7667 73.318 34.6467 73.318 34.5V29.04C73.318 28.3333 73.1446 27.7867 72.798 27.4C72.4646 27 71.9713 26.8 71.318 26.8C70.6913 26.8 70.1913 27 69.818 27.4C69.4446 27.7867 69.258 28.3333 69.258 29.04V34.5C69.258 34.6467 69.2113 34.7667 69.118 34.86C69.0246 34.9533 68.9113 35 68.778 35H66.658ZM83.4742 35.2C81.9409 35.2 80.7209 34.7733 79.8142 33.92C78.9209 33.0667 78.4476 31.8267 78.3942 30.2C78.3942 30.0933 78.3942 29.9533 78.3942 29.78C78.3942 29.5933 78.3942 29.4467 78.3942 29.34C78.4476 28.3133 78.6809 27.4333 79.0942 26.7C79.5076 25.9533 80.0876 25.3867 80.8342 25C81.5809 24.6 82.4542 24.4 83.4542 24.4C84.5742 24.4 85.5076 24.6333 86.2542 25.1C87.0142 25.5533 87.5809 26.18 87.9542 26.98C88.3409 27.7667 88.5342 28.6733 88.5342 29.7V30.16C88.5342 30.2933 88.4809 30.4067 88.3742 30.5C88.2809 30.5933 88.1676 30.64 88.0342 30.64H81.4942C81.4942 30.6533 81.4942 30.68 81.4942 30.72C81.4942 30.7467 81.4942 30.7733 81.4942 30.8C81.5076 31.2267 81.5876 31.62 81.7342 31.98C81.8942 32.3267 82.1142 32.6067 82.3942 32.82C82.6876 33.0333 83.0342 33.14 83.4342 33.14C83.7676 33.14 84.0409 33.0933 84.2542 33C84.4676 32.9067 84.6409 32.7933 84.7742 32.66C84.9209 32.5267 85.0276 32.4133 85.0942 32.32C85.2142 32.1867 85.3076 32.1067 85.3742 32.08C85.4542 32.04 85.5742 32.02 85.7342 32.02H87.8142C87.9476 32.02 88.0542 32.06 88.1342 32.14C88.2276 32.2067 88.2676 32.3067 88.2542 32.44C88.2409 32.6533 88.1276 32.92 87.9142 33.24C87.7142 33.5467 87.4142 33.8533 87.0142 34.16C86.6142 34.4533 86.1142 34.7 85.5142 34.9C84.9276 35.1 84.2476 35.2 83.4742 35.2ZM81.4942 28.82H85.4142V28.78C85.4142 28.3 85.3342 27.8867 85.1742 27.54C85.0276 27.18 84.8076 26.9 84.5142 26.7C84.2209 26.5 83.8676 26.4 83.4542 26.4C83.0409 26.4 82.6876 26.5 82.3942 26.7C82.1009 26.9 81.8742 27.18 81.7142 27.54C81.5676 27.8867 81.4942 28.3 81.4942 28.78V28.82Z" fill="#888888"/>
</svg>
