<svg width="128" height="56" viewBox="0 0 128 56" fill="none" xmlns="http://www.w3.org/2000/svg">
<rect width="128" height="56" rx="28" fill="#242424"/>
<path d="M31.7041 35.2C30.4507 35.2 29.3841 34.9933 28.5041 34.58C27.6374 34.1533 26.9641 33.54 26.4841 32.74C26.0041 31.9267 25.7374 30.94 25.6841 29.78C25.6707 29.2333 25.6641 28.6467 25.6641 28.02C25.6641 27.3933 25.6707 26.7933 25.6841 26.22C25.7374 25.0733 26.0041 24.1 26.4841 23.3C26.9774 22.4867 27.6641 21.8667 28.5441 21.44C29.4241 21.0133 30.4774 20.8 31.7041 20.8C32.5974 20.8 33.4107 20.9133 34.1441 21.14C34.8774 21.3667 35.5107 21.6933 36.0441 22.12C36.5774 22.5467 36.9907 23.0467 37.2841 23.62C37.5774 24.1933 37.7374 24.8333 37.7641 25.54C37.7641 25.66 37.7174 25.76 37.6241 25.84C37.5441 25.92 37.4441 25.96 37.3241 25.96H35.0441C34.8841 25.96 34.7574 25.92 34.6641 25.84C34.5707 25.76 34.4974 25.6267 34.4441 25.44C34.2441 24.6533 33.9107 24.1133 33.4441 23.82C32.9774 23.5267 32.3974 23.38 31.7041 23.38C30.8774 23.38 30.2241 23.6067 29.7441 24.06C29.2641 24.5133 29.0041 25.2667 28.9641 26.32C28.9241 27.4133 28.9241 28.5333 28.9641 29.68C29.0041 30.7333 29.2641 31.4867 29.7441 31.94C30.2241 32.3933 30.8774 32.62 31.7041 32.62C32.3974 32.62 32.9774 32.4733 33.4441 32.18C33.9241 31.8733 34.2574 31.3333 34.4441 30.56C34.4974 30.36 34.5707 30.2267 34.6641 30.16C34.7574 30.08 34.8841 30.04 35.0441 30.04H37.3241C37.4441 30.04 37.5441 30.08 37.6241 30.16C37.7174 30.24 37.7641 30.34 37.7641 30.46C37.7374 31.1667 37.5774 31.8067 37.2841 32.38C36.9907 32.9533 36.5774 33.4533 36.0441 33.88C35.5107 34.3067 34.8774 34.6333 34.1441 34.86C33.4107 35.0867 32.5974 35.2 31.7041 35.2ZM44.5513 35.2C43.4446 35.2 42.5179 35.02 41.7713 34.66C41.0246 34.2867 40.4513 33.76 40.0513 33.08C39.6646 32.4 39.4513 31.6067 39.4113 30.7C39.3979 30.4333 39.3913 30.1333 39.3913 29.8C39.3913 29.4533 39.3979 29.1533 39.4113 28.9C39.4513 27.98 39.6779 27.1867 40.0913 26.52C40.5046 25.84 41.0846 25.32 41.8313 24.96C42.5779 24.5867 43.4846 24.4 44.5513 24.4C45.6046 24.4 46.5046 24.5867 47.2513 24.96C47.9979 25.32 48.5779 25.84 48.9913 26.52C49.4046 27.1867 49.6313 27.98 49.6713 28.9C49.6979 29.1533 49.7113 29.4533 49.7113 29.8C49.7113 30.1333 49.6979 30.4333 49.6713 30.7C49.6313 31.6067 49.4113 32.4 49.0113 33.08C48.6246 33.76 48.0579 34.2867 47.3113 34.66C46.5646 35.02 45.6446 35.2 44.5513 35.2ZM44.5513 33C45.2046 33 45.6979 32.8 46.0313 32.4C46.3646 31.9867 46.5446 31.3867 46.5713 30.6C46.5846 30.4 46.5913 30.1333 46.5913 29.8C46.5913 29.4667 46.5846 29.2 46.5713 29C46.5446 28.2267 46.3646 27.6333 46.0313 27.22C45.6979 26.8067 45.2046 26.6 44.5513 26.6C43.8979 26.6 43.3979 26.8067 43.0513 27.22C42.7179 27.6333 42.5379 28.2267 42.5113 29C42.4979 29.2 42.4913 29.4667 42.4913 29.8C42.4913 30.1333 42.4979 30.4 42.5113 30.6C42.5379 31.3867 42.7179 31.9867 43.0513 32.4C43.3979 32.8 43.8979 33 44.5513 33ZM52.283 35C52.1496 35 52.0363 34.9533 51.943 34.86C51.8496 34.7667 51.803 34.6467 51.803 34.5V25.1C51.803 24.9533 51.8496 24.8333 51.943 24.74C52.0363 24.6467 52.1496 24.6 52.283 24.6H54.243C54.3896 24.6 54.5096 24.6467 54.603 24.74C54.6963 24.8333 54.743 24.9533 54.743 25.1V25.88C55.0896 25.4533 55.5363 25.1 56.083 24.82C56.6296 24.54 57.2963 24.4 58.083 24.4C58.8696 24.4 59.5563 24.58 60.143 24.94C60.743 25.2867 61.2096 25.8 61.543 26.48C61.8896 27.1467 62.063 27.96 62.063 28.92V34.5C62.063 34.6467 62.0096 34.7667 61.903 34.86C61.8096 34.9533 61.6963 35 61.563 35H59.443C59.2963 35 59.1763 34.9533 59.083 34.86C58.9896 34.7667 58.943 34.6467 58.943 34.5V29.04C58.943 28.3333 58.7696 27.7867 58.423 27.4C58.0896 27 57.5963 26.8 56.943 26.8C56.3163 26.8 55.8163 27 55.443 27.4C55.0696 27.7867 54.883 28.3333 54.883 29.04V34.5C54.883 34.6467 54.8363 34.7667 54.743 34.86C54.6496 34.9533 54.5363 35 54.403 35H52.283ZM65.982 35C65.8354 35 65.7154 34.9533 65.622 34.86C65.5287 34.7667 65.482 34.6467 65.482 34.5V26.96H63.922C63.7754 26.96 63.6554 26.9133 63.562 26.82C63.4687 26.7267 63.422 26.6067 63.422 26.46V25.1C63.422 24.9533 63.4687 24.8333 63.562 24.74C63.6554 24.6467 63.7754 24.6 63.922 24.6H65.482V23.88C65.482 23.0267 65.642 22.3267 65.962 21.78C66.282 21.2333 66.7487 20.8333 67.362 20.58C67.9754 20.3267 68.7287 20.2 69.622 20.2H74.222C74.3554 20.2 74.4687 20.2467 74.562 20.34C74.6554 20.4333 74.702 20.5533 74.702 20.7V22.06C74.702 22.2067 74.6554 22.3267 74.562 22.42C74.4687 22.5133 74.3554 22.56 74.222 22.56H69.742C69.2487 22.56 68.902 22.68 68.702 22.92C68.5154 23.16 68.422 23.5133 68.422 23.98V24.6H74.222C74.3554 24.6 74.4687 24.6467 74.562 24.74C74.6554 24.8333 74.702 24.9533 74.702 25.1V34.5C74.702 34.6467 74.6554 34.7667 74.562 34.86C74.4687 34.9533 74.3554 35 74.222 35H72.262C72.1154 35 71.9954 34.9533 71.902 34.86C71.8087 34.7667 71.762 34.6467 71.762 34.5V26.96H68.422V34.5C68.422 34.6467 68.3754 34.7667 68.282 34.86C68.1887 34.9533 68.0754 35 67.942 35H65.982ZM78.2009 35C78.0676 35 77.9543 34.9533 77.8609 34.86C77.7676 34.7667 77.7209 34.6467 77.7209 34.5V25.1C77.7209 24.9667 77.7676 24.8533 77.8609 24.76C77.9543 24.6533 78.0676 24.6 78.2009 24.6H80.1609C80.2943 24.6 80.4076 24.6533 80.5009 24.76C80.6076 24.8533 80.6609 24.9667 80.6609 25.1V25.9C80.9943 25.4867 81.4009 25.1667 81.8809 24.94C82.3743 24.7133 82.9409 24.6 83.5809 24.6H84.4409C84.5743 24.6 84.6876 24.6467 84.7809 24.74C84.8743 24.8333 84.9209 24.9533 84.9209 25.1V26.82C84.9209 26.9667 84.8743 27.0867 84.7809 27.18C84.6876 27.2733 84.5743 27.32 84.4409 27.32H82.6809C82.0943 27.32 81.6343 27.4867 81.3009 27.82C80.9676 28.14 80.8009 28.6 80.8009 29.2V34.5C80.8009 34.6467 80.7543 34.7667 80.6609 34.86C80.5676 34.9533 80.4476 35 80.3009 35H78.2009ZM86.8923 35C86.759 35 86.6457 34.9533 86.5523 34.86C86.459 34.7667 86.4123 34.6467 86.4123 34.5V25.1C86.4123 24.9533 86.459 24.8333 86.5523 24.74C86.6457 24.6467 86.759 24.6 86.8923 24.6H88.7523C88.8857 24.6 88.999 24.6467 89.0923 24.74C89.199 24.8333 89.2523 24.9533 89.2523 25.1V25.78C89.519 25.4067 89.8857 25.0867 90.3523 24.82C90.8323 24.5533 91.399 24.4133 92.0523 24.4C93.599 24.3733 94.659 24.96 95.2323 26.16C95.539 25.64 95.979 25.22 96.5523 24.9C97.139 24.5667 97.779 24.4 98.4723 24.4C99.1657 24.4 99.7923 24.56 100.352 24.88C100.912 25.1867 101.352 25.6667 101.672 26.32C102.006 26.96 102.172 27.7867 102.172 28.8V34.5C102.172 34.6467 102.126 34.7667 102.032 34.86C101.939 34.9533 101.826 35 101.692 35H99.7123C99.579 35 99.4657 34.9533 99.3723 34.86C99.279 34.7667 99.2323 34.6467 99.2323 34.5V28.96C99.2323 28.4133 99.1523 27.9867 98.9923 27.68C98.8323 27.36 98.619 27.1333 98.3523 27C98.099 26.8667 97.8123 26.8 97.4923 26.8C97.2123 26.8 96.939 26.8667 96.6723 27C96.419 27.1333 96.2057 27.36 96.0323 27.68C95.8723 27.9867 95.7923 28.4133 95.7923 28.96V34.5C95.7923 34.6467 95.7457 34.7667 95.6523 34.86C95.559 34.9533 95.439 35 95.2923 35H93.3323C93.1857 35 93.0657 34.9533 92.9723 34.86C92.879 34.7667 92.8323 34.6467 92.8323 34.5V28.96C92.8323 28.4133 92.7523 27.9867 92.5923 27.68C92.4323 27.36 92.219 27.1333 91.9523 27C91.699 26.8667 91.419 26.8 91.1123 26.8C90.8323 26.8 90.559 26.8733 90.2923 27.02C90.0257 27.1533 89.8057 27.3733 89.6323 27.68C89.4723 27.9867 89.3923 28.4067 89.3923 28.94V34.5C89.3923 34.6467 89.3457 34.7667 89.2523 34.86C89.159 34.9533 89.0457 35 88.9123 35H86.8923Z" fill="#888888"/>
</svg>
