<svg width="80" height="44" viewBox="0 0 80 44" fill="none" xmlns="http://www.w3.org/2000/svg">
<rect width="80" height="44" rx="22" fill="white"/>
<path d="M20.9316 27C20.761 27 20.6223 26.9573 20.5156 26.872C20.4196 26.776 20.3503 26.664 20.3076 26.536L16.9476 16.28C16.937 16.2267 16.9316 16.1787 16.9316 16.136C16.9316 16.0507 16.9636 15.976 17.0276 15.912C17.0916 15.8373 17.1716 15.8 17.2676 15.8H18.9476C19.1076 15.8 19.2303 15.848 19.3156 15.944C19.4116 16.0293 19.4703 16.1093 19.4916 16.184L21.9876 24.008L24.4676 16.184C24.4996 16.1093 24.5583 16.0293 24.6436 15.944C24.729 15.848 24.8516 15.8 25.0116 15.8H26.6916C26.7876 15.8 26.8676 15.8373 26.9316 15.912C26.9956 15.976 27.0276 16.0507 27.0276 16.136C27.0276 16.1787 27.0223 16.2267 27.0116 16.28L23.6516 26.536C23.6196 26.664 23.5503 26.776 23.4436 26.872C23.3476 26.9573 23.209 27 23.0276 27H20.9316ZM31.2981 27.16C30.0715 27.16 29.0955 26.8187 28.3701 26.136C27.6555 25.4533 27.2768 24.4613 27.2341 23.16C27.2341 23.0747 27.2341 22.9627 27.2341 22.824C27.2341 22.6747 27.2341 22.5573 27.2341 22.472C27.2768 21.6507 27.4635 20.9467 27.7941 20.36C28.1248 19.7627 28.5888 19.3093 29.1861 19C29.7835 18.68 30.4821 18.52 31.2821 18.52C32.1781 18.52 32.9248 18.7067 33.5221 19.08C34.1301 19.4427 34.5835 19.944 34.8821 20.584C35.1915 21.2133 35.3461 21.9387 35.3461 22.76V23.128C35.3461 23.2347 35.3035 23.3253 35.2181 23.4C35.1435 23.4747 35.0528 23.512 34.9461 23.512H29.7141C29.7141 23.5227 29.7141 23.544 29.7141 23.576C29.7141 23.5973 29.7141 23.6187 29.7141 23.64C29.7248 23.9813 29.7888 24.296 29.9061 24.584C30.0341 24.8613 30.2101 25.0853 30.4341 25.256C30.6688 25.4267 30.9461 25.512 31.2661 25.512C31.5328 25.512 31.7515 25.4747 31.9221 25.4C32.0928 25.3253 32.2315 25.2347 32.3381 25.128C32.4555 25.0213 32.5408 24.9307 32.5941 24.856C32.6901 24.7493 32.7648 24.6853 32.8181 24.664C32.8821 24.632 32.9781 24.616 33.1061 24.616H34.7701C34.8768 24.616 34.9621 24.648 35.0261 24.712C35.1008 24.7653 35.1328 24.8453 35.1221 24.952C35.1115 25.1227 35.0208 25.336 34.8501 25.592C34.6901 25.8373 34.4501 26.0827 34.1301 26.328C33.8101 26.5627 33.4101 26.76 32.9301 26.92C32.4608 27.08 31.9168 27.16 31.2981 27.16ZM29.7141 22.056H32.8501V22.024C32.8501 21.64 32.7861 21.3093 32.6581 21.032C32.5408 20.744 32.3648 20.52 32.1301 20.36C31.8955 20.2 31.6128 20.12 31.2821 20.12C30.9515 20.12 30.6688 20.2 30.4341 20.36C30.1995 20.52 30.0181 20.744 29.8901 21.032C29.7728 21.3093 29.7141 21.64 29.7141 22.024V22.056ZM37.3295 27C37.2228 27 37.1322 26.9627 37.0575 26.888C36.9828 26.8133 36.9455 26.7173 36.9455 26.6V19.08C36.9455 18.9733 36.9828 18.8827 37.0575 18.808C37.1322 18.7227 37.2228 18.68 37.3295 18.68H38.8975C39.0042 18.68 39.0948 18.7227 39.1695 18.808C39.2548 18.8827 39.2975 18.9733 39.2975 19.08V19.72C39.5642 19.3893 39.8895 19.1333 40.2735 18.952C40.6682 18.7707 41.1215 18.68 41.6335 18.68H42.3215C42.4282 18.68 42.5188 18.7173 42.5935 18.792C42.6682 18.8667 42.7055 18.9627 42.7055 19.08V20.456C42.7055 20.5733 42.6682 20.6693 42.5935 20.744C42.5188 20.8187 42.4282 20.856 42.3215 20.856H40.9135C40.4442 20.856 40.0762 20.9893 39.8095 21.256C39.5428 21.512 39.4095 21.88 39.4095 22.36V26.6C39.4095 26.7173 39.3722 26.8133 39.2975 26.888C39.2228 26.9627 39.1268 27 39.0095 27H37.3295ZM44.2826 27C44.176 27 44.0853 26.9627 44.0106 26.888C43.936 26.8133 43.8986 26.7173 43.8986 26.6V19.08C43.8986 18.9627 43.936 18.8667 44.0106 18.792C44.0853 18.7173 44.176 18.68 44.2826 18.68H45.8826C46 18.68 46.096 18.7173 46.1706 18.792C46.2453 18.8667 46.2826 18.9627 46.2826 19.08V26.6C46.2826 26.7173 46.2453 26.8133 46.1706 26.888C46.096 26.9627 46 27 45.8826 27H44.2826ZM44.2346 17.4C44.128 17.4 44.0373 17.3627 43.9626 17.288C43.888 17.2133 43.8506 17.1173 43.8506 17V15.72C43.8506 15.6027 43.888 15.5067 43.9626 15.432C44.0373 15.3467 44.128 15.304 44.2346 15.304H45.9146C46.032 15.304 46.128 15.3467 46.2026 15.432C46.288 15.5067 46.3306 15.6027 46.3306 15.72V17C46.3306 17.1173 46.288 17.2133 46.2026 17.288C46.128 17.3627 46.032 17.4 45.9146 17.4H44.2346ZM49.6013 27C49.4839 27 49.3879 26.9627 49.3133 26.888C49.2386 26.8133 49.2013 26.7173 49.2013 26.6V20.568H47.9533C47.8359 20.568 47.7399 20.5307 47.6653 20.456C47.5906 20.3813 47.5533 20.2853 47.5533 20.168V19.08C47.5533 18.9627 47.5906 18.8667 47.6653 18.792C47.7399 18.7173 47.8359 18.68 47.9533 18.68H49.2013V18.104C49.2013 17.4213 49.3293 16.8613 49.5853 16.424C49.8413 15.9867 50.2146 15.6667 50.7053 15.464C51.1959 15.2613 51.7986 15.16 52.5133 15.16H53.6813C53.7986 15.16 53.8946 15.1973 53.9693 15.272C54.0439 15.3467 54.0813 15.4427 54.0813 15.56V16.648C54.0813 16.7653 54.0439 16.8613 53.9693 16.936C53.8946 17.0107 53.7986 17.048 53.6813 17.048H52.6093C52.2146 17.048 51.9373 17.144 51.7773 17.336C51.6279 17.528 51.5533 17.8107 51.5533 18.184V18.68H53.5213C53.6386 18.68 53.7346 18.7173 53.8093 18.792C53.8839 18.8667 53.9213 18.9627 53.9213 19.08V20.168C53.9213 20.2853 53.8839 20.3813 53.8093 20.456C53.7346 20.5307 53.6386 20.568 53.5213 20.568H51.5533V26.6C51.5533 26.7173 51.5159 26.8133 51.4413 26.888C51.3666 26.9627 51.2759 27 51.1693 27H49.6013ZM56.653 30.04C56.5677 30.04 56.4877 30.008 56.413 29.944C56.349 29.88 56.317 29.8 56.317 29.704C56.317 29.6827 56.3223 29.6507 56.333 29.608C56.3437 29.576 56.3597 29.5333 56.381 29.48L57.629 26.488L54.557 19.24C54.525 19.1547 54.509 19.0853 54.509 19.032C54.5197 18.936 54.557 18.856 54.621 18.792C54.685 18.7173 54.765 18.68 54.861 18.68H56.413C56.5517 18.68 56.653 18.7173 56.717 18.792C56.781 18.856 56.829 18.9253 56.861 19L58.845 23.96L60.877 19C60.9197 18.9147 60.973 18.84 61.037 18.776C61.101 18.712 61.2023 18.68 61.341 18.68H62.861C62.957 18.68 63.037 18.7173 63.101 18.792C63.1757 18.856 63.213 18.9307 63.213 19.016C63.213 19.0693 63.1917 19.144 63.149 19.24L58.621 29.72C58.589 29.8053 58.5357 29.88 58.461 29.944C58.397 30.008 58.2957 30.04 58.157 30.04H56.653Z" fill="#131313"/>
</svg>
