<svg width="40" height="40" viewBox="0 0 40 40" fill="none" xmlns="http://www.w3.org/2000/svg">
<rect width="40" height="40" rx="12" fill="#242424"/>
<path d="M20.7548 27C20.6215 27 20.5015 26.9533 20.3948 26.86C20.3015 26.7667 20.2548 26.6467 20.2548 26.5V16.56L17.3748 18.78C17.2548 18.8733 17.1282 18.9067 16.9948 18.88C16.8748 18.8533 16.7682 18.78 16.6748 18.66L15.6748 17.36C15.5948 17.24 15.5615 17.1133 15.5748 16.98C15.6015 16.8467 15.6748 16.74 15.7948 16.66L20.3548 13.14C20.4348 13.0867 20.5082 13.0533 20.5748 13.04C20.6548 13.0133 20.7415 13 20.8348 13H22.9548C23.0882 13 23.2015 13.0467 23.2948 13.14C23.3882 13.2333 23.4348 13.3533 23.4348 13.5V26.5C23.4348 26.6467 23.3882 26.7667 23.2948 26.86C23.2015 26.9533 23.0882 27 22.9548 27H20.7548Z" fill="#242424"/>
</svg>
